#
mtllib coax_Normal_Mode.mtl
usemtl ffc18484
v 9.181005e-01 -2.472485e-01 -6.183220e-01
v 9.375516e-01 -2.002894e-01 -2.118322e+00
v 9.375516e-01 -2.002894e-01 -6.183220e-01
v 9.441860e-01 -1.498960e-01 -2.118322e+00
v 9.441860e-01 -1.498960e-01 -6.183220e-01
v 9.375516e-01 -9.950264e-02 -2.118322e+00
v 9.375516e-01 -9.950264e-02 -6.183220e-01
v 9.181005e-01 -5.254350e-02 -2.118322e+00
v 9.181005e-01 -5.254350e-02 -6.183220e-01
v 8.871582e-01 -1.221877e-02 -2.118322e+00
v 8.871582e-01 -1.221877e-02 -6.183220e-01
v 8.468335e-01 1.872348e-02 -2.118322e+00
v 8.468335e-01 1.872348e-02 -6.183220e-01
v 7.998744e-01 3.817459e-02 -2.118322e+00
v 7.998744e-01 3.817459e-02 -6.183220e-01
v 7.494810e-01 4.480900e-02 -2.118322e+00
v 7.494810e-01 4.480900e-02 -6.183220e-01
v 6.990876e-01 3.817459e-02 -2.118322e+00
v 6.990876e-01 3.817459e-02 -6.183220e-01
v 6.521285e-01 1.872348e-02 -2.118322e+00
v 6.521285e-01 1.872348e-02 -6.183220e-01
v 6.118038e-01 -1.221877e-02 -2.118322e+00
v 6.118038e-01 -1.221877e-02 -6.183220e-01
v 5.808615e-01 -5.254350e-02 -2.118322e+00
v 5.808615e-01 -5.254350e-02 -6.183220e-01
v 5.614104e-01 -9.950264e-02 -2.118322e+00
v 5.614104e-01 -9.950264e-02 -6.183220e-01
v 5.547760e-01 -1.498960e-01 -2.118322e+00
v 5.547760e-01 -1.498960e-01 -6.183220e-01
v 5.614104e-01 -2.002894e-01 -2.118322e+00
v 5.614104e-01 -2.002894e-01 -6.183220e-01
v 5.808615e-01 -2.472485e-01 -2.118322e+00
v 5.808615e-01 -2.472485e-01 -6.183220e-01
v 6.118038e-01 -2.875732e-01 -2.118322e+00
v 6.118038e-01 -2.875732e-01 -6.183220e-01
v 6.521285e-01 -3.185155e-01 -2.118322e+00
v 6.521285e-01 -3.185155e-01 -6.183220e-01
v 6.990876e-01 -3.379666e-01 -2.118322e+00
v 6.990876e-01 -3.379666e-01 -6.183220e-01
v 7.494810e-01 -3.446010e-01 -2.118322e+00
v 7.494810e-01 -3.446010e-01 -6.183220e-01
v 7.998744e-01 -3.379666e-01 -2.118322e+00
v 7.998744e-01 -3.379666e-01 -6.183220e-01
v 8.468335e-01 -3.185155e-01 -2.118322e+00
v 8.468335e-01 -3.185155e-01 -6.183220e-01
v 8.871582e-01 -2.875732e-01 -2.118322e+00
v 8.871582e-01 -2.875732e-01 -6.183220e-01
v 9.181005e-01 -2.472485e-01 -2.118322e+00
v 9.181005e-01 -2.472485e-01 -6.183220e-01
v 9.375516e-01 -2.002894e-01 -2.118322e+00
vn 0.866025 -0.500000 0.000000
vn 0.965926 -0.258819 0.000000
vn 0.965926 -0.258819 0.000000
vn 1.000000 0.000000 0.000000
vn 1.000000 0.000000 0.000000
vn 0.965926 0.258819 0.000000
vn 0.965926 0.258819 0.000000
vn 0.866025 0.500000 0.000000
vn 0.866025 0.500000 0.000000
vn 0.707107 0.707107 0.000000
vn 0.707107 0.707107 0.000000
vn 0.500000 0.866025 0.000000
vn 0.500000 0.866025 0.000000
vn 0.258819 0.965926 0.000000
vn 0.258819 0.965926 0.000000
vn -0.000000 1.000000 0.000000
vn -0.000000 1.000000 0.000000
vn -0.258819 0.965926 0.000000
vn -0.258819 0.965926 0.000000
vn -0.500000 0.866025 0.000000
vn -0.500000 0.866025 0.000000
vn -0.707107 0.707107 0.000000
vn -0.707107 0.707107 0.000000
vn -0.866025 0.500000 0.000000
vn -0.866025 0.500000 0.000000
vn -0.965926 0.258819 0.000000
vn -0.965926 0.258819 0.000000
vn -1.000000 -0.000000 -0.000000
vn -1.000000 -0.000000 -0.000000
vn -0.965926 -0.258819 -0.000000
vn -0.965926 -0.258819 -0.000000
vn -0.866025 -0.500000 -0.000000
vn -0.866025 -0.500000 -0.000000
vn -0.707107 -0.707107 -0.000000
vn -0.707107 -0.707107 -0.000000
vn -0.500000 -0.866025 -0.000000
vn -0.500000 -0.866025 -0.000000
vn -0.258819 -0.965926 -0.000000
vn -0.258819 -0.965926 -0.000000
vn 0.000000 -1.000000 0.000000
vn 0.000000 -1.000000 0.000000
vn 0.258819 -0.965926 0.000000
vn 0.258819 -0.965926 0.000000
vn 0.500000 -0.866025 0.000000
vn 0.500000 -0.866025 0.000000
vn 0.707107 -0.707107 0.000000
vn 0.707107 -0.707107 0.000000
vn 0.866025 -0.500000 0.000000
vn 0.866025 -0.500000 0.000000
vn 0.965926 -0.258819 0.000000
f -50//-50 -49//-49 -48//-48
f -48//-48 -49//-49 -47//-47
f -48//-48 -47//-47 -46//-46
f -46//-46 -47//-47 -45//-45
f -46//-46 -45//-45 -44//-44
f -44//-44 -45//-45 -43//-43
f -44//-44 -43//-43 -42//-42
f -42//-42 -43//-43 -41//-41
f -42//-42 -41//-41 -40//-40
f -40//-40 -41//-41 -39//-39
f -40//-40 -39//-39 -38//-38
f -38//-38 -39//-39 -37//-37
f -38//-38 -37//-37 -36//-36
f -36//-36 -37//-37 -35//-35
f -36//-36 -35//-35 -34//-34
f -34//-34 -35//-35 -33//-33
f -34//-34 -33//-33 -32//-32
f -32//-32 -33//-33 -31//-31
f -32//-32 -31//-31 -30//-30
f -30//-30 -31//-31 -29//-29
f -30//-30 -29//-29 -28//-28
f -28//-28 -29//-29 -27//-27
f -28//-28 -27//-27 -26//-26
f -26//-26 -27//-27 -25//-25
f -26//-26 -25//-25 -24//-24
f -24//-24 -25//-25 -23//-23
f -24//-24 -23//-23 -22//-22
f -22//-22 -23//-23 -21//-21
f -22//-22 -21//-21 -20//-20
f -20//-20 -21//-21 -19//-19
f -20//-20 -19//-19 -18//-18
f -18//-18 -19//-19 -17//-17
f -18//-18 -17//-17 -16//-16
f -16//-16 -17//-17 -15//-15
f -16//-16 -15//-15 -14//-14
f -14//-14 -15//-15 -13//-13
f -14//-14 -13//-13 -12//-12
f -12//-12 -13//-13 -11//-11
f -12//-12 -11//-11 -10//-10
f -10//-10 -11//-11 -9//-9
f -10//-10 -9//-9 -8//-8
f -8//-8 -9//-9 -7//-7
f -8//-8 -7//-7 -6//-6
f -6//-6 -7//-7 -5//-5
f -6//-6 -5//-5 -4//-4
f -4//-4 -5//-5 -3//-3
f -4//-4 -3//-3 -2//-2
f -2//-2 -3//-3 -1//-1
v 9.441860e-01 -1.498960e-01 -2.118322e+00
v 9.375516e-01 -2.002894e-01 -2.118322e+00
v 7.494810e-01 -1.498960e-01 -2.118322e+00
v 9.181005e-01 -2.472485e-01 -2.118322e+00
v 8.871582e-01 -2.875732e-01 -2.118322e+00
vn 0.000000 0.000000 -1.000000
vn 0.000000 0.000000 -1.000000
vn 0.000000 0.000000 -1.000000
vn 0.000000 0.000000 -1.000000
vn 0.000000 0.000000 -1.000000
f -5//-5 -4//-4 -3//-3
f -3//-3 -4//-4 -2//-2
f -3//-3 -2//-2 -1//-1
v 8.871582e-01 -2.875732e-01 -2.118322e+00
v 8.468335e-01 -3.185155e-01 -2.118322e+00
v 7.494810e-01 -1.498960e-01 -2.118322e+00
v 7.998744e-01 -3.379666e-01 -2.118322e+00
v 7.494810e-01 -3.446010e-01 -2.118322e+00
vn 0.000000 0.000000 -1.000000
vn 0.000000 0.000000 -1.000000
vn 0.000000 0.000000 -1.000000
vn 0.000000 0.000000 -1.000000
vn 0.000000 0.000000 -1.000000
f -5//-5 -4//-4 -3//-3
f -3//-3 -4//-4 -2//-2
f -3//-3 -2//-2 -1//-1
v 7.494810e-01 -3.446010e-01 -2.118322e+00
v 6.990876e-01 -3.379666e-01 -2.118322e+00
v 7.494810e-01 -1.498960e-01 -2.118322e+00
v 6.521285e-01 -3.185155e-01 -2.118322e+00
v 6.118038e-01 -2.875732e-01 -2.118322e+00
vn 0.000000 0.000000 -1.000000
vn 0.000000 0.000000 -1.000000
vn 0.000000 0.000000 -1.000000
vn 0.000000 0.000000 -1.000000
vn 0.000000 0.000000 -1.000000
f -5//-5 -4//-4 -3//-3
f -3//-3 -4//-4 -2//-2
f -3//-3 -2//-2 -1//-1
v 6.118038e-01 -2.875732e-01 -2.118322e+00
v 5.808615e-01 -2.472485e-01 -2.118322e+00
v 7.494810e-01 -1.498960e-01 -2.118322e+00
v 5.614104e-01 -2.002894e-01 -2.118322e+00
v 5.547760e-01 -1.498960e-01 -2.118322e+00
vn 0.000000 0.000000 -1.000000
vn 0.000000 0.000000 -1.000000
vn 0.000000 0.000000 -1.000000
vn 0.000000 0.000000 -1.000000
vn 0.000000 0.000000 -1.000000
f -5//-5 -4//-4 -3//-3
f -3//-3 -4//-4 -2//-2
f -3//-3 -2//-2 -1//-1
v 5.547760e-01 -1.498960e-01 -2.118322e+00
v 5.614104e-01 -9.950264e-02 -2.118322e+00
v 7.494810e-01 -1.498960e-01 -2.118322e+00
v 5.808615e-01 -5.254350e-02 -2.118322e+00
v 6.118038e-01 -1.221877e-02 -2.118322e+00
vn 0.000000 0.000000 -1.000000
vn 0.000000 0.000000 -1.000000
vn 0.000000 0.000000 -1.000000
vn 0.000000 0.000000 -1.000000
vn 0.000000 0.000000 -1.000000
f -5//-5 -4//-4 -3//-3
f -3//-3 -4//-4 -2//-2
f -3//-3 -2//-2 -1//-1
v 6.118038e-01 -1.221877e-02 -2.118322e+00
v 6.521285e-01 1.872348e-02 -2.118322e+00
v 7.494810e-01 -1.498960e-01 -2.118322e+00
v 6.990876e-01 3.817459e-02 -2.118322e+00
v 7.494810e-01 4.480900e-02 -2.118322e+00
vn 0.000000 0.000000 -1.000000
vn 0.000000 0.000000 -1.000000
vn 0.000000 0.000000 -1.000000
vn 0.000000 0.000000 -1.000000
vn 0.000000 0.000000 -1.000000
f -5//-5 -4//-4 -3//-3
f -3//-3 -4//-4 -2//-2
f -3//-3 -2//-2 -1//-1
v 7.494810e-01 4.480900e-02 -2.118322e+00
v 7.998744e-01 3.817459e-02 -2.118322e+00
v 7.494810e-01 -1.498960e-01 -2.118322e+00
v 8.468335e-01 1.872348e-02 -2.118322e+00
v 8.871582e-01 -1.221877e-02 -2.118322e+00
vn 0.000000 0.000000 -1.000000
vn 0.000000 0.000000 -1.000000
vn 0.000000 0.000000 -1.000000
vn 0.000000 0.000000 -1.000000
vn 0.000000 0.000000 -1.000000
f -5//-5 -4//-4 -3//-3
f -3//-3 -4//-4 -2//-2
f -3//-3 -2//-2 -1//-1
v 8.871582e-01 -1.221877e-02 -2.118322e+00
v 9.181005e-01 -5.254350e-02 -2.118322e+00
v 7.494810e-01 -1.498960e-01 -2.118322e+00
v 9.375516e-01 -9.950264e-02 -2.118322e+00
v 9.441860e-01 -1.498960e-01 -2.118322e+00
vn 0.000000 0.000000 -1.000000
vn 0.000000 0.000000 -1.000000
vn 0.000000 0.000000 -1.000000
vn 0.000000 0.000000 -1.000000
vn 0.000000 0.000000 -1.000000
f -5//-5 -4//-4 -3//-3
f -3//-3 -4//-4 -2//-2
f -3//-3 -2//-2 -1//-1
v 9.441860e-01 -1.498960e-01 -6.183220e-01
v 9.375516e-01 -9.950264e-02 -6.183220e-01
v 7.494810e-01 -1.498960e-01 -6.183220e-01
v 9.181005e-01 -5.254350e-02 -6.183220e-01
v 8.871582e-01 -1.221877e-02 -6.183220e-01
vn -0.000000 -0.000000 1.000000
vn -0.000000 -0.000000 1.000000
vn -0.000000 -0.000000 1.000000
vn -0.000000 -0.000000 1.000000
vn -0.000000 -0.000000 1.000000
f -5//-5 -4//-4 -3//-3
f -3//-3 -4//-4 -2//-2
f -3//-3 -2//-2 -1//-1
v 8.871582e-01 -1.221877e-02 -6.183220e-01
v 8.468335e-01 1.872348e-02 -6.183220e-01
v 7.494810e-01 -1.498960e-01 -6.183220e-01
v 7.998744e-01 3.817459e-02 -6.183220e-01
v 7.494810e-01 4.480900e-02 -6.183220e-01
vn -0.000000 -0.000000 1.000000
vn -0.000000 -0.000000 1.000000
vn -0.000000 -0.000000 1.000000
vn -0.000000 -0.000000 1.000000
vn -0.000000 -0.000000 1.000000
f -5//-5 -4//-4 -3//-3
f -3//-3 -4//-4 -2//-2
f -3//-3 -2//-2 -1//-1
v 7.494810e-01 4.480900e-02 -6.183220e-01
v 6.990876e-01 3.817459e-02 -6.183220e-01
v 7.494810e-01 -1.498960e-01 -6.183220e-01
v 6.521285e-01 1.872348e-02 -6.183220e-01
v 6.118038e-01 -1.221877e-02 -6.183220e-01
vn -0.000000 -0.000000 1.000000
vn -0.000000 -0.000000 1.000000
vn -0.000000 -0.000000 1.000000
vn -0.000000 -0.000000 1.000000
vn -0.000000 -0.000000 1.000000
f -5//-5 -4//-4 -3//-3
f -3//-3 -4//-4 -2//-2
f -3//-3 -2//-2 -1//-1
v 6.118038e-01 -1.221877e-02 -6.183220e-01
v 5.808615e-01 -5.254350e-02 -6.183220e-01
v 7.494810e-01 -1.498960e-01 -6.183220e-01
v 5.614104e-01 -9.950264e-02 -6.183220e-01
v 5.547760e-01 -1.498960e-01 -6.183220e-01
vn -0.000000 -0.000000 1.000000
vn -0.000000 -0.000000 1.000000
vn -0.000000 -0.000000 1.000000
vn -0.000000 -0.000000 1.000000
vn -0.000000 -0.000000 1.000000
f -5//-5 -4//-4 -3//-3
f -3//-3 -4//-4 -2//-2
f -3//-3 -2//-2 -1//-1
v 5.547760e-01 -1.498960e-01 -6.183220e-01
v 5.614104e-01 -2.002894e-01 -6.183220e-01
v 7.494810e-01 -1.498960e-01 -6.183220e-01
v 5.808615e-01 -2.472485e-01 -6.183220e-01
v 6.118038e-01 -2.875732e-01 -6.183220e-01
vn -0.000000 -0.000000 1.000000
vn -0.000000 -0.000000 1.000000
vn -0.000000 -0.000000 1.000000
vn -0.000000 -0.000000 1.000000
vn -0.000000 -0.000000 1.000000
f -5//-5 -4//-4 -3//-3
f -3//-3 -4//-4 -2//-2
f -3//-3 -2//-2 -1//-1
v 6.118038e-01 -2.875732e-01 -6.183220e-01
v 6.521285e-01 -3.185155e-01 -6.183220e-01
v 7.494810e-01 -1.498960e-01 -6.183220e-01
v 6.990876e-01 -3.379666e-01 -6.183220e-01
v 7.494810e-01 -3.446010e-01 -6.183220e-01
vn -0.000000 -0.000000 1.000000
vn -0.000000 -0.000000 1.000000
vn -0.000000 -0.000000 1.000000
vn -0.000000 -0.000000 1.000000
vn -0.000000 -0.000000 1.000000
f -5//-5 -4//-4 -3//-3
f -3//-3 -4//-4 -2//-2
f -3//-3 -2//-2 -1//-1
v 7.494810e-01 -3.446010e-01 -6.183220e-01
v 7.998744e-01 -3.379666e-01 -6.183220e-01
v 7.494810e-01 -1.498960e-01 -6.183220e-01
v 8.468335e-01 -3.185155e-01 -6.183220e-01
v 8.871582e-01 -2.875732e-01 -6.183220e-01
vn -0.000000 -0.000000 1.000000
vn -0.000000 -0.000000 1.000000
vn -0.000000 -0.000000 1.000000
vn -0.000000 -0.000000 1.000000
vn -0.000000 -0.000000 1.000000
f -5//-5 -4//-4 -3//-3
f -3//-3 -4//-4 -2//-2
f -3//-3 -2//-2 -1//-1
v 8.871582e-01 -2.875732e-01 -6.183220e-01
v 9.181005e-01 -2.472485e-01 -6.183220e-01
v 7.494810e-01 -1.498960e-01 -6.183220e-01
v 9.375516e-01 -2.002894e-01 -6.183220e-01
v 9.441860e-01 -1.498960e-01 -6.183220e-01
vn -0.000000 -0.000000 1.000000
vn -0.000000 -0.000000 1.000000
vn -0.000000 -0.000000 1.000000
vn -0.000000 -0.000000 1.000000
vn -0.000000 -0.000000 1.000000
f -5//-5 -4//-4 -3//-3
f -3//-3 -4//-4 -2//-2
f -3//-3 -2//-2 -1//-1
