#
mtllib Feed_Normal_Mode.mtl
usemtl ffe8f2f7
v 8.872291e-01 -9.078363e-02 -6.183220e-01
v 8.963086e-01 -1.197222e-01 0.000000e+00
v 8.963086e-01 -1.197222e-01 -6.183220e-01
v 8.993770e-01 -1.498960e-01 0.000000e+00
v 8.993770e-01 -1.498960e-01 -6.183220e-01
v 8.963086e-01 -1.800698e-01 0.000000e+00
v 8.963086e-01 -1.800698e-01 -6.183220e-01
v 8.872291e-01 -2.090084e-01 0.000000e+00
v 8.872291e-01 -2.090084e-01 -6.183220e-01
v 8.725101e-01 -2.355268e-01 0.000000e+00
v 8.725101e-01 -2.355268e-01 -6.183220e-01
v 8.527544e-01 -2.585395e-01 0.000000e+00
v 8.527544e-01 -2.585395e-01 -6.183220e-01
v 8.287706e-01 -2.771044e-01 0.000000e+00
v 8.287706e-01 -2.771044e-01 -6.183220e-01
v 8.015407e-01 -2.904613e-01 0.000000e+00
v 8.015407e-01 -2.904613e-01 -6.183220e-01
v 7.721794e-01 -2.980635e-01 0.000000e+00
v 7.721794e-01 -2.980635e-01 -6.183220e-01
v 7.418889e-01 -2.995996e-01 0.000000e+00
v 7.418889e-01 -2.995996e-01 -6.183220e-01
v 7.119092e-01 -2.950069e-01 0.000000e+00
v 7.119092e-01 -2.950069e-01 -6.183220e-01
v 6.834677e-01 -2.844733e-01 0.000000e+00
v 6.834677e-01 -2.844733e-01 -6.183220e-01
v 6.577288e-01 -2.684301e-01 0.000000e+00
v 6.577288e-01 -2.684301e-01 -6.183220e-01
v 6.357462e-01 -2.475341e-01 0.000000e+00
v 6.357462e-01 -2.475341e-01 -6.183220e-01
v 6.184199e-01 -2.226408e-01 0.000000e+00
v 6.184199e-01 -2.226408e-01 -6.183220e-01
v 6.064593e-01 -1.947693e-01 0.000000e+00
v 6.064593e-01 -1.947693e-01 -6.183220e-01
v 6.003541e-01 -1.650607e-01 0.000000e+00
v 6.003541e-01 -1.650607e-01 -6.183220e-01
v 6.003541e-01 -1.347313e-01 0.000000e+00
v 6.003541e-01 -1.347313e-01 -6.183220e-01
v 6.064593e-01 -1.050227e-01 0.000000e+00
v 6.064593e-01 -1.050227e-01 -6.183220e-01
v 6.184199e-01 -7.715118e-02 0.000000e+00
v 6.184199e-01 -7.715118e-02 -6.183220e-01
v 6.357462e-01 -5.225787e-02 0.000000e+00
v 6.357462e-01 -5.225787e-02 -6.183220e-01
v 6.577288e-01 -3.136188e-02 0.000000e+00
v 6.577288e-01 -3.136188e-02 -6.183220e-01
v 6.834677e-01 -1.531869e-02 0.000000e+00
v 6.834677e-01 -1.531869e-02 -6.183220e-01
v 7.119092e-01 -4.785112e-03 0.000000e+00
v 7.119092e-01 -4.785112e-03 -6.183220e-01
v 7.418889e-01 -1.923904e-04 0.000000e+00
v 7.418889e-01 -1.923904e-04 -6.183220e-01
v 7.721794e-01 -1.728552e-03 0.000000e+00
v 7.721794e-01 -1.728552e-03 -6.183220e-01
v 8.015407e-01 -9.330707e-03 0.000000e+00
v 8.015407e-01 -9.330707e-03 -6.183220e-01
v 8.287706e-01 -2.268762e-02 0.000000e+00
v 8.287706e-01 -2.268762e-02 -6.183220e-01
v 8.527544e-01 -4.125246e-02 0.000000e+00
v 8.527544e-01 -4.125246e-02 -6.183220e-01
v 8.725101e-01 -6.426518e-02 0.000000e+00
v 8.725101e-01 -6.426518e-02 -6.183220e-01
v 8.872291e-01 -9.078363e-02 0.000000e+00
v 8.872291e-01 -9.078363e-02 -6.183220e-01
v 8.963086e-01 -1.197222e-01 0.000000e+00
vn 0.918958 0.394356 -0.000000
vn 0.979530 0.201299 -0.000000
vn 0.979530 0.201299 -0.000000
vn 1.000000 0.000000 0.000000
vn 1.000000 0.000000 0.000000
vn 0.979530 -0.201299 0.000000
vn 0.979530 -0.201299 0.000000
vn 0.918958 -0.394356 0.000000
vn 0.918958 -0.394356 0.000000
vn 0.820763 -0.571268 0.000000
vn 0.820763 -0.571268 0.000000
vn 0.688967 -0.724793 0.000000
vn 0.688967 -0.724793 0.000000
vn 0.528964 -0.848644 0.000000
vn 0.528964 -0.848644 0.000000
vn 0.347305 -0.937752 0.000000
vn 0.347305 -0.937752 0.000000
vn 0.151428 -0.988468 0.000000
vn 0.151428 -0.988468 0.000000
vn -0.050649 -0.998717 0.000000
vn -0.050649 -0.998717 0.000000
vn -0.250653 -0.968077 0.000000
vn -0.250653 -0.968077 0.000000
vn -0.440394 -0.897805 0.000000
vn -0.440394 -0.897805 0.000000
vn -0.612106 -0.790776 0.000000
vn -0.612106 -0.790776 0.000000
vn -0.758758 -0.651372 0.000000
vn -0.758758 -0.651372 0.000000
vn -0.874347 -0.485302 0.000000
vn -0.874347 -0.485302 0.000000
vn -0.954139 -0.299363 0.000000
vn -0.954139 -0.299363 0.000000
vn -0.994869 -0.101168 0.000000
vn -0.994869 -0.101168 0.000000
vn -0.994869 0.101168 0.000000
vn -0.994869 0.101168 0.000000
vn -0.954139 0.299363 0.000000
vn -0.954139 0.299363 0.000000
vn -0.874347 0.485302 0.000000
vn -0.874347 0.485302 0.000000
vn -0.758758 0.651372 0.000000
vn -0.758758 0.651372 0.000000
vn -0.612106 0.790776 0.000000
vn -0.612106 0.790776 0.000000
vn -0.440394 0.897805 0.000000
vn -0.440394 0.897805 0.000000
vn -0.250653 0.968077 0.000000
vn -0.250653 0.968077 0.000000
vn -0.050649 0.998717 0.000000
vn -0.050649 0.998717 0.000000
vn 0.151428 0.988468 -0.000000
vn 0.151428 0.988468 -0.000000
vn 0.347305 0.937752 -0.000000
vn 0.347305 0.937752 -0.000000
vn 0.528964 0.848644 -0.000000
vn 0.528964 0.848644 -0.000000
vn 0.688967 0.724793 -0.000000
vn 0.688967 0.724793 -0.000000
vn 0.820763 0.571268 -0.000000
vn 0.820763 0.571268 -0.000000
vn 0.918958 0.394356 -0.000000
vn 0.918958 0.394356 -0.000000
vn 0.979530 0.201299 -0.000000
f -64//-64 -63//-63 -62//-62
f -62//-62 -63//-63 -61//-61
f -62//-62 -61//-61 -60//-60
f -60//-60 -61//-61 -59//-59
f -60//-60 -59//-59 -58//-58
f -58//-58 -59//-59 -57//-57
f -58//-58 -57//-57 -56//-56
f -56//-56 -57//-57 -55//-55
f -56//-56 -55//-55 -54//-54
f -54//-54 -55//-55 -53//-53
f -54//-54 -53//-53 -52//-52
f -52//-52 -53//-53 -51//-51
f -52//-52 -51//-51 -50//-50
f -50//-50 -51//-51 -49//-49
f -50//-50 -49//-49 -48//-48
f -48//-48 -49//-49 -47//-47
f -48//-48 -47//-47 -46//-46
f -46//-46 -47//-47 -45//-45
f -46//-46 -45//-45 -44//-44
f -44//-44 -45//-45 -43//-43
f -44//-44 -43//-43 -42//-42
f -42//-42 -43//-43 -41//-41
f -42//-42 -41//-41 -40//-40
f -40//-40 -41//-41 -39//-39
f -40//-40 -39//-39 -38//-38
f -38//-38 -39//-39 -37//-37
f -38//-38 -37//-37 -36//-36
f -36//-36 -37//-37 -35//-35
f -36//-36 -35//-35 -34//-34
f -34//-34 -35//-35 -33//-33
f -34//-34 -33//-33 -32//-32
f -32//-32 -33//-33 -31//-31
f -32//-32 -31//-31 -30//-30
f -30//-30 -31//-31 -29//-29
f -30//-30 -29//-29 -28//-28
f -28//-28 -29//-29 -27//-27
f -28//-28 -27//-27 -26//-26
f -26//-26 -27//-27 -25//-25
f -26//-26 -25//-25 -24//-24
f -24//-24 -25//-25 -23//-23
f -24//-24 -23//-23 -22//-22
f -22//-22 -23//-23 -21//-21
f -22//-22 -21//-21 -20//-20
f -20//-20 -21//-21 -19//-19
f -20//-20 -19//-19 -18//-18
f -18//-18 -19//-19 -17//-17
f -18//-18 -17//-17 -16//-16
f -16//-16 -17//-17 -15//-15
f -16//-16 -15//-15 -14//-14
f -14//-14 -15//-15 -13//-13
f -14//-14 -13//-13 -12//-12
f -12//-12 -13//-13 -11//-11
f -12//-12 -11//-11 -10//-10
f -10//-10 -11//-11 -9//-9
f -10//-10 -9//-9 -8//-8
f -8//-8 -9//-9 -7//-7
f -8//-8 -7//-7 -6//-6
f -6//-6 -7//-7 -5//-5
f -6//-6 -5//-5 -4//-4
f -4//-4 -5//-5 -3//-3
f -4//-4 -3//-3 -2//-2
f -2//-2 -3//-3 -1//-1
v 8.993770e-01 -1.498960e-01 -6.183220e-01
v 8.963086e-01 -1.800698e-01 -6.183220e-01
v 7.494810e-01 -1.498960e-01 -6.183220e-01
v 8.872291e-01 -2.090084e-01 -6.183220e-01
v 8.725101e-01 -2.355268e-01 -6.183220e-01
vn -0.000000 -0.000000 -1.000000
vn -0.000000 -0.000000 -1.000000
vn -0.000000 -0.000000 -1.000000
vn -0.000000 -0.000000 -1.000000
vn -0.000000 -0.000000 -1.000000
f -5//-5 -4//-4 -3//-3
f -3//-3 -4//-4 -2//-2
f -3//-3 -2//-2 -1//-1
v 8.725101e-01 -2.355268e-01 -6.183220e-01
v 8.527544e-01 -2.585395e-01 -6.183220e-01
v 7.494810e-01 -1.498960e-01 -6.183220e-01
v 8.287706e-01 -2.771044e-01 -6.183220e-01
v 8.015407e-01 -2.904613e-01 -6.183220e-01
vn -0.000000 -0.000000 -1.000000
vn -0.000000 -0.000000 -1.000000
vn -0.000000 -0.000000 -1.000000
vn -0.000000 -0.000000 -1.000000
vn -0.000000 -0.000000 -1.000000
f -5//-5 -4//-4 -3//-3
f -3//-3 -4//-4 -2//-2
f -3//-3 -2//-2 -1//-1
v 8.015407e-01 -2.904613e-01 -6.183220e-01
v 7.721794e-01 -2.980635e-01 -6.183220e-01
v 7.494810e-01 -1.498960e-01 -6.183220e-01
v 7.418889e-01 -2.995996e-01 -6.183220e-01
v 7.119092e-01 -2.950069e-01 -6.183220e-01
vn -0.000000 -0.000000 -1.000000
vn -0.000000 -0.000000 -1.000000
vn -0.000000 -0.000000 -1.000000
vn -0.000000 -0.000000 -1.000000
vn -0.000000 -0.000000 -1.000000
f -5//-5 -4//-4 -3//-3
f -3//-3 -4//-4 -2//-2
f -3//-3 -2//-2 -1//-1
v 7.119092e-01 -2.950069e-01 -6.183220e-01
v 6.834677e-01 -2.844733e-01 -6.183220e-01
v 7.494810e-01 -1.498960e-01 -6.183220e-01
v 6.577288e-01 -2.684301e-01 -6.183220e-01
v 6.357462e-01 -2.475341e-01 -6.183220e-01
vn -0.000000 -0.000000 -1.000000
vn -0.000000 -0.000000 -1.000000
vn -0.000000 -0.000000 -1.000000
vn -0.000000 -0.000000 -1.000000
vn -0.000000 -0.000000 -1.000000
f -5//-5 -4//-4 -3//-3
f -3//-3 -4//-4 -2//-2
f -3//-3 -2//-2 -1//-1
v 6.357462e-01 -2.475341e-01 -6.183220e-01
v 6.184199e-01 -2.226408e-01 -6.183220e-01
v 7.494810e-01 -1.498960e-01 -6.183220e-01
v 6.064593e-01 -1.947693e-01 -6.183220e-01
v 6.003541e-01 -1.650607e-01 -6.183220e-01
vn -0.000000 -0.000000 -1.000000
vn -0.000000 -0.000000 -1.000000
vn -0.000000 -0.000000 -1.000000
vn -0.000000 -0.000000 -1.000000
vn -0.000000 -0.000000 -1.000000
f -5//-5 -4//-4 -3//-3
f -3//-3 -4//-4 -2//-2
f -3//-3 -2//-2 -1//-1
v 6.003541e-01 -1.650607e-01 -6.183220e-01
v 6.003541e-01 -1.347313e-01 -6.183220e-01
v 7.494810e-01 -1.498960e-01 -6.183220e-01
v 6.064593e-01 -1.050227e-01 -6.183220e-01
v 6.184199e-01 -7.715118e-02 -6.183220e-01
vn -0.000000 -0.000000 -1.000000
vn -0.000000 -0.000000 -1.000000
vn -0.000000 -0.000000 -1.000000
vn -0.000000 -0.000000 -1.000000
vn -0.000000 -0.000000 -1.000000
f -5//-5 -4//-4 -3//-3
f -3//-3 -4//-4 -2//-2
f -3//-3 -2//-2 -1//-1
v 6.184199e-01 -7.715118e-02 -6.183220e-01
v 6.357462e-01 -5.225787e-02 -6.183220e-01
v 7.494810e-01 -1.498960e-01 -6.183220e-01
v 6.577288e-01 -3.136188e-02 -6.183220e-01
v 6.834677e-01 -1.531869e-02 -6.183220e-01
vn -0.000000 -0.000000 -1.000000
vn -0.000000 -0.000000 -1.000000
vn -0.000000 -0.000000 -1.000000
vn -0.000000 -0.000000 -1.000000
vn -0.000000 -0.000000 -1.000000
f -5//-5 -4//-4 -3//-3
f -3//-3 -4//-4 -2//-2
f -3//-3 -2//-2 -1//-1
v 6.834677e-01 -1.531869e-02 -6.183220e-01
v 7.119092e-01 -4.785112e-03 -6.183220e-01
v 7.494810e-01 -1.498960e-01 -6.183220e-01
v 7.418889e-01 -1.923904e-04 -6.183220e-01
v 7.721794e-01 -1.728552e-03 -6.183220e-01
vn -0.000000 -0.000000 -1.000000
vn -0.000000 -0.000000 -1.000000
vn -0.000000 -0.000000 -1.000000
vn -0.000000 -0.000000 -1.000000
vn -0.000000 -0.000000 -1.000000
f -5//-5 -4//-4 -3//-3
f -3//-3 -4//-4 -2//-2
f -3//-3 -2//-2 -1//-1
v 7.721794e-01 -1.728552e-03 -6.183220e-01
v 8.015407e-01 -9.330707e-03 -6.183220e-01
v 7.494810e-01 -1.498960e-01 -6.183220e-01
v 8.287706e-01 -2.268762e-02 -6.183220e-01
v 8.527544e-01 -4.125246e-02 -6.183220e-01
vn -0.000000 -0.000000 -1.000000
vn -0.000000 -0.000000 -1.000000
vn -0.000000 -0.000000 -1.000000
vn -0.000000 -0.000000 -1.000000
vn -0.000000 -0.000000 -1.000000
f -5//-5 -4//-4 -3//-3
f -3//-3 -4//-4 -2//-2
f -3//-3 -2//-2 -1//-1
v 8.527544e-01 -4.125246e-02 -6.183220e-01
v 8.725101e-01 -6.426518e-02 -6.183220e-01
v 7.494810e-01 -1.498960e-01 -6.183220e-01
v 8.872291e-01 -9.078363e-02 -6.183220e-01
v 8.963086e-01 -1.197222e-01 -6.183220e-01
vn -0.000000 -0.000000 -1.000000
vn -0.000000 -0.000000 -1.000000
vn -0.000000 -0.000000 -1.000000
vn -0.000000 -0.000000 -1.000000
vn -0.000000 -0.000000 -1.000000
f -5//-5 -4//-4 -3//-3
f -3//-3 -4//-4 -2//-2
f -3//-3 -2//-2 -1//-1
v 7.494810e-01 -1.498960e-01 -6.183220e-01
v 8.963086e-01 -1.197222e-01 -6.183220e-01
v 8.993770e-01 -1.498960e-01 -6.183220e-01
vn -0.000000 -0.000000 -1.000000
vn -0.000000 -0.000000 -1.000000
vn -0.000000 -0.000000 -1.000000
f -3//-3 -2//-2 -1//-1
v 8.993770e-01 -1.498960e-01 0.000000e+00
v 8.963086e-01 -1.197222e-01 0.000000e+00
v 7.494810e-01 -1.498960e-01 0.000000e+00
v 8.872291e-01 -9.078363e-02 0.000000e+00
v 8.725101e-01 -6.426518e-02 0.000000e+00
vn 0.000000 0.000000 1.000000
vn 0.000000 0.000000 1.000000
vn 0.000000 0.000000 1.000000
vn 0.000000 0.000000 1.000000
vn 0.000000 0.000000 1.000000
f -5//-5 -4//-4 -3//-3
f -3//-3 -4//-4 -2//-2
f -3//-3 -2//-2 -1//-1
v 8.725101e-01 -6.426518e-02 0.000000e+00
v 8.527544e-01 -4.125246e-02 0.000000e+00
v 7.494810e-01 -1.498960e-01 0.000000e+00
v 8.287706e-01 -2.268762e-02 0.000000e+00
v 8.015407e-01 -9.330707e-03 0.000000e+00
vn 0.000000 0.000000 1.000000
vn 0.000000 0.000000 1.000000
vn 0.000000 0.000000 1.000000
vn 0.000000 0.000000 1.000000
vn 0.000000 0.000000 1.000000
f -5//-5 -4//-4 -3//-3
f -3//-3 -4//-4 -2//-2
f -3//-3 -2//-2 -1//-1
v 8.015407e-01 -9.330707e-03 0.000000e+00
v 7.721794e-01 -1.728552e-03 0.000000e+00
v 7.494810e-01 -1.498960e-01 0.000000e+00
v 7.418889e-01 -1.923904e-04 0.000000e+00
v 7.119092e-01 -4.785112e-03 0.000000e+00
vn 0.000000 0.000000 1.000000
vn 0.000000 0.000000 1.000000
vn 0.000000 0.000000 1.000000
vn 0.000000 0.000000 1.000000
vn 0.000000 0.000000 1.000000
f -5//-5 -4//-4 -3//-3
f -3//-3 -4//-4 -2//-2
f -3//-3 -2//-2 -1//-1
v 7.119092e-01 -4.785112e-03 0.000000e+00
v 6.834677e-01 -1.531869e-02 0.000000e+00
v 7.494810e-01 -1.498960e-01 0.000000e+00
v 6.577288e-01 -3.136188e-02 0.000000e+00
v 6.357462e-01 -5.225787e-02 0.000000e+00
vn 0.000000 0.000000 1.000000
vn 0.000000 0.000000 1.000000
vn 0.000000 0.000000 1.000000
vn 0.000000 0.000000 1.000000
vn 0.000000 0.000000 1.000000
f -5//-5 -4//-4 -3//-3
f -3//-3 -4//-4 -2//-2
f -3//-3 -2//-2 -1//-1
v 6.357462e-01 -5.225787e-02 0.000000e+00
v 6.184199e-01 -7.715118e-02 0.000000e+00
v 7.494810e-01 -1.498960e-01 0.000000e+00
v 6.064593e-01 -1.050227e-01 0.000000e+00
v 6.003541e-01 -1.347313e-01 0.000000e+00
vn 0.000000 0.000000 1.000000
vn 0.000000 0.000000 1.000000
vn 0.000000 0.000000 1.000000
vn 0.000000 0.000000 1.000000
vn 0.000000 0.000000 1.000000
f -5//-5 -4//-4 -3//-3
f -3//-3 -4//-4 -2//-2
f -3//-3 -2//-2 -1//-1
v 6.003541e-01 -1.347313e-01 0.000000e+00
v 6.003541e-01 -1.650607e-01 0.000000e+00
v 7.494810e-01 -1.498960e-01 0.000000e+00
v 6.064593e-01 -1.947693e-01 0.000000e+00
v 6.184199e-01 -2.226408e-01 0.000000e+00
vn 0.000000 0.000000 1.000000
vn 0.000000 0.000000 1.000000
vn 0.000000 0.000000 1.000000
vn 0.000000 0.000000 1.000000
vn 0.000000 0.000000 1.000000
f -5//-5 -4//-4 -3//-3
f -3//-3 -4//-4 -2//-2
f -3//-3 -2//-2 -1//-1
v 6.184199e-01 -2.226408e-01 0.000000e+00
v 6.357462e-01 -2.475341e-01 0.000000e+00
v 7.494810e-01 -1.498960e-01 0.000000e+00
v 6.577288e-01 -2.684301e-01 0.000000e+00
v 6.834677e-01 -2.844733e-01 0.000000e+00
vn 0.000000 0.000000 1.000000
vn 0.000000 0.000000 1.000000
vn 0.000000 0.000000 1.000000
vn 0.000000 0.000000 1.000000
vn 0.000000 0.000000 1.000000
f -5//-5 -4//-4 -3//-3
f -3//-3 -4//-4 -2//-2
f -3//-3 -2//-2 -1//-1
v 6.834677e-01 -2.844733e-01 0.000000e+00
v 7.119092e-01 -2.950069e-01 0.000000e+00
v 7.494810e-01 -1.498960e-01 0.000000e+00
v 7.418889e-01 -2.995996e-01 0.000000e+00
v 7.721794e-01 -2.980635e-01 0.000000e+00
vn 0.000000 0.000000 1.000000
vn 0.000000 0.000000 1.000000
vn 0.000000 0.000000 1.000000
vn 0.000000 0.000000 1.000000
vn 0.000000 0.000000 1.000000
f -5//-5 -4//-4 -3//-3
f -3//-3 -4//-4 -2//-2
f -3//-3 -2//-2 -1//-1
v 7.721794e-01 -2.980635e-01 0.000000e+00
v 8.015407e-01 -2.904613e-01 0.000000e+00
v 7.494810e-01 -1.498960e-01 0.000000e+00
v 8.287706e-01 -2.771044e-01 0.000000e+00
v 8.527544e-01 -2.585395e-01 0.000000e+00
vn 0.000000 0.000000 1.000000
vn 0.000000 0.000000 1.000000
vn 0.000000 0.000000 1.000000
vn 0.000000 0.000000 1.000000
vn 0.000000 0.000000 1.000000
f -5//-5 -4//-4 -3//-3
f -3//-3 -4//-4 -2//-2
f -3//-3 -2//-2 -1//-1
v 8.527544e-01 -2.585395e-01 0.000000e+00
v 8.725101e-01 -2.355268e-01 0.000000e+00
v 7.494810e-01 -1.498960e-01 0.000000e+00
v 8.872291e-01 -2.090084e-01 0.000000e+00
v 8.963086e-01 -1.800698e-01 0.000000e+00
vn 0.000000 0.000000 1.000000
vn 0.000000 0.000000 1.000000
vn 0.000000 0.000000 1.000000
vn 0.000000 0.000000 1.000000
vn 0.000000 0.000000 1.000000
f -5//-5 -4//-4 -3//-3
f -3//-3 -4//-4 -2//-2
f -3//-3 -2//-2 -1//-1
v 7.494810e-01 -1.498960e-01 0.000000e+00
v 8.963086e-01 -1.800698e-01 0.000000e+00
v 8.993770e-01 -1.498960e-01 0.000000e+00
vn 0.000000 0.000000 1.000000
vn 0.000000 0.000000 1.000000
vn 0.000000 0.000000 1.000000
f -3//-3 -2//-2 -1//-1
