#
mtllib gnd_Normal_Mode.mtl
usemtl ffe6e6e6
v 5.614104e-01 -9.950264e-02 -6.183220e-01
v 5.808615e-01 -5.254350e-02 -6.183220e-01
v -1.498962e+01 1.498962e+01 -6.183220e-01
v 6.118038e-01 -1.221877e-02 -6.183220e-01
v 1.498962e+01 1.498962e+01 -6.183220e-01
v 6.521285e-01 1.872348e-02 -6.183220e-01
v 6.990876e-01 3.817459e-02 -6.183220e-01
vn -0.000000 0.000000 1.000000
vn -0.000000 0.000000 1.000000
vn -0.000000 0.000000 1.000000
vn -0.000000 0.000000 1.000000
vn -0.000000 0.000000 1.000000
vn -0.000000 0.000000 1.000000
vn -0.000000 0.000000 1.000000
f -7//-7 -6//-6 -5//-5
f -5//-5 -6//-6 -4//-4
f -5//-5 -4//-4 -3//-3
f -3//-3 -4//-4 -2//-2
f -3//-3 -2//-2 -1//-1
v 7.998744e-01 3.817459e-02 -6.183220e-01
v 8.468335e-01 1.872348e-02 -6.183220e-01
v 1.498962e+01 1.498962e+01 -6.183220e-01
v 8.871582e-01 -1.221877e-02 -6.183220e-01
v 9.181005e-01 -5.254350e-02 -6.183220e-01
vn -0.000000 0.000000 1.000000
vn -0.000000 0.000000 1.000000
vn -0.000000 0.000000 1.000000
vn -0.000000 0.000000 1.000000
vn -0.000000 0.000000 1.000000
f -5//-5 -4//-4 -3//-3
f -3//-3 -4//-4 -2//-2
f -3//-3 -2//-2 -1//-1
v 7.998744e-01 3.817459e-02 -6.183220e-01
v 1.498962e+01 1.498962e+01 -6.183220e-01
v 7.494810e-01 4.480900e-02 -6.183220e-01
v 6.990876e-01 3.817459e-02 -6.183220e-01
vn -0.000000 0.000000 1.000000
vn -0.000000 0.000000 1.000000
vn -0.000000 0.000000 1.000000
vn -0.000000 0.000000 1.000000
f -4//-4 -3//-3 -2//-2
f -2//-2 -3//-3 -1//-1
v 9.441860e-01 -1.498960e-01 -6.183220e-01
v 1.498962e+01 -1.498962e+01 -6.183220e-01
v 9.375516e-01 -9.950264e-02 -6.183220e-01
v 1.498962e+01 1.498962e+01 -6.183220e-01
v 9.181005e-01 -5.254350e-02 -6.183220e-01
vn -0.000000 0.000000 1.000000
vn -0.000000 0.000000 1.000000
vn -0.000000 0.000000 1.000000
vn -0.000000 0.000000 1.000000
vn -0.000000 0.000000 1.000000
f -5//-5 -4//-4 -3//-3
f -3//-3 -4//-4 -2//-2
f -3//-3 -2//-2 -1//-1
v 6.990876e-01 -3.379666e-01 -6.183220e-01
v 6.521285e-01 -3.185155e-01 -6.183220e-01
v -1.498962e+01 -1.498962e+01 -6.183220e-01
v 6.118038e-01 -2.875732e-01 -6.183220e-01
v 5.808615e-01 -2.472485e-01 -6.183220e-01
vn -0.000000 0.000000 1.000000
vn -0.000000 0.000000 1.000000
vn -0.000000 0.000000 1.000000
vn -0.000000 0.000000 1.000000
vn -0.000000 0.000000 1.000000
f -5//-5 -4//-4 -3//-3
f -3//-3 -4//-4 -2//-2
f -3//-3 -2//-2 -1//-1
v 9.375516e-01 -2.002894e-01 -6.183220e-01
v 9.181005e-01 -2.472485e-01 -6.183220e-01
v 1.498962e+01 -1.498962e+01 -6.183220e-01
v 8.871582e-01 -2.875732e-01 -6.183220e-01
v -1.498962e+01 -1.498962e+01 -6.183220e-01
v 8.468335e-01 -3.185155e-01 -6.183220e-01
v 7.998744e-01 -3.379666e-01 -6.183220e-01
vn -0.000000 0.000000 1.000000
vn -0.000000 0.000000 1.000000
vn -0.000000 0.000000 1.000000
vn -0.000000 0.000000 1.000000
vn -0.000000 0.000000 1.000000
vn -0.000000 0.000000 1.000000
vn -0.000000 0.000000 1.000000
f -7//-7 -6//-6 -5//-5
f -5//-5 -6//-6 -4//-4
f -5//-5 -4//-4 -3//-3
f -3//-3 -4//-4 -2//-2
f -3//-3 -2//-2 -1//-1
v 5.808615e-01 -2.472485e-01 -6.183220e-01
v 5.614104e-01 -2.002894e-01 -6.183220e-01
v -1.498962e+01 -1.498962e+01 -6.183220e-01
v 5.547760e-01 -1.498960e-01 -6.183220e-01
v -1.498962e+01 1.498962e+01 -6.183220e-01
v 5.614104e-01 -9.950264e-02 -6.183220e-01
vn -0.000000 0.000000 1.000000
vn -0.000000 0.000000 1.000000
vn -0.000000 0.000000 1.000000
vn -0.000000 0.000000 1.000000
vn -0.000000 0.000000 1.000000
vn -0.000000 0.000000 1.000000
f -6//-6 -5//-5 -4//-4
f -4//-4 -5//-5 -3//-3
f -4//-4 -3//-3 -2//-2
f -2//-2 -3//-3 -1//-1
v 6.990876e-01 -3.379666e-01 -6.183220e-01
v -1.498962e+01 -1.498962e+01 -6.183220e-01
v 7.494810e-01 -3.446010e-01 -6.183220e-01
v 7.998744e-01 -3.379666e-01 -6.183220e-01
vn -0.000000 0.000000 1.000000
vn -0.000000 0.000000 1.000000
vn -0.000000 0.000000 1.000000
vn -0.000000 0.000000 1.000000
f -4//-4 -3//-3 -2//-2
f -2//-2 -3//-3 -1//-1
v 9.375516e-01 -2.002894e-01 -6.183220e-01
v 1.498962e+01 -1.498962e+01 -6.183220e-01
v 9.441860e-01 -1.498960e-01 -6.183220e-01
vn -0.000000 0.000000 1.000000
vn -0.000000 0.000000 1.000000
vn -0.000000 0.000000 1.000000
f -3//-3 -2//-2 -1//-1
