#
mtllib port_cap_Normal_Mode.mtl
usemtl ffe8f2f7
v 9.346564e-01 -2.100632e-01 -2.118322e+00
v 9.417889e-01 -1.803546e-01 -2.352535e+00
v 9.417889e-01 -1.803546e-01 -2.118322e+00
v 9.441860e-01 -1.498960e-01 -2.352535e+00
v 9.441860e-01 -1.498960e-01 -2.118322e+00
v 9.417889e-01 -1.194374e-01 -2.352535e+00
v 9.417889e-01 -1.194374e-01 -2.118322e+00
v 9.346564e-01 -8.972885e-02 -2.352535e+00
v 9.346564e-01 -8.972885e-02 -2.118322e+00
v 9.229645e-01 -6.150178e-02 -2.352535e+00
v 9.229645e-01 -6.150178e-02 -2.118322e+00
v 9.070007e-01 -3.545127e-02 -2.352535e+00
v 9.070007e-01 -3.545127e-02 -2.118322e+00
v 8.871582e-01 -1.221877e-02 -2.352535e+00
v 8.871582e-01 -1.221877e-02 -2.118322e+00
v 8.639258e-01 7.623654e-03 -2.352535e+00
v 8.639258e-01 7.623654e-03 -2.118322e+00
v 8.378752e-01 2.358743e-02 -2.352535e+00
v 8.378752e-01 2.358743e-02 -2.118322e+00
v 8.096482e-01 3.527946e-02 -2.352535e+00
v 8.096482e-01 3.527946e-02 -2.118322e+00
v 7.799396e-01 4.241186e-02 -2.352535e+00
v 7.799396e-01 4.241186e-02 -2.118322e+00
v 7.494810e-01 4.480900e-02 -2.352535e+00
v 7.494810e-01 4.480900e-02 -2.118322e+00
v 7.190225e-01 4.241186e-02 -2.352535e+00
v 7.190225e-01 4.241186e-02 -2.118322e+00
v 6.893138e-01 3.527946e-02 -2.352535e+00
v 6.893138e-01 3.527946e-02 -2.118322e+00
v 6.610868e-01 2.358743e-02 -2.352535e+00
v 6.610868e-01 2.358743e-02 -2.118322e+00
v 6.350363e-01 7.623654e-03 -2.352535e+00
v 6.350363e-01 7.623654e-03 -2.118322e+00
v 6.118038e-01 -1.221877e-02 -2.352535e+00
v 6.118038e-01 -1.221877e-02 -2.118322e+00
v 5.919613e-01 -3.545127e-02 -2.352535e+00
v 5.919613e-01 -3.545127e-02 -2.118322e+00
v 5.759976e-01 -6.150178e-02 -2.352535e+00
v 5.759976e-01 -6.150178e-02 -2.118322e+00
v 5.643055e-01 -8.972885e-02 -2.352535e+00
v 5.643055e-01 -8.972885e-02 -2.118322e+00
v 5.571731e-01 -1.194374e-01 -2.352535e+00
v 5.571731e-01 -1.194374e-01 -2.118322e+00
v 5.547760e-01 -1.498960e-01 -2.352535e+00
v 5.547760e-01 -1.498960e-01 -2.118322e+00
v 5.571731e-01 -1.803546e-01 -2.352535e+00
v 5.571731e-01 -1.803546e-01 -2.118322e+00
v 5.643055e-01 -2.100632e-01 -2.352535e+00
v 5.643055e-01 -2.100632e-01 -2.118322e+00
v 5.759976e-01 -2.382902e-01 -2.352535e+00
v 5.759976e-01 -2.382902e-01 -2.118322e+00
v 5.919613e-01 -2.643407e-01 -2.352535e+00
v 5.919613e-01 -2.643407e-01 -2.118322e+00
v 6.118038e-01 -2.875732e-01 -2.352535e+00
v 6.118038e-01 -2.875732e-01 -2.118322e+00
v 6.350363e-01 -3.074157e-01 -2.352535e+00
v 6.350363e-01 -3.074157e-01 -2.118322e+00
v 6.610868e-01 -3.233794e-01 -2.352535e+00
v 6.610868e-01 -3.233794e-01 -2.118322e+00
v 6.893138e-01 -3.350714e-01 -2.352535e+00
v 6.893138e-01 -3.350714e-01 -2.118322e+00
v 7.190225e-01 -3.422039e-01 -2.352535e+00
v 7.190225e-01 -3.422039e-01 -2.118322e+00
v 7.494810e-01 -3.446010e-01 -2.352535e+00
vn 0.951057 -0.309017 0.000000
vn 0.987688 -0.156434 0.000000
vn 0.987688 -0.156434 0.000000
vn 1.000000 0.000000 0.000000
vn 1.000000 0.000000 0.000000
vn 0.987688 0.156434 0.000000
vn 0.987688 0.156434 0.000000
vn 0.951057 0.309017 0.000000
vn 0.951057 0.309017 0.000000
vn 0.891007 0.453990 0.000000
vn 0.891007 0.453990 0.000000
vn 0.809017 0.587785 0.000000
vn 0.809017 0.587785 0.000000
vn 0.707107 0.707107 0.000000
vn 0.707107 0.707107 0.000000
vn 0.587785 0.809017 0.000000
vn 0.587785 0.809017 0.000000
vn 0.453990 0.891007 0.000000
vn 0.453990 0.891007 0.000000
vn 0.309017 0.951057 0.000000
vn 0.309017 0.951057 0.000000
vn 0.156434 0.987688 0.000000
vn 0.156434 0.987688 0.000000
vn -0.000000 1.000000 0.000000
vn -0.000000 1.000000 0.000000
vn -0.156434 0.987688 0.000000
vn -0.156434 0.987688 0.000000
vn -0.309017 0.951057 0.000000
vn -0.309017 0.951057 0.000000
vn -0.453990 0.891007 0.000000
vn -0.453990 0.891007 0.000000
vn -0.587785 0.809017 0.000000
vn -0.587785 0.809017 0.000000
vn -0.707107 0.707107 0.000000
vn -0.707107 0.707107 0.000000
vn -0.809017 0.587785 0.000000
vn -0.809017 0.587785 0.000000
vn -0.891007 0.453990 0.000000
vn -0.891007 0.453990 0.000000
vn -0.951057 0.309017 0.000000
vn -0.951057 0.309017 0.000000
vn -0.987688 0.156434 0.000000
vn -0.987688 0.156434 0.000000
vn -1.000000 -0.000000 -0.000000
vn -1.000000 -0.000000 -0.000000
vn -0.987688 -0.156434 -0.000000
vn -0.987688 -0.156434 -0.000000
vn -0.951057 -0.309017 -0.000000
vn -0.951057 -0.309017 -0.000000
vn -0.891007 -0.453990 -0.000000
vn -0.891007 -0.453990 -0.000000
vn -0.809017 -0.587785 -0.000000
vn -0.809017 -0.587785 -0.000000
vn -0.707107 -0.707107 -0.000000
vn -0.707107 -0.707107 -0.000000
vn -0.587785 -0.809017 -0.000000
vn -0.587785 -0.809017 -0.000000
vn -0.453990 -0.891007 -0.000000
vn -0.453990 -0.891007 -0.000000
vn -0.309017 -0.951057 -0.000000
vn -0.309017 -0.951057 -0.000000
vn -0.156434 -0.987688 -0.000000
vn -0.156434 -0.987688 -0.000000
vn 0.000000 -1.000000 0.000000
f -64//-64 -63//-63 -62//-62
f -62//-62 -63//-63 -61//-61
f -62//-62 -61//-61 -60//-60
f -60//-60 -61//-61 -59//-59
f -60//-60 -59//-59 -58//-58
f -58//-58 -59//-59 -57//-57
f -58//-58 -57//-57 -56//-56
f -56//-56 -57//-57 -55//-55
f -56//-56 -55//-55 -54//-54
f -54//-54 -55//-55 -53//-53
f -54//-54 -53//-53 -52//-52
f -52//-52 -53//-53 -51//-51
f -52//-52 -51//-51 -50//-50
f -50//-50 -51//-51 -49//-49
f -50//-50 -49//-49 -48//-48
f -48//-48 -49//-49 -47//-47
f -48//-48 -47//-47 -46//-46
f -46//-46 -47//-47 -45//-45
f -46//-46 -45//-45 -44//-44
f -44//-44 -45//-45 -43//-43
f -44//-44 -43//-43 -42//-42
f -42//-42 -43//-43 -41//-41
f -42//-42 -41//-41 -40//-40
f -40//-40 -41//-41 -39//-39
f -40//-40 -39//-39 -38//-38
f -38//-38 -39//-39 -37//-37
f -38//-38 -37//-37 -36//-36
f -36//-36 -37//-37 -35//-35
f -36//-36 -35//-35 -34//-34
f -34//-34 -35//-35 -33//-33
f -34//-34 -33//-33 -32//-32
f -32//-32 -33//-33 -31//-31
f -32//-32 -31//-31 -30//-30
f -30//-30 -31//-31 -29//-29
f -30//-30 -29//-29 -28//-28
f -28//-28 -29//-29 -27//-27
f -28//-28 -27//-27 -26//-26
f -26//-26 -27//-27 -25//-25
f -26//-26 -25//-25 -24//-24
f -24//-24 -25//-25 -23//-23
f -24//-24 -23//-23 -22//-22
f -22//-22 -23//-23 -21//-21
f -22//-22 -21//-21 -20//-20
f -20//-20 -21//-21 -19//-19
f -20//-20 -19//-19 -18//-18
f -18//-18 -19//-19 -17//-17
f -18//-18 -17//-17 -16//-16
f -16//-16 -17//-17 -15//-15
f -16//-16 -15//-15 -14//-14
f -14//-14 -15//-15 -13//-13
f -14//-14 -13//-13 -12//-12
f -12//-12 -13//-13 -11//-11
f -12//-12 -11//-11 -10//-10
f -10//-10 -11//-11 -9//-9
f -10//-10 -9//-9 -8//-8
f -8//-8 -9//-9 -7//-7
f -8//-8 -7//-7 -6//-6
f -6//-6 -7//-7 -5//-5
f -6//-6 -5//-5 -4//-4
f -4//-4 -5//-5 -3//-3
f -4//-4 -3//-3 -2//-2
f -2//-2 -3//-3 -1//-1
v 7.190225e-01 -3.422039e-01 -2.118322e+00
v 7.494810e-01 -3.446010e-01 -2.352535e+00
v 7.494810e-01 -3.446010e-01 -2.118322e+00
v 7.799396e-01 -3.422039e-01 -2.352535e+00
v 7.799396e-01 -3.422039e-01 -2.118322e+00
v 8.096482e-01 -3.350714e-01 -2.352535e+00
v 8.096482e-01 -3.350714e-01 -2.118322e+00
v 8.378752e-01 -3.233794e-01 -2.352535e+00
v 8.378752e-01 -3.233794e-01 -2.118322e+00
v 8.639258e-01 -3.074157e-01 -2.352535e+00
v 8.639258e-01 -3.074157e-01 -2.118322e+00
v 8.871582e-01 -2.875732e-01 -2.352535e+00
v 8.871582e-01 -2.875732e-01 -2.118322e+00
v 9.070007e-01 -2.643407e-01 -2.352535e+00
v 9.070007e-01 -2.643407e-01 -2.118322e+00
v 9.229645e-01 -2.382902e-01 -2.352535e+00
v 9.229645e-01 -2.382902e-01 -2.118322e+00
v 9.346564e-01 -2.100632e-01 -2.352535e+00
v 9.346564e-01 -2.100632e-01 -2.118322e+00
v 9.417889e-01 -1.803546e-01 -2.352535e+00
vn -0.156434 -0.987688 -0.000000
vn 0.000000 -1.000000 0.000000
vn 0.000000 -1.000000 0.000000
vn 0.156434 -0.987688 0.000000
vn 0.156434 -0.987688 0.000000
vn 0.309017 -0.951057 0.000000
vn 0.309017 -0.951057 0.000000
vn 0.453990 -0.891007 0.000000
vn 0.453990 -0.891007 0.000000
vn 0.587785 -0.809017 0.000000
vn 0.587785 -0.809017 0.000000
vn 0.707107 -0.707107 0.000000
vn 0.707107 -0.707107 0.000000
vn 0.809017 -0.587785 0.000000
vn 0.809017 -0.587785 0.000000
vn 0.891007 -0.453990 0.000000
vn 0.891007 -0.453990 0.000000
vn 0.951057 -0.309017 0.000000
vn 0.951057 -0.309017 0.000000
vn 0.987688 -0.156434 0.000000
f -20//-20 -19//-19 -18//-18
f -18//-18 -19//-19 -17//-17
f -18//-18 -17//-17 -16//-16
f -16//-16 -17//-17 -15//-15
f -16//-16 -15//-15 -14//-14
f -14//-14 -15//-15 -13//-13
f -14//-14 -13//-13 -12//-12
f -12//-12 -13//-13 -11//-11
f -12//-12 -11//-11 -10//-10
f -10//-10 -11//-11 -9//-9
f -10//-10 -9//-9 -8//-8
f -8//-8 -9//-9 -7//-7
f -8//-8 -7//-7 -6//-6
f -6//-6 -7//-7 -5//-5
f -6//-6 -5//-5 -4//-4
f -4//-4 -5//-5 -3//-3
f -4//-4 -3//-3 -2//-2
f -2//-2 -3//-3 -1//-1
v 9.441860e-01 -1.498960e-01 -2.352535e+00
v 9.417889e-01 -1.803546e-01 -2.352535e+00
v 7.494810e-01 -1.498960e-01 -2.352535e+00
v 9.346564e-01 -2.100632e-01 -2.352535e+00
v 9.229645e-01 -2.382902e-01 -2.352535e+00
vn 0.000000 0.000000 -1.000000
vn 0.000000 0.000000 -1.000000
vn 0.000000 0.000000 -1.000000
vn 0.000000 0.000000 -1.000000
vn 0.000000 0.000000 -1.000000
f -5//-5 -4//-4 -3//-3
f -3//-3 -4//-4 -2//-2
f -3//-3 -2//-2 -1//-1
v 9.229645e-01 -2.382902e-01 -2.352535e+00
v 9.070007e-01 -2.643407e-01 -2.352535e+00
v 7.494810e-01 -1.498960e-01 -2.352535e+00
v 8.871582e-01 -2.875732e-01 -2.352535e+00
v 8.639258e-01 -3.074157e-01 -2.352535e+00
vn 0.000000 0.000000 -1.000000
vn 0.000000 0.000000 -1.000000
vn 0.000000 0.000000 -1.000000
vn 0.000000 0.000000 -1.000000
vn 0.000000 0.000000 -1.000000
f -5//-5 -4//-4 -3//-3
f -3//-3 -4//-4 -2//-2
f -3//-3 -2//-2 -1//-1
v 8.639258e-01 -3.074157e-01 -2.352535e+00
v 8.378752e-01 -3.233794e-01 -2.352535e+00
v 7.494810e-01 -1.498960e-01 -2.352535e+00
v 8.096482e-01 -3.350714e-01 -2.352535e+00
v 7.799396e-01 -3.422039e-01 -2.352535e+00
vn 0.000000 0.000000 -1.000000
vn 0.000000 0.000000 -1.000000
vn 0.000000 0.000000 -1.000000
vn 0.000000 0.000000 -1.000000
vn 0.000000 0.000000 -1.000000
f -5//-5 -4//-4 -3//-3
f -3//-3 -4//-4 -2//-2
f -3//-3 -2//-2 -1//-1
v 7.799396e-01 -3.422039e-01 -2.352535e+00
v 7.494810e-01 -3.446010e-01 -2.352535e+00
v 7.494810e-01 -1.498960e-01 -2.352535e+00
v 7.190225e-01 -3.422039e-01 -2.352535e+00
v 6.893138e-01 -3.350714e-01 -2.352535e+00
vn 0.000000 0.000000 -1.000000
vn 0.000000 0.000000 -1.000000
vn 0.000000 0.000000 -1.000000
vn 0.000000 0.000000 -1.000000
vn 0.000000 0.000000 -1.000000
f -5//-5 -4//-4 -3//-3
f -3//-3 -4//-4 -2//-2
f -3//-3 -2//-2 -1//-1
v 6.893138e-01 -3.350714e-01 -2.352535e+00
v 6.610868e-01 -3.233794e-01 -2.352535e+00
v 7.494810e-01 -1.498960e-01 -2.352535e+00
v 6.350363e-01 -3.074157e-01 -2.352535e+00
v 6.118038e-01 -2.875732e-01 -2.352535e+00
vn 0.000000 0.000000 -1.000000
vn 0.000000 0.000000 -1.000000
vn 0.000000 0.000000 -1.000000
vn 0.000000 0.000000 -1.000000
vn 0.000000 0.000000 -1.000000
f -5//-5 -4//-4 -3//-3
f -3//-3 -4//-4 -2//-2
f -3//-3 -2//-2 -1//-1
v 6.118038e-01 -2.875732e-01 -2.352535e+00
v 5.919613e-01 -2.643407e-01 -2.352535e+00
v 7.494810e-01 -1.498960e-01 -2.352535e+00
v 5.759976e-01 -2.382902e-01 -2.352535e+00
v 5.643055e-01 -2.100632e-01 -2.352535e+00
vn 0.000000 0.000000 -1.000000
vn 0.000000 0.000000 -1.000000
vn 0.000000 0.000000 -1.000000
vn 0.000000 0.000000 -1.000000
vn 0.000000 0.000000 -1.000000
f -5//-5 -4//-4 -3//-3
f -3//-3 -4//-4 -2//-2
f -3//-3 -2//-2 -1//-1
v 5.643055e-01 -2.100632e-01 -2.352535e+00
v 5.571731e-01 -1.803546e-01 -2.352535e+00
v 7.494810e-01 -1.498960e-01 -2.352535e+00
v 5.547760e-01 -1.498960e-01 -2.352535e+00
v 5.571731e-01 -1.194374e-01 -2.352535e+00
vn 0.000000 0.000000 -1.000000
vn 0.000000 0.000000 -1.000000
vn 0.000000 0.000000 -1.000000
vn 0.000000 0.000000 -1.000000
vn 0.000000 0.000000 -1.000000
f -5//-5 -4//-4 -3//-3
f -3//-3 -4//-4 -2//-2
f -3//-3 -2//-2 -1//-1
v 5.571731e-01 -1.194374e-01 -2.352535e+00
v 5.643055e-01 -8.972885e-02 -2.352535e+00
v 7.494810e-01 -1.498960e-01 -2.352535e+00
v 5.759976e-01 -6.150178e-02 -2.352535e+00
v 5.919613e-01 -3.545127e-02 -2.352535e+00
vn 0.000000 0.000000 -1.000000
vn 0.000000 0.000000 -1.000000
vn 0.000000 0.000000 -1.000000
vn 0.000000 0.000000 -1.000000
vn 0.000000 0.000000 -1.000000
f -5//-5 -4//-4 -3//-3
f -3//-3 -4//-4 -2//-2
f -3//-3 -2//-2 -1//-1
v 5.919613e-01 -3.545127e-02 -2.352535e+00
v 6.118038e-01 -1.221877e-02 -2.352535e+00
v 7.494810e-01 -1.498960e-01 -2.352535e+00
v 6.350363e-01 7.623654e-03 -2.352535e+00
v 6.610868e-01 2.358743e-02 -2.352535e+00
vn 0.000000 0.000000 -1.000000
vn 0.000000 0.000000 -1.000000
vn 0.000000 0.000000 -1.000000
vn 0.000000 0.000000 -1.000000
vn 0.000000 0.000000 -1.000000
f -5//-5 -4//-4 -3//-3
f -3//-3 -4//-4 -2//-2
f -3//-3 -2//-2 -1//-1
v 6.610868e-01 2.358743e-02 -2.352535e+00
v 6.893138e-01 3.527946e-02 -2.352535e+00
v 7.494810e-01 -1.498960e-01 -2.352535e+00
v 7.190225e-01 4.241186e-02 -2.352535e+00
v 7.494810e-01 4.480900e-02 -2.352535e+00
vn 0.000000 0.000000 -1.000000
vn 0.000000 0.000000 -1.000000
vn 0.000000 0.000000 -1.000000
vn 0.000000 0.000000 -1.000000
vn 0.000000 0.000000 -1.000000
f -5//-5 -4//-4 -3//-3
f -3//-3 -4//-4 -2//-2
f -3//-3 -2//-2 -1//-1
v 7.494810e-01 4.480900e-02 -2.352535e+00
v 7.799396e-01 4.241186e-02 -2.352535e+00
v 7.494810e-01 -1.498960e-01 -2.352535e+00
v 8.096482e-01 3.527946e-02 -2.352535e+00
v 8.378752e-01 2.358743e-02 -2.352535e+00
vn 0.000000 0.000000 -1.000000
vn 0.000000 0.000000 -1.000000
vn 0.000000 0.000000 -1.000000
vn 0.000000 0.000000 -1.000000
vn 0.000000 0.000000 -1.000000
f -5//-5 -4//-4 -3//-3
f -3//-3 -4//-4 -2//-2
f -3//-3 -2//-2 -1//-1
v 8.378752e-01 2.358743e-02 -2.352535e+00
v 8.639258e-01 7.623654e-03 -2.352535e+00
v 7.494810e-01 -1.498960e-01 -2.352535e+00
v 8.871582e-01 -1.221877e-02 -2.352535e+00
v 9.070007e-01 -3.545127e-02 -2.352535e+00
vn 0.000000 0.000000 -1.000000
vn 0.000000 0.000000 -1.000000
vn 0.000000 0.000000 -1.000000
vn 0.000000 0.000000 -1.000000
vn 0.000000 0.000000 -1.000000
f -5//-5 -4//-4 -3//-3
f -3//-3 -4//-4 -2//-2
f -3//-3 -2//-2 -1//-1
v 9.070007e-01 -3.545127e-02 -2.352535e+00
v 9.229645e-01 -6.150178e-02 -2.352535e+00
v 7.494810e-01 -1.498960e-01 -2.352535e+00
v 9.346564e-01 -8.972885e-02 -2.352535e+00
v 9.417889e-01 -1.194374e-01 -2.352535e+00
vn 0.000000 0.000000 -1.000000
vn 0.000000 0.000000 -1.000000
vn 0.000000 0.000000 -1.000000
vn 0.000000 0.000000 -1.000000
vn 0.000000 0.000000 -1.000000
f -5//-5 -4//-4 -3//-3
f -3//-3 -4//-4 -2//-2
f -3//-3 -2//-2 -1//-1
v 7.494810e-01 -1.498960e-01 -2.352535e+00
v 9.417889e-01 -1.194374e-01 -2.352535e+00
v 9.441860e-01 -1.498960e-01 -2.352535e+00
vn 0.000000 0.000000 -1.000000
vn 0.000000 0.000000 -1.000000
vn 0.000000 0.000000 -1.000000
f -3//-3 -2//-2 -1//-1
v 9.441860e-01 -1.498960e-01 -2.118322e+00
v 9.417889e-01 -1.194374e-01 -2.118322e+00
v 7.494810e-01 -1.498960e-01 -2.118322e+00
v 9.346564e-01 -8.972885e-02 -2.118322e+00
v 9.229645e-01 -6.150178e-02 -2.118322e+00
vn -0.000000 -0.000000 1.000000
vn -0.000000 -0.000000 1.000000
vn -0.000000 -0.000000 1.000000
vn -0.000000 -0.000000 1.000000
vn -0.000000 -0.000000 1.000000
f -5//-5 -4//-4 -3//-3
f -3//-3 -4//-4 -2//-2
f -3//-3 -2//-2 -1//-1
v 9.229645e-01 -6.150178e-02 -2.118322e+00
v 9.070007e-01 -3.545127e-02 -2.118322e+00
v 7.494810e-01 -1.498960e-01 -2.118322e+00
v 8.871582e-01 -1.221877e-02 -2.118322e+00
v 8.639258e-01 7.623654e-03 -2.118322e+00
vn -0.000000 -0.000000 1.000000
vn -0.000000 -0.000000 1.000000
vn -0.000000 -0.000000 1.000000
vn -0.000000 -0.000000 1.000000
vn -0.000000 -0.000000 1.000000
f -5//-5 -4//-4 -3//-3
f -3//-3 -4//-4 -2//-2
f -3//-3 -2//-2 -1//-1
v 8.639258e-01 7.623654e-03 -2.118322e+00
v 8.378752e-01 2.358743e-02 -2.118322e+00
v 7.494810e-01 -1.498960e-01 -2.118322e+00
v 8.096482e-01 3.527946e-02 -2.118322e+00
v 7.799396e-01 4.241186e-02 -2.118322e+00
vn -0.000000 -0.000000 1.000000
vn -0.000000 -0.000000 1.000000
vn -0.000000 -0.000000 1.000000
vn -0.000000 -0.000000 1.000000
vn -0.000000 -0.000000 1.000000
f -5//-5 -4//-4 -3//-3
f -3//-3 -4//-4 -2//-2
f -3//-3 -2//-2 -1//-1
v 7.799396e-01 4.241186e-02 -2.118322e+00
v 7.494810e-01 4.480900e-02 -2.118322e+00
v 7.494810e-01 -1.498960e-01 -2.118322e+00
v 7.190225e-01 4.241186e-02 -2.118322e+00
v 6.893138e-01 3.527946e-02 -2.118322e+00
vn -0.000000 -0.000000 1.000000
vn -0.000000 -0.000000 1.000000
vn -0.000000 -0.000000 1.000000
vn -0.000000 -0.000000 1.000000
vn -0.000000 -0.000000 1.000000
f -5//-5 -4//-4 -3//-3
f -3//-3 -4//-4 -2//-2
f -3//-3 -2//-2 -1//-1
v 6.893138e-01 3.527946e-02 -2.118322e+00
v 6.610868e-01 2.358743e-02 -2.118322e+00
v 7.494810e-01 -1.498960e-01 -2.118322e+00
v 6.350363e-01 7.623654e-03 -2.118322e+00
v 6.118038e-01 -1.221877e-02 -2.118322e+00
vn -0.000000 -0.000000 1.000000
vn -0.000000 -0.000000 1.000000
vn -0.000000 -0.000000 1.000000
vn -0.000000 -0.000000 1.000000
vn -0.000000 -0.000000 1.000000
f -5//-5 -4//-4 -3//-3
f -3//-3 -4//-4 -2//-2
f -3//-3 -2//-2 -1//-1
v 6.118038e-01 -1.221877e-02 -2.118322e+00
v 5.919613e-01 -3.545127e-02 -2.118322e+00
v 7.494810e-01 -1.498960e-01 -2.118322e+00
v 5.759976e-01 -6.150178e-02 -2.118322e+00
v 5.643055e-01 -8.972885e-02 -2.118322e+00
vn -0.000000 -0.000000 1.000000
vn -0.000000 -0.000000 1.000000
vn -0.000000 -0.000000 1.000000
vn -0.000000 -0.000000 1.000000
vn -0.000000 -0.000000 1.000000
f -5//-5 -4//-4 -3//-3
f -3//-3 -4//-4 -2//-2
f -3//-3 -2//-2 -1//-1
v 5.643055e-01 -8.972885e-02 -2.118322e+00
v 5.571731e-01 -1.194374e-01 -2.118322e+00
v 7.494810e-01 -1.498960e-01 -2.118322e+00
v 5.547760e-01 -1.498960e-01 -2.118322e+00
v 5.571731e-01 -1.803546e-01 -2.118322e+00
vn -0.000000 -0.000000 1.000000
vn -0.000000 -0.000000 1.000000
vn -0.000000 -0.000000 1.000000
vn -0.000000 -0.000000 1.000000
vn -0.000000 -0.000000 1.000000
f -5//-5 -4//-4 -3//-3
f -3//-3 -4//-4 -2//-2
f -3//-3 -2//-2 -1//-1
v 5.571731e-01 -1.803546e-01 -2.118322e+00
v 5.643055e-01 -2.100632e-01 -2.118322e+00
v 7.494810e-01 -1.498960e-01 -2.118322e+00
v 5.759976e-01 -2.382902e-01 -2.118322e+00
v 5.919613e-01 -2.643407e-01 -2.118322e+00
vn -0.000000 -0.000000 1.000000
vn -0.000000 -0.000000 1.000000
vn -0.000000 -0.000000 1.000000
vn -0.000000 -0.000000 1.000000
vn -0.000000 -0.000000 1.000000
f -5//-5 -4//-4 -3//-3
f -3//-3 -4//-4 -2//-2
f -3//-3 -2//-2 -1//-1
v 5.919613e-01 -2.643407e-01 -2.118322e+00
v 6.118038e-01 -2.875732e-01 -2.118322e+00
v 7.494810e-01 -1.498960e-01 -2.118322e+00
v 6.350363e-01 -3.074157e-01 -2.118322e+00
v 6.610868e-01 -3.233794e-01 -2.118322e+00
vn -0.000000 -0.000000 1.000000
vn -0.000000 -0.000000 1.000000
vn -0.000000 -0.000000 1.000000
vn -0.000000 -0.000000 1.000000
vn -0.000000 -0.000000 1.000000
f -5//-5 -4//-4 -3//-3
f -3//-3 -4//-4 -2//-2
f -3//-3 -2//-2 -1//-1
v 6.610868e-01 -3.233794e-01 -2.118322e+00
v 6.893138e-01 -3.350714e-01 -2.118322e+00
v 7.494810e-01 -1.498960e-01 -2.118322e+00
v 7.190225e-01 -3.422039e-01 -2.118322e+00
v 7.494810e-01 -3.446010e-01 -2.118322e+00
vn -0.000000 -0.000000 1.000000
vn -0.000000 -0.000000 1.000000
vn -0.000000 -0.000000 1.000000
vn -0.000000 -0.000000 1.000000
vn -0.000000 -0.000000 1.000000
f -5//-5 -4//-4 -3//-3
f -3//-3 -4//-4 -2//-2
f -3//-3 -2//-2 -1//-1
v 7.494810e-01 -3.446010e-01 -2.118322e+00
v 7.799396e-01 -3.422039e-01 -2.118322e+00
v 7.494810e-01 -1.498960e-01 -2.118322e+00
v 8.096482e-01 -3.350714e-01 -2.118322e+00
v 8.378752e-01 -3.233794e-01 -2.118322e+00
vn -0.000000 -0.000000 1.000000
vn -0.000000 -0.000000 1.000000
vn -0.000000 -0.000000 1.000000
vn -0.000000 -0.000000 1.000000
vn -0.000000 -0.000000 1.000000
f -5//-5 -4//-4 -3//-3
f -3//-3 -4//-4 -2//-2
f -3//-3 -2//-2 -1//-1
v 8.378752e-01 -3.233794e-01 -2.118322e+00
v 8.639258e-01 -3.074157e-01 -2.118322e+00
v 7.494810e-01 -1.498960e-01 -2.118322e+00
v 8.871582e-01 -2.875732e-01 -2.118322e+00
v 9.070007e-01 -2.643407e-01 -2.118322e+00
vn -0.000000 -0.000000 1.000000
vn -0.000000 -0.000000 1.000000
vn -0.000000 -0.000000 1.000000
vn -0.000000 -0.000000 1.000000
vn -0.000000 -0.000000 1.000000
f -5//-5 -4//-4 -3//-3
f -3//-3 -4//-4 -2//-2
f -3//-3 -2//-2 -1//-1
v 9.070007e-01 -2.643407e-01 -2.118322e+00
v 9.229645e-01 -2.382902e-01 -2.118322e+00
v 7.494810e-01 -1.498960e-01 -2.118322e+00
v 9.346564e-01 -2.100632e-01 -2.118322e+00
v 9.417889e-01 -1.803546e-01 -2.118322e+00
vn -0.000000 -0.000000 1.000000
vn -0.000000 -0.000000 1.000000
vn -0.000000 -0.000000 1.000000
vn -0.000000 -0.000000 1.000000
vn -0.000000 -0.000000 1.000000
f -5//-5 -4//-4 -3//-3
f -3//-3 -4//-4 -2//-2
f -3//-3 -2//-2 -1//-1
v 7.494810e-01 -1.498960e-01 -2.118322e+00
v 9.417889e-01 -1.803546e-01 -2.118322e+00
v 9.441860e-01 -1.498960e-01 -2.118322e+00
vn -0.000000 -0.000000 1.000000
vn -0.000000 -0.000000 1.000000
vn -0.000000 -0.000000 1.000000
f -3//-3 -2//-2 -1//-1
