#
mtllib feed_coax_ShortingPin.mtl
usemtl ff4180ff
v 1.256183e+00 -2.527987e+00 0.000000e+00
v 1.505587e+00 -2.067129e+00 -2.039404e+01
v 1.505587e+00 -2.067129e+00 0.000000e+00
v 1.591837e+00 -1.550261e+00 -2.039404e+01
v 1.591837e+00 -1.550261e+00 0.000000e+00
v 1.505587e+00 -1.033392e+00 -2.039404e+01
v 1.505587e+00 -1.033392e+00 0.000000e+00
v 1.256183e+00 -5.725346e-01 -2.039404e+01
v 1.256183e+00 -5.725346e-01 0.000000e+00
v 8.706522e-01 -2.176286e-01 -2.039404e+01
v 8.706522e-01 -2.176286e-01 0.000000e+00
v 3.907728e-01 -7.133991e-03 -2.039404e+01
v 3.907728e-01 -7.133991e-03 0.000000e+00
v -1.314528e-01 3.613886e-02 -2.039404e+01
v -1.314528e-01 3.613886e-02 0.000000e+00
v -6.394336e-01 -9.249932e-02 -2.039404e+01
v -6.394336e-01 -9.249932e-02 0.000000e+00
v -1.078122e+00 -3.791086e-01 -2.039404e+01
v -1.078122e+00 -3.791086e-01 0.000000e+00
v -1.399979e+00 -7.926304e-01 -2.039404e+01
v -1.399979e+00 -7.926304e-01 0.000000e+00
v -1.570126e+00 -1.288253e+00 -2.039404e+01
v -1.570126e+00 -1.288253e+00 0.000000e+00
v -1.570126e+00 -1.812269e+00 -2.039404e+01
v -1.570126e+00 -1.812269e+00 0.000000e+00
v -1.399979e+00 -2.307892e+00 -2.039404e+01
v -1.399979e+00 -2.307892e+00 0.000000e+00
v -1.078122e+00 -2.721413e+00 -2.039404e+01
v -1.078122e+00 -2.721413e+00 0.000000e+00
v -6.394336e-01 -3.008023e+00 -2.039404e+01
v -6.394336e-01 -3.008023e+00 0.000000e+00
v -1.314528e-01 -3.136661e+00 -2.039404e+01
v -1.314528e-01 -3.136661e+00 0.000000e+00
v 3.907728e-01 -3.093388e+00 -2.039404e+01
v 3.907728e-01 -3.093388e+00 0.000000e+00
v 8.706522e-01 -2.882893e+00 -2.039404e+01
v 8.706522e-01 -2.882893e+00 0.000000e+00
v 1.256183e+00 -2.527987e+00 -2.039404e+01
v 1.256183e+00 -2.527987e+00 0.000000e+00
v 1.505587e+00 -2.067129e+00 -2.039404e+01
vn 0.789141 -0.614213 0.000000
vn 0.945817 -0.324699 0.000000
vn 0.945817 -0.324699 0.000000
vn 1.000000 0.000000 0.000000
vn 1.000000 0.000000 0.000000
vn 0.945817 0.324699 0.000000
vn 0.945817 0.324699 0.000000
vn 0.789141 0.614213 0.000000
vn 0.789141 0.614213 0.000000
vn 0.546948 0.837166 0.000000
vn 0.546948 0.837166 0.000000
vn 0.245485 0.969400 0.000000
vn 0.245485 0.969400 0.000000
vn -0.082579 0.996584 0.000000
vn -0.082579 0.996584 0.000000
vn -0.401695 0.915773 0.000000
vn -0.401695 0.915773 0.000000
vn -0.677282 0.735724 0.000000
vn -0.677282 0.735724 0.000000
vn -0.879474 0.475947 0.000000
vn -0.879474 0.475947 0.000000
vn -0.986361 0.164595 0.000000
vn -0.986361 0.164595 0.000000
vn -0.986361 -0.164595 -0.000000
vn -0.986361 -0.164595 -0.000000
vn -0.879474 -0.475947 -0.000000
vn -0.879474 -0.475947 -0.000000
vn -0.677282 -0.735724 -0.000000
vn -0.677282 -0.735724 -0.000000
vn -0.401695 -0.915773 -0.000000
vn -0.401695 -0.915773 -0.000000
vn -0.082579 -0.996584 -0.000000
vn -0.082579 -0.996584 -0.000000
vn 0.245485 -0.969400 0.000000
vn 0.245485 -0.969400 0.000000
vn 0.546948 -0.837166 0.000000
vn 0.546948 -0.837166 0.000000
vn 0.789141 -0.614213 0.000000
vn 0.789141 -0.614213 0.000000
vn 0.945817 -0.324699 0.000000
f -40//-40 -39//-39 -38//-38
f -38//-38 -39//-39 -37//-37
f -38//-38 -37//-37 -36//-36
f -36//-36 -37//-37 -35//-35
f -36//-36 -35//-35 -34//-34
f -34//-34 -35//-35 -33//-33
f -34//-34 -33//-33 -32//-32
f -32//-32 -33//-33 -31//-31
f -32//-32 -31//-31 -30//-30
f -30//-30 -31//-31 -29//-29
f -30//-30 -29//-29 -28//-28
f -28//-28 -29//-29 -27//-27
f -28//-28 -27//-27 -26//-26
f -26//-26 -27//-27 -25//-25
f -26//-26 -25//-25 -24//-24
f -24//-24 -25//-25 -23//-23
f -24//-24 -23//-23 -22//-22
f -22//-22 -23//-23 -21//-21
f -22//-22 -21//-21 -20//-20
f -20//-20 -21//-21 -19//-19
f -20//-20 -19//-19 -18//-18
f -18//-18 -19//-19 -17//-17
f -18//-18 -17//-17 -16//-16
f -16//-16 -17//-17 -15//-15
f -16//-16 -15//-15 -14//-14
f -14//-14 -15//-15 -13//-13
f -14//-14 -13//-13 -12//-12
f -12//-12 -13//-13 -11//-11
f -12//-12 -11//-11 -10//-10
f -10//-10 -11//-11 -9//-9
f -10//-10 -9//-9 -8//-8
f -8//-8 -9//-9 -7//-7
f -8//-8 -7//-7 -6//-6
f -6//-6 -7//-7 -5//-5
f -6//-6 -5//-5 -4//-4
f -4//-4 -5//-5 -3//-3
f -4//-4 -3//-3 -2//-2
f -2//-2 -3//-3 -1//-1
v 1.591837e+00 -1.550261e+00 -2.039404e+01
v 1.505587e+00 -2.067129e+00 -2.039404e+01
v 0.000000e+00 -1.550261e+00 -2.039404e+01
v 1.256183e+00 -2.527987e+00 -2.039404e+01
v 8.706522e-01 -2.882893e+00 -2.039404e+01
vn 0.000000 0.000000 -1.000000
vn 0.000000 0.000000 -1.000000
vn 0.000000 0.000000 -1.000000
vn 0.000000 0.000000 -1.000000
vn 0.000000 0.000000 -1.000000
f -5//-5 -4//-4 -3//-3
f -3//-3 -4//-4 -2//-2
f -3//-3 -2//-2 -1//-1
v 8.706522e-01 -2.882893e+00 -2.039404e+01
v 3.907728e-01 -3.093388e+00 -2.039404e+01
v 0.000000e+00 -1.550261e+00 -2.039404e+01
v -1.314528e-01 -3.136661e+00 -2.039404e+01
v -6.394336e-01 -3.008023e+00 -2.039404e+01
vn 0.000000 0.000000 -1.000000
vn 0.000000 0.000000 -1.000000
vn 0.000000 0.000000 -1.000000
vn 0.000000 0.000000 -1.000000
vn 0.000000 0.000000 -1.000000
f -5//-5 -4//-4 -3//-3
f -3//-3 -4//-4 -2//-2
f -3//-3 -2//-2 -1//-1
v -6.394336e-01 -3.008023e+00 -2.039404e+01
v -1.078122e+00 -2.721413e+00 -2.039404e+01
v 0.000000e+00 -1.550261e+00 -2.039404e+01
v -1.399979e+00 -2.307892e+00 -2.039404e+01
v -1.570126e+00 -1.812269e+00 -2.039404e+01
vn 0.000000 0.000000 -1.000000
vn 0.000000 0.000000 -1.000000
vn 0.000000 0.000000 -1.000000
vn 0.000000 0.000000 -1.000000
vn 0.000000 0.000000 -1.000000
f -5//-5 -4//-4 -3//-3
f -3//-3 -4//-4 -2//-2
f -3//-3 -2//-2 -1//-1
v -1.570126e+00 -1.812269e+00 -2.039404e+01
v -1.570126e+00 -1.288253e+00 -2.039404e+01
v 0.000000e+00 -1.550261e+00 -2.039404e+01
v -1.399979e+00 -7.926304e-01 -2.039404e+01
v -1.078122e+00 -3.791086e-01 -2.039404e+01
vn 0.000000 0.000000 -1.000000
vn 0.000000 0.000000 -1.000000
vn 0.000000 0.000000 -1.000000
vn 0.000000 0.000000 -1.000000
vn 0.000000 0.000000 -1.000000
f -5//-5 -4//-4 -3//-3
f -3//-3 -4//-4 -2//-2
f -3//-3 -2//-2 -1//-1
v -1.078122e+00 -3.791086e-01 -2.039404e+01
v -6.394336e-01 -9.249932e-02 -2.039404e+01
v 0.000000e+00 -1.550261e+00 -2.039404e+01
v -1.314528e-01 3.613886e-02 -2.039404e+01
v 3.907728e-01 -7.133991e-03 -2.039404e+01
vn 0.000000 0.000000 -1.000000
vn 0.000000 0.000000 -1.000000
vn 0.000000 0.000000 -1.000000
vn 0.000000 0.000000 -1.000000
vn 0.000000 0.000000 -1.000000
f -5//-5 -4//-4 -3//-3
f -3//-3 -4//-4 -2//-2
f -3//-3 -2//-2 -1//-1
v 3.907728e-01 -7.133991e-03 -2.039404e+01
v 8.706522e-01 -2.176286e-01 -2.039404e+01
v 0.000000e+00 -1.550261e+00 -2.039404e+01
v 1.256183e+00 -5.725346e-01 -2.039404e+01
v 1.505587e+00 -1.033392e+00 -2.039404e+01
vn 0.000000 0.000000 -1.000000
vn 0.000000 0.000000 -1.000000
vn 0.000000 0.000000 -1.000000
vn 0.000000 0.000000 -1.000000
vn 0.000000 0.000000 -1.000000
f -5//-5 -4//-4 -3//-3
f -3//-3 -4//-4 -2//-2
f -3//-3 -2//-2 -1//-1
v 0.000000e+00 -1.550261e+00 -2.039404e+01
v 1.505587e+00 -1.033392e+00 -2.039404e+01
v 1.591837e+00 -1.550261e+00 -2.039404e+01
vn 0.000000 0.000000 -1.000000
vn 0.000000 0.000000 -1.000000
vn 0.000000 0.000000 -1.000000
f -3//-3 -2//-2 -1//-1
v 1.591837e+00 -1.550261e+00 0.000000e+00
v 1.505587e+00 -1.033392e+00 0.000000e+00
v 0.000000e+00 -1.550261e+00 0.000000e+00
v 1.256183e+00 -5.725346e-01 0.000000e+00
v 8.706522e-01 -2.176286e-01 0.000000e+00
vn -0.000000 -0.000000 1.000000
vn -0.000000 -0.000000 1.000000
vn -0.000000 -0.000000 1.000000
vn -0.000000 -0.000000 1.000000
vn -0.000000 -0.000000 1.000000
f -5//-5 -4//-4 -3//-3
f -3//-3 -4//-4 -2//-2
f -3//-3 -2//-2 -1//-1
v 8.706522e-01 -2.176286e-01 0.000000e+00
v 3.907728e-01 -7.133991e-03 0.000000e+00
v 0.000000e+00 -1.550261e+00 0.000000e+00
v -1.314528e-01 3.613886e-02 0.000000e+00
v -6.394336e-01 -9.249932e-02 0.000000e+00
vn -0.000000 -0.000000 1.000000
vn -0.000000 -0.000000 1.000000
vn -0.000000 -0.000000 1.000000
vn -0.000000 -0.000000 1.000000
vn -0.000000 -0.000000 1.000000
f -5//-5 -4//-4 -3//-3
f -3//-3 -4//-4 -2//-2
f -3//-3 -2//-2 -1//-1
v -6.394336e-01 -9.249932e-02 0.000000e+00
v -1.078122e+00 -3.791086e-01 0.000000e+00
v 0.000000e+00 -1.550261e+00 0.000000e+00
v -1.399979e+00 -7.926304e-01 0.000000e+00
v -1.570126e+00 -1.288253e+00 0.000000e+00
vn -0.000000 -0.000000 1.000000
vn -0.000000 -0.000000 1.000000
vn -0.000000 -0.000000 1.000000
vn -0.000000 -0.000000 1.000000
vn -0.000000 -0.000000 1.000000
f -5//-5 -4//-4 -3//-3
f -3//-3 -4//-4 -2//-2
f -3//-3 -2//-2 -1//-1
v -1.570126e+00 -1.288253e+00 0.000000e+00
v -1.570126e+00 -1.812269e+00 0.000000e+00
v 0.000000e+00 -1.550261e+00 0.000000e+00
v -1.399979e+00 -2.307892e+00 0.000000e+00
v -1.078122e+00 -2.721413e+00 0.000000e+00
vn -0.000000 -0.000000 1.000000
vn -0.000000 -0.000000 1.000000
vn -0.000000 -0.000000 1.000000
vn -0.000000 -0.000000 1.000000
vn -0.000000 -0.000000 1.000000
f -5//-5 -4//-4 -3//-3
f -3//-3 -4//-4 -2//-2
f -3//-3 -2//-2 -1//-1
v -1.078122e+00 -2.721413e+00 0.000000e+00
v -6.394336e-01 -3.008023e+00 0.000000e+00
v 0.000000e+00 -1.550261e+00 0.000000e+00
v -1.314528e-01 -3.136661e+00 0.000000e+00
v 3.907728e-01 -3.093388e+00 0.000000e+00
vn -0.000000 -0.000000 1.000000
vn -0.000000 -0.000000 1.000000
vn -0.000000 -0.000000 1.000000
vn -0.000000 -0.000000 1.000000
vn -0.000000 -0.000000 1.000000
f -5//-5 -4//-4 -3//-3
f -3//-3 -4//-4 -2//-2
f -3//-3 -2//-2 -1//-1
v 3.907728e-01 -3.093388e+00 0.000000e+00
v 8.706522e-01 -2.882893e+00 0.000000e+00
v 0.000000e+00 -1.550261e+00 0.000000e+00
v 1.256183e+00 -2.527987e+00 0.000000e+00
v 1.505587e+00 -2.067129e+00 0.000000e+00
vn -0.000000 -0.000000 1.000000
vn -0.000000 -0.000000 1.000000
vn -0.000000 -0.000000 1.000000
vn -0.000000 -0.000000 1.000000
vn -0.000000 -0.000000 1.000000
f -5//-5 -4//-4 -3//-3
f -3//-3 -4//-4 -2//-2
f -3//-3 -2//-2 -1//-1
v 0.000000e+00 -1.550261e+00 0.000000e+00
v 1.505587e+00 -2.067129e+00 0.000000e+00
v 1.591837e+00 -1.550261e+00 0.000000e+00
vn -0.000000 -0.000000 1.000000
vn -0.000000 -0.000000 1.000000
vn -0.000000 -0.000000 1.000000
f -3//-3 -2//-2 -1//-1
