#
mtllib gnd_ShortingPin.mtl
usemtl ff4180ff
v -2.693877e+00 3.115672e+00 0.000000e+00
v -1.394454e+00 3.653911e+00 0.000000e+00
v -5.312661e+01 2.012370e+01 0.000000e+00
v 1.196322e-15 3.837494e+00 0.000000e+00
v 5.312661e+01 2.012370e+01 0.000000e+00
v 1.394454e+00 3.653911e+00 0.000000e+00
v 2.693877e+00 3.115672e+00 0.000000e+00
vn -0.000000 0.000000 1.000000
vn -0.000000 0.000000 1.000000
vn -0.000000 0.000000 1.000000
vn -0.000000 0.000000 1.000000
vn -0.000000 0.000000 1.000000
vn -0.000000 0.000000 1.000000
vn -0.000000 0.000000 1.000000
f -7//-7 -6//-6 -5//-5
f -5//-5 -6//-6 -4//-4
f -5//-5 -4//-4 -3//-3
f -3//-3 -4//-4 -2//-2
f -3//-3 -2//-2 -1//-1
v 4.665933e+00 1.143617e+00 0.000000e+00
v 5.204172e+00 -1.558073e-01 0.000000e+00
v 5.312661e+01 2.012370e+01 0.000000e+00
v 5.387755e+00 -1.550261e+00 0.000000e+00
v 5.312661e+01 -2.012370e+01 0.000000e+00
v 5.204172e+00 -2.944715e+00 0.000000e+00
v 4.665933e+00 -4.244139e+00 0.000000e+00
vn -0.000000 0.000000 1.000000
vn -0.000000 0.000000 1.000000
vn -0.000000 0.000000 1.000000
vn -0.000000 0.000000 1.000000
vn -0.000000 0.000000 1.000000
vn -0.000000 0.000000 1.000000
vn -0.000000 0.000000 1.000000
f -7//-7 -6//-6 -5//-5
f -5//-5 -6//-6 -4//-4
f -5//-5 -4//-4 -3//-3
f -3//-3 -4//-4 -2//-2
f -3//-3 -2//-2 -1//-1
v 2.693877e+00 3.115672e+00 0.000000e+00
v 3.809718e+00 2.259457e+00 0.000000e+00
v 5.312661e+01 2.012370e+01 0.000000e+00
v 4.665933e+00 1.143617e+00 0.000000e+00
vn -0.000000 0.000000 1.000000
vn -0.000000 0.000000 1.000000
vn -0.000000 0.000000 1.000000
vn -0.000000 0.000000 1.000000
f -4//-4 -3//-3 -2//-2
f -2//-2 -3//-3 -1//-1
v -5.204172e+00 -1.558073e-01 0.000000e+00
v -4.665933e+00 1.143617e+00 0.000000e+00
v -5.312661e+01 2.012370e+01 0.000000e+00
v -3.809718e+00 2.259457e+00 0.000000e+00
v -2.693877e+00 3.115672e+00 0.000000e+00
vn -0.000000 0.000000 1.000000
vn -0.000000 0.000000 1.000000
vn -0.000000 0.000000 1.000000
vn -0.000000 0.000000 1.000000
vn -0.000000 0.000000 1.000000
f -5//-5 -4//-4 -3//-3
f -3//-3 -4//-4 -2//-2
f -3//-3 -2//-2 -1//-1
v -4.665933e+00 -4.244139e+00 0.000000e+00
v -5.204172e+00 -2.944715e+00 0.000000e+00
v -5.312661e+01 -2.012370e+01 0.000000e+00
v -5.387755e+00 -1.550261e+00 0.000000e+00
v -5.312661e+01 2.012370e+01 0.000000e+00
v -5.204172e+00 -1.558073e-01 0.000000e+00
vn -0.000000 0.000000 1.000000
vn -0.000000 0.000000 1.000000
vn -0.000000 0.000000 1.000000
vn -0.000000 0.000000 1.000000
vn -0.000000 0.000000 1.000000
vn -0.000000 0.000000 1.000000
f -6//-6 -5//-5 -4//-4
f -4//-4 -5//-5 -3//-3
f -4//-4 -3//-3 -2//-2
f -2//-2 -3//-3 -1//-1
v -1.394454e+00 -6.754433e+00 0.000000e+00
v -2.693877e+00 -6.216194e+00 0.000000e+00
v -5.312661e+01 -2.012370e+01 0.000000e+00
v -3.809718e+00 -5.359979e+00 0.000000e+00
v -4.665933e+00 -4.244139e+00 0.000000e+00
vn -0.000000 0.000000 1.000000
vn -0.000000 0.000000 1.000000
vn -0.000000 0.000000 1.000000
vn -0.000000 0.000000 1.000000
vn -0.000000 0.000000 1.000000
f -5//-5 -4//-4 -3//-3
f -3//-3 -4//-4 -2//-2
f -3//-3 -2//-2 -1//-1
v -1.394454e+00 -6.754433e+00 0.000000e+00
v -5.312661e+01 -2.012370e+01 0.000000e+00
v -3.588966e-15 -6.938016e+00 0.000000e+00
v 5.312661e+01 -2.012370e+01 0.000000e+00
v 1.394454e+00 -6.754433e+00 0.000000e+00
v 2.693877e+00 -6.216194e+00 0.000000e+00
vn -0.000000 0.000000 1.000000
vn -0.000000 0.000000 1.000000
vn -0.000000 0.000000 1.000000
vn -0.000000 0.000000 1.000000
vn -0.000000 0.000000 1.000000
vn -0.000000 0.000000 1.000000
f -6//-6 -5//-5 -4//-4
f -4//-4 -5//-5 -3//-3
f -4//-4 -3//-3 -2//-2
f -2//-2 -3//-3 -1//-1
v 4.665933e+00 -4.244139e+00 0.000000e+00
v 3.809718e+00 -5.359979e+00 0.000000e+00
v 5.312661e+01 -2.012370e+01 0.000000e+00
v 2.693877e+00 -6.216194e+00 0.000000e+00
vn -0.000000 0.000000 1.000000
vn -0.000000 0.000000 1.000000
vn -0.000000 0.000000 1.000000
vn -0.000000 0.000000 1.000000
f -4//-4 -3//-3 -2//-2
f -2//-2 -3//-3 -1//-1
