#
mtllib port_ShortingPin.mtl
usemtl ff000080
v 5.387755e+00 -1.550261e+00 -2.039404e+01
v 5.356172e+00 -9.677421e-01 -2.039404e+01
v 0.000000e+00 -1.550261e+00 -2.039404e+01
v 5.261792e+00 -3.920529e-01 -2.039404e+01
v 5.105723e+00 1.700575e-01 -2.039404e+01
vn 0.000000 0.000000 1.000000
vn 0.000000 0.000000 1.000000
vn 0.000000 0.000000 1.000000
vn 0.000000 0.000000 1.000000
vn 0.000000 0.000000 1.000000
f -5//-5 -4//-4 -3//-3
f -3//-3 -4//-4 -2//-2
f -3//-3 -2//-2 -1//-1
v 5.105723e+00 1.700575e-01 -2.039404e+01
v 4.889794e+00 7.119987e-01 -2.039404e+01
v 0.000000e+00 -1.550261e+00 -2.039404e+01
v 4.616537e+00 1.227417e+00 -2.039404e+01
v 4.289155e+00 1.710270e+00 -2.039404e+01
vn 0.000000 0.000000 1.000000
vn 0.000000 0.000000 1.000000
vn 0.000000 0.000000 1.000000
vn 0.000000 0.000000 1.000000
vn 0.000000 0.000000 1.000000
f -5//-5 -4//-4 -3//-3
f -3//-3 -4//-4 -2//-2
f -3//-3 -2//-2 -1//-1
v 4.289155e+00 1.710270e+00 -2.039404e+01
v 3.911486e+00 2.154895e+00 -2.039404e+01
v 0.000000e+00 -1.550261e+00 -2.039404e+01
v 3.487959e+00 2.556082e+00 -2.039404e+01
v 3.023539e+00 2.909125e+00 -2.039404e+01
vn 0.000000 0.000000 1.000000
vn 0.000000 0.000000 1.000000
vn 0.000000 0.000000 1.000000
vn 0.000000 0.000000 1.000000
vn 0.000000 0.000000 1.000000
f -5//-5 -4//-4 -3//-3
f -3//-3 -4//-4 -2//-2
f -3//-3 -2//-2 -1//-1
v 3.023539e+00 2.909125e+00 -2.039404e+01
v 2.523670e+00 3.209886e+00 -2.039404e+01
v 0.000000e+00 -1.550261e+00 -2.039404e+01
v 1.994214e+00 3.454838e+00 -2.039404e+01
v 1.441377e+00 3.641110e+00 -2.039404e+01
vn 0.000000 0.000000 1.000000
vn 0.000000 0.000000 1.000000
vn 0.000000 0.000000 1.000000
vn 0.000000 0.000000 1.000000
vn 0.000000 0.000000 1.000000
f -5//-5 -4//-4 -3//-3
f -3//-3 -4//-4 -2//-2
f -3//-3 -2//-2 -1//-1
v 1.441377e+00 3.641110e+00 -2.039404e+01
v 8.716418e-01 3.766519e+00 -2.039404e+01
v 0.000000e+00 -1.550261e+00 -2.039404e+01
v 2.916872e-01 3.829592e+00 -2.039404e+01
v -2.916872e-01 3.829592e+00 -2.039404e+01
vn 0.000000 0.000000 1.000000
vn 0.000000 0.000000 1.000000
vn 0.000000 0.000000 1.000000
vn 0.000000 0.000000 1.000000
vn 0.000000 0.000000 1.000000
f -5//-5 -4//-4 -3//-3
f -3//-3 -4//-4 -2//-2
f -3//-3 -2//-2 -1//-1
v -2.916872e-01 3.829592e+00 -2.039404e+01
v -8.716418e-01 3.766519e+00 -2.039404e+01
v 0.000000e+00 -1.550261e+00 -2.039404e+01
v -1.441377e+00 3.641110e+00 -2.039404e+01
v -1.994214e+00 3.454838e+00 -2.039404e+01
vn 0.000000 0.000000 1.000000
vn 0.000000 0.000000 1.000000
vn 0.000000 0.000000 1.000000
vn 0.000000 0.000000 1.000000
vn 0.000000 0.000000 1.000000
f -5//-5 -4//-4 -3//-3
f -3//-3 -4//-4 -2//-2
f -3//-3 -2//-2 -1//-1
v -1.994214e+00 3.454838e+00 -2.039404e+01
v -2.523670e+00 3.209886e+00 -2.039404e+01
v 0.000000e+00 -1.550261e+00 -2.039404e+01
v -3.023539e+00 2.909125e+00 -2.039404e+01
v -3.487959e+00 2.556082e+00 -2.039404e+01
vn 0.000000 0.000000 1.000000
vn 0.000000 0.000000 1.000000
vn 0.000000 0.000000 1.000000
vn 0.000000 0.000000 1.000000
vn 0.000000 0.000000 1.000000
f -5//-5 -4//-4 -3//-3
f -3//-3 -4//-4 -2//-2
f -3//-3 -2//-2 -1//-1
v -3.487959e+00 2.556082e+00 -2.039404e+01
v -3.911486e+00 2.154895e+00 -2.039404e+01
v 0.000000e+00 -1.550261e+00 -2.039404e+01
v -4.289155e+00 1.710270e+00 -2.039404e+01
v -4.616537e+00 1.227417e+00 -2.039404e+01
vn 0.000000 0.000000 1.000000
vn 0.000000 0.000000 1.000000
vn 0.000000 0.000000 1.000000
vn 0.000000 0.000000 1.000000
vn 0.000000 0.000000 1.000000
f -5//-5 -4//-4 -3//-3
f -3//-3 -4//-4 -2//-2
f -3//-3 -2//-2 -1//-1
v -4.616537e+00 1.227417e+00 -2.039404e+01
v -4.889794e+00 7.119987e-01 -2.039404e+01
v 0.000000e+00 -1.550261e+00 -2.039404e+01
v -5.105723e+00 1.700575e-01 -2.039404e+01
v -5.261792e+00 -3.920529e-01 -2.039404e+01
vn 0.000000 0.000000 1.000000
vn 0.000000 0.000000 1.000000
vn 0.000000 0.000000 1.000000
vn 0.000000 0.000000 1.000000
vn 0.000000 0.000000 1.000000
f -5//-5 -4//-4 -3//-3
f -3//-3 -4//-4 -2//-2
f -3//-3 -2//-2 -1//-1
v -5.261792e+00 -3.920529e-01 -2.039404e+01
v -5.356172e+00 -9.677421e-01 -2.039404e+01
v 0.000000e+00 -1.550261e+00 -2.039404e+01
v -5.387755e+00 -1.550261e+00 -2.039404e+01
v -5.356172e+00 -2.132780e+00 -2.039404e+01
vn 0.000000 0.000000 1.000000
vn 0.000000 0.000000 1.000000
vn 0.000000 0.000000 1.000000
vn 0.000000 0.000000 1.000000
vn 0.000000 0.000000 1.000000
f -5//-5 -4//-4 -3//-3
f -3//-3 -4//-4 -2//-2
f -3//-3 -2//-2 -1//-1
v -5.356172e+00 -2.132780e+00 -2.039404e+01
v -5.261792e+00 -2.708469e+00 -2.039404e+01
v 0.000000e+00 -1.550261e+00 -2.039404e+01
v -5.105723e+00 -3.270579e+00 -2.039404e+01
v -4.889794e+00 -3.812521e+00 -2.039404e+01
vn 0.000000 0.000000 1.000000
vn 0.000000 0.000000 1.000000
vn 0.000000 0.000000 1.000000
vn 0.000000 0.000000 1.000000
vn 0.000000 0.000000 1.000000
f -5//-5 -4//-4 -3//-3
f -3//-3 -4//-4 -2//-2
f -3//-3 -2//-2 -1//-1
v -4.889794e+00 -3.812521e+00 -2.039404e+01
v -4.616537e+00 -4.327939e+00 -2.039404e+01
v 0.000000e+00 -1.550261e+00 -2.039404e+01
v -4.289155e+00 -4.810791e+00 -2.039404e+01
v -3.911486e+00 -5.255417e+00 -2.039404e+01
vn 0.000000 0.000000 1.000000
vn 0.000000 0.000000 1.000000
vn 0.000000 0.000000 1.000000
vn 0.000000 0.000000 1.000000
vn 0.000000 0.000000 1.000000
f -5//-5 -4//-4 -3//-3
f -3//-3 -4//-4 -2//-2
f -3//-3 -2//-2 -1//-1
v -3.911486e+00 -5.255417e+00 -2.039404e+01
v -3.487959e+00 -5.656603e+00 -2.039404e+01
v 0.000000e+00 -1.550261e+00 -2.039404e+01
v -3.023539e+00 -6.009646e+00 -2.039404e+01
v -2.523670e+00 -6.310408e+00 -2.039404e+01
vn 0.000000 0.000000 1.000000
vn 0.000000 0.000000 1.000000
vn 0.000000 0.000000 1.000000
vn 0.000000 0.000000 1.000000
vn 0.000000 0.000000 1.000000
f -5//-5 -4//-4 -3//-3
f -3//-3 -4//-4 -2//-2
f -3//-3 -2//-2 -1//-1
v -2.523670e+00 -6.310408e+00 -2.039404e+01
v -1.994214e+00 -6.555360e+00 -2.039404e+01
v 0.000000e+00 -1.550261e+00 -2.039404e+01
v -1.441377e+00 -6.741632e+00 -2.039404e+01
v -8.716418e-01 -6.867041e+00 -2.039404e+01
vn 0.000000 0.000000 1.000000
vn 0.000000 0.000000 1.000000
vn 0.000000 0.000000 1.000000
vn 0.000000 0.000000 1.000000
vn 0.000000 0.000000 1.000000
f -5//-5 -4//-4 -3//-3
f -3//-3 -4//-4 -2//-2
f -3//-3 -2//-2 -1//-1
v -8.716418e-01 -6.867041e+00 -2.039404e+01
v -2.916872e-01 -6.930114e+00 -2.039404e+01
v 0.000000e+00 -1.550261e+00 -2.039404e+01
v 2.916872e-01 -6.930114e+00 -2.039404e+01
v 8.716418e-01 -6.867041e+00 -2.039404e+01
vn 0.000000 0.000000 1.000000
vn 0.000000 0.000000 1.000000
vn 0.000000 0.000000 1.000000
vn 0.000000 0.000000 1.000000
vn 0.000000 0.000000 1.000000
f -5//-5 -4//-4 -3//-3
f -3//-3 -4//-4 -2//-2
f -3//-3 -2//-2 -1//-1
v 8.716418e-01 -6.867041e+00 -2.039404e+01
v 1.441377e+00 -6.741632e+00 -2.039404e+01
v 0.000000e+00 -1.550261e+00 -2.039404e+01
v 1.994214e+00 -6.555360e+00 -2.039404e+01
v 2.523670e+00 -6.310408e+00 -2.039404e+01
vn 0.000000 0.000000 1.000000
vn 0.000000 0.000000 1.000000
vn 0.000000 0.000000 1.000000
vn 0.000000 0.000000 1.000000
vn 0.000000 0.000000 1.000000
f -5//-5 -4//-4 -3//-3
f -3//-3 -4//-4 -2//-2
f -3//-3 -2//-2 -1//-1
v 2.523670e+00 -6.310408e+00 -2.039404e+01
v 3.023539e+00 -6.009646e+00 -2.039404e+01
v 0.000000e+00 -1.550261e+00 -2.039404e+01
v 3.487959e+00 -5.656603e+00 -2.039404e+01
v 3.911486e+00 -5.255417e+00 -2.039404e+01
vn 0.000000 0.000000 1.000000
vn 0.000000 0.000000 1.000000
vn 0.000000 0.000000 1.000000
vn 0.000000 0.000000 1.000000
vn 0.000000 0.000000 1.000000
f -5//-5 -4//-4 -3//-3
f -3//-3 -4//-4 -2//-2
f -3//-3 -2//-2 -1//-1
v 3.911486e+00 -5.255417e+00 -2.039404e+01
v 4.289155e+00 -4.810791e+00 -2.039404e+01
v 0.000000e+00 -1.550261e+00 -2.039404e+01
v 4.616537e+00 -4.327939e+00 -2.039404e+01
v 4.889794e+00 -3.812521e+00 -2.039404e+01
vn 0.000000 0.000000 1.000000
vn 0.000000 0.000000 1.000000
vn 0.000000 0.000000 1.000000
vn 0.000000 0.000000 1.000000
vn 0.000000 0.000000 1.000000
f -5//-5 -4//-4 -3//-3
f -3//-3 -4//-4 -2//-2
f -3//-3 -2//-2 -1//-1
v 4.889794e+00 -3.812521e+00 -2.039404e+01
v 5.105723e+00 -3.270579e+00 -2.039404e+01
v 0.000000e+00 -1.550261e+00 -2.039404e+01
v 5.261792e+00 -2.708469e+00 -2.039404e+01
v 5.356172e+00 -2.132780e+00 -2.039404e+01
vn 0.000000 0.000000 1.000000
vn 0.000000 0.000000 1.000000
vn 0.000000 0.000000 1.000000
vn 0.000000 0.000000 1.000000
vn 0.000000 0.000000 1.000000
f -5//-5 -4//-4 -3//-3
f -3//-3 -4//-4 -2//-2
f -3//-3 -2//-2 -1//-1
v 0.000000e+00 -1.550261e+00 -2.039404e+01
v 5.356172e+00 -2.132780e+00 -2.039404e+01
v 5.387755e+00 -1.550261e+00 -2.039404e+01
vn 0.000000 0.000000 1.000000
vn 0.000000 0.000000 1.000000
vn 0.000000 0.000000 1.000000
f -3//-3 -2//-2 -1//-1
