#
mtllib metal_Rectangular_Waveguide.mtl
usemtl ff4180ff
v -1.457960e+01 -8.102600e+00 0.000000e+00
v -1.295400e+01 -6.477000e+00 0.000000e+00
v -1.457960e+01 8.102600e+00 0.000000e+00
v -1.295400e+01 6.477000e+00 0.000000e+00
v 1.457960e+01 8.102600e+00 0.000000e+00
v 1.295400e+01 6.477000e+00 0.000000e+00
v 1.457960e+01 -8.102600e+00 0.000000e+00
v 1.295400e+01 -6.477000e+00 0.000000e+00
v -1.457960e+01 -8.102600e+00 0.000000e+00
v -1.295400e+01 -6.477000e+00 0.000000e+00
vn 0.000000 0.000000 1.000000
vn 0.000000 0.000000 1.000000
vn 0.000000 0.000000 1.000000
vn 0.000000 0.000000 1.000000
vn 0.000000 0.000000 1.000000
vn 0.000000 0.000000 1.000000
vn 0.000000 0.000000 1.000000
vn 0.000000 0.000000 1.000000
vn 0.000000 0.000000 1.000000
vn 0.000000 0.000000 1.000000
f -10//-10 -9//-9 -8//-8
f -8//-8 -9//-9 -7//-7
f -8//-8 -7//-7 -6//-6
f -6//-6 -7//-7 -5//-5
f -6//-6 -5//-5 -4//-4
f -4//-4 -5//-5 -3//-3
f -4//-4 -3//-3 -2//-2
f -2//-2 -3//-3 -1//-1
v 1.457960e+01 -8.102600e+00 -5.080000e+01
v 1.295400e+01 -6.477000e+00 -5.080000e+01
v 1.457960e+01 8.102600e+00 -5.080000e+01
v 1.295400e+01 6.477000e+00 -5.080000e+01
v -1.457960e+01 8.102600e+00 -5.080000e+01
v -1.295400e+01 6.477000e+00 -5.080000e+01
v -1.457960e+01 -8.102600e+00 -5.080000e+01
v -1.295400e+01 -6.477000e+00 -5.080000e+01
v 1.457960e+01 -8.102600e+00 -5.080000e+01
v 1.295400e+01 -6.477000e+00 -5.080000e+01
vn -0.000000 -0.000000 -1.000000
vn -0.000000 -0.000000 -1.000000
vn -0.000000 -0.000000 -1.000000
vn -0.000000 -0.000000 -1.000000
vn -0.000000 -0.000000 -1.000000
vn -0.000000 -0.000000 -1.000000
vn -0.000000 -0.000000 -1.000000
vn -0.000000 -0.000000 -1.000000
vn -0.000000 -0.000000 -1.000000
vn -0.000000 -0.000000 -1.000000
f -10//-10 -9//-9 -8//-8
f -8//-8 -9//-9 -7//-7
f -8//-8 -7//-7 -6//-6
f -6//-6 -7//-7 -5//-5
f -6//-6 -5//-5 -4//-4
f -4//-4 -5//-5 -3//-3
f -4//-4 -3//-3 -2//-2
f -2//-2 -3//-3 -1//-1
v -1.457960e+01 -8.102600e+00 0.000000e+00
v -1.457960e+01 -8.102600e+00 -5.080000e+01
v 1.457960e+01 -8.102600e+00 0.000000e+00
v 1.457960e+01 -8.102600e+00 -5.080000e+01
vn -0.000000 -1.000000 -0.000000
vn -0.000000 -1.000000 -0.000000
vn -0.000000 -1.000000 -0.000000
vn -0.000000 -1.000000 -0.000000
f -4//-4 -3//-3 -2//-2
f -2//-2 -3//-3 -1//-1
v -1.457960e+01 8.102600e+00 0.000000e+00
v -1.457960e+01 8.102600e+00 -5.080000e+01
v -1.457960e+01 -8.102600e+00 0.000000e+00
v -1.457960e+01 -8.102600e+00 -5.080000e+01
vn -1.000000 -0.000000 -0.000000
vn -1.000000 -0.000000 -0.000000
vn -1.000000 -0.000000 -0.000000
vn -1.000000 -0.000000 -0.000000
f -4//-4 -3//-3 -2//-2
f -2//-2 -3//-3 -1//-1
v 1.457960e+01 8.102600e+00 0.000000e+00
v 1.457960e+01 8.102600e+00 -5.080000e+01
v -1.457960e+01 8.102600e+00 0.000000e+00
v -1.457960e+01 8.102600e+00 -5.080000e+01
vn 0.000000 1.000000 0.000000
vn 0.000000 1.000000 0.000000
vn 0.000000 1.000000 0.000000
vn 0.000000 1.000000 0.000000
f -4//-4 -3//-3 -2//-2
f -2//-2 -3//-3 -1//-1
v 1.457960e+01 8.102600e+00 0.000000e+00
v 1.457960e+01 -8.102600e+00 0.000000e+00
v 1.457960e+01 8.102600e+00 -5.080000e+01
v 1.457960e+01 -8.102600e+00 -5.080000e+01
vn 1.000000 0.000000 0.000000
vn 1.000000 0.000000 0.000000
vn 1.000000 0.000000 0.000000
vn 1.000000 0.000000 0.000000
f -4//-4 -3//-3 -2//-2
f -2//-2 -3//-3 -1//-1
v -1.295400e+01 -6.477000e+00 -5.080000e+01
v -1.295400e+01 -6.477000e+00 0.000000e+00
v 1.295400e+01 -6.477000e+00 -5.080000e+01
v 1.295400e+01 -6.477000e+00 0.000000e+00
vn 0.000000 1.000000 0.000000
vn 0.000000 1.000000 0.000000
vn 0.000000 1.000000 0.000000
vn 0.000000 1.000000 0.000000
f -4//-4 -3//-3 -2//-2
f -2//-2 -3//-3 -1//-1
v -1.295400e+01 6.477000e+00 -5.080000e+01
v -1.295400e+01 6.477000e+00 0.000000e+00
v -1.295400e+01 -6.477000e+00 -5.080000e+01
v -1.295400e+01 -6.477000e+00 0.000000e+00
vn 1.000000 0.000000 0.000000
vn 1.000000 0.000000 0.000000
vn 1.000000 0.000000 0.000000
vn 1.000000 0.000000 0.000000
f -4//-4 -3//-3 -2//-2
f -2//-2 -3//-3 -1//-1
v 1.295400e+01 6.477000e+00 -5.080000e+01
v 1.295400e+01 6.477000e+00 0.000000e+00
v -1.295400e+01 6.477000e+00 -5.080000e+01
v -1.295400e+01 6.477000e+00 0.000000e+00
vn -0.000000 -1.000000 -0.000000
vn -0.000000 -1.000000 -0.000000
vn -0.000000 -1.000000 -0.000000
vn -0.000000 -1.000000 -0.000000
f -4//-4 -3//-3 -2//-2
f -2//-2 -3//-3 -1//-1
v 1.295400e+01 -6.477000e+00 0.000000e+00
v 1.295400e+01 6.477000e+00 0.000000e+00
v 1.295400e+01 -6.477000e+00 -5.080000e+01
v 1.295400e+01 6.477000e+00 -5.080000e+01
vn -1.000000 -0.000000 -0.000000
vn -1.000000 -0.000000 -0.000000
vn -1.000000 -0.000000 -0.000000
vn -1.000000 -0.000000 -0.000000
f -4//-4 -3//-3 -2//-2
f -2//-2 -3//-3 -1//-1
