#
mtllib port_cap_Rectangular_Waveguide.mtl
usemtl ffc18484
v -1.457960e+01 8.102600e+00 -5.080000e+01
v -1.457960e+01 -8.102600e+00 -5.080000e+01
v 1.457960e+01 8.102600e+00 -5.080000e+01
v 1.457960e+01 -8.102600e+00 -5.080000e+01
vn -0.000000 -0.000000 1.000000
vn -0.000000 -0.000000 1.000000
vn -0.000000 -0.000000 1.000000
vn -0.000000 -0.000000 1.000000
f -4//-4 -3//-3 -2//-2
f -2//-2 -3//-3 -1//-1
v 1.457960e+01 -8.102600e+00 -5.242560e+01
v -1.457960e+01 -8.102600e+00 -5.242560e+01
v 1.457960e+01 8.102600e+00 -5.242560e+01
v -1.457960e+01 8.102600e+00 -5.242560e+01
vn 0.000000 0.000000 -1.000000
vn 0.000000 0.000000 -1.000000
vn 0.000000 0.000000 -1.000000
vn 0.000000 0.000000 -1.000000
f -4//-4 -3//-3 -2//-2
f -2//-2 -3//-3 -1//-1
v 1.457960e+01 -8.102600e+00 -5.242560e+01
v 1.457960e+01 -8.102600e+00 -5.080000e+01
v -1.457960e+01 -8.102600e+00 -5.242560e+01
v -1.457960e+01 -8.102600e+00 -5.080000e+01
vn 0.000000 -1.000000 0.000000
vn 0.000000 -1.000000 0.000000
vn 0.000000 -1.000000 0.000000
vn 0.000000 -1.000000 0.000000
f -4//-4 -3//-3 -2//-2
f -2//-2 -3//-3 -1//-1
v -1.457960e+01 -8.102600e+00 -5.242560e+01
v -1.457960e+01 -8.102600e+00 -5.080000e+01
v -1.457960e+01 8.102600e+00 -5.242560e+01
v -1.457960e+01 8.102600e+00 -5.080000e+01
vn -1.000000 -0.000000 -0.000000
vn -1.000000 -0.000000 -0.000000
vn -1.000000 -0.000000 -0.000000
vn -1.000000 -0.000000 -0.000000
f -4//-4 -3//-3 -2//-2
f -2//-2 -3//-3 -1//-1
v -1.457960e+01 8.102600e+00 -5.242560e+01
v -1.457960e+01 8.102600e+00 -5.080000e+01
v 1.457960e+01 8.102600e+00 -5.242560e+01
v 1.457960e+01 8.102600e+00 -5.080000e+01
vn -0.000000 1.000000 -0.000000
vn -0.000000 1.000000 -0.000000
vn -0.000000 1.000000 -0.000000
vn -0.000000 1.000000 -0.000000
f -4//-4 -3//-3 -2//-2
f -2//-2 -3//-3 -1//-1
v 1.457960e+01 -8.102600e+00 -5.242560e+01
v 1.457960e+01 8.102600e+00 -5.242560e+01
v 1.457960e+01 -8.102600e+00 -5.080000e+01
v 1.457960e+01 8.102600e+00 -5.080000e+01
vn 1.000000 0.000000 0.000000
vn 1.000000 0.000000 0.000000
vn 1.000000 0.000000 0.000000
vn 1.000000 0.000000 0.000000
f -4//-4 -3//-3 -2//-2
f -2//-2 -3//-3 -1//-1
