#
mtllib sub_PlanarInvertedF.mtl
usemtl ff008000
v 2.125950e+01 8.078611e+00 0.000000e+00
v -2.125950e+01 8.078611e+00 0.000000e+00
v 2.125950e+01 -7.695940e+01 0.000000e+00
v -2.125950e+01 -7.695940e+01 0.000000e+00
vn 0.000000 0.000000 1.000000
vn 0.000000 0.000000 1.000000
vn 0.000000 0.000000 1.000000
vn 0.000000 0.000000 1.000000
f -4//-4 -3//-3 -2//-2
f -2//-2 -3//-3 -1//-1
v -2.125950e+01 -7.695940e+01 -1.574800e+00
v -2.125950e+01 8.078611e+00 -1.574800e+00
v 2.125950e+01 -7.695940e+01 -1.574800e+00
v 2.125950e+01 8.078611e+00 -1.574800e+00
vn -0.000000 -0.000000 -1.000000
vn -0.000000 -0.000000 -1.000000
vn -0.000000 -0.000000 -1.000000
vn -0.000000 -0.000000 -1.000000
f -4//-4 -3//-3 -2//-2
f -2//-2 -3//-3 -1//-1
v -2.125950e+01 -7.695940e+01 0.000000e+00
v -2.125950e+01 -7.695940e+01 -1.574800e+00
v 2.125950e+01 -7.695940e+01 0.000000e+00
v 2.125950e+01 -7.695940e+01 -1.574800e+00
vn -0.000000 -1.000000 -0.000000
vn -0.000000 -1.000000 -0.000000
vn -0.000000 -1.000000 -0.000000
vn -0.000000 -1.000000 -0.000000
f -4//-4 -3//-3 -2//-2
f -2//-2 -3//-3 -1//-1
v -2.125950e+01 8.078611e+00 0.000000e+00
v -2.125950e+01 8.078611e+00 -1.574800e+00
v -2.125950e+01 -7.695940e+01 0.000000e+00
v -2.125950e+01 -7.695940e+01 -1.574800e+00
vn -1.000000 -0.000000 -0.000000
vn -1.000000 -0.000000 -0.000000
vn -1.000000 -0.000000 -0.000000
vn -1.000000 -0.000000 -0.000000
f -4//-4 -3//-3 -2//-2
f -2//-2 -3//-3 -1//-1
v 2.125950e+01 8.078611e+00 0.000000e+00
v 2.125950e+01 8.078611e+00 -1.574800e+00
v -2.125950e+01 8.078611e+00 0.000000e+00
v -2.125950e+01 8.078611e+00 -1.574800e+00
vn 0.000000 1.000000 0.000000
vn 0.000000 1.000000 0.000000
vn 0.000000 1.000000 0.000000
vn 0.000000 1.000000 0.000000
f -4//-4 -3//-3 -2//-2
f -2//-2 -3//-3 -1//-1
v 2.125950e+01 8.078611e+00 0.000000e+00
v 2.125950e+01 -7.695940e+01 0.000000e+00
v 2.125950e+01 8.078611e+00 -1.574800e+00
v 2.125950e+01 -7.695940e+01 -1.574800e+00
vn 1.000000 0.000000 0.000000
vn 1.000000 0.000000 0.000000
vn 1.000000 0.000000 0.000000
vn 1.000000 0.000000 0.000000
f -4//-4 -3//-3 -2//-2
f -2//-2 -3//-3 -1//-1
