#
mtllib coax_GPSPatchCeramic.mtl
usemtl ffffff80
v 8.274696e-02 6.064351e-01 0.000000e+00
v 1.440483e-01 7.475649e-01 -5.000000e+00
v 1.440483e-01 7.475649e-01 0.000000e+00
v 1.650000e-01 9.000000e-01 -5.000000e+00
v 1.650000e-01 9.000000e-01 0.000000e+00
v 1.440483e-01 1.052435e+00 -5.000000e+00
v 1.440483e-01 1.052435e+00 0.000000e+00
v 8.274696e-02 1.193565e+00 -5.000000e+00
v 8.274696e-02 1.193565e+00 0.000000e+00
v -1.435747e-02 1.312922e+00 -5.000000e+00
v -1.435747e-02 1.312922e+00 0.000000e+00
v -1.400633e-01 1.401655e+00 -5.000000e+00
v -1.400633e-01 1.401655e+00 0.000000e+00
v -2.850474e-01 1.453182e+00 -5.000000e+00
v -2.850474e-01 1.453182e+00 0.000000e+00
v -4.385570e-01 1.463683e+00 -5.000000e+00
v -4.385570e-01 1.463683e+00 0.000000e+00
v -5.892070e-01 1.432377e+00 -5.000000e+00
v -5.892070e-01 1.432377e+00 0.000000e+00
v -7.258244e-01 1.361588e+00 -5.000000e+00
v -7.258244e-01 1.361588e+00 0.000000e+00
v -8.382769e-01 1.256565e+00 -5.000000e+00
v -8.382769e-01 1.256565e+00 0.000000e+00
v -9.182244e-01 1.125097e+00 -5.000000e+00
v -9.182244e-01 1.125097e+00 0.000000e+00
v -9.597375e-01 9.769341e-01 -5.000000e+00
v -9.597375e-01 9.769341e-01 0.000000e+00
v -9.597375e-01 8.230658e-01 -5.000000e+00
v -9.597375e-01 8.230658e-01 0.000000e+00
v -9.182244e-01 6.749034e-01 -5.000000e+00
v -9.182244e-01 6.749034e-01 0.000000e+00
v -8.382769e-01 5.434353e-01 -5.000000e+00
v -8.382769e-01 5.434353e-01 0.000000e+00
v -7.258244e-01 4.384120e-01 -5.000000e+00
v -7.258244e-01 4.384120e-01 0.000000e+00
v -5.892070e-01 3.676226e-01 -5.000000e+00
v -5.892070e-01 3.676226e-01 0.000000e+00
v -4.385570e-01 3.363172e-01 -5.000000e+00
v -4.385570e-01 3.363172e-01 0.000000e+00
v -2.850474e-01 3.468175e-01 -5.000000e+00
v -2.850474e-01 3.468175e-01 0.000000e+00
v -1.400633e-01 3.983448e-01 -5.000000e+00
v -1.400633e-01 3.983448e-01 0.000000e+00
v -1.435747e-02 4.870777e-01 -5.000000e+00
v -1.435747e-02 4.870777e-01 0.000000e+00
v 8.274696e-02 6.064351e-01 -5.000000e+00
v 8.274696e-02 6.064351e-01 0.000000e+00
v 1.440483e-01 7.475649e-01 -5.000000e+00
vn 0.854419 -0.519584 0.000000
vn 0.962917 -0.269797 0.000000
vn 0.962917 -0.269797 0.000000
vn 1.000000 0.000000 0.000000
vn 1.000000 0.000000 0.000000
vn 0.962917 0.269797 0.000000
vn 0.962917 0.269797 0.000000
vn 0.854419 0.519584 0.000000
vn 0.854419 0.519584 0.000000
vn 0.682553 0.730836 0.000000
vn 0.682553 0.730836 0.000000
vn 0.460065 0.887885 0.000000
vn 0.460065 0.887885 0.000000
vn 0.203456 0.979084 0.000000
vn 0.203456 0.979084 0.000000
vn -0.068242 0.997669 0.000000
vn -0.068242 0.997669 0.000000
vn -0.334880 0.942261 0.000000
vn -0.334880 0.942261 0.000000
vn -0.576680 0.816970 0.000000
vn -0.576680 0.816970 0.000000
vn -0.775711 0.631088 0.000000
vn -0.775711 0.631088 0.000000
vn -0.917211 0.398401 0.000000
vn -0.917211 0.398401 0.000000
vn -0.990686 0.136167 0.000000
vn -0.990686 0.136167 0.000000
vn -0.990686 -0.136167 -0.000000
vn -0.990686 -0.136167 -0.000000
vn -0.917211 -0.398401 -0.000000
vn -0.917211 -0.398401 -0.000000
vn -0.775711 -0.631088 -0.000000
vn -0.775711 -0.631088 -0.000000
vn -0.576680 -0.816970 -0.000000
vn -0.576680 -0.816970 -0.000000
vn -0.334880 -0.942261 -0.000000
vn -0.334880 -0.942261 -0.000000
vn -0.068242 -0.997669 -0.000000
vn -0.068242 -0.997669 -0.000000
vn 0.203456 -0.979084 0.000000
vn 0.203456 -0.979084 0.000000
vn 0.460065 -0.887885 0.000000
vn 0.460065 -0.887885 0.000000
vn 0.682553 -0.730836 0.000000
vn 0.682553 -0.730836 0.000000
vn 0.854419 -0.519584 0.000000
vn 0.854419 -0.519584 0.000000
vn 0.962917 -0.269797 0.000000
f -48//-48 -47//-47 -46//-46
f -46//-46 -47//-47 -45//-45
f -46//-46 -45//-45 -44//-44
f -44//-44 -45//-45 -43//-43
f -44//-44 -43//-43 -42//-42
f -42//-42 -43//-43 -41//-41
f -42//-42 -41//-41 -40//-40
f -40//-40 -41//-41 -39//-39
f -40//-40 -39//-39 -38//-38
f -38//-38 -39//-39 -37//-37
f -38//-38 -37//-37 -36//-36
f -36//-36 -37//-37 -35//-35
f -36//-36 -35//-35 -34//-34
f -34//-34 -35//-35 -33//-33
f -34//-34 -33//-33 -32//-32
f -32//-32 -33//-33 -31//-31
f -32//-32 -31//-31 -30//-30
f -30//-30 -31//-31 -29//-29
f -30//-30 -29//-29 -28//-28
f -28//-28 -29//-29 -27//-27
f -28//-28 -27//-27 -26//-26
f -26//-26 -27//-27 -25//-25
f -26//-26 -25//-25 -24//-24
f -24//-24 -25//-25 -23//-23
f -24//-24 -23//-23 -22//-22
f -22//-22 -23//-23 -21//-21
f -22//-22 -21//-21 -20//-20
f -20//-20 -21//-21 -19//-19
f -20//-20 -19//-19 -18//-18
f -18//-18 -19//-19 -17//-17
f -18//-18 -17//-17 -16//-16
f -16//-16 -17//-17 -15//-15
f -16//-16 -15//-15 -14//-14
f -14//-14 -15//-15 -13//-13
f -14//-14 -13//-13 -12//-12
f -12//-12 -13//-13 -11//-11
f -12//-12 -11//-11 -10//-10
f -10//-10 -11//-11 -9//-9
f -10//-10 -9//-9 -8//-8
f -8//-8 -9//-9 -7//-7
f -8//-8 -7//-7 -6//-6
f -6//-6 -7//-7 -5//-5
f -6//-6 -5//-5 -4//-4
f -4//-4 -5//-5 -3//-3
f -4//-4 -3//-3 -2//-2
f -2//-2 -3//-3 -1//-1
v 1.650000e-01 9.000000e-01 -5.000000e+00
v 1.440483e-01 7.475649e-01 -5.000000e+00
v -4.000000e-01 9.000000e-01 -5.000000e+00
v 8.274696e-02 6.064351e-01 -5.000000e+00
v -1.435747e-02 4.870777e-01 -5.000000e+00
vn 0.000000 0.000000 -1.000000
vn 0.000000 0.000000 -1.000000
vn 0.000000 0.000000 -1.000000
vn 0.000000 0.000000 -1.000000
vn 0.000000 0.000000 -1.000000
f -5//-5 -4//-4 -3//-3
f -3//-3 -4//-4 -2//-2
f -3//-3 -2//-2 -1//-1
v -1.435747e-02 4.870777e-01 -5.000000e+00
v -1.400633e-01 3.983448e-01 -5.000000e+00
v -4.000000e-01 9.000000e-01 -5.000000e+00
v -2.850474e-01 3.468175e-01 -5.000000e+00
v -4.385570e-01 3.363172e-01 -5.000000e+00
vn 0.000000 0.000000 -1.000000
vn 0.000000 0.000000 -1.000000
vn 0.000000 0.000000 -1.000000
vn 0.000000 0.000000 -1.000000
vn 0.000000 0.000000 -1.000000
f -5//-5 -4//-4 -3//-3
f -3//-3 -4//-4 -2//-2
f -3//-3 -2//-2 -1//-1
v -4.385570e-01 3.363172e-01 -5.000000e+00
v -5.892070e-01 3.676226e-01 -5.000000e+00
v -4.000000e-01 9.000000e-01 -5.000000e+00
v -7.258244e-01 4.384120e-01 -5.000000e+00
v -8.382769e-01 5.434353e-01 -5.000000e+00
vn 0.000000 0.000000 -1.000000
vn 0.000000 0.000000 -1.000000
vn 0.000000 0.000000 -1.000000
vn 0.000000 0.000000 -1.000000
vn 0.000000 0.000000 -1.000000
f -5//-5 -4//-4 -3//-3
f -3//-3 -4//-4 -2//-2
f -3//-3 -2//-2 -1//-1
v -8.382769e-01 5.434353e-01 -5.000000e+00
v -9.182244e-01 6.749034e-01 -5.000000e+00
v -4.000000e-01 9.000000e-01 -5.000000e+00
v -9.597375e-01 8.230658e-01 -5.000000e+00
v -9.597375e-01 9.769341e-01 -5.000000e+00
vn 0.000000 0.000000 -1.000000
vn 0.000000 0.000000 -1.000000
vn 0.000000 0.000000 -1.000000
vn 0.000000 0.000000 -1.000000
vn 0.000000 0.000000 -1.000000
f -5//-5 -4//-4 -3//-3
f -3//-3 -4//-4 -2//-2
f -3//-3 -2//-2 -1//-1
v -9.597375e-01 9.769341e-01 -5.000000e+00
v -9.182244e-01 1.125097e+00 -5.000000e+00
v -4.000000e-01 9.000000e-01 -5.000000e+00
v -8.382769e-01 1.256565e+00 -5.000000e+00
v -7.258244e-01 1.361588e+00 -5.000000e+00
vn 0.000000 0.000000 -1.000000
vn 0.000000 0.000000 -1.000000
vn 0.000000 0.000000 -1.000000
vn 0.000000 0.000000 -1.000000
vn 0.000000 0.000000 -1.000000
f -5//-5 -4//-4 -3//-3
f -3//-3 -4//-4 -2//-2
f -3//-3 -2//-2 -1//-1
v -7.258244e-01 1.361588e+00 -5.000000e+00
v -5.892070e-01 1.432377e+00 -5.000000e+00
v -4.000000e-01 9.000000e-01 -5.000000e+00
v -4.385570e-01 1.463683e+00 -5.000000e+00
v -2.850474e-01 1.453182e+00 -5.000000e+00
vn 0.000000 0.000000 -1.000000
vn 0.000000 0.000000 -1.000000
vn 0.000000 0.000000 -1.000000
vn 0.000000 0.000000 -1.000000
vn 0.000000 0.000000 -1.000000
f -5//-5 -4//-4 -3//-3
f -3//-3 -4//-4 -2//-2
f -3//-3 -2//-2 -1//-1
v -2.850474e-01 1.453182e+00 -5.000000e+00
v -1.400633e-01 1.401655e+00 -5.000000e+00
v -4.000000e-01 9.000000e-01 -5.000000e+00
v -1.435747e-02 1.312922e+00 -5.000000e+00
v 8.274696e-02 1.193565e+00 -5.000000e+00
vn 0.000000 0.000000 -1.000000
vn 0.000000 0.000000 -1.000000
vn 0.000000 0.000000 -1.000000
vn 0.000000 0.000000 -1.000000
vn 0.000000 0.000000 -1.000000
f -5//-5 -4//-4 -3//-3
f -3//-3 -4//-4 -2//-2
f -3//-3 -2//-2 -1//-1
v 8.274696e-02 1.193565e+00 -5.000000e+00
v 1.440483e-01 1.052435e+00 -5.000000e+00
v -4.000000e-01 9.000000e-01 -5.000000e+00
v 1.650000e-01 9.000000e-01 -5.000000e+00
vn 0.000000 0.000000 -1.000000
vn 0.000000 0.000000 -1.000000
vn 0.000000 0.000000 -1.000000
vn 0.000000 0.000000 -1.000000
f -4//-4 -3//-3 -2//-2
f -2//-2 -3//-3 -1//-1
v 1.650000e-01 9.000000e-01 0.000000e+00
v 1.440483e-01 1.052435e+00 0.000000e+00
v -4.000000e-01 9.000000e-01 0.000000e+00
v 8.274696e-02 1.193565e+00 0.000000e+00
v -1.435747e-02 1.312922e+00 0.000000e+00
vn -0.000000 -0.000000 1.000000
vn -0.000000 -0.000000 1.000000
vn -0.000000 -0.000000 1.000000
vn -0.000000 -0.000000 1.000000
vn -0.000000 -0.000000 1.000000
f -5//-5 -4//-4 -3//-3
f -3//-3 -4//-4 -2//-2
f -3//-3 -2//-2 -1//-1
v -1.435747e-02 1.312922e+00 0.000000e+00
v -1.400633e-01 1.401655e+00 0.000000e+00
v -4.000000e-01 9.000000e-01 0.000000e+00
v -2.850474e-01 1.453182e+00 0.000000e+00
v -4.385570e-01 1.463683e+00 0.000000e+00
vn -0.000000 -0.000000 1.000000
vn -0.000000 -0.000000 1.000000
vn -0.000000 -0.000000 1.000000
vn -0.000000 -0.000000 1.000000
vn -0.000000 -0.000000 1.000000
f -5//-5 -4//-4 -3//-3
f -3//-3 -4//-4 -2//-2
f -3//-3 -2//-2 -1//-1
v -4.385570e-01 1.463683e+00 0.000000e+00
v -5.892070e-01 1.432377e+00 0.000000e+00
v -4.000000e-01 9.000000e-01 0.000000e+00
v -7.258244e-01 1.361588e+00 0.000000e+00
v -8.382769e-01 1.256565e+00 0.000000e+00
vn -0.000000 -0.000000 1.000000
vn -0.000000 -0.000000 1.000000
vn -0.000000 -0.000000 1.000000
vn -0.000000 -0.000000 1.000000
vn -0.000000 -0.000000 1.000000
f -5//-5 -4//-4 -3//-3
f -3//-3 -4//-4 -2//-2
f -3//-3 -2//-2 -1//-1
v -8.382769e-01 1.256565e+00 0.000000e+00
v -9.182244e-01 1.125097e+00 0.000000e+00
v -4.000000e-01 9.000000e-01 0.000000e+00
v -9.597375e-01 9.769341e-01 0.000000e+00
v -9.597375e-01 8.230658e-01 0.000000e+00
vn -0.000000 -0.000000 1.000000
vn -0.000000 -0.000000 1.000000
vn -0.000000 -0.000000 1.000000
vn -0.000000 -0.000000 1.000000
vn -0.000000 -0.000000 1.000000
f -5//-5 -4//-4 -3//-3
f -3//-3 -4//-4 -2//-2
f -3//-3 -2//-2 -1//-1
v -9.597375e-01 8.230658e-01 0.000000e+00
v -9.182244e-01 6.749034e-01 0.000000e+00
v -4.000000e-01 9.000000e-01 0.000000e+00
v -8.382769e-01 5.434353e-01 0.000000e+00
v -7.258244e-01 4.384120e-01 0.000000e+00
vn -0.000000 -0.000000 1.000000
vn -0.000000 -0.000000 1.000000
vn -0.000000 -0.000000 1.000000
vn -0.000000 -0.000000 1.000000
vn -0.000000 -0.000000 1.000000
f -5//-5 -4//-4 -3//-3
f -3//-3 -4//-4 -2//-2
f -3//-3 -2//-2 -1//-1
v -7.258244e-01 4.384120e-01 0.000000e+00
v -5.892070e-01 3.676226e-01 0.000000e+00
v -4.000000e-01 9.000000e-01 0.000000e+00
v -4.385570e-01 3.363172e-01 0.000000e+00
v -2.850474e-01 3.468175e-01 0.000000e+00
vn -0.000000 -0.000000 1.000000
vn -0.000000 -0.000000 1.000000
vn -0.000000 -0.000000 1.000000
vn -0.000000 -0.000000 1.000000
vn -0.000000 -0.000000 1.000000
f -5//-5 -4//-4 -3//-3
f -3//-3 -4//-4 -2//-2
f -3//-3 -2//-2 -1//-1
v -2.850474e-01 3.468175e-01 0.000000e+00
v -1.400633e-01 3.983448e-01 0.000000e+00
v -4.000000e-01 9.000000e-01 0.000000e+00
v -1.435747e-02 4.870777e-01 0.000000e+00
v 8.274696e-02 6.064351e-01 0.000000e+00
vn -0.000000 -0.000000 1.000000
vn -0.000000 -0.000000 1.000000
vn -0.000000 -0.000000 1.000000
vn -0.000000 -0.000000 1.000000
vn -0.000000 -0.000000 1.000000
f -5//-5 -4//-4 -3//-3
f -3//-3 -4//-4 -2//-2
f -3//-3 -2//-2 -1//-1
v 8.274696e-02 6.064351e-01 0.000000e+00
v 1.440483e-01 7.475649e-01 0.000000e+00
v -4.000000e-01 9.000000e-01 0.000000e+00
v 1.650000e-01 9.000000e-01 0.000000e+00
vn -0.000000 -0.000000 1.000000
vn -0.000000 -0.000000 1.000000
vn -0.000000 -0.000000 1.000000
vn -0.000000 -0.000000 1.000000
f -4//-4 -3//-3 -2//-2
f -2//-2 -3//-3 -1//-1
