#
mtllib port_cap_GPSPatchCeramic.mtl
usemtl ffc18484
v 1.343867e-01 7.165448e-01 -5.000000e+00
v 1.572941e-01 8.070040e-01 -6.000000e+00
v 1.572941e-01 8.070040e-01 -5.000000e+00
v 1.650000e-01 9.000000e-01 -6.000000e+00
v 1.650000e-01 9.000000e-01 -5.000000e+00
v 1.572941e-01 9.929959e-01 -6.000000e+00
v 1.572941e-01 9.929959e-01 -5.000000e+00
v 1.343867e-01 1.083455e+00 -6.000000e+00
v 1.343867e-01 1.083455e+00 -5.000000e+00
v 9.690267e-02 1.168910e+00 -6.000000e+00
v 9.690267e-02 1.168910e+00 -5.000000e+00
v 4.586439e-02 1.247030e+00 -6.000000e+00
v 4.586439e-02 1.247030e+00 -5.000000e+00
v -1.733591e-02 1.315684e+00 -6.000000e+00
v -1.733591e-02 1.315684e+00 -5.000000e+00
v -9.097429e-02 1.372999e+00 -6.000000e+00
v -9.097429e-02 1.372999e+00 -5.000000e+00
v -1.730421e-01 1.417412e+00 -6.000000e+00
v -1.730421e-01 1.417412e+00 -5.000000e+00
v -2.613007e-01 1.447711e+00 -6.000000e+00
v -2.613007e-01 1.447711e+00 -5.000000e+00
v -3.533427e-01 1.463070e+00 -6.000000e+00
v -3.533427e-01 1.463070e+00 -5.000000e+00
v -4.466573e-01 1.463070e+00 -6.000000e+00
v -4.466573e-01 1.463070e+00 -5.000000e+00
v -5.386993e-01 1.447711e+00 -6.000000e+00
v -5.386993e-01 1.447711e+00 -5.000000e+00
v -6.269579e-01 1.417412e+00 -6.000000e+00
v -6.269579e-01 1.417412e+00 -5.000000e+00
v -7.090257e-01 1.372999e+00 -6.000000e+00
v -7.090257e-01 1.372999e+00 -5.000000e+00
v -7.826641e-01 1.315684e+00 -6.000000e+00
v -7.826641e-01 1.315684e+00 -5.000000e+00
v -8.458644e-01 1.247030e+00 -6.000000e+00
v -8.458644e-01 1.247030e+00 -5.000000e+00
v -8.969027e-01 1.168910e+00 -6.000000e+00
v -8.969027e-01 1.168910e+00 -5.000000e+00
v -9.343867e-01 1.083455e+00 -6.000000e+00
v -9.343867e-01 1.083455e+00 -5.000000e+00
v -9.572942e-01 9.929959e-01 -6.000000e+00
v -9.572942e-01 9.929959e-01 -5.000000e+00
v -9.650000e-01 9.000000e-01 -6.000000e+00
v -9.650000e-01 9.000000e-01 -5.000000e+00
v -9.572942e-01 8.070040e-01 -6.000000e+00
v -9.572942e-01 8.070040e-01 -5.000000e+00
v -9.343867e-01 7.165448e-01 -6.000000e+00
v -9.343867e-01 7.165448e-01 -5.000000e+00
v -8.969027e-01 6.310897e-01 -6.000000e+00
v -8.969027e-01 6.310897e-01 -5.000000e+00
v -8.458644e-01 5.529698e-01 -6.000000e+00
v -8.458644e-01 5.529698e-01 -5.000000e+00
v -7.826641e-01 4.843160e-01 -6.000000e+00
v -7.826641e-01 4.843160e-01 -5.000000e+00
v -7.090257e-01 4.270009e-01 -6.000000e+00
v -7.090257e-01 4.270009e-01 -5.000000e+00
v -6.269579e-01 3.825881e-01 -6.000000e+00
v -6.269579e-01 3.825881e-01 -5.000000e+00
v -5.386993e-01 3.522888e-01 -6.000000e+00
v -5.386993e-01 3.522888e-01 -5.000000e+00
v -4.466573e-01 3.369298e-01 -6.000000e+00
v -4.466573e-01 3.369298e-01 -5.000000e+00
v -3.533427e-01 3.369298e-01 -6.000000e+00
v -3.533427e-01 3.369298e-01 -5.000000e+00
v -2.613007e-01 3.522888e-01 -6.000000e+00
vn 0.945817 -0.324699 0.000000
vn 0.986361 -0.164595 0.000000
vn 0.986361 -0.164595 0.000000
vn 1.000000 0.000000 0.000000
vn 1.000000 0.000000 0.000000
vn 0.986361 0.164595 0.000000
vn 0.986361 0.164595 0.000000
vn 0.945817 0.324699 0.000000
vn 0.945817 0.324699 0.000000
vn 0.879474 0.475947 0.000000
vn 0.879474 0.475947 0.000000
vn 0.789141 0.614213 0.000000
vn 0.789141 0.614213 0.000000
vn 0.677282 0.735724 0.000000
vn 0.677282 0.735724 0.000000
vn 0.546948 0.837166 0.000000
vn 0.546948 0.837166 0.000000
vn 0.401695 0.915773 0.000000
vn 0.401695 0.915773 0.000000
vn 0.245485 0.969400 0.000000
vn 0.245485 0.969400 0.000000
vn 0.082579 0.996584 0.000000
vn 0.082579 0.996584 0.000000
vn -0.082579 0.996584 0.000000
vn -0.082579 0.996584 0.000000
vn -0.245485 0.969400 0.000000
vn -0.245485 0.969400 0.000000
vn -0.401695 0.915773 0.000000
vn -0.401695 0.915773 0.000000
vn -0.546948 0.837166 0.000000
vn -0.546948 0.837166 0.000000
vn -0.677282 0.735724 0.000000
vn -0.677282 0.735724 0.000000
vn -0.789141 0.614213 0.000000
vn -0.789141 0.614213 0.000000
vn -0.879474 0.475947 0.000000
vn -0.879474 0.475947 0.000000
vn -0.945817 0.324699 0.000000
vn -0.945817 0.324699 0.000000
vn -0.986361 0.164595 0.000000
vn -0.986361 0.164595 0.000000
vn -1.000000 -0.000000 -0.000000
vn -1.000000 -0.000000 -0.000000
vn -0.986361 -0.164595 -0.000000
vn -0.986361 -0.164595 -0.000000
vn -0.945817 -0.324699 -0.000000
vn -0.945817 -0.324699 -0.000000
vn -0.879474 -0.475947 -0.000000
vn -0.879474 -0.475947 -0.000000
vn -0.789141 -0.614213 -0.000000
vn -0.789141 -0.614213 -0.000000
vn -0.677282 -0.735724 -0.000000
vn -0.677282 -0.735724 -0.000000
vn -0.546948 -0.837166 -0.000000
vn -0.546948 -0.837166 -0.000000
vn -0.401695 -0.915773 -0.000000
vn -0.401695 -0.915773 -0.000000
vn -0.245485 -0.969400 -0.000000
vn -0.245485 -0.969400 -0.000000
vn -0.082579 -0.996584 -0.000000
vn -0.082579 -0.996584 -0.000000
vn 0.082579 -0.996584 0.000000
vn 0.082579 -0.996584 0.000000
vn 0.245485 -0.969400 0.000000
f -64//-64 -63//-63 -62//-62
f -62//-62 -63//-63 -61//-61
f -62//-62 -61//-61 -60//-60
f -60//-60 -61//-61 -59//-59
f -60//-60 -59//-59 -58//-58
f -58//-58 -59//-59 -57//-57
f -58//-58 -57//-57 -56//-56
f -56//-56 -57//-57 -55//-55
f -56//-56 -55//-55 -54//-54
f -54//-54 -55//-55 -53//-53
f -54//-54 -53//-53 -52//-52
f -52//-52 -53//-53 -51//-51
f -52//-52 -51//-51 -50//-50
f -50//-50 -51//-51 -49//-49
f -50//-50 -49//-49 -48//-48
f -48//-48 -49//-49 -47//-47
f -48//-48 -47//-47 -46//-46
f -46//-46 -47//-47 -45//-45
f -46//-46 -45//-45 -44//-44
f -44//-44 -45//-45 -43//-43
f -44//-44 -43//-43 -42//-42
f -42//-42 -43//-43 -41//-41
f -42//-42 -41//-41 -40//-40
f -40//-40 -41//-41 -39//-39
f -40//-40 -39//-39 -38//-38
f -38//-38 -39//-39 -37//-37
f -38//-38 -37//-37 -36//-36
f -36//-36 -37//-37 -35//-35
f -36//-36 -35//-35 -34//-34
f -34//-34 -35//-35 -33//-33
f -34//-34 -33//-33 -32//-32
f -32//-32 -33//-33 -31//-31
f -32//-32 -31//-31 -30//-30
f -30//-30 -31//-31 -29//-29
f -30//-30 -29//-29 -28//-28
f -28//-28 -29//-29 -27//-27
f -28//-28 -27//-27 -26//-26
f -26//-26 -27//-27 -25//-25
f -26//-26 -25//-25 -24//-24
f -24//-24 -25//-25 -23//-23
f -24//-24 -23//-23 -22//-22
f -22//-22 -23//-23 -21//-21
f -22//-22 -21//-21 -20//-20
f -20//-20 -21//-21 -19//-19
f -20//-20 -19//-19 -18//-18
f -18//-18 -19//-19 -17//-17
f -18//-18 -17//-17 -16//-16
f -16//-16 -17//-17 -15//-15
f -16//-16 -15//-15 -14//-14
f -14//-14 -15//-15 -13//-13
f -14//-14 -13//-13 -12//-12
f -12//-12 -13//-13 -11//-11
f -12//-12 -11//-11 -10//-10
f -10//-10 -11//-11 -9//-9
f -10//-10 -9//-9 -8//-8
f -8//-8 -9//-9 -7//-7
f -8//-8 -7//-7 -6//-6
f -6//-6 -7//-7 -5//-5
f -6//-6 -5//-5 -4//-4
f -4//-4 -5//-5 -3//-3
f -4//-4 -3//-3 -2//-2
f -2//-2 -3//-3 -1//-1
v -3.533427e-01 3.369298e-01 -5.000000e+00
v -2.613007e-01 3.522888e-01 -6.000000e+00
v -2.613007e-01 3.522888e-01 -5.000000e+00
v -1.730421e-01 3.825881e-01 -6.000000e+00
v -1.730421e-01 3.825881e-01 -5.000000e+00
v -9.097429e-02 4.270009e-01 -6.000000e+00
v -9.097429e-02 4.270009e-01 -5.000000e+00
v -1.733591e-02 4.843160e-01 -6.000000e+00
v -1.733591e-02 4.843160e-01 -5.000000e+00
v 4.586439e-02 5.529698e-01 -6.000000e+00
v 4.586439e-02 5.529698e-01 -5.000000e+00
v 9.690267e-02 6.310897e-01 -6.000000e+00
v 9.690267e-02 6.310897e-01 -5.000000e+00
v 1.343867e-01 7.165448e-01 -6.000000e+00
v 1.343867e-01 7.165448e-01 -5.000000e+00
v 1.572941e-01 8.070040e-01 -6.000000e+00
vn 0.082579 -0.996584 0.000000
vn 0.245485 -0.969400 0.000000
vn 0.245485 -0.969400 0.000000
vn 0.401695 -0.915773 0.000000
vn 0.401695 -0.915773 0.000000
vn 0.546948 -0.837166 0.000000
vn 0.546948 -0.837166 0.000000
vn 0.677282 -0.735724 0.000000
vn 0.677282 -0.735724 0.000000
vn 0.789141 -0.614213 0.000000
vn 0.789141 -0.614213 0.000000
vn 0.879474 -0.475947 0.000000
vn 0.879474 -0.475947 0.000000
vn 0.945817 -0.324699 0.000000
vn 0.945817 -0.324699 0.000000
vn 0.986361 -0.164595 0.000000
f -16//-16 -15//-15 -14//-14
f -14//-14 -15//-15 -13//-13
f -14//-14 -13//-13 -12//-12
f -12//-12 -13//-13 -11//-11
f -12//-12 -11//-11 -10//-10
f -10//-10 -11//-11 -9//-9
f -10//-10 -9//-9 -8//-8
f -8//-8 -9//-9 -7//-7
f -8//-8 -7//-7 -6//-6
f -6//-6 -7//-7 -5//-5
f -6//-6 -5//-5 -4//-4
f -4//-4 -5//-5 -3//-3
f -4//-4 -3//-3 -2//-2
f -2//-2 -3//-3 -1//-1
v 1.650000e-01 9.000000e-01 -6.000000e+00
v 1.572941e-01 8.070040e-01 -6.000000e+00
v -4.000000e-01 9.000000e-01 -6.000000e+00
v 1.343867e-01 7.165448e-01 -6.000000e+00
v 9.690267e-02 6.310897e-01 -6.000000e+00
vn 0.000000 0.000000 -1.000000
vn 0.000000 0.000000 -1.000000
vn 0.000000 0.000000 -1.000000
vn 0.000000 0.000000 -1.000000
vn 0.000000 0.000000 -1.000000
f -5//-5 -4//-4 -3//-3
f -3//-3 -4//-4 -2//-2
f -3//-3 -2//-2 -1//-1
v 9.690267e-02 6.310897e-01 -6.000000e+00
v 4.586439e-02 5.529698e-01 -6.000000e+00
v -4.000000e-01 9.000000e-01 -6.000000e+00
v -1.733591e-02 4.843160e-01 -6.000000e+00
v -9.097429e-02 4.270009e-01 -6.000000e+00
vn 0.000000 0.000000 -1.000000
vn 0.000000 0.000000 -1.000000
vn 0.000000 0.000000 -1.000000
vn 0.000000 0.000000 -1.000000
vn 0.000000 0.000000 -1.000000
f -5//-5 -4//-4 -3//-3
f -3//-3 -4//-4 -2//-2
f -3//-3 -2//-2 -1//-1
v -9.097429e-02 4.270009e-01 -6.000000e+00
v -1.730421e-01 3.825881e-01 -6.000000e+00
v -4.000000e-01 9.000000e-01 -6.000000e+00
v -2.613007e-01 3.522888e-01 -6.000000e+00
v -3.533427e-01 3.369298e-01 -6.000000e+00
vn 0.000000 0.000000 -1.000000
vn 0.000000 0.000000 -1.000000
vn 0.000000 0.000000 -1.000000
vn 0.000000 0.000000 -1.000000
vn 0.000000 0.000000 -1.000000
f -5//-5 -4//-4 -3//-3
f -3//-3 -4//-4 -2//-2
f -3//-3 -2//-2 -1//-1
v -3.533427e-01 3.369298e-01 -6.000000e+00
v -4.466573e-01 3.369298e-01 -6.000000e+00
v -4.000000e-01 9.000000e-01 -6.000000e+00
v -5.386993e-01 3.522888e-01 -6.000000e+00
v -6.269579e-01 3.825881e-01 -6.000000e+00
vn 0.000000 0.000000 -1.000000
vn 0.000000 0.000000 -1.000000
vn 0.000000 0.000000 -1.000000
vn 0.000000 0.000000 -1.000000
vn 0.000000 0.000000 -1.000000
f -5//-5 -4//-4 -3//-3
f -3//-3 -4//-4 -2//-2
f -3//-3 -2//-2 -1//-1
v -6.269579e-01 3.825881e-01 -6.000000e+00
v -7.090257e-01 4.270009e-01 -6.000000e+00
v -4.000000e-01 9.000000e-01 -6.000000e+00
v -7.826641e-01 4.843160e-01 -6.000000e+00
v -8.458644e-01 5.529698e-01 -6.000000e+00
vn 0.000000 0.000000 -1.000000
vn 0.000000 0.000000 -1.000000
vn 0.000000 0.000000 -1.000000
vn 0.000000 0.000000 -1.000000
vn 0.000000 0.000000 -1.000000
f -5//-5 -4//-4 -3//-3
f -3//-3 -4//-4 -2//-2
f -3//-3 -2//-2 -1//-1
v -8.458644e-01 5.529698e-01 -6.000000e+00
v -8.969027e-01 6.310897e-01 -6.000000e+00
v -4.000000e-01 9.000000e-01 -6.000000e+00
v -9.343867e-01 7.165448e-01 -6.000000e+00
v -9.572942e-01 8.070040e-01 -6.000000e+00
vn 0.000000 0.000000 -1.000000
vn 0.000000 0.000000 -1.000000
vn 0.000000 0.000000 -1.000000
vn 0.000000 0.000000 -1.000000
vn 0.000000 0.000000 -1.000000
f -5//-5 -4//-4 -3//-3
f -3//-3 -4//-4 -2//-2
f -3//-3 -2//-2 -1//-1
v -9.572942e-01 8.070040e-01 -6.000000e+00
v -9.650000e-01 9.000000e-01 -6.000000e+00
v -4.000000e-01 9.000000e-01 -6.000000e+00
v -9.572942e-01 9.929959e-01 -6.000000e+00
v -9.343867e-01 1.083455e+00 -6.000000e+00
vn 0.000000 0.000000 -1.000000
vn 0.000000 0.000000 -1.000000
vn 0.000000 0.000000 -1.000000
vn 0.000000 0.000000 -1.000000
vn 0.000000 0.000000 -1.000000
f -5//-5 -4//-4 -3//-3
f -3//-3 -4//-4 -2//-2
f -3//-3 -2//-2 -1//-1
v -9.343867e-01 1.083455e+00 -6.000000e+00
v -8.969027e-01 1.168910e+00 -6.000000e+00
v -4.000000e-01 9.000000e-01 -6.000000e+00
v -8.458644e-01 1.247030e+00 -6.000000e+00
v -7.826641e-01 1.315684e+00 -6.000000e+00
vn 0.000000 0.000000 -1.000000
vn 0.000000 0.000000 -1.000000
vn 0.000000 0.000000 -1.000000
vn 0.000000 0.000000 -1.000000
vn 0.000000 0.000000 -1.000000
f -5//-5 -4//-4 -3//-3
f -3//-3 -4//-4 -2//-2
f -3//-3 -2//-2 -1//-1
v -7.826641e-01 1.315684e+00 -6.000000e+00
v -7.090257e-01 1.372999e+00 -6.000000e+00
v -4.000000e-01 9.000000e-01 -6.000000e+00
v -6.269579e-01 1.417412e+00 -6.000000e+00
v -5.386993e-01 1.447711e+00 -6.000000e+00
vn 0.000000 0.000000 -1.000000
vn 0.000000 0.000000 -1.000000
vn 0.000000 0.000000 -1.000000
vn 0.000000 0.000000 -1.000000
vn 0.000000 0.000000 -1.000000
f -5//-5 -4//-4 -3//-3
f -3//-3 -4//-4 -2//-2
f -3//-3 -2//-2 -1//-1
v -5.386993e-01 1.447711e+00 -6.000000e+00
v -4.466573e-01 1.463070e+00 -6.000000e+00
v -4.000000e-01 9.000000e-01 -6.000000e+00
v -3.533427e-01 1.463070e+00 -6.000000e+00
v -2.613007e-01 1.447711e+00 -6.000000e+00
vn 0.000000 0.000000 -1.000000
vn 0.000000 0.000000 -1.000000
vn 0.000000 0.000000 -1.000000
vn 0.000000 0.000000 -1.000000
vn 0.000000 0.000000 -1.000000
f -5//-5 -4//-4 -3//-3
f -3//-3 -4//-4 -2//-2
f -3//-3 -2//-2 -1//-1
v -2.613007e-01 1.447711e+00 -6.000000e+00
v -1.730421e-01 1.417412e+00 -6.000000e+00
v -4.000000e-01 9.000000e-01 -6.000000e+00
v -9.097429e-02 1.372999e+00 -6.000000e+00
v -1.733591e-02 1.315684e+00 -6.000000e+00
vn 0.000000 0.000000 -1.000000
vn 0.000000 0.000000 -1.000000
vn 0.000000 0.000000 -1.000000
vn 0.000000 0.000000 -1.000000
vn 0.000000 0.000000 -1.000000
f -5//-5 -4//-4 -3//-3
f -3//-3 -4//-4 -2//-2
f -3//-3 -2//-2 -1//-1
v -1.733591e-02 1.315684e+00 -6.000000e+00
v 4.586439e-02 1.247030e+00 -6.000000e+00
v -4.000000e-01 9.000000e-01 -6.000000e+00
v 9.690267e-02 1.168910e+00 -6.000000e+00
v 1.343867e-01 1.083455e+00 -6.000000e+00
vn 0.000000 0.000000 -1.000000
vn 0.000000 0.000000 -1.000000
vn 0.000000 0.000000 -1.000000
vn 0.000000 0.000000 -1.000000
vn 0.000000 0.000000 -1.000000
f -5//-5 -4//-4 -3//-3
f -3//-3 -4//-4 -2//-2
f -3//-3 -2//-2 -1//-1
v 1.343867e-01 1.083455e+00 -6.000000e+00
v 1.572941e-01 9.929959e-01 -6.000000e+00
v -4.000000e-01 9.000000e-01 -6.000000e+00
v 1.650000e-01 9.000000e-01 -6.000000e+00
vn 0.000000 0.000000 -1.000000
vn 0.000000 0.000000 -1.000000
vn 0.000000 0.000000 -1.000000
vn 0.000000 0.000000 -1.000000
f -4//-4 -3//-3 -2//-2
f -2//-2 -3//-3 -1//-1
v 1.650000e-01 9.000000e-01 -5.000000e+00
v 1.572941e-01 9.929959e-01 -5.000000e+00
v -4.000000e-01 9.000000e-01 -5.000000e+00
v 1.343867e-01 1.083455e+00 -5.000000e+00
v 9.690267e-02 1.168910e+00 -5.000000e+00
vn -0.000000 -0.000000 1.000000
vn -0.000000 -0.000000 1.000000
vn -0.000000 -0.000000 1.000000
vn -0.000000 -0.000000 1.000000
vn -0.000000 -0.000000 1.000000
f -5//-5 -4//-4 -3//-3
f -3//-3 -4//-4 -2//-2
f -3//-3 -2//-2 -1//-1
v 9.690267e-02 1.168910e+00 -5.000000e+00
v 4.586439e-02 1.247030e+00 -5.000000e+00
v -4.000000e-01 9.000000e-01 -5.000000e+00
v -1.733591e-02 1.315684e+00 -5.000000e+00
v -9.097429e-02 1.372999e+00 -5.000000e+00
vn -0.000000 -0.000000 1.000000
vn -0.000000 -0.000000 1.000000
vn -0.000000 -0.000000 1.000000
vn -0.000000 -0.000000 1.000000
vn -0.000000 -0.000000 1.000000
f -5//-5 -4//-4 -3//-3
f -3//-3 -4//-4 -2//-2
f -3//-3 -2//-2 -1//-1
v -9.097429e-02 1.372999e+00 -5.000000e+00
v -1.730421e-01 1.417412e+00 -5.000000e+00
v -4.000000e-01 9.000000e-01 -5.000000e+00
v -2.613007e-01 1.447711e+00 -5.000000e+00
v -3.533427e-01 1.463070e+00 -5.000000e+00
vn -0.000000 -0.000000 1.000000
vn -0.000000 -0.000000 1.000000
vn -0.000000 -0.000000 1.000000
vn -0.000000 -0.000000 1.000000
vn -0.000000 -0.000000 1.000000
f -5//-5 -4//-4 -3//-3
f -3//-3 -4//-4 -2//-2
f -3//-3 -2//-2 -1//-1
v -3.533427e-01 1.463070e+00 -5.000000e+00
v -4.466573e-01 1.463070e+00 -5.000000e+00
v -4.000000e-01 9.000000e-01 -5.000000e+00
v -5.386993e-01 1.447711e+00 -5.000000e+00
v -6.269579e-01 1.417412e+00 -5.000000e+00
vn -0.000000 -0.000000 1.000000
vn -0.000000 -0.000000 1.000000
vn -0.000000 -0.000000 1.000000
vn -0.000000 -0.000000 1.000000
vn -0.000000 -0.000000 1.000000
f -5//-5 -4//-4 -3//-3
f -3//-3 -4//-4 -2//-2
f -3//-3 -2//-2 -1//-1
v -6.269579e-01 1.417412e+00 -5.000000e+00
v -7.090257e-01 1.372999e+00 -5.000000e+00
v -4.000000e-01 9.000000e-01 -5.000000e+00
v -7.826641e-01 1.315684e+00 -5.000000e+00
v -8.458644e-01 1.247030e+00 -5.000000e+00
vn -0.000000 -0.000000 1.000000
vn -0.000000 -0.000000 1.000000
vn -0.000000 -0.000000 1.000000
vn -0.000000 -0.000000 1.000000
vn -0.000000 -0.000000 1.000000
f -5//-5 -4//-4 -3//-3
f -3//-3 -4//-4 -2//-2
f -3//-3 -2//-2 -1//-1
v -8.458644e-01 1.247030e+00 -5.000000e+00
v -8.969027e-01 1.168910e+00 -5.000000e+00
v -4.000000e-01 9.000000e-01 -5.000000e+00
v -9.343867e-01 1.083455e+00 -5.000000e+00
v -9.572942e-01 9.929959e-01 -5.000000e+00
vn -0.000000 -0.000000 1.000000
vn -0.000000 -0.000000 1.000000
vn -0.000000 -0.000000 1.000000
vn -0.000000 -0.000000 1.000000
vn -0.000000 -0.000000 1.000000
f -5//-5 -4//-4 -3//-3
f -3//-3 -4//-4 -2//-2
f -3//-3 -2//-2 -1//-1
v -9.572942e-01 9.929959e-01 -5.000000e+00
v -9.650000e-01 9.000000e-01 -5.000000e+00
v -4.000000e-01 9.000000e-01 -5.000000e+00
v -9.572942e-01 8.070040e-01 -5.000000e+00
v -9.343867e-01 7.165448e-01 -5.000000e+00
vn -0.000000 -0.000000 1.000000
vn -0.000000 -0.000000 1.000000
vn -0.000000 -0.000000 1.000000
vn -0.000000 -0.000000 1.000000
vn -0.000000 -0.000000 1.000000
f -5//-5 -4//-4 -3//-3
f -3//-3 -4//-4 -2//-2
f -3//-3 -2//-2 -1//-1
v -9.343867e-01 7.165448e-01 -5.000000e+00
v -8.969027e-01 6.310897e-01 -5.000000e+00
v -4.000000e-01 9.000000e-01 -5.000000e+00
v -8.458644e-01 5.529698e-01 -5.000000e+00
v -7.826641e-01 4.843160e-01 -5.000000e+00
vn -0.000000 -0.000000 1.000000
vn -0.000000 -0.000000 1.000000
vn -0.000000 -0.000000 1.000000
vn -0.000000 -0.000000 1.000000
vn -0.000000 -0.000000 1.000000
f -5//-5 -4//-4 -3//-3
f -3//-3 -4//-4 -2//-2
f -3//-3 -2//-2 -1//-1
v -7.826641e-01 4.843160e-01 -5.000000e+00
v -7.090257e-01 4.270009e-01 -5.000000e+00
v -4.000000e-01 9.000000e-01 -5.000000e+00
v -6.269579e-01 3.825881e-01 -5.000000e+00
v -5.386993e-01 3.522888e-01 -5.000000e+00
vn -0.000000 -0.000000 1.000000
vn -0.000000 -0.000000 1.000000
vn -0.000000 -0.000000 1.000000
vn -0.000000 -0.000000 1.000000
vn -0.000000 -0.000000 1.000000
f -5//-5 -4//-4 -3//-3
f -3//-3 -4//-4 -2//-2
f -3//-3 -2//-2 -1//-1
v -5.386993e-01 3.522888e-01 -5.000000e+00
v -4.466573e-01 3.369298e-01 -5.000000e+00
v -4.000000e-01 9.000000e-01 -5.000000e+00
v -3.533427e-01 3.369298e-01 -5.000000e+00
v -2.613007e-01 3.522888e-01 -5.000000e+00
vn -0.000000 -0.000000 1.000000
vn -0.000000 -0.000000 1.000000
vn -0.000000 -0.000000 1.000000
vn -0.000000 -0.000000 1.000000
vn -0.000000 -0.000000 1.000000
f -5//-5 -4//-4 -3//-3
f -3//-3 -4//-4 -2//-2
f -3//-3 -2//-2 -1//-1
v -2.613007e-01 3.522888e-01 -5.000000e+00
v -1.730421e-01 3.825881e-01 -5.000000e+00
v -4.000000e-01 9.000000e-01 -5.000000e+00
v -9.097429e-02 4.270009e-01 -5.000000e+00
v -1.733591e-02 4.843160e-01 -5.000000e+00
vn -0.000000 -0.000000 1.000000
vn -0.000000 -0.000000 1.000000
vn -0.000000 -0.000000 1.000000
vn -0.000000 -0.000000 1.000000
vn -0.000000 -0.000000 1.000000
f -5//-5 -4//-4 -3//-3
f -3//-3 -4//-4 -2//-2
f -3//-3 -2//-2 -1//-1
v -1.733591e-02 4.843160e-01 -5.000000e+00
v 4.586439e-02 5.529698e-01 -5.000000e+00
v -4.000000e-01 9.000000e-01 -5.000000e+00
v 9.690267e-02 6.310897e-01 -5.000000e+00
v 1.343867e-01 7.165448e-01 -5.000000e+00
vn -0.000000 -0.000000 1.000000
vn -0.000000 -0.000000 1.000000
vn -0.000000 -0.000000 1.000000
vn -0.000000 -0.000000 1.000000
vn -0.000000 -0.000000 1.000000
f -5//-5 -4//-4 -3//-3
f -3//-3 -4//-4 -2//-2
f -3//-3 -2//-2 -1//-1
v 1.343867e-01 7.165448e-01 -5.000000e+00
v 1.572941e-01 8.070040e-01 -5.000000e+00
v -4.000000e-01 9.000000e-01 -5.000000e+00
v 1.650000e-01 9.000000e-01 -5.000000e+00
vn -0.000000 -0.000000 1.000000
vn -0.000000 -0.000000 1.000000
vn -0.000000 -0.000000 1.000000
vn -0.000000 -0.000000 1.000000
f -4//-4 -3//-3 -2//-2
f -2//-2 -3//-3 -1//-1
