#
mtllib port_GPSPatchCeramic.mtl
usemtl ff000080
v 1.650000e-01 9.000000e-01 -5.000000e+00
v 1.616879e-01 9.610872e-01 -5.000000e+00
v -4.000000e-01 9.000000e-01 -5.000000e+00
v 1.517906e-01 1.021458e+00 -5.000000e+00
v 1.354240e-01 1.080405e+00 -5.000000e+00
vn 0.000000 0.000000 1.000000
vn 0.000000 0.000000 1.000000
vn 0.000000 0.000000 1.000000
vn 0.000000 0.000000 1.000000
vn 0.000000 0.000000 1.000000
f -5//-5 -4//-4 -3//-3
f -3//-3 -4//-4 -2//-2
f -3//-3 -2//-2 -1//-1
v 1.354240e-01 1.080405e+00 -5.000000e+00
v 1.127801e-01 1.137237e+00 -5.000000e+00
v -4.000000e-01 9.000000e-01 -5.000000e+00
v 8.412430e-02 1.191288e+00 -5.000000e+00
v 4.979258e-02 1.241923e+00 -5.000000e+00
vn 0.000000 0.000000 1.000000
vn 0.000000 0.000000 1.000000
vn 0.000000 0.000000 1.000000
vn 0.000000 0.000000 1.000000
vn 0.000000 0.000000 1.000000
f -5//-5 -4//-4 -3//-3
f -3//-3 -4//-4 -2//-2
f -3//-3 -2//-2 -1//-1
v 4.979258e-02 1.241923e+00 -5.000000e+00
v 1.018745e-02 1.288550e+00 -5.000000e+00
v -4.000000e-01 9.000000e-01 -5.000000e+00
v -3.422675e-02 1.330622e+00 -5.000000e+00
v -8.292931e-02 1.367644e+00 -5.000000e+00
vn 0.000000 0.000000 1.000000
vn 0.000000 0.000000 1.000000
vn 0.000000 0.000000 1.000000
vn 0.000000 0.000000 1.000000
vn 0.000000 0.000000 1.000000
f -5//-5 -4//-4 -3//-3
f -3//-3 -4//-4 -2//-2
f -3//-3 -2//-2 -1//-1
v -8.292931e-02 1.367644e+00 -5.000000e+00
v -1.353492e-01 1.399184e+00 -5.000000e+00
v -4.000000e-01 9.000000e-01 -5.000000e+00
v -1.908719e-01 1.424872e+00 -5.000000e+00
v -2.488465e-01 1.444406e+00 -5.000000e+00
vn 0.000000 0.000000 1.000000
vn 0.000000 0.000000 1.000000
vn 0.000000 0.000000 1.000000
vn 0.000000 0.000000 1.000000
vn 0.000000 0.000000 1.000000
f -5//-5 -4//-4 -3//-3
f -3//-3 -4//-4 -2//-2
f -3//-3 -2//-2 -1//-1
v -2.488465e-01 1.444406e+00 -5.000000e+00
v -3.085932e-01 1.457557e+00 -5.000000e+00
v -4.000000e-01 9.000000e-01 -5.000000e+00
v -3.694115e-01 1.464171e+00 -5.000000e+00
v -4.305885e-01 1.464171e+00 -5.000000e+00
vn 0.000000 0.000000 1.000000
vn 0.000000 0.000000 1.000000
vn 0.000000 0.000000 1.000000
vn 0.000000 0.000000 1.000000
vn 0.000000 0.000000 1.000000
f -5//-5 -4//-4 -3//-3
f -3//-3 -4//-4 -2//-2
f -3//-3 -2//-2 -1//-1
v -4.305885e-01 1.464171e+00 -5.000000e+00
v -4.914068e-01 1.457557e+00 -5.000000e+00
v -4.000000e-01 9.000000e-01 -5.000000e+00
v -5.511535e-01 1.444406e+00 -5.000000e+00
v -6.091281e-01 1.424872e+00 -5.000000e+00
vn 0.000000 0.000000 1.000000
vn 0.000000 0.000000 1.000000
vn 0.000000 0.000000 1.000000
vn 0.000000 0.000000 1.000000
vn 0.000000 0.000000 1.000000
f -5//-5 -4//-4 -3//-3
f -3//-3 -4//-4 -2//-2
f -3//-3 -2//-2 -1//-1
v -6.091281e-01 1.424872e+00 -5.000000e+00
v -6.646508e-01 1.399184e+00 -5.000000e+00
v -4.000000e-01 9.000000e-01 -5.000000e+00
v -7.170707e-01 1.367644e+00 -5.000000e+00
v -7.657732e-01 1.330622e+00 -5.000000e+00
vn 0.000000 0.000000 1.000000
vn 0.000000 0.000000 1.000000
vn 0.000000 0.000000 1.000000
vn 0.000000 0.000000 1.000000
vn 0.000000 0.000000 1.000000
f -5//-5 -4//-4 -3//-3
f -3//-3 -4//-4 -2//-2
f -3//-3 -2//-2 -1//-1
v -7.657732e-01 1.330622e+00 -5.000000e+00
v -8.101875e-01 1.288550e+00 -5.000000e+00
v -4.000000e-01 9.000000e-01 -5.000000e+00
v -8.497926e-01 1.241923e+00 -5.000000e+00
v -8.841243e-01 1.191288e+00 -5.000000e+00
vn 0.000000 0.000000 1.000000
vn 0.000000 0.000000 1.000000
vn 0.000000 0.000000 1.000000
vn 0.000000 0.000000 1.000000
vn 0.000000 0.000000 1.000000
f -5//-5 -4//-4 -3//-3
f -3//-3 -4//-4 -2//-2
f -3//-3 -2//-2 -1//-1
v -8.841243e-01 1.191288e+00 -5.000000e+00
v -9.127801e-01 1.137237e+00 -5.000000e+00
v -4.000000e-01 9.000000e-01 -5.000000e+00
v -9.354240e-01 1.080405e+00 -5.000000e+00
v -9.517906e-01 1.021458e+00 -5.000000e+00
vn 0.000000 0.000000 1.000000
vn 0.000000 0.000000 1.000000
vn 0.000000 0.000000 1.000000
vn 0.000000 0.000000 1.000000
vn 0.000000 0.000000 1.000000
f -5//-5 -4//-4 -3//-3
f -3//-3 -4//-4 -2//-2
f -3//-3 -2//-2 -1//-1
v -9.517906e-01 1.021458e+00 -5.000000e+00
v -9.616879e-01 9.610872e-01 -5.000000e+00
v -4.000000e-01 9.000000e-01 -5.000000e+00
v -9.650000e-01 9.000000e-01 -5.000000e+00
v -9.616879e-01 8.389127e-01 -5.000000e+00
vn 0.000000 0.000000 1.000000
vn 0.000000 0.000000 1.000000
vn 0.000000 0.000000 1.000000
vn 0.000000 0.000000 1.000000
vn 0.000000 0.000000 1.000000
f -5//-5 -4//-4 -3//-3
f -3//-3 -4//-4 -2//-2
f -3//-3 -2//-2 -1//-1
v -9.616879e-01 8.389127e-01 -5.000000e+00
v -9.517906e-01 7.785417e-01 -5.000000e+00
v -4.000000e-01 9.000000e-01 -5.000000e+00
v -9.354240e-01 7.195947e-01 -5.000000e+00
v -9.127801e-01 6.627626e-01 -5.000000e+00
vn 0.000000 0.000000 1.000000
vn 0.000000 0.000000 1.000000
vn 0.000000 0.000000 1.000000
vn 0.000000 0.000000 1.000000
vn 0.000000 0.000000 1.000000
f -5//-5 -4//-4 -3//-3
f -3//-3 -4//-4 -2//-2
f -3//-3 -2//-2 -1//-1
v -9.127801e-01 6.627626e-01 -5.000000e+00
v -8.841243e-01 6.087121e-01 -5.000000e+00
v -4.000000e-01 9.000000e-01 -5.000000e+00
v -8.497926e-01 5.580766e-01 -5.000000e+00
v -8.101875e-01 5.114498e-01 -5.000000e+00
vn 0.000000 0.000000 1.000000
vn 0.000000 0.000000 1.000000
vn 0.000000 0.000000 1.000000
vn 0.000000 0.000000 1.000000
vn 0.000000 0.000000 1.000000
f -5//-5 -4//-4 -3//-3
f -3//-3 -4//-4 -2//-2
f -3//-3 -2//-2 -1//-1
v -8.101875e-01 5.114498e-01 -5.000000e+00
v -7.657732e-01 4.693784e-01 -5.000000e+00
v -4.000000e-01 9.000000e-01 -5.000000e+00
v -7.170707e-01 4.323557e-01 -5.000000e+00
v -6.646508e-01 4.008157e-01 -5.000000e+00
vn 0.000000 0.000000 1.000000
vn 0.000000 0.000000 1.000000
vn 0.000000 0.000000 1.000000
vn 0.000000 0.000000 1.000000
vn 0.000000 0.000000 1.000000
f -5//-5 -4//-4 -3//-3
f -3//-3 -4//-4 -2//-2
f -3//-3 -2//-2 -1//-1
v -6.646508e-01 4.008157e-01 -5.000000e+00
v -6.091281e-01 3.751281e-01 -5.000000e+00
v -4.000000e-01 9.000000e-01 -5.000000e+00
v -5.511535e-01 3.555942e-01 -5.000000e+00
v -4.914068e-01 3.424430e-01 -5.000000e+00
vn 0.000000 0.000000 1.000000
vn 0.000000 0.000000 1.000000
vn 0.000000 0.000000 1.000000
vn 0.000000 0.000000 1.000000
vn 0.000000 0.000000 1.000000
f -5//-5 -4//-4 -3//-3
f -3//-3 -4//-4 -2//-2
f -3//-3 -2//-2 -1//-1
v -4.914068e-01 3.424430e-01 -5.000000e+00
v -4.305885e-01 3.358286e-01 -5.000000e+00
v -4.000000e-01 9.000000e-01 -5.000000e+00
v -3.694115e-01 3.358286e-01 -5.000000e+00
v -3.085932e-01 3.424430e-01 -5.000000e+00
vn 0.000000 0.000000 1.000000
vn 0.000000 0.000000 1.000000
vn 0.000000 0.000000 1.000000
vn 0.000000 0.000000 1.000000
vn 0.000000 0.000000 1.000000
f -5//-5 -4//-4 -3//-3
f -3//-3 -4//-4 -2//-2
f -3//-3 -2//-2 -1//-1
v -3.085932e-01 3.424430e-01 -5.000000e+00
v -2.488465e-01 3.555942e-01 -5.000000e+00
v -4.000000e-01 9.000000e-01 -5.000000e+00
v -1.908719e-01 3.751281e-01 -5.000000e+00
v -1.353492e-01 4.008157e-01 -5.000000e+00
vn 0.000000 0.000000 1.000000
vn 0.000000 0.000000 1.000000
vn 0.000000 0.000000 1.000000
vn 0.000000 0.000000 1.000000
vn 0.000000 0.000000 1.000000
f -5//-5 -4//-4 -3//-3
f -3//-3 -4//-4 -2//-2
f -3//-3 -2//-2 -1//-1
v -1.353492e-01 4.008157e-01 -5.000000e+00
v -8.292931e-02 4.323557e-01 -5.000000e+00
v -4.000000e-01 9.000000e-01 -5.000000e+00
v -3.422675e-02 4.693784e-01 -5.000000e+00
v 1.018745e-02 5.114498e-01 -5.000000e+00
vn 0.000000 0.000000 1.000000
vn 0.000000 0.000000 1.000000
vn 0.000000 0.000000 1.000000
vn 0.000000 0.000000 1.000000
vn 0.000000 0.000000 1.000000
f -5//-5 -4//-4 -3//-3
f -3//-3 -4//-4 -2//-2
f -3//-3 -2//-2 -1//-1
v 1.018745e-02 5.114498e-01 -5.000000e+00
v 4.979258e-02 5.580766e-01 -5.000000e+00
v -4.000000e-01 9.000000e-01 -5.000000e+00
v 8.412430e-02 6.087121e-01 -5.000000e+00
v 1.127801e-01 6.627626e-01 -5.000000e+00
vn 0.000000 0.000000 1.000000
vn 0.000000 0.000000 1.000000
vn 0.000000 0.000000 1.000000
vn 0.000000 0.000000 1.000000
vn 0.000000 0.000000 1.000000
f -5//-5 -4//-4 -3//-3
f -3//-3 -4//-4 -2//-2
f -3//-3 -2//-2 -1//-1
v 1.127801e-01 6.627626e-01 -5.000000e+00
v 1.354240e-01 7.195947e-01 -5.000000e+00
v -4.000000e-01 9.000000e-01 -5.000000e+00
v 1.517906e-01 7.785417e-01 -5.000000e+00
v 1.616879e-01 8.389127e-01 -5.000000e+00
vn 0.000000 0.000000 1.000000
vn 0.000000 0.000000 1.000000
vn 0.000000 0.000000 1.000000
vn 0.000000 0.000000 1.000000
vn 0.000000 0.000000 1.000000
f -5//-5 -4//-4 -3//-3
f -3//-3 -4//-4 -2//-2
f -3//-3 -2//-2 -1//-1
v -4.000000e-01 9.000000e-01 -5.000000e+00
v 1.616879e-01 8.389127e-01 -5.000000e+00
v 1.650000e-01 9.000000e-01 -5.000000e+00
vn 0.000000 0.000000 1.000000
vn 0.000000 0.000000 1.000000
vn 0.000000 0.000000 1.000000
f -3//-3 -2//-2 -1//-1
