#
mtllib top_absorber_catalog.mtl
usemtl ff1a1a1a
v 1.990180e+01 6.298307e+00 -9.368514e+00
v 2.062999e+01 3.186498e+00 -4.684257e+00
v 2.062999e+01 3.186498e+00 -9.368514e+00
v 2.087464e+01 0.000000e+00 -4.684257e+00
v 2.087464e+01 -5.112811e-15 -9.368514e+00
v 2.062999e+01 -3.186498e+00 -4.684257e+00
v 2.062999e+01 -3.186498e+00 -9.368514e+00
v 1.990180e+01 -6.298307e+00 -4.684257e+00
v 1.990180e+01 -6.298307e+00 -9.368514e+00
v 1.870713e+01 -9.262489e+00 -4.684257e+00
v 1.870713e+01 -9.262489e+00 -9.368514e+00
v 1.707398e+01 -1.200957e+01 -4.684257e+00
v 1.707398e+01 -1.200957e+01 -9.368514e+00
v 1.504063e+01 -1.447515e+01 -4.684257e+00
v 1.504063e+01 -1.447515e+01 -9.368514e+00
v 1.265473e+01 -1.660145e+01 -4.684257e+00
v 1.265473e+01 -1.660145e+01 -9.368514e+00
v 9.972227e+00 -1.833862e+01 -4.684257e+00
v 9.972227e+00 -1.833862e+01 -9.368514e+00
v 7.055979e+00 -1.964595e+01 -4.684257e+00
v 7.055979e+00 -1.964595e+01 -9.368514e+00
v 3.974345e+00 -2.049280e+01 -4.684257e+00
v 3.974345e+00 -2.049280e+01 -9.368514e+00
v 7.995556e-01 -2.085932e+01 -4.684257e+00
v 7.995556e-01 -2.085932e+01 -9.368514e+00
v -2.393975e+00 -2.073691e+01 -4.684257e+00
v -2.393975e+00 -2.073691e+01 -9.368514e+00
v -5.531392e+00 -2.012844e+01 -4.684257e+00
v -5.531392e+00 -2.012844e+01 -9.368514e+00
v -8.539159e+00 -1.904818e+01 -4.684257e+00
v -8.539159e+00 -1.904818e+01 -9.368514e+00
v -1.134677e+01 -1.752145e+01 -4.684257e+00
v -1.134677e+01 -1.752145e+01 -9.368514e+00
v -1.388843e+01 -1.558403e+01 -4.684257e+00
v -1.388843e+01 -1.558403e+01 -9.368514e+00
v -1.610456e+01 -1.328133e+01 -4.684257e+00
v -1.610456e+01 -1.328133e+01 -9.368514e+00
v -1.794320e+01 -1.066733e+01 -4.684257e+00
v -1.794320e+01 -1.066733e+01 -9.368514e+00
v -1.936127e+01 -7.803295e+00 -4.684257e+00
v -1.936127e+01 -7.803295e+00 -9.368514e+00
v -2.032554e+01 -4.756359e+00 -4.684257e+00
v -2.032554e+01 -4.756359e+00 -9.368514e+00
v -2.081339e+01 -1.597938e+00 -4.684257e+00
v -2.081339e+01 -1.597938e+00 -9.368514e+00
v -2.081339e+01 1.597938e+00 -4.684257e+00
v -2.081339e+01 1.597938e+00 -9.368514e+00
v -2.032554e+01 4.756359e+00 -4.684257e+00
v -2.032554e+01 4.756359e+00 -9.368514e+00
v -1.936127e+01 7.803295e+00 -4.684257e+00
v -1.936127e+01 7.803295e+00 -9.368514e+00
v -1.794320e+01 1.066733e+01 -4.684257e+00
v -1.794320e+01 1.066733e+01 -9.368514e+00
v -1.610456e+01 1.328133e+01 -4.684257e+00
v -1.610456e+01 1.328133e+01 -9.368514e+00
v -1.388843e+01 1.558403e+01 -4.684257e+00
v -1.388843e+01 1.558403e+01 -9.368514e+00
v -1.134677e+01 1.752145e+01 -4.684257e+00
v -1.134677e+01 1.752145e+01 -9.368514e+00
v -8.539159e+00 1.904818e+01 -4.684257e+00
v -8.539159e+00 1.904818e+01 -9.368514e+00
v -5.531392e+00 2.012844e+01 -4.684257e+00
v -5.531392e+00 2.012844e+01 -9.368514e+00
v -2.393975e+00 2.073691e+01 -4.684257e+00
vn 0.953396 0.301721 -0.000000
vn 0.988280 0.152649 -0.000000
vn 0.988280 0.152649 -0.000000
vn 1.000000 0.000000 0.000000
vn 1.000000 0.000000 0.000000
vn 0.988280 -0.152649 0.000000
vn 0.988280 -0.152649 0.000000
vn 0.953396 -0.301721 0.000000
vn 0.953396 -0.301721 0.000000
vn 0.896166 -0.443720 0.000000
vn 0.896166 -0.443720 0.000000
vn 0.817929 -0.575319 0.000000
vn 0.817929 -0.575319 0.000000
vn 0.720522 -0.693433 0.000000
vn 0.720522 -0.693433 0.000000
vn 0.606225 -0.795293 0.000000
vn 0.606225 -0.795293 0.000000
vn 0.477720 -0.878512 0.000000
vn 0.477720 -0.878512 0.000000
vn 0.338017 -0.941140 0.000000
vn 0.338017 -0.941140 0.000000
vn 0.190391 -0.981708 0.000000
vn 0.190391 -0.981708 0.000000
vn 0.038303 -0.999266 0.000000
vn 0.038303 -0.999266 0.000000
vn -0.114683 -0.993402 0.000000
vn -0.114683 -0.993402 0.000000
vn -0.264982 -0.964253 0.000000
vn -0.264982 -0.964253 0.000000
vn -0.409069 -0.912504 0.000000
vn -0.409069 -0.912504 0.000000
vn -0.543568 -0.839365 0.000000
vn -0.543568 -0.839365 0.000000
vn -0.665326 -0.746553 0.000000
vn -0.665326 -0.746553 0.000000
vn -0.771489 -0.636242 0.000000
vn -0.771489 -0.636242 0.000000
vn -0.859570 -0.511019 0.000000
vn -0.859570 -0.511019 0.000000
vn -0.927502 -0.373817 0.000000
vn -0.927502 -0.373817 0.000000
vn -0.973695 -0.227854 0.000000
vn -0.973695 -0.227854 0.000000
vn -0.997066 -0.076549 0.000000
vn -0.997066 -0.076549 0.000000
vn -0.997066 0.076549 0.000000
vn -0.997066 0.076549 0.000000
vn -0.973695 0.227854 0.000000
vn -0.973695 0.227854 0.000000
vn -0.927502 0.373817 0.000000
vn -0.927502 0.373817 0.000000
vn -0.859570 0.511019 0.000000
vn -0.859570 0.511019 0.000000
vn -0.771489 0.636242 0.000000
vn -0.771489 0.636242 0.000000
vn -0.665326 0.746553 0.000000
vn -0.665326 0.746553 0.000000
vn -0.543568 0.839365 0.000000
vn -0.543568 0.839365 0.000000
vn -0.409069 0.912504 0.000000
vn -0.409069 0.912504 0.000000
vn -0.264982 0.964253 0.000000
vn -0.264982 0.964253 0.000000
vn -0.114683 0.993402 0.000000
f -64//-64 -63//-63 -62//-62
f -62//-62 -63//-63 -61//-61
f -62//-62 -61//-61 -60//-60
f -60//-60 -61//-61 -59//-59
f -60//-60 -59//-59 -58//-58
f -58//-58 -59//-59 -57//-57
f -58//-58 -57//-57 -56//-56
f -56//-56 -57//-57 -55//-55
f -56//-56 -55//-55 -54//-54
f -54//-54 -55//-55 -53//-53
f -54//-54 -53//-53 -52//-52
f -52//-52 -53//-53 -51//-51
f -52//-52 -51//-51 -50//-50
f -50//-50 -51//-51 -49//-49
f -50//-50 -49//-49 -48//-48
f -48//-48 -49//-49 -47//-47
f -48//-48 -47//-47 -46//-46
f -46//-46 -47//-47 -45//-45
f -46//-46 -45//-45 -44//-44
f -44//-44 -45//-45 -43//-43
f -44//-44 -43//-43 -42//-42
f -42//-42 -43//-43 -41//-41
f -42//-42 -41//-41 -40//-40
f -40//-40 -41//-41 -39//-39
f -40//-40 -39//-39 -38//-38
f -38//-38 -39//-39 -37//-37
f -38//-38 -37//-37 -36//-36
f -36//-36 -37//-37 -35//-35
f -36//-36 -35//-35 -34//-34
f -34//-34 -35//-35 -33//-33
f -34//-34 -33//-33 -32//-32
f -32//-32 -33//-33 -31//-31
f -32//-32 -31//-31 -30//-30
f -30//-30 -31//-31 -29//-29
f -30//-30 -29//-29 -28//-28
f -28//-28 -29//-29 -27//-27
f -28//-28 -27//-27 -26//-26
f -26//-26 -27//-27 -25//-25
f -26//-26 -25//-25 -24//-24
f -24//-24 -25//-25 -23//-23
f -24//-24 -23//-23 -22//-22
f -22//-22 -23//-23 -21//-21
f -22//-22 -21//-21 -20//-20
f -20//-20 -21//-21 -19//-19
f -20//-20 -19//-19 -18//-18
f -18//-18 -19//-19 -17//-17
f -18//-18 -17//-17 -16//-16
f -16//-16 -17//-17 -15//-15
f -16//-16 -15//-15 -14//-14
f -14//-14 -15//-15 -13//-13
f -14//-14 -13//-13 -12//-12
f -12//-12 -13//-13 -11//-11
f -12//-12 -11//-11 -10//-10
f -10//-10 -11//-11 -9//-9
f -10//-10 -9//-9 -8//-8
f -8//-8 -9//-9 -7//-7
f -8//-8 -7//-7 -6//-6
f -6//-6 -7//-7 -5//-5
f -6//-6 -5//-5 -4//-4
f -4//-4 -5//-5 -3//-3
f -4//-4 -3//-3 -2//-2
f -2//-2 -3//-3 -1//-1
v -5.531392e+00 2.012844e+01 -9.368514e+00
v -2.393975e+00 2.073691e+01 -4.684257e+00
v -2.393975e+00 2.073691e+01 -9.368514e+00
v 7.995556e-01 2.085932e+01 -4.684257e+00
v 7.995556e-01 2.085932e+01 -9.368514e+00
v 3.974345e+00 2.049280e+01 -4.684257e+00
v 3.974345e+00 2.049280e+01 -9.368514e+00
v 7.055979e+00 1.964595e+01 -4.684257e+00
v 7.055979e+00 1.964595e+01 -9.368514e+00
v 9.972227e+00 1.833862e+01 -4.684257e+00
v 9.972227e+00 1.833862e+01 -9.368514e+00
v 1.265473e+01 1.660145e+01 -4.684257e+00
v 1.265473e+01 1.660145e+01 -9.368514e+00
v 1.504063e+01 1.447515e+01 -4.684257e+00
v 1.504063e+01 1.447515e+01 -9.368514e+00
v 1.707398e+01 1.200957e+01 -4.684257e+00
v 1.707398e+01 1.200957e+01 -9.368514e+00
v 1.870713e+01 9.262489e+00 -4.684257e+00
v 1.870713e+01 9.262489e+00 -9.368514e+00
v 1.990180e+01 6.298307e+00 -4.684257e+00
v 1.990180e+01 6.298307e+00 -9.368514e+00
v 2.062999e+01 3.186498e+00 -4.684257e+00
vn -0.264982 0.964253 0.000000
vn -0.114683 0.993402 0.000000
vn -0.114683 0.993402 0.000000
vn 0.038303 0.999266 -0.000000
vn 0.038303 0.999266 -0.000000
vn 0.190391 0.981708 -0.000000
vn 0.190391 0.981708 -0.000000
vn 0.338017 0.941140 -0.000000
vn 0.338017 0.941140 -0.000000
vn 0.477720 0.878512 -0.000000
vn 0.477720 0.878512 -0.000000
vn 0.606225 0.795293 -0.000000
vn 0.606225 0.795293 -0.000000
vn 0.720522 0.693433 -0.000000
vn 0.720522 0.693433 -0.000000
vn 0.817929 0.575319 -0.000000
vn 0.817929 0.575319 -0.000000
vn 0.896166 0.443720 -0.000000
vn 0.896166 0.443720 -0.000000
vn 0.953396 0.301721 -0.000000
vn 0.953396 0.301721 -0.000000
vn 0.988280 0.152649 -0.000000
f -22//-22 -21//-21 -20//-20
f -20//-20 -21//-21 -19//-19
f -20//-20 -19//-19 -18//-18
f -18//-18 -19//-19 -17//-17
f -18//-18 -17//-17 -16//-16
f -16//-16 -17//-17 -15//-15
f -16//-16 -15//-15 -14//-14
f -14//-14 -15//-15 -13//-13
f -14//-14 -13//-13 -12//-12
f -12//-12 -13//-13 -11//-11
f -12//-12 -11//-11 -10//-10
f -10//-10 -11//-11 -9//-9
f -10//-10 -9//-9 -8//-8
f -8//-8 -9//-9 -7//-7
f -8//-8 -7//-7 -6//-6
f -6//-6 -7//-7 -5//-5
f -6//-6 -5//-5 -4//-4
f -4//-4 -5//-5 -3//-3
f -4//-4 -3//-3 -2//-2
f -2//-2 -3//-3 -1//-1
v 2.087464e+01 -5.112811e-15 -9.368514e+00
v 2.062999e+01 -3.186498e+00 -9.368514e+00
v 0.000000e+00 0.000000e+00 -9.368514e+00
v 1.990180e+01 -6.298307e+00 -9.368514e+00
v 1.870713e+01 -9.262489e+00 -9.368514e+00
vn -0.000000 -0.000000 -1.000000
vn -0.000000 -0.000000 -1.000000
vn -0.000000 -0.000000 -1.000000
vn -0.000000 -0.000000 -1.000000
vn -0.000000 -0.000000 -1.000000
f -5//-5 -4//-4 -3//-3
f -3//-3 -4//-4 -2//-2
f -3//-3 -2//-2 -1//-1
v 1.870713e+01 -9.262489e+00 -9.368514e+00
v 1.707398e+01 -1.200957e+01 -9.368514e+00
v 0.000000e+00 0.000000e+00 -9.368514e+00
v 1.504063e+01 -1.447515e+01 -9.368514e+00
v 1.265473e+01 -1.660145e+01 -9.368514e+00
vn -0.000000 -0.000000 -1.000000
vn -0.000000 -0.000000 -1.000000
vn -0.000000 -0.000000 -1.000000
vn -0.000000 -0.000000 -1.000000
vn -0.000000 -0.000000 -1.000000
f -5//-5 -4//-4 -3//-3
f -3//-3 -4//-4 -2//-2
f -3//-3 -2//-2 -1//-1
v 1.265473e+01 -1.660145e+01 -9.368514e+00
v 9.972227e+00 -1.833862e+01 -9.368514e+00
v 0.000000e+00 0.000000e+00 -9.368514e+00
v 7.055979e+00 -1.964595e+01 -9.368514e+00
v 3.974345e+00 -2.049280e+01 -9.368514e+00
vn -0.000000 -0.000000 -1.000000
vn -0.000000 -0.000000 -1.000000
vn -0.000000 -0.000000 -1.000000
vn -0.000000 -0.000000 -1.000000
vn -0.000000 -0.000000 -1.000000
f -5//-5 -4//-4 -3//-3
f -3//-3 -4//-4 -2//-2
f -3//-3 -2//-2 -1//-1
v 3.974345e+00 -2.049280e+01 -9.368514e+00
v 7.995556e-01 -2.085932e+01 -9.368514e+00
v 0.000000e+00 0.000000e+00 -9.368514e+00
v -2.393975e+00 -2.073691e+01 -9.368514e+00
v -5.531392e+00 -2.012844e+01 -9.368514e+00
vn -0.000000 -0.000000 -1.000000
vn -0.000000 -0.000000 -1.000000
vn -0.000000 -0.000000 -1.000000
vn -0.000000 -0.000000 -1.000000
vn -0.000000 -0.000000 -1.000000
f -5//-5 -4//-4 -3//-3
f -3//-3 -4//-4 -2//-2
f -3//-3 -2//-2 -1//-1
v -5.531392e+00 -2.012844e+01 -9.368514e+00
v -8.539159e+00 -1.904818e+01 -9.368514e+00
v 0.000000e+00 0.000000e+00 -9.368514e+00
v -1.134677e+01 -1.752145e+01 -9.368514e+00
v -1.388843e+01 -1.558403e+01 -9.368514e+00
vn -0.000000 -0.000000 -1.000000
vn -0.000000 -0.000000 -1.000000
vn -0.000000 -0.000000 -1.000000
vn -0.000000 -0.000000 -1.000000
vn -0.000000 -0.000000 -1.000000
f -5//-5 -4//-4 -3//-3
f -3//-3 -4//-4 -2//-2
f -3//-3 -2//-2 -1//-1
v -1.388843e+01 -1.558403e+01 -9.368514e+00
v -1.610456e+01 -1.328133e+01 -9.368514e+00
v 0.000000e+00 0.000000e+00 -9.368514e+00
v -1.794320e+01 -1.066733e+01 -9.368514e+00
v -1.936127e+01 -7.803295e+00 -9.368514e+00
vn -0.000000 -0.000000 -1.000000
vn -0.000000 -0.000000 -1.000000
vn -0.000000 -0.000000 -1.000000
vn -0.000000 -0.000000 -1.000000
vn -0.000000 -0.000000 -1.000000
f -5//-5 -4//-4 -3//-3
f -3//-3 -4//-4 -2//-2
f -3//-3 -2//-2 -1//-1
v -1.936127e+01 -7.803295e+00 -9.368514e+00
v -2.032554e+01 -4.756359e+00 -9.368514e+00
v 0.000000e+00 0.000000e+00 -9.368514e+00
v -2.081339e+01 -1.597938e+00 -9.368514e+00
v -2.081339e+01 1.597938e+00 -9.368514e+00
vn -0.000000 -0.000000 -1.000000
vn -0.000000 -0.000000 -1.000000
vn -0.000000 -0.000000 -1.000000
vn -0.000000 -0.000000 -1.000000
vn -0.000000 -0.000000 -1.000000
f -5//-5 -4//-4 -3//-3
f -3//-3 -4//-4 -2//-2
f -3//-3 -2//-2 -1//-1
v -2.081339e+01 1.597938e+00 -9.368514e+00
v -2.032554e+01 4.756359e+00 -9.368514e+00
v 0.000000e+00 0.000000e+00 -9.368514e+00
v -1.936127e+01 7.803295e+00 -9.368514e+00
v -1.794320e+01 1.066733e+01 -9.368514e+00
vn -0.000000 -0.000000 -1.000000
vn -0.000000 -0.000000 -1.000000
vn -0.000000 -0.000000 -1.000000
vn -0.000000 -0.000000 -1.000000
vn -0.000000 -0.000000 -1.000000
f -5//-5 -4//-4 -3//-3
f -3//-3 -4//-4 -2//-2
f -3//-3 -2//-2 -1//-1
v -1.794320e+01 1.066733e+01 -9.368514e+00
v -1.610456e+01 1.328133e+01 -9.368514e+00
v 0.000000e+00 0.000000e+00 -9.368514e+00
v -1.388843e+01 1.558403e+01 -9.368514e+00
v -1.134677e+01 1.752145e+01 -9.368514e+00
vn -0.000000 -0.000000 -1.000000
vn -0.000000 -0.000000 -1.000000
vn -0.000000 -0.000000 -1.000000
vn -0.000000 -0.000000 -1.000000
vn -0.000000 -0.000000 -1.000000
f -5//-5 -4//-4 -3//-3
f -3//-3 -4//-4 -2//-2
f -3//-3 -2//-2 -1//-1
v -1.134677e+01 1.752145e+01 -9.368514e+00
v -8.539159e+00 1.904818e+01 -9.368514e+00
v 0.000000e+00 0.000000e+00 -9.368514e+00
v -5.531392e+00 2.012844e+01 -9.368514e+00
v -2.393975e+00 2.073691e+01 -9.368514e+00
vn -0.000000 -0.000000 -1.000000
vn -0.000000 -0.000000 -1.000000
vn -0.000000 -0.000000 -1.000000
vn -0.000000 -0.000000 -1.000000
vn -0.000000 -0.000000 -1.000000
f -5//-5 -4//-4 -3//-3
f -3//-3 -4//-4 -2//-2
f -3//-3 -2//-2 -1//-1
v -2.393975e+00 2.073691e+01 -9.368514e+00
v 7.995556e-01 2.085932e+01 -9.368514e+00
v 0.000000e+00 0.000000e+00 -9.368514e+00
v 3.974345e+00 2.049280e+01 -9.368514e+00
v 7.055979e+00 1.964595e+01 -9.368514e+00
vn -0.000000 -0.000000 -1.000000
vn -0.000000 -0.000000 -1.000000
vn -0.000000 -0.000000 -1.000000
vn -0.000000 -0.000000 -1.000000
vn -0.000000 -0.000000 -1.000000
f -5//-5 -4//-4 -3//-3
f -3//-3 -4//-4 -2//-2
f -3//-3 -2//-2 -1//-1
v 7.055979e+00 1.964595e+01 -9.368514e+00
v 9.972227e+00 1.833862e+01 -9.368514e+00
v 0.000000e+00 0.000000e+00 -9.368514e+00
v 1.265473e+01 1.660145e+01 -9.368514e+00
v 1.504063e+01 1.447515e+01 -9.368514e+00
vn -0.000000 -0.000000 -1.000000
vn -0.000000 -0.000000 -1.000000
vn -0.000000 -0.000000 -1.000000
vn -0.000000 -0.000000 -1.000000
vn -0.000000 -0.000000 -1.000000
f -5//-5 -4//-4 -3//-3
f -3//-3 -4//-4 -2//-2
f -3//-3 -2//-2 -1//-1
v 1.504063e+01 1.447515e+01 -9.368514e+00
v 1.707398e+01 1.200957e+01 -9.368514e+00
v 0.000000e+00 0.000000e+00 -9.368514e+00
v 1.870713e+01 9.262489e+00 -9.368514e+00
v 1.990180e+01 6.298307e+00 -9.368514e+00
vn -0.000000 -0.000000 -1.000000
vn -0.000000 -0.000000 -1.000000
vn -0.000000 -0.000000 -1.000000
vn -0.000000 -0.000000 -1.000000
vn -0.000000 -0.000000 -1.000000
f -5//-5 -4//-4 -3//-3
f -3//-3 -4//-4 -2//-2
f -3//-3 -2//-2 -1//-1
v 1.990180e+01 6.298307e+00 -9.368514e+00
v 2.062999e+01 3.186498e+00 -9.368514e+00
v 0.000000e+00 0.000000e+00 -9.368514e+00
v 2.087464e+01 -5.112811e-15 -9.368514e+00
vn -0.000000 -0.000000 -1.000000
vn -0.000000 -0.000000 -1.000000
vn -0.000000 -0.000000 -1.000000
vn -0.000000 -0.000000 -1.000000
f -4//-4 -3//-3 -2//-2
f -2//-2 -3//-3 -1//-1
v 2.087464e+01 0.000000e+00 -4.684257e+00
v 2.062999e+01 3.186498e+00 -4.684257e+00
v 0.000000e+00 0.000000e+00 -4.684257e+00
v 1.990180e+01 6.298307e+00 -4.684257e+00
v 1.870713e+01 9.262489e+00 -4.684257e+00
vn 0.000000 0.000000 1.000000
vn 0.000000 0.000000 1.000000
vn 0.000000 0.000000 1.000000
vn 0.000000 0.000000 1.000000
vn 0.000000 0.000000 1.000000
f -5//-5 -4//-4 -3//-3
f -3//-3 -4//-4 -2//-2
f -3//-3 -2//-2 -1//-1
v 1.870713e+01 9.262489e+00 -4.684257e+00
v 1.707398e+01 1.200957e+01 -4.684257e+00
v 0.000000e+00 0.000000e+00 -4.684257e+00
v 1.504063e+01 1.447515e+01 -4.684257e+00
v 1.265473e+01 1.660145e+01 -4.684257e+00
vn 0.000000 0.000000 1.000000
vn 0.000000 0.000000 1.000000
vn 0.000000 0.000000 1.000000
vn 0.000000 0.000000 1.000000
vn 0.000000 0.000000 1.000000
f -5//-5 -4//-4 -3//-3
f -3//-3 -4//-4 -2//-2
f -3//-3 -2//-2 -1//-1
v 1.265473e+01 1.660145e+01 -4.684257e+00
v 9.972227e+00 1.833862e+01 -4.684257e+00
v 0.000000e+00 0.000000e+00 -4.684257e+00
v 7.055979e+00 1.964595e+01 -4.684257e+00
v 3.974345e+00 2.049280e+01 -4.684257e+00
vn 0.000000 0.000000 1.000000
vn 0.000000 0.000000 1.000000
vn 0.000000 0.000000 1.000000
vn 0.000000 0.000000 1.000000
vn 0.000000 0.000000 1.000000
f -5//-5 -4//-4 -3//-3
f -3//-3 -4//-4 -2//-2
f -3//-3 -2//-2 -1//-1
v 3.974345e+00 2.049280e+01 -4.684257e+00
v 7.995556e-01 2.085932e+01 -4.684257e+00
v 0.000000e+00 0.000000e+00 -4.684257e+00
v -2.393975e+00 2.073691e+01 -4.684257e+00
v -5.531392e+00 2.012844e+01 -4.684257e+00
vn 0.000000 0.000000 1.000000
vn 0.000000 0.000000 1.000000
vn 0.000000 0.000000 1.000000
vn 0.000000 0.000000 1.000000
vn 0.000000 0.000000 1.000000
f -5//-5 -4//-4 -3//-3
f -3//-3 -4//-4 -2//-2
f -3//-3 -2//-2 -1//-1
v -5.531392e+00 2.012844e+01 -4.684257e+00
v -8.539159e+00 1.904818e+01 -4.684257e+00
v 0.000000e+00 0.000000e+00 -4.684257e+00
v -1.134677e+01 1.752145e+01 -4.684257e+00
v -1.388843e+01 1.558403e+01 -4.684257e+00
vn 0.000000 0.000000 1.000000
vn 0.000000 0.000000 1.000000
vn 0.000000 0.000000 1.000000
vn 0.000000 0.000000 1.000000
vn 0.000000 0.000000 1.000000
f -5//-5 -4//-4 -3//-3
f -3//-3 -4//-4 -2//-2
f -3//-3 -2//-2 -1//-1
v -1.388843e+01 1.558403e+01 -4.684257e+00
v -1.610456e+01 1.328133e+01 -4.684257e+00
v 0.000000e+00 0.000000e+00 -4.684257e+00
v -1.794320e+01 1.066733e+01 -4.684257e+00
v -1.936127e+01 7.803295e+00 -4.684257e+00
vn 0.000000 0.000000 1.000000
vn 0.000000 0.000000 1.000000
vn 0.000000 0.000000 1.000000
vn 0.000000 0.000000 1.000000
vn 0.000000 0.000000 1.000000
f -5//-5 -4//-4 -3//-3
f -3//-3 -4//-4 -2//-2
f -3//-3 -2//-2 -1//-1
v -1.936127e+01 7.803295e+00 -4.684257e+00
v -2.032554e+01 4.756359e+00 -4.684257e+00
v 0.000000e+00 0.000000e+00 -4.684257e+00
v -2.081339e+01 1.597938e+00 -4.684257e+00
v -2.081339e+01 -1.597938e+00 -4.684257e+00
vn 0.000000 0.000000 1.000000
vn 0.000000 0.000000 1.000000
vn 0.000000 0.000000 1.000000
vn 0.000000 0.000000 1.000000
vn 0.000000 0.000000 1.000000
f -5//-5 -4//-4 -3//-3
f -3//-3 -4//-4 -2//-2
f -3//-3 -2//-2 -1//-1
v -2.081339e+01 -1.597938e+00 -4.684257e+00
v -2.032554e+01 -4.756359e+00 -4.684257e+00
v 0.000000e+00 0.000000e+00 -4.684257e+00
v -1.936127e+01 -7.803295e+00 -4.684257e+00
v -1.794320e+01 -1.066733e+01 -4.684257e+00
vn 0.000000 0.000000 1.000000
vn 0.000000 0.000000 1.000000
vn 0.000000 0.000000 1.000000
vn 0.000000 0.000000 1.000000
vn 0.000000 0.000000 1.000000
f -5//-5 -4//-4 -3//-3
f -3//-3 -4//-4 -2//-2
f -3//-3 -2//-2 -1//-1
v -1.794320e+01 -1.066733e+01 -4.684257e+00
v -1.610456e+01 -1.328133e+01 -4.684257e+00
v 0.000000e+00 0.000000e+00 -4.684257e+00
v -1.388843e+01 -1.558403e+01 -4.684257e+00
v -1.134677e+01 -1.752145e+01 -4.684257e+00
vn 0.000000 0.000000 1.000000
vn 0.000000 0.000000 1.000000
vn 0.000000 0.000000 1.000000
vn 0.000000 0.000000 1.000000
vn 0.000000 0.000000 1.000000
f -5//-5 -4//-4 -3//-3
f -3//-3 -4//-4 -2//-2
f -3//-3 -2//-2 -1//-1
v -1.134677e+01 -1.752145e+01 -4.684257e+00
v -8.539159e+00 -1.904818e+01 -4.684257e+00
v 0.000000e+00 0.000000e+00 -4.684257e+00
v -5.531392e+00 -2.012844e+01 -4.684257e+00
v -2.393975e+00 -2.073691e+01 -4.684257e+00
vn 0.000000 0.000000 1.000000
vn 0.000000 0.000000 1.000000
vn 0.000000 0.000000 1.000000
vn 0.000000 0.000000 1.000000
vn 0.000000 0.000000 1.000000
f -5//-5 -4//-4 -3//-3
f -3//-3 -4//-4 -2//-2
f -3//-3 -2//-2 -1//-1
v -2.393975e+00 -2.073691e+01 -4.684257e+00
v 7.995556e-01 -2.085932e+01 -4.684257e+00
v 0.000000e+00 0.000000e+00 -4.684257e+00
v 3.974345e+00 -2.049280e+01 -4.684257e+00
v 7.055979e+00 -1.964595e+01 -4.684257e+00
vn 0.000000 0.000000 1.000000
vn 0.000000 0.000000 1.000000
vn 0.000000 0.000000 1.000000
vn 0.000000 0.000000 1.000000
vn 0.000000 0.000000 1.000000
f -5//-5 -4//-4 -3//-3
f -3//-3 -4//-4 -2//-2
f -3//-3 -2//-2 -1//-1
v 7.055979e+00 -1.964595e+01 -4.684257e+00
v 9.972227e+00 -1.833862e+01 -4.684257e+00
v 0.000000e+00 0.000000e+00 -4.684257e+00
v 1.265473e+01 -1.660145e+01 -4.684257e+00
v 1.504063e+01 -1.447515e+01 -4.684257e+00
vn 0.000000 0.000000 1.000000
vn 0.000000 0.000000 1.000000
vn 0.000000 0.000000 1.000000
vn 0.000000 0.000000 1.000000
vn 0.000000 0.000000 1.000000
f -5//-5 -4//-4 -3//-3
f -3//-3 -4//-4 -2//-2
f -3//-3 -2//-2 -1//-1
v 1.504063e+01 -1.447515e+01 -4.684257e+00
v 1.707398e+01 -1.200957e+01 -4.684257e+00
v 0.000000e+00 0.000000e+00 -4.684257e+00
v 1.870713e+01 -9.262489e+00 -4.684257e+00
v 1.990180e+01 -6.298307e+00 -4.684257e+00
vn 0.000000 0.000000 1.000000
vn 0.000000 0.000000 1.000000
vn 0.000000 0.000000 1.000000
vn 0.000000 0.000000 1.000000
vn 0.000000 0.000000 1.000000
f -5//-5 -4//-4 -3//-3
f -3//-3 -4//-4 -2//-2
f -3//-3 -2//-2 -1//-1
v 1.990180e+01 -6.298307e+00 -4.684257e+00
v 2.062999e+01 -3.186498e+00 -4.684257e+00
v 0.000000e+00 0.000000e+00 -4.684257e+00
v 2.087464e+01 0.000000e+00 -4.684257e+00
vn 0.000000 0.000000 1.000000
vn 0.000000 0.000000 1.000000
vn 0.000000 0.000000 1.000000
vn 0.000000 0.000000 1.000000
f -4//-4 -3//-3 -2//-2
f -2//-2 -3//-3 -1//-1
