#
mtllib ant_Elliptical_Patch_Edge.mtl
usemtl ff4180ff
v 4.561604e+00 -1.118188e-01 1.575000e+00
v 4.541296e+00 3.233790e-01 1.575000e+00
v 4.498558e+00 -5.449733e-01 1.575000e+00
v 4.438006e+00 7.526678e-01 1.575000e+00
v 4.353311e+00 -9.681696e-01 1.575000e+00
v 4.253621e+00 1.168203e+00 1.575000e+00
v 4.128516e+00 -1.373675e+00 1.575000e+00
v 3.991510e+00 1.562392e+00 1.575000e+00
v 3.828282e+00 -1.754079e+00 1.575000e+00
v 3.656463e+00 1.928032e+00 1.575000e+00
v 3.458094e+00 -2.102431e+00 1.575000e+00
v 3.254602e+00 2.258441e+00 1.575000e+00
v 3.024717e+00 -2.412366e+00 1.575000e+00
v 2.793270e+00 2.547582e+00 1.575000e+00
v 2.536070e+00 -2.678220e+00 1.575000e+00
v 2.280897e+00 2.790171e+00 1.575000e+00
v 2.001082e+00 -2.895135e+00 1.575000e+00
v 1.726846e+00 2.981776e+00 1.575000e+00
v 1.429528e+00 -3.059148e+00 1.575000e+00
v 1.141241e+00 3.118896e+00 1.575000e+00
v 8.318529e-01 -3.167262e+00 1.575000e+00
v 5.347813e-01 3.199024e+00 1.575000e+00
v 2.189773e-01 -3.217501e+00 1.575000e+00
v -3.978997e-01 -3.208947e+00 1.575000e+00
vn 0.000000 0.000000 1.000000
vn 0.000000 0.000000 1.000000
vn 0.000000 0.000000 1.000000
vn 0.000000 0.000000 1.000000
vn 0.000000 0.000000 1.000000
vn 0.000000 0.000000 1.000000
vn 0.000000 0.000000 1.000000
vn 0.000000 0.000000 1.000000
vn 0.000000 0.000000 1.000000
vn 0.000000 0.000000 1.000000
vn 0.000000 0.000000 1.000000
vn 0.000000 0.000000 1.000000
vn 0.000000 0.000000 1.000000
vn 0.000000 0.000000 1.000000
vn 0.000000 0.000000 1.000000
vn 0.000000 0.000000 1.000000
vn 0.000000 0.000000 1.000000
vn 0.000000 0.000000 1.000000
vn 0.000000 0.000000 1.000000
vn 0.000000 0.000000 1.000000
vn 0.000000 0.000000 1.000000
vn 0.000000 0.000000 1.000000
vn 0.000000 0.000000 1.000000
vn 0.000000 0.000000 1.000000
f -24//-24 -23//-23 -22//-22
f -22//-22 -23//-23 -21//-21
f -22//-22 -21//-21 -20//-20
f -20//-20 -21//-21 -19//-19
f -20//-20 -19//-19 -18//-18
f -18//-18 -19//-19 -17//-17
f -18//-18 -17//-17 -16//-16
f -16//-16 -17//-17 -15//-15
f -16//-16 -15//-15 -14//-14
f -14//-14 -15//-15 -13//-13
f -14//-14 -13//-13 -12//-12
f -12//-12 -13//-13 -11//-11
f -12//-12 -11//-11 -10//-10
f -10//-10 -11//-11 -9//-9
f -10//-10 -9//-9 -8//-8
f -8//-8 -9//-9 -7//-7
f -8//-8 -7//-7 -6//-6
f -6//-6 -7//-7 -5//-5
f -6//-6 -5//-5 -4//-4
f -4//-4 -5//-5 -3//-3
f -4//-4 -3//-3 -2//-2
f -2//-2 -3//-3 -1//-1
v 1.505589e+00 7.534087e+00 1.575000e+00
v 1.505589e+00 1.438383e+01 1.575000e+00
v 3.563055e-01 7.534087e+00 1.575000e+00
v -1.505589e+00 1.438383e+01 1.575000e+00
v -3.563055e-01 7.534087e+00 1.575000e+00
v -1.505589e+00 7.534087e+00 1.575000e+00
vn 0.000000 0.000000 1.000000
vn 0.000000 0.000000 1.000000
vn 0.000000 0.000000 1.000000
vn 0.000000 0.000000 1.000000
vn 0.000000 0.000000 1.000000
vn 0.000000 0.000000 1.000000
f -6//-6 -5//-5 -4//-4
f -4//-4 -5//-5 -3//-3
f -4//-4 -3//-3 -2//-2
f -2//-2 -3//-3 -1//-1
v -4.564307e+00 1.472753e-02 1.575000e+00
v -4.525420e+00 -4.198405e-01 1.575000e+00
v -4.519791e+00 4.490264e-01 1.575000e+00
v -4.403841e+00 -8.467368e-01 1.575000e+00
v -4.392685e+00 8.751203e-01 1.575000e+00
v -4.201791e+00 -1.258161e+00 1.575000e+00
v -4.185313e+00 1.285223e+00 1.575000e+00
v -3.901464e+00 1.671842e+00 1.575000e+00
vn 0.000000 0.000000 1.000000
vn 0.000000 0.000000 1.000000
vn 0.000000 0.000000 1.000000
vn 0.000000 0.000000 1.000000
vn 0.000000 0.000000 1.000000
vn 0.000000 0.000000 1.000000
vn 0.000000 0.000000 1.000000
vn 0.000000 0.000000 1.000000
f -8//-8 -7//-7 -6//-6
f -6//-6 -7//-7 -5//-5
f -6//-6 -5//-5 -4//-4
f -4//-4 -5//-5 -3//-3
f -4//-4 -3//-3 -2//-2
f -2//-2 -3//-3 -1//-1
v -2.649312e+00 2.623052e+00 1.575000e+00
v -3.126381e+00 2.346924e+00 1.575000e+00
v -4.201791e+00 -1.258161e+00 1.575000e+00
v -3.546323e+00 2.027911e+00 1.575000e+00
v -3.901464e+00 1.671842e+00 1.575000e+00
vn 0.000000 0.000000 1.000000
vn 0.000000 0.000000 1.000000
vn 0.000000 0.000000 1.000000
vn 0.000000 0.000000 1.000000
vn 0.000000 0.000000 1.000000
f -5//-5 -4//-4 -3//-3
f -3//-3 -4//-4 -2//-2
f -3//-3 -2//-2 -1//-1
v 3.563055e-01 7.534087e+00 1.575000e+00
v -3.563055e-01 7.534087e+00 1.575000e+00
v 3.563055e-01 3.211380e+00 1.575000e+00
v -3.563055e-01 3.211380e+00 1.575000e+00
v -4.201791e+00 -1.258161e+00 1.575000e+00
v -9.667568e-01 3.148126e+00 1.575000e+00
v -1.559543e+00 3.027347e+00 1.575000e+00
vn 0.000000 0.000000 1.000000
vn 0.000000 0.000000 1.000000
vn 0.000000 0.000000 1.000000
vn 0.000000 0.000000 1.000000
vn 0.000000 0.000000 1.000000
vn 0.000000 0.000000 1.000000
vn 0.000000 0.000000 1.000000
f -7//-7 -6//-6 -5//-5
f -5//-5 -6//-6 -4//-4
f -5//-5 -4//-4 -3//-3
f -3//-3 -4//-4 -2//-2
f -3//-3 -2//-2 -1//-1
v -4.201791e+00 -1.258161e+00 1.575000e+00
v -3.922962e+00 -1.646595e+00 1.575000e+00
v 3.563055e-01 3.211380e+00 1.575000e+00
v -3.572450e+00 -2.004941e+00 1.575000e+00
v -3.156659e+00 -2.326651e+00 1.575000e+00
vn 0.000000 0.000000 1.000000
vn 0.000000 0.000000 1.000000
vn 0.000000 0.000000 1.000000
vn 0.000000 0.000000 1.000000
vn 0.000000 0.000000 1.000000
f -5//-5 -4//-4 -3//-3
f -3//-3 -4//-4 -2//-2
f -3//-3 -2//-2 -1//-1
v -2.649312e+00 2.623052e+00 1.575000e+00
v -4.201791e+00 -1.258161e+00 1.575000e+00
v -2.123831e+00 2.851250e+00 1.575000e+00
v -1.559543e+00 3.027347e+00 1.575000e+00
vn 0.000000 0.000000 1.000000
vn 0.000000 0.000000 1.000000
vn 0.000000 0.000000 1.000000
vn 0.000000 0.000000 1.000000
f -4//-4 -3//-3 -2//-2
f -2//-2 -3//-3 -1//-1
v -3.156659e+00 -2.326651e+00 1.575000e+00
v -2.683187e+00 -2.605846e+00 1.575000e+00
v 3.563055e-01 3.211380e+00 1.575000e+00
v -2.160686e+00 -2.837425e+00 1.575000e+00
v -1.598702e+00 -3.017157e+00 1.575000e+00
vn 0.000000 0.000000 1.000000
vn 0.000000 0.000000 1.000000
vn 0.000000 0.000000 1.000000
vn 0.000000 0.000000 1.000000
vn 0.000000 0.000000 1.000000
f -5//-5 -4//-4 -3//-3
f -3//-3 -4//-4 -2//-2
f -3//-3 -2//-2 -1//-1
v -1.598702e+00 -3.017157e+00 1.575000e+00
v -1.007506e+00 -3.141756e+00 1.575000e+00
v 3.563055e-01 3.211380e+00 1.575000e+00
v -3.978997e-01 -3.208947e+00 1.575000e+00
v 5.347813e-01 3.199024e+00 1.575000e+00
vn 0.000000 0.000000 1.000000
vn 0.000000 0.000000 1.000000
vn 0.000000 0.000000 1.000000
vn 0.000000 0.000000 1.000000
vn 0.000000 0.000000 1.000000
f -5//-5 -4//-4 -3//-3
f -3//-3 -4//-4 -2//-2
f -3//-3 -2//-2 -1//-1
