#
mtllib pin_Slot_Cavity_Backed_Array.mtl
usemtl ff2091d6
v -1.832500e+01 6.420308e-01 -6.744695e+01
v 2.365000e+00 8.765469e-01 -6.776974e+01
v -1.832500e+01 8.765469e-01 -6.776974e+01
v 2.365000e+00 9.595000e-01 -6.816000e+01
v -1.832500e+01 9.595000e-01 -6.816000e+01
v 2.365000e+00 8.765469e-01 -6.855026e+01
v -1.832500e+01 8.765469e-01 -6.855026e+01
v 2.365000e+00 6.420308e-01 -6.887305e+01
v -1.832500e+01 6.420308e-01 -6.887305e+01
v 2.365000e+00 2.965018e-01 -6.907254e+01
v -1.832500e+01 2.965018e-01 -6.907254e+01
v 2.365000e+00 -1.002951e-01 -6.911424e+01
v -1.832500e+01 -1.002951e-01 -6.911424e+01
v 2.365000e+00 -4.797500e-01 -6.899095e+01
v -1.832500e+01 -4.797500e-01 -6.899095e+01
v 2.365000e+00 -7.762518e-01 -6.872398e+01
v -1.832500e+01 -7.762518e-01 -6.872398e+01
v 2.365000e+00 -9.385327e-01 -6.835949e+01
v -1.832500e+01 -9.385327e-01 -6.835949e+01
v 2.365000e+00 -9.385327e-01 -6.796051e+01
v -1.832500e+01 -9.385327e-01 -6.796051e+01
v 2.365000e+00 -7.762518e-01 -6.759602e+01
v -1.832500e+01 -7.762518e-01 -6.759602e+01
v 2.365000e+00 -4.797500e-01 -6.732905e+01
v -1.832500e+01 -4.797500e-01 -6.732905e+01
v 2.365000e+00 -1.002951e-01 -6.720576e+01
v -1.832500e+01 -1.002951e-01 -6.720576e+01
v 2.365000e+00 2.965018e-01 -6.724746e+01
v -1.832500e+01 2.965018e-01 -6.724746e+01
v 2.365000e+00 6.420308e-01 -6.744695e+01
v -1.832500e+01 6.420308e-01 -6.744695e+01
v 2.365000e+00 8.765469e-01 -6.776974e+01
vn 0.000000 0.669131 0.743145
vn 0.000000 0.913545 0.406737
vn 0.000000 0.913545 0.406737
vn 0.000000 1.000000 0.000000
vn 0.000000 1.000000 0.000000
vn -0.000000 0.913545 -0.406737
vn -0.000000 0.913545 -0.406737
vn -0.000000 0.669131 -0.743145
vn -0.000000 0.669131 -0.743145
vn -0.000000 0.309017 -0.951057
vn -0.000000 0.309017 -0.951057
vn -0.000000 -0.104528 -0.994522
vn -0.000000 -0.104528 -0.994522
vn -0.000000 -0.500000 -0.866025
vn -0.000000 -0.500000 -0.866025
vn -0.000000 -0.809017 -0.587785
vn -0.000000 -0.809017 -0.587785
vn -0.000000 -0.978148 -0.207912
vn -0.000000 -0.978148 -0.207912
vn -0.000000 -0.978148 0.207912
vn -0.000000 -0.978148 0.207912
vn 0.000000 -0.809017 0.587785
vn 0.000000 -0.809017 0.587785
vn 0.000000 -0.500000 0.866025
vn 0.000000 -0.500000 0.866025
vn 0.000000 -0.104528 0.994522
vn 0.000000 -0.104528 0.994522
vn 0.000000 0.309017 0.951057
vn 0.000000 0.309017 0.951057
vn 0.000000 0.669131 0.743145
vn 0.000000 0.669131 0.743145
vn 0.000000 0.913545 0.406737
f -32//-32 -31//-31 -30//-30
f -30//-30 -31//-31 -29//-29
f -30//-30 -29//-29 -28//-28
f -28//-28 -29//-29 -27//-27
f -28//-28 -27//-27 -26//-26
f -26//-26 -27//-27 -25//-25
f -26//-26 -25//-25 -24//-24
f -24//-24 -25//-25 -23//-23
f -24//-24 -23//-23 -22//-22
f -22//-22 -23//-23 -21//-21
f -22//-22 -21//-21 -20//-20
f -20//-20 -21//-21 -19//-19
f -20//-20 -19//-19 -18//-18
f -18//-18 -19//-19 -17//-17
f -18//-18 -17//-17 -16//-16
f -16//-16 -17//-17 -15//-15
f -16//-16 -15//-15 -14//-14
f -14//-14 -15//-15 -13//-13
f -14//-14 -13//-13 -12//-12
f -12//-12 -13//-13 -11//-11
f -12//-12 -11//-11 -10//-10
f -10//-10 -11//-11 -9//-9
f -10//-10 -9//-9 -8//-8
f -8//-8 -9//-9 -7//-7
f -8//-8 -7//-7 -6//-6
f -6//-6 -7//-7 -5//-5
f -6//-6 -5//-5 -4//-4
f -4//-4 -5//-5 -3//-3
f -4//-4 -3//-3 -2//-2
f -2//-2 -3//-3 -1//-1
v -1.832500e+01 9.595000e-01 -6.816000e+01
v -1.832500e+01 8.765469e-01 -6.855026e+01
v -1.832500e+01 6.334486e-16 -6.816000e+01
v -1.832500e+01 6.420308e-01 -6.887305e+01
v -1.832500e+01 2.965018e-01 -6.907254e+01
vn -1.000000 0.000000 0.000000
vn -1.000000 0.000000 0.000000
vn -1.000000 0.000000 0.000000
vn -1.000000 0.000000 0.000000
vn -1.000000 0.000000 0.000000
f -5//-5 -4//-4 -3//-3
f -3//-3 -4//-4 -2//-2
f -3//-3 -2//-2 -1//-1
v -1.832500e+01 2.965018e-01 -6.907254e+01
v -1.832500e+01 -1.002951e-01 -6.911424e+01
v -1.832500e+01 6.334486e-16 -6.816000e+01
v -1.832500e+01 -4.797500e-01 -6.899095e+01
v -1.832500e+01 -7.762518e-01 -6.872398e+01
vn -1.000000 0.000000 0.000000
vn -1.000000 0.000000 0.000000
vn -1.000000 0.000000 0.000000
vn -1.000000 0.000000 0.000000
vn -1.000000 0.000000 0.000000
f -5//-5 -4//-4 -3//-3
f -3//-3 -4//-4 -2//-2
f -3//-3 -2//-2 -1//-1
v -1.832500e+01 -7.762518e-01 -6.872398e+01
v -1.832500e+01 -9.385327e-01 -6.835949e+01
v -1.832500e+01 6.334486e-16 -6.816000e+01
v -1.832500e+01 -9.385327e-01 -6.796051e+01
v -1.832500e+01 -7.762518e-01 -6.759602e+01
vn -1.000000 0.000000 0.000000
vn -1.000000 0.000000 0.000000
vn -1.000000 0.000000 0.000000
vn -1.000000 0.000000 0.000000
vn -1.000000 0.000000 0.000000
f -5//-5 -4//-4 -3//-3
f -3//-3 -4//-4 -2//-2
f -3//-3 -2//-2 -1//-1
v -1.832500e+01 -7.762518e-01 -6.759602e+01
v -1.832500e+01 -4.797500e-01 -6.732905e+01
v -1.832500e+01 6.334486e-16 -6.816000e+01
v -1.832500e+01 -1.002951e-01 -6.720576e+01
v -1.832500e+01 2.965018e-01 -6.724746e+01
vn -1.000000 0.000000 0.000000
vn -1.000000 0.000000 0.000000
vn -1.000000 0.000000 0.000000
vn -1.000000 0.000000 0.000000
vn -1.000000 0.000000 0.000000
f -5//-5 -4//-4 -3//-3
f -3//-3 -4//-4 -2//-2
f -3//-3 -2//-2 -1//-1
v -1.832500e+01 2.965018e-01 -6.724746e+01
v -1.832500e+01 6.420308e-01 -6.744695e+01
v -1.832500e+01 6.334486e-16 -6.816000e+01
v -1.832500e+01 8.765469e-01 -6.776974e+01
v -1.832500e+01 9.595000e-01 -6.816000e+01
vn -1.000000 0.000000 0.000000
vn -1.000000 0.000000 0.000000
vn -1.000000 0.000000 0.000000
vn -1.000000 0.000000 0.000000
vn -1.000000 0.000000 0.000000
f -5//-5 -4//-4 -3//-3
f -3//-3 -4//-4 -2//-2
f -3//-3 -2//-2 -1//-1
v 2.365000e+00 9.595000e-01 -6.816000e+01
v 2.365000e+00 8.765469e-01 -6.776974e+01
v 2.365000e+00 -6.334486e-16 -6.816000e+01
v 2.365000e+00 6.420308e-01 -6.744695e+01
v 2.365000e+00 2.965018e-01 -6.724746e+01
vn 1.000000 -0.000000 -0.000000
vn 1.000000 -0.000000 -0.000000
vn 1.000000 -0.000000 -0.000000
vn 1.000000 -0.000000 -0.000000
vn 1.000000 -0.000000 -0.000000
f -5//-5 -4//-4 -3//-3
f -3//-3 -4//-4 -2//-2
f -3//-3 -2//-2 -1//-1
v 2.365000e+00 2.965018e-01 -6.724746e+01
v 2.365000e+00 -1.002951e-01 -6.720576e+01
v 2.365000e+00 -6.334486e-16 -6.816000e+01
v 2.365000e+00 -4.797500e-01 -6.732905e+01
v 2.365000e+00 -7.762518e-01 -6.759602e+01
vn 1.000000 -0.000000 -0.000000
vn 1.000000 -0.000000 -0.000000
vn 1.000000 -0.000000 -0.000000
vn 1.000000 -0.000000 -0.000000
vn 1.000000 -0.000000 -0.000000
f -5//-5 -4//-4 -3//-3
f -3//-3 -4//-4 -2//-2
f -3//-3 -2//-2 -1//-1
v 2.365000e+00 -7.762518e-01 -6.759602e+01
v 2.365000e+00 -9.385327e-01 -6.796051e+01
v 2.365000e+00 -6.334486e-16 -6.816000e+01
v 2.365000e+00 -9.385327e-01 -6.835949e+01
v 2.365000e+00 -7.762518e-01 -6.872398e+01
vn 1.000000 -0.000000 -0.000000
vn 1.000000 -0.000000 -0.000000
vn 1.000000 -0.000000 -0.000000
vn 1.000000 -0.000000 -0.000000
vn 1.000000 -0.000000 -0.000000
f -5//-5 -4//-4 -3//-3
f -3//-3 -4//-4 -2//-2
f -3//-3 -2//-2 -1//-1
v 2.365000e+00 -7.762518e-01 -6.872398e+01
v 2.365000e+00 -4.797500e-01 -6.899095e+01
v 2.365000e+00 -6.334486e-16 -6.816000e+01
v 2.365000e+00 -1.002951e-01 -6.911424e+01
v 2.365000e+00 2.965018e-01 -6.907254e+01
vn 1.000000 -0.000000 -0.000000
vn 1.000000 -0.000000 -0.000000
vn 1.000000 -0.000000 -0.000000
vn 1.000000 -0.000000 -0.000000
vn 1.000000 -0.000000 -0.000000
f -5//-5 -4//-4 -3//-3
f -3//-3 -4//-4 -2//-2
f -3//-3 -2//-2 -1//-1
v 2.365000e+00 2.965018e-01 -6.907254e+01
v 2.365000e+00 6.420308e-01 -6.887305e+01
v 2.365000e+00 -6.334486e-16 -6.816000e+01
v 2.365000e+00 8.765469e-01 -6.855026e+01
v 2.365000e+00 9.595000e-01 -6.816000e+01
vn 1.000000 -0.000000 -0.000000
vn 1.000000 -0.000000 -0.000000
vn 1.000000 -0.000000 -0.000000
vn 1.000000 -0.000000 -0.000000
vn 1.000000 -0.000000 -0.000000
f -5//-5 -4//-4 -3//-3
f -3//-3 -4//-4 -2//-2
f -3//-3 -2//-2 -1//-1
