#
mtllib coax_Patch_73T07X.mtl
usemtl ffffff80
v 2.005064e+02 4.724590e-01 0.000000e+00
v 2.005514e+02 5.960969e-01 -3.331030e+00
v 2.005514e+02 5.960969e-01 0.000000e+00
v 2.005667e+02 7.267800e-01 -3.331030e+00
v 2.005667e+02 7.267800e-01 0.000000e+00
v 2.005514e+02 8.574631e-01 -3.331030e+00
v 2.005514e+02 8.574631e-01 0.000000e+00
v 2.005064e+02 9.811010e-01 -3.331030e+00
v 2.005064e+02 9.811010e-01 0.000000e+00
v 2.004341e+02 1.091028e+00 -3.331030e+00
v 2.004341e+02 1.091028e+00 0.000000e+00
v 2.003384e+02 1.181319e+00 -3.331030e+00
v 2.003384e+02 1.181319e+00 0.000000e+00
v 2.002244e+02 1.247105e+00 -3.331030e+00
v 2.002244e+02 1.247105e+00 0.000000e+00
v 2.000984e+02 1.284841e+00 -3.331030e+00
v 2.000984e+02 1.284841e+00 0.000000e+00
v 1.999671e+02 1.292491e+00 -3.331030e+00
v 1.999671e+02 1.292491e+00 0.000000e+00
v 1.998375e+02 1.269644e+00 -3.331030e+00
v 1.998375e+02 1.269644e+00 0.000000e+00
v 1.997167e+02 1.217531e+00 -3.331030e+00
v 1.997167e+02 1.217531e+00 0.000000e+00
v 1.996111e+02 1.138961e+00 -3.331030e+00
v 1.996111e+02 1.138961e+00 0.000000e+00
v 1.995266e+02 1.038170e+00 -3.331030e+00
v 1.995266e+02 1.038170e+00 0.000000e+00
v 1.994675e+02 9.205925e-01 -3.331030e+00
v 1.994675e+02 9.205925e-01 0.000000e+00
v 1.994372e+02 7.925664e-01 -3.331030e+00
v 1.994372e+02 7.925664e-01 0.000000e+00
v 1.994372e+02 6.609936e-01 -3.331030e+00
v 1.994372e+02 6.609936e-01 0.000000e+00
v 1.994675e+02 5.329674e-01 -3.331030e+00
v 1.994675e+02 5.329674e-01 0.000000e+00
v 1.995266e+02 4.153897e-01 -3.331030e+00
v 1.995266e+02 4.153897e-01 0.000000e+00
v 1.996111e+02 3.145992e-01 -3.331030e+00
v 1.996111e+02 3.145992e-01 0.000000e+00
v 1.997167e+02 2.360294e-01 -3.331030e+00
v 1.997167e+02 2.360294e-01 0.000000e+00
v 1.998375e+02 1.839161e-01 -3.331030e+00
v 1.998375e+02 1.839161e-01 0.000000e+00
v 1.999671e+02 1.610687e-01 -3.331030e+00
v 1.999671e+02 1.610687e-01 0.000000e+00
v 2.000984e+02 1.687190e-01 -3.331030e+00
v 2.000984e+02 1.687190e-01 0.000000e+00
v 2.002244e+02 2.064545e-01 -3.331030e+00
v 2.002244e+02 2.064545e-01 0.000000e+00
v 2.003384e+02 2.722408e-01 -3.331030e+00
v 2.003384e+02 2.722408e-01 0.000000e+00
v 2.004341e+02 3.625315e-01 -3.331030e+00
v 2.004341e+02 3.625315e-01 0.000000e+00
v 2.005064e+02 4.724590e-01 -3.331030e+00
v 2.005064e+02 4.724590e-01 0.000000e+00
v 2.005514e+02 5.960969e-01 -3.331030e+00
vn 0.893633 -0.448799 0.000000
vn 0.973045 -0.230616 0.000000
vn 0.973045 -0.230616 0.000000
vn 1.000000 0.000000 0.000000
vn 1.000000 0.000000 0.000000
vn 0.973045 0.230616 0.000000
vn 0.973045 0.230616 0.000000
vn 0.893633 0.448799 0.000000
vn 0.893633 0.448799 0.000000
vn 0.766044 0.642788 0.000000
vn 0.766044 0.642788 0.000000
vn 0.597159 0.802123 0.000000
vn 0.597159 0.802123 0.000000
vn 0.396080 0.918216 0.000000
vn 0.396080 0.918216 0.000000
vn 0.173648 0.984808 0.000000
vn 0.173648 0.984808 0.000000
vn -0.058145 0.998308 0.000000
vn -0.058145 0.998308 0.000000
vn -0.286803 0.957990 0.000000
vn -0.286803 0.957990 0.000000
vn -0.500000 0.866025 0.000000
vn -0.500000 0.866025 0.000000
vn -0.686242 0.727374 0.000000
vn -0.686242 0.727374 0.000000
vn -0.835488 0.549509 0.000000
vn -0.835488 0.549509 0.000000
vn -0.939693 0.342020 0.000000
vn -0.939693 0.342020 0.000000
vn -0.993238 0.116093 0.000000
vn -0.993238 0.116093 0.000000
vn -0.993238 -0.116093 -0.000000
vn -0.993238 -0.116093 -0.000000
vn -0.939693 -0.342020 -0.000000
vn -0.939693 -0.342020 -0.000000
vn -0.835488 -0.549509 -0.000000
vn -0.835488 -0.549509 -0.000000
vn -0.686242 -0.727374 -0.000000
vn -0.686242 -0.727374 -0.000000
vn -0.500000 -0.866025 -0.000000
vn -0.500000 -0.866025 -0.000000
vn -0.286803 -0.957990 -0.000000
vn -0.286803 -0.957990 -0.000000
vn -0.058145 -0.998308 -0.000000
vn -0.058145 -0.998308 -0.000000
vn 0.173648 -0.984808 0.000000
vn 0.173648 -0.984808 0.000000
vn 0.396080 -0.918216 0.000000
vn 0.396080 -0.918216 0.000000
vn 0.597159 -0.802123 0.000000
vn 0.597159 -0.802123 0.000000
vn 0.766044 -0.642788 0.000000
vn 0.766044 -0.642788 0.000000
vn 0.893633 -0.448799 0.000000
vn 0.893633 -0.448799 0.000000
vn 0.973045 -0.230616 0.000000
f -56//-56 -55//-55 -54//-54
f -54//-54 -55//-55 -53//-53
f -54//-54 -53//-53 -52//-52
f -52//-52 -53//-53 -51//-51
f -52//-52 -51//-51 -50//-50
f -50//-50 -51//-51 -49//-49
f -50//-50 -49//-49 -48//-48
f -48//-48 -49//-49 -47//-47
f -48//-48 -47//-47 -46//-46
f -46//-46 -47//-47 -45//-45
f -46//-46 -45//-45 -44//-44
f -44//-44 -45//-45 -43//-43
f -44//-44 -43//-43 -42//-42
f -42//-42 -43//-43 -41//-41
f -42//-42 -41//-41 -40//-40
f -40//-40 -41//-41 -39//-39
f -40//-40 -39//-39 -38//-38
f -38//-38 -39//-39 -37//-37
f -38//-38 -37//-37 -36//-36
f -36//-36 -37//-37 -35//-35
f -36//-36 -35//-35 -34//-34
f -34//-34 -35//-35 -33//-33
f -34//-34 -33//-33 -32//-32
f -32//-32 -33//-33 -31//-31
f -32//-32 -31//-31 -30//-30
f -30//-30 -31//-31 -29//-29
f -30//-30 -29//-29 -28//-28
f -28//-28 -29//-29 -27//-27
f -28//-28 -27//-27 -26//-26
f -26//-26 -27//-27 -25//-25
f -26//-26 -25//-25 -24//-24
f -24//-24 -25//-25 -23//-23
f -24//-24 -23//-23 -22//-22
f -22//-22 -23//-23 -21//-21
f -22//-22 -21//-21 -20//-20
f -20//-20 -21//-21 -19//-19
f -20//-20 -19//-19 -18//-18
f -18//-18 -19//-19 -17//-17
f -18//-18 -17//-17 -16//-16
f -16//-16 -17//-17 -15//-15
f -16//-16 -15//-15 -14//-14
f -14//-14 -15//-15 -13//-13
f -14//-14 -13//-13 -12//-12
f -12//-12 -13//-13 -11//-11
f -12//-12 -11//-11 -10//-10
f -10//-10 -11//-11 -9//-9
f -10//-10 -9//-9 -8//-8
f -8//-8 -9//-9 -7//-7
f -8//-8 -7//-7 -6//-6
f -6//-6 -7//-7 -5//-5
f -6//-6 -5//-5 -4//-4
f -4//-4 -5//-5 -3//-3
f -4//-4 -3//-3 -2//-2
f -2//-2 -3//-3 -1//-1
v 2.005667e+02 7.267800e-01 -3.331030e+00
v 2.005514e+02 5.960969e-01 -3.331030e+00
v 2.000000e+02 7.267800e-01 -3.331030e+00
v 2.005064e+02 4.724590e-01 -3.331030e+00
v 2.004341e+02 3.625315e-01 -3.331030e+00
vn 0.000000 0.000000 -1.000000
vn 0.000000 0.000000 -1.000000
vn 0.000000 0.000000 -1.000000
vn 0.000000 0.000000 -1.000000
vn 0.000000 0.000000 -1.000000
f -5//-5 -4//-4 -3//-3
f -3//-3 -4//-4 -2//-2
f -3//-3 -2//-2 -1//-1
v 2.004341e+02 3.625315e-01 -3.331030e+00
v 2.003384e+02 2.722408e-01 -3.331030e+00
v 2.000000e+02 7.267800e-01 -3.331030e+00
v 2.002244e+02 2.064545e-01 -3.331030e+00
v 2.000984e+02 1.687190e-01 -3.331030e+00
vn 0.000000 0.000000 -1.000000
vn 0.000000 0.000000 -1.000000
vn 0.000000 0.000000 -1.000000
vn 0.000000 0.000000 -1.000000
vn 0.000000 0.000000 -1.000000
f -5//-5 -4//-4 -3//-3
f -3//-3 -4//-4 -2//-2
f -3//-3 -2//-2 -1//-1
v 2.000984e+02 1.687190e-01 -3.331030e+00
v 1.999671e+02 1.610687e-01 -3.331030e+00
v 2.000000e+02 7.267800e-01 -3.331030e+00
v 1.998375e+02 1.839161e-01 -3.331030e+00
v 1.997167e+02 2.360294e-01 -3.331030e+00
vn 0.000000 0.000000 -1.000000
vn 0.000000 0.000000 -1.000000
vn 0.000000 0.000000 -1.000000
vn 0.000000 0.000000 -1.000000
vn 0.000000 0.000000 -1.000000
f -5//-5 -4//-4 -3//-3
f -3//-3 -4//-4 -2//-2
f -3//-3 -2//-2 -1//-1
v 1.997167e+02 2.360294e-01 -3.331030e+00
v 1.996111e+02 3.145992e-01 -3.331030e+00
v 2.000000e+02 7.267800e-01 -3.331030e+00
v 1.995266e+02 4.153897e-01 -3.331030e+00
v 1.994675e+02 5.329674e-01 -3.331030e+00
vn 0.000000 0.000000 -1.000000
vn 0.000000 0.000000 -1.000000
vn 0.000000 0.000000 -1.000000
vn 0.000000 0.000000 -1.000000
vn 0.000000 0.000000 -1.000000
f -5//-5 -4//-4 -3//-3
f -3//-3 -4//-4 -2//-2
f -3//-3 -2//-2 -1//-1
v 1.994675e+02 5.329674e-01 -3.331030e+00
v 1.994372e+02 6.609936e-01 -3.331030e+00
v 2.000000e+02 7.267800e-01 -3.331030e+00
v 1.994372e+02 7.925664e-01 -3.331030e+00
v 1.994675e+02 9.205925e-01 -3.331030e+00
vn 0.000000 0.000000 -1.000000
vn 0.000000 0.000000 -1.000000
vn 0.000000 0.000000 -1.000000
vn 0.000000 0.000000 -1.000000
vn 0.000000 0.000000 -1.000000
f -5//-5 -4//-4 -3//-3
f -3//-3 -4//-4 -2//-2
f -3//-3 -2//-2 -1//-1
v 1.994675e+02 9.205925e-01 -3.331030e+00
v 1.995266e+02 1.038170e+00 -3.331030e+00
v 2.000000e+02 7.267800e-01 -3.331030e+00
v 1.996111e+02 1.138961e+00 -3.331030e+00
v 1.997167e+02 1.217531e+00 -3.331030e+00
vn 0.000000 0.000000 -1.000000
vn 0.000000 0.000000 -1.000000
vn 0.000000 0.000000 -1.000000
vn 0.000000 0.000000 -1.000000
vn 0.000000 0.000000 -1.000000
f -5//-5 -4//-4 -3//-3
f -3//-3 -4//-4 -2//-2
f -3//-3 -2//-2 -1//-1
v 1.997167e+02 1.217531e+00 -3.331030e+00
v 1.998375e+02 1.269644e+00 -3.331030e+00
v 2.000000e+02 7.267800e-01 -3.331030e+00
v 1.999671e+02 1.292491e+00 -3.331030e+00
v 2.000984e+02 1.284841e+00 -3.331030e+00
vn 0.000000 0.000000 -1.000000
vn 0.000000 0.000000 -1.000000
vn 0.000000 0.000000 -1.000000
vn 0.000000 0.000000 -1.000000
vn 0.000000 0.000000 -1.000000
f -5//-5 -4//-4 -3//-3
f -3//-3 -4//-4 -2//-2
f -3//-3 -2//-2 -1//-1
v 2.000984e+02 1.284841e+00 -3.331030e+00
v 2.002244e+02 1.247105e+00 -3.331030e+00
v 2.000000e+02 7.267800e-01 -3.331030e+00
v 2.003384e+02 1.181319e+00 -3.331030e+00
v 2.004341e+02 1.091028e+00 -3.331030e+00
vn 0.000000 0.000000 -1.000000
vn 0.000000 0.000000 -1.000000
vn 0.000000 0.000000 -1.000000
vn 0.000000 0.000000 -1.000000
vn 0.000000 0.000000 -1.000000
f -5//-5 -4//-4 -3//-3
f -3//-3 -4//-4 -2//-2
f -3//-3 -2//-2 -1//-1
v 2.004341e+02 1.091028e+00 -3.331030e+00
v 2.005064e+02 9.811010e-01 -3.331030e+00
v 2.000000e+02 7.267800e-01 -3.331030e+00
v 2.005514e+02 8.574631e-01 -3.331030e+00
v 2.005667e+02 7.267800e-01 -3.331030e+00
vn 0.000000 0.000000 -1.000000
vn 0.000000 0.000000 -1.000000
vn 0.000000 0.000000 -1.000000
vn 0.000000 0.000000 -1.000000
vn 0.000000 0.000000 -1.000000
f -5//-5 -4//-4 -3//-3
f -3//-3 -4//-4 -2//-2
f -3//-3 -2//-2 -1//-1
v 2.005667e+02 7.267800e-01 0.000000e+00
v 2.005514e+02 8.574631e-01 0.000000e+00
v 2.000000e+02 7.267800e-01 0.000000e+00
v 2.005064e+02 9.811010e-01 0.000000e+00
v 2.004341e+02 1.091028e+00 0.000000e+00
vn -0.000000 -0.000000 1.000000
vn -0.000000 -0.000000 1.000000
vn -0.000000 -0.000000 1.000000
vn -0.000000 -0.000000 1.000000
vn -0.000000 -0.000000 1.000000
f -5//-5 -4//-4 -3//-3
f -3//-3 -4//-4 -2//-2
f -3//-3 -2//-2 -1//-1
v 2.004341e+02 1.091028e+00 0.000000e+00
v 2.003384e+02 1.181319e+00 0.000000e+00
v 2.000000e+02 7.267800e-01 0.000000e+00
v 2.002244e+02 1.247105e+00 0.000000e+00
v 2.000984e+02 1.284841e+00 0.000000e+00
vn -0.000000 -0.000000 1.000000
vn -0.000000 -0.000000 1.000000
vn -0.000000 -0.000000 1.000000
vn -0.000000 -0.000000 1.000000
vn -0.000000 -0.000000 1.000000
f -5//-5 -4//-4 -3//-3
f -3//-3 -4//-4 -2//-2
f -3//-3 -2//-2 -1//-1
v 2.000984e+02 1.284841e+00 0.000000e+00
v 1.999671e+02 1.292491e+00 0.000000e+00
v 2.000000e+02 7.267800e-01 0.000000e+00
v 1.998375e+02 1.269644e+00 0.000000e+00
v 1.997167e+02 1.217531e+00 0.000000e+00
vn -0.000000 -0.000000 1.000000
vn -0.000000 -0.000000 1.000000
vn -0.000000 -0.000000 1.000000
vn -0.000000 -0.000000 1.000000
vn -0.000000 -0.000000 1.000000
f -5//-5 -4//-4 -3//-3
f -3//-3 -4//-4 -2//-2
f -3//-3 -2//-2 -1//-1
v 1.997167e+02 1.217531e+00 0.000000e+00
v 1.996111e+02 1.138961e+00 0.000000e+00
v 2.000000e+02 7.267800e-01 0.000000e+00
v 1.995266e+02 1.038170e+00 0.000000e+00
v 1.994675e+02 9.205925e-01 0.000000e+00
vn -0.000000 -0.000000 1.000000
vn -0.000000 -0.000000 1.000000
vn -0.000000 -0.000000 1.000000
vn -0.000000 -0.000000 1.000000
vn -0.000000 -0.000000 1.000000
f -5//-5 -4//-4 -3//-3
f -3//-3 -4//-4 -2//-2
f -3//-3 -2//-2 -1//-1
v 1.994675e+02 9.205925e-01 0.000000e+00
v 1.994372e+02 7.925664e-01 0.000000e+00
v 2.000000e+02 7.267800e-01 0.000000e+00
v 1.994372e+02 6.609936e-01 0.000000e+00
v 1.994675e+02 5.329674e-01 0.000000e+00
vn -0.000000 -0.000000 1.000000
vn -0.000000 -0.000000 1.000000
vn -0.000000 -0.000000 1.000000
vn -0.000000 -0.000000 1.000000
vn -0.000000 -0.000000 1.000000
f -5//-5 -4//-4 -3//-3
f -3//-3 -4//-4 -2//-2
f -3//-3 -2//-2 -1//-1
v 1.994675e+02 5.329674e-01 0.000000e+00
v 1.995266e+02 4.153897e-01 0.000000e+00
v 2.000000e+02 7.267800e-01 0.000000e+00
v 1.996111e+02 3.145992e-01 0.000000e+00
v 1.997167e+02 2.360294e-01 0.000000e+00
vn -0.000000 -0.000000 1.000000
vn -0.000000 -0.000000 1.000000
vn -0.000000 -0.000000 1.000000
vn -0.000000 -0.000000 1.000000
vn -0.000000 -0.000000 1.000000
f -5//-5 -4//-4 -3//-3
f -3//-3 -4//-4 -2//-2
f -3//-3 -2//-2 -1//-1
v 1.997167e+02 2.360294e-01 0.000000e+00
v 1.998375e+02 1.839161e-01 0.000000e+00
v 2.000000e+02 7.267800e-01 0.000000e+00
v 1.999671e+02 1.610687e-01 0.000000e+00
v 2.000984e+02 1.687190e-01 0.000000e+00
vn -0.000000 -0.000000 1.000000
vn -0.000000 -0.000000 1.000000
vn -0.000000 -0.000000 1.000000
vn -0.000000 -0.000000 1.000000
vn -0.000000 -0.000000 1.000000
f -5//-5 -4//-4 -3//-3
f -3//-3 -4//-4 -2//-2
f -3//-3 -2//-2 -1//-1
v 2.000984e+02 1.687190e-01 0.000000e+00
v 2.002244e+02 2.064545e-01 0.000000e+00
v 2.000000e+02 7.267800e-01 0.000000e+00
v 2.003384e+02 2.722408e-01 0.000000e+00
v 2.004341e+02 3.625315e-01 0.000000e+00
vn -0.000000 -0.000000 1.000000
vn -0.000000 -0.000000 1.000000
vn -0.000000 -0.000000 1.000000
vn -0.000000 -0.000000 1.000000
vn -0.000000 -0.000000 1.000000
f -5//-5 -4//-4 -3//-3
f -3//-3 -4//-4 -2//-2
f -3//-3 -2//-2 -1//-1
v 2.004341e+02 3.625315e-01 0.000000e+00
v 2.005064e+02 4.724590e-01 0.000000e+00
v 2.000000e+02 7.267800e-01 0.000000e+00
v 2.005514e+02 5.960969e-01 0.000000e+00
v 2.005667e+02 7.267800e-01 0.000000e+00
vn -0.000000 -0.000000 1.000000
vn -0.000000 -0.000000 1.000000
vn -0.000000 -0.000000 1.000000
vn -0.000000 -0.000000 1.000000
vn -0.000000 -0.000000 1.000000
f -5//-5 -4//-4 -3//-3
f -3//-3 -4//-4 -2//-2
f -3//-3 -2//-2 -1//-1
