#
mtllib gnd_Patch_73T07X.mtl
usemtl ff4180ff
v 1.995092e+02 4.434450e-01 0.000000e+00
v 1.994526e+02 5.801150e-01 0.000000e+00
v 1.924356e+02 -6.243730e+00 0.000000e+00
v 1.994333e+02 7.267800e-01 0.000000e+00
v 1.924356e+02 6.243730e+00 0.000000e+00
v 1.994526e+02 8.734450e-01 0.000000e+00
v 1.995092e+02 1.010115e+00 0.000000e+00
vn -0.000000 0.000000 1.000000
vn -0.000000 0.000000 1.000000
vn -0.000000 0.000000 1.000000
vn -0.000000 0.000000 1.000000
vn -0.000000 0.000000 1.000000
vn -0.000000 0.000000 1.000000
vn -0.000000 0.000000 1.000000
f -7//-7 -6//-6 -5//-5
f -5//-5 -6//-6 -4//-4
f -5//-5 -4//-4 -3//-3
f -3//-3 -4//-4 -2//-2
f -3//-3 -2//-2 -1//-1
v 2.002833e+02 2.360294e-01 0.000000e+00
v 2.001467e+02 1.794188e-01 0.000000e+00
v 2.075644e+02 -6.243730e+00 0.000000e+00
v 2.000000e+02 1.601100e-01 0.000000e+00
v 1.924356e+02 -6.243730e+00 0.000000e+00
v 1.998533e+02 1.794188e-01 0.000000e+00
v 1.997167e+02 2.360294e-01 0.000000e+00
vn -0.000000 0.000000 1.000000
vn -0.000000 0.000000 1.000000
vn -0.000000 0.000000 1.000000
vn -0.000000 0.000000 1.000000
vn -0.000000 0.000000 1.000000
vn -0.000000 0.000000 1.000000
vn -0.000000 0.000000 1.000000
f -7//-7 -6//-6 -5//-5
f -5//-5 -6//-6 -4//-4
f -5//-5 -4//-4 -3//-3
f -3//-3 -4//-4 -2//-2
f -3//-3 -2//-2 -1//-1
v 1.997167e+02 1.217531e+00 0.000000e+00
v 1.998533e+02 1.274141e+00 0.000000e+00
v 1.924356e+02 6.243730e+00 0.000000e+00
v 2.000000e+02 1.293450e+00 0.000000e+00
v 2.075644e+02 6.243730e+00 0.000000e+00
v 2.001467e+02 1.274141e+00 0.000000e+00
v 2.002833e+02 1.217531e+00 0.000000e+00
vn -0.000000 0.000000 1.000000
vn -0.000000 0.000000 1.000000
vn -0.000000 0.000000 1.000000
vn -0.000000 0.000000 1.000000
vn -0.000000 0.000000 1.000000
vn -0.000000 0.000000 1.000000
vn -0.000000 0.000000 1.000000
f -7//-7 -6//-6 -5//-5
f -5//-5 -6//-6 -4//-4
f -5//-5 -4//-4 -3//-3
f -3//-3 -4//-4 -2//-2
f -3//-3 -2//-2 -1//-1
v 1.995092e+02 4.434450e-01 0.000000e+00
v 1.924356e+02 -6.243730e+00 0.000000e+00
v 1.995993e+02 3.260838e-01 0.000000e+00
v 1.997167e+02 2.360294e-01 0.000000e+00
vn -0.000000 0.000000 1.000000
vn -0.000000 0.000000 1.000000
vn -0.000000 0.000000 1.000000
vn -0.000000 0.000000 1.000000
f -4//-4 -3//-3 -2//-2
f -2//-2 -3//-3 -1//-1
v 2.005474e+02 5.801150e-01 0.000000e+00
v 2.004908e+02 4.434450e-01 0.000000e+00
v 2.075644e+02 -6.243730e+00 0.000000e+00
v 2.004007e+02 3.260838e-01 0.000000e+00
v 2.002833e+02 2.360294e-01 0.000000e+00
vn -0.000000 0.000000 1.000000
vn -0.000000 0.000000 1.000000
vn -0.000000 0.000000 1.000000
vn -0.000000 0.000000 1.000000
vn -0.000000 0.000000 1.000000
f -5//-5 -4//-4 -3//-3
f -3//-3 -4//-4 -2//-2
f -3//-3 -2//-2 -1//-1
v 2.002833e+02 1.217531e+00 0.000000e+00
v 2.004007e+02 1.127476e+00 0.000000e+00
v 2.075644e+02 6.243730e+00 0.000000e+00
v 2.004908e+02 1.010115e+00 0.000000e+00
v 2.005474e+02 8.734450e-01 0.000000e+00
vn -0.000000 0.000000 1.000000
vn -0.000000 0.000000 1.000000
vn -0.000000 0.000000 1.000000
vn -0.000000 0.000000 1.000000
vn -0.000000 0.000000 1.000000
f -5//-5 -4//-4 -3//-3
f -3//-3 -4//-4 -2//-2
f -3//-3 -2//-2 -1//-1
v 1.997167e+02 1.217531e+00 0.000000e+00
v 1.924356e+02 6.243730e+00 0.000000e+00
v 1.995993e+02 1.127476e+00 0.000000e+00
v 1.995092e+02 1.010115e+00 0.000000e+00
vn -0.000000 0.000000 1.000000
vn -0.000000 0.000000 1.000000
vn -0.000000 0.000000 1.000000
vn -0.000000 0.000000 1.000000
f -4//-4 -3//-3 -2//-2
f -2//-2 -3//-3 -1//-1
v 2.005474e+02 5.801150e-01 0.000000e+00
v 2.075644e+02 -6.243730e+00 0.000000e+00
v 2.005667e+02 7.267800e-01 0.000000e+00
v 2.075644e+02 6.243730e+00 0.000000e+00
v 2.005474e+02 8.734450e-01 0.000000e+00
vn -0.000000 0.000000 1.000000
vn -0.000000 0.000000 1.000000
vn -0.000000 0.000000 1.000000
vn -0.000000 0.000000 1.000000
vn -0.000000 0.000000 1.000000
f -5//-5 -4//-4 -3//-3
f -3//-3 -4//-4 -2//-2
f -3//-3 -2//-2 -1//-1
