#
mtllib sub_Patch_73T07X.mtl
usemtl ff008000
v 2.075644e+02 6.243730e+00 1.000000e+00
v 1.924356e+02 6.243730e+00 1.000000e+00
v 2.075644e+02 -6.243730e+00 1.000000e+00
v 1.924356e+02 -6.243730e+00 1.000000e+00
vn 0.000000 0.000000 1.000000
vn 0.000000 0.000000 1.000000
vn 0.000000 0.000000 1.000000
vn 0.000000 0.000000 1.000000
f -4//-4 -3//-3 -2//-2
f -2//-2 -3//-3 -1//-1
v 1.924356e+02 -6.243730e+00 0.000000e+00
v 1.924356e+02 6.243730e+00 0.000000e+00
v 2.075644e+02 -6.243730e+00 0.000000e+00
v 2.075644e+02 6.243730e+00 0.000000e+00
vn -0.000000 -0.000000 -1.000000
vn -0.000000 -0.000000 -1.000000
vn -0.000000 -0.000000 -1.000000
vn -0.000000 -0.000000 -1.000000
f -4//-4 -3//-3 -2//-2
f -2//-2 -3//-3 -1//-1
v 1.924356e+02 -6.243730e+00 1.000000e+00
v 1.924356e+02 -6.243730e+00 0.000000e+00
v 2.075644e+02 -6.243730e+00 1.000000e+00
v 2.075644e+02 -6.243730e+00 0.000000e+00
vn -0.000000 -1.000000 -0.000000
vn -0.000000 -1.000000 -0.000000
vn -0.000000 -1.000000 -0.000000
vn -0.000000 -1.000000 -0.000000
f -4//-4 -3//-3 -2//-2
f -2//-2 -3//-3 -1//-1
v 1.924356e+02 6.243730e+00 1.000000e+00
v 1.924356e+02 6.243730e+00 0.000000e+00
v 1.924356e+02 -6.243730e+00 1.000000e+00
v 1.924356e+02 -6.243730e+00 0.000000e+00
vn -1.000000 -0.000000 -0.000000
vn -1.000000 -0.000000 -0.000000
vn -1.000000 -0.000000 -0.000000
vn -1.000000 -0.000000 -0.000000
f -4//-4 -3//-3 -2//-2
f -2//-2 -3//-3 -1//-1
v 2.075644e+02 6.243730e+00 1.000000e+00
v 2.075644e+02 6.243730e+00 0.000000e+00
v 1.924356e+02 6.243730e+00 1.000000e+00
v 1.924356e+02 6.243730e+00 0.000000e+00
vn 0.000000 1.000000 0.000000
vn 0.000000 1.000000 0.000000
vn 0.000000 1.000000 0.000000
vn 0.000000 1.000000 0.000000
f -4//-4 -3//-3 -2//-2
f -2//-2 -3//-3 -1//-1
v 2.075644e+02 6.243730e+00 1.000000e+00
v 2.075644e+02 -6.243730e+00 1.000000e+00
v 2.075644e+02 6.243730e+00 0.000000e+00
v 2.075644e+02 -6.243730e+00 0.000000e+00
vn 1.000000 0.000000 0.000000
vn 1.000000 0.000000 0.000000
vn 1.000000 0.000000 0.000000
vn 1.000000 0.000000 0.000000
f -4//-4 -3//-3 -2//-2
f -2//-2 -3//-3 -1//-1
