#
mtllib port_cap_Rectangular_Waveguide_Slot_Array.mtl
usemtl ffc18484
v 1.270000e+01 0.000000e+00 6.350000e+00
v -1.270000e+01 0.000000e+00 6.350000e+00
v 1.270000e+01 -1.270000e+00 6.350000e+00
v -1.270000e+01 -1.270000e+00 6.350000e+00
vn 0.000000 0.000000 1.000000
vn 0.000000 0.000000 1.000000
vn 0.000000 0.000000 1.000000
vn 0.000000 0.000000 1.000000
f -4//-4 -3//-3 -2//-2
f -2//-2 -3//-3 -1//-1
v -1.270000e+01 -1.270000e+00 -6.350000e+00
v -1.270000e+01 0.000000e+00 -6.350000e+00
v 1.270000e+01 -1.270000e+00 -6.350000e+00
v 1.270000e+01 0.000000e+00 -6.350000e+00
vn -0.000000 -0.000000 -1.000000
vn -0.000000 -0.000000 -1.000000
vn -0.000000 -0.000000 -1.000000
vn -0.000000 -0.000000 -1.000000
f -4//-4 -3//-3 -2//-2
f -2//-2 -3//-3 -1//-1
v -1.270000e+01 -1.270000e+00 6.350000e+00
v -1.270000e+01 -1.270000e+00 -6.350000e+00
v 1.270000e+01 -1.270000e+00 6.350000e+00
v 1.270000e+01 -1.270000e+00 -6.350000e+00
vn -0.000000 -1.000000 -0.000000
vn -0.000000 -1.000000 -0.000000
vn -0.000000 -1.000000 -0.000000
vn -0.000000 -1.000000 -0.000000
f -4//-4 -3//-3 -2//-2
f -2//-2 -3//-3 -1//-1
v -1.270000e+01 0.000000e+00 6.350000e+00
v -1.270000e+01 0.000000e+00 -6.350000e+00
v -1.270000e+01 -1.270000e+00 6.350000e+00
v -1.270000e+01 -1.270000e+00 -6.350000e+00
vn -1.000000 -0.000000 -0.000000
vn -1.000000 -0.000000 -0.000000
vn -1.000000 -0.000000 -0.000000
vn -1.000000 -0.000000 -0.000000
f -4//-4 -3//-3 -2//-2
f -2//-2 -3//-3 -1//-1
v 1.270000e+01 0.000000e+00 6.350000e+00
v 1.270000e+01 0.000000e+00 -6.350000e+00
v -1.270000e+01 0.000000e+00 6.350000e+00
v -1.270000e+01 0.000000e+00 -6.350000e+00
vn 0.000000 1.000000 0.000000
vn 0.000000 1.000000 0.000000
vn 0.000000 1.000000 0.000000
vn 0.000000 1.000000 0.000000
f -4//-4 -3//-3 -2//-2
f -2//-2 -3//-3 -1//-1
v 1.270000e+01 0.000000e+00 6.350000e+00
v 1.270000e+01 -1.270000e+00 6.350000e+00
v 1.270000e+01 0.000000e+00 -6.350000e+00
v 1.270000e+01 -1.270000e+00 -6.350000e+00
vn 1.000000 0.000000 0.000000
vn 1.000000 0.000000 0.000000
vn 1.000000 0.000000 0.000000
vn 1.000000 0.000000 0.000000
f -4//-4 -3//-3 -2//-2
f -2//-2 -3//-3 -1//-1
