<?xml version="1.0" encoding="UTF-8"?>
<svg version="1.1" xmlns="http://www.w3.org/2000/svg" width="32" height="32">
<path d="M0 0 C5.21307059 1.52796897 8.17035065 4.21994416 11.5 8.4375 C12.92732202 11.76791805 12.83587295 14.47765985 12.625 18.0625 C10.645 19.0525 10.645 19.0525 8.625 20.0625 C8.625 22.0425 8.625 24.0225 8.625 26.0625 C2.685 26.0625 -3.255 26.0625 -9.375 26.0625 C-8.375 21.0625 -8.375 21.0625 -7.1875 19.0625 C-6.08371609 17.01823672 -6.08371609 17.01823672 -7.3125 14.8125 C-8.783914 11.00413434 -8.47897743 7.95889092 -7.375 4.0625 C-5.13611907 0.531957 -4.19980758 0.07777421 0 0 Z M-4.375 20.0625 C-4.705 21.0525 -5.035 22.0425 -5.375 23.0625 C-3.395 23.0625 -1.415 23.0625 0.625 23.0625 C-0.035 22.0725 -0.695 21.0825 -1.375 20.0625 C-2.365 20.0625 -3.355 20.0625 -4.375 20.0625 Z " fill="#484E58" transform="translate(14.375,2.9375)"/>
<path d="M0 0 C3.63194199 0.41272068 5.12653445 1.83084339 7.75 4.3125 C10.04013653 7.7477048 9.92842973 9.297831 9.75 13.3125 C6.01512223 12.8145163 3.93762365 12.43758244 0.75 10.3125 C0.75 9.3225 0.75 8.3325 0.75 7.3125 C-0.24 7.3125 -1.23 7.3125 -2.25 7.3125 C-2.63133299 5.3210944 -2.96325582 3.31970923 -3.25 1.3125 C-2.25 0.3125 -2.25 0.3125 0 0 Z " fill="#F2F4F5" transform="translate(15.25,6.6875)"/>
<path d="M0 0 C0.66 0 1.32 0 2 0 C2.90679471 1.44415453 3.81291624 2.88873823 4.71484375 4.3359375 C6.95761763 7.23995474 9.97555359 8.96431492 13 11 C13 11.33 13 11.66 13 12 C8.730679 12.41856088 6.6696295 12.48038638 3.125 9.9375 C0.65935436 6.52910749 0.24445705 4.15576993 0 0 Z " fill="#EEEFEF" transform="translate(8,10)"/>
<path d="M0 0 C1.1446875 0.3403125 1.1446875 0.3403125 2.3125 0.6875 C0.3325 1.6775 0.3325 1.6775 -1.6875 2.6875 C-1.3575 4.6675 -1.0275 6.6475 -0.6875 8.6875 C0.6325 8.0275 1.9525 7.3675 3.3125 6.6875 C2.9825 8.3375 2.6525 9.9875 2.3125 11.6875 C3.6325 12.3475 4.9525 13.0075 6.3125 13.6875 C6.3125 14.3475 6.3125 15.0075 6.3125 15.6875 C1.16849584 14.32585184 -1.8131048 10.9990928 -4.6875 6.6875 C-5.4296875 4.57421875 -5.4296875 4.57421875 -5.6875 2.6875 C-3.97309355 -0.07459928 -3.26180423 -0.37927956 0 0 Z " fill="#6D7B88" transform="translate(14.6875,5.3125)"/>
<path d="M0 0 C5.45905517 0.38993251 8.11850498 2.20476043 12 6 C14.27983286 8.94171982 15.10129144 10.088377 14.6875 13.8125 C14.460625 14.534375 14.23375 15.25625 14 16 C13.67 16 13.34 16 13 16 C12.773125 15.113125 12.54625 14.22625 12.3125 13.3125 C10.37668467 8.42687083 7.3092041 5.87280273 3 3 C1.68 3 0.36 3 -1 3 C-0.67 2.01 -0.34 1.02 0 0 Z " fill="#4B505A" transform="translate(12,3)"/>
<path d="M0 0 C0.598125 0.20625 1.19625 0.4125 1.8125 0.625 C2.1425 1.945 2.4725 3.265 2.8125 4.625 C1.1625 4.625 -0.4875 4.625 -2.1875 4.625 C-2.1875 3.965 -2.1875 3.305 -2.1875 2.625 C-3.1775 2.295 -4.1675 1.965 -5.1875 1.625 C-2.1875 -0.375 -2.1875 -0.375 0 0 Z " fill="#849DB1" transform="translate(18.1875,22.375)"/>
</svg>
