#
mtllib ant_bottom_catalog.mtl
usemtl ff4180ff
v 3.931709e+01 4.612750e+00 0.000000e+00
v 4.119080e+01 5.841578e+00 0.000000e+00
v 4.493820e+01 1.873703e+01 0.000000e+00
v 4.306450e+01 7.397764e+00 0.000000e+00
v 4.493820e+01 9.368514e+00 0.000000e+00
vn -0.000000 0.000000 1.000000
vn -0.000000 0.000000 1.000000
vn -0.000000 0.000000 1.000000
vn -0.000000 0.000000 1.000000
vn -0.000000 0.000000 1.000000
f -5//-5 -4//-4 -3//-3
f -3//-3 -4//-4 -2//-2
f -3//-3 -2//-2 -1//-1
v 1.495896e+01 -2.140653e-01 0.000000e+00
v 1.308525e+01 -1.690347e-01 0.000000e+00
v 4.493820e+01 -1.873703e+01 0.000000e+00
v 1.121155e+01 -1.334768e-01 0.000000e+00
v 7.464146e+00 -1.232073e+00 0.000000e+00
v 9.337849e+00 -1.053987e-01 0.000000e+00
v 7.464146e+00 -8.322717e-02 0.000000e+00
vn -0.000000 0.000000 1.000000
vn -0.000000 0.000000 1.000000
vn -0.000000 0.000000 1.000000
vn -0.000000 0.000000 1.000000
vn -0.000000 0.000000 1.000000
vn -0.000000 0.000000 1.000000
vn -0.000000 0.000000 1.000000
f -7//-7 -6//-6 -5//-5
f -5//-5 -6//-6 -4//-4
f -5//-5 -4//-4 -3//-3
f -3//-3 -4//-4 -2//-2
f -3//-3 -2//-2 -1//-1
v 7.464146e+00 8.322717e-02 0.000000e+00
v 9.337849e+00 1.053987e-01 0.000000e+00
v 7.464146e+00 1.232073e+00 0.000000e+00
v 1.121155e+01 1.334768e-01 0.000000e+00
v 4.493820e+01 1.873703e+01 0.000000e+00
v 1.308525e+01 1.690347e-01 0.000000e+00
v 1.495896e+01 2.140653e-01 0.000000e+00
vn -0.000000 0.000000 1.000000
vn -0.000000 0.000000 1.000000
vn -0.000000 0.000000 1.000000
vn -0.000000 0.000000 1.000000
vn -0.000000 0.000000 1.000000
vn -0.000000 0.000000 1.000000
vn -0.000000 0.000000 1.000000
f -7//-7 -6//-6 -5//-5
f -5//-5 -6//-6 -4//-4
f -5//-5 -4//-4 -3//-3
f -3//-3 -4//-4 -2//-2
f -3//-3 -2//-2 -1//-1
v 4.493820e+01 -9.368514e+00 0.000000e+00
v 4.306450e+01 -7.397764e+00 0.000000e+00
v 4.493820e+01 -1.873703e+01 0.000000e+00
v 4.119080e+01 -5.841578e+00 0.000000e+00
v 3.931709e+01 -4.612750e+00 0.000000e+00
vn -0.000000 0.000000 1.000000
vn -0.000000 0.000000 1.000000
vn -0.000000 0.000000 1.000000
vn -0.000000 0.000000 1.000000
vn -0.000000 0.000000 1.000000
f -5//-5 -4//-4 -3//-3
f -3//-3 -4//-4 -2//-2
f -3//-3 -2//-2 -1//-1
v 3.182228e+01 1.793407e+00 0.000000e+00
v 3.369598e+01 2.271167e+00 0.000000e+00
v 4.493820e+01 1.873703e+01 0.000000e+00
v 3.556969e+01 2.876202e+00 0.000000e+00
v 3.744339e+01 3.642416e+00 0.000000e+00
vn -0.000000 0.000000 1.000000
vn -0.000000 0.000000 1.000000
vn -0.000000 0.000000 1.000000
vn -0.000000 0.000000 1.000000
vn -0.000000 0.000000 1.000000
f -5//-5 -4//-4 -3//-3
f -3//-3 -4//-4 -2//-2
f -3//-3 -2//-2 -1//-1
v 3.931709e+01 4.612750e+00 0.000000e+00
v 4.493820e+01 1.873703e+01 0.000000e+00
v 3.744339e+01 3.642416e+00 0.000000e+00
vn -0.000000 0.000000 1.000000
vn -0.000000 0.000000 1.000000
vn -0.000000 0.000000 1.000000
f -3//-3 -2//-2 -1//-1
v 2.620117e+01 8.830147e-01 0.000000e+00
v 2.807488e+01 1.118248e+00 0.000000e+00
v 4.493820e+01 1.873703e+01 0.000000e+00
v 2.994858e+01 1.416147e+00 0.000000e+00
v 3.182228e+01 1.793407e+00 0.000000e+00
vn -0.000000 0.000000 1.000000
vn -0.000000 0.000000 1.000000
vn -0.000000 0.000000 1.000000
vn -0.000000 0.000000 1.000000
vn -0.000000 0.000000 1.000000
f -5//-5 -4//-4 -3//-3
f -3//-3 -4//-4 -2//-2
f -3//-3 -2//-2 -1//-1
v 3.931709e+01 -4.612750e+00 0.000000e+00
v 3.744339e+01 -3.642416e+00 0.000000e+00
v 4.493820e+01 -1.873703e+01 0.000000e+00
v 3.556969e+01 -2.876202e+00 0.000000e+00
v 3.369598e+01 -2.271167e+00 0.000000e+00
vn -0.000000 0.000000 1.000000
vn -0.000000 0.000000 1.000000
vn -0.000000 0.000000 1.000000
vn -0.000000 0.000000 1.000000
vn -0.000000 0.000000 1.000000
f -5//-5 -4//-4 -3//-3
f -3//-3 -4//-4 -2//-2
f -3//-3 -2//-2 -1//-1
v 2.058006e+01 4.347675e-01 0.000000e+00
v 2.245377e+01 5.505888e-01 0.000000e+00
v 4.493820e+01 1.873703e+01 0.000000e+00
v 2.432747e+01 6.972646e-01 0.000000e+00
v 2.620117e+01 8.830147e-01 0.000000e+00
vn -0.000000 0.000000 1.000000
vn -0.000000 0.000000 1.000000
vn -0.000000 0.000000 1.000000
vn -0.000000 0.000000 1.000000
vn -0.000000 0.000000 1.000000
f -5//-5 -4//-4 -3//-3
f -3//-3 -4//-4 -2//-2
f -3//-3 -2//-2 -1//-1
v 2.245377e+01 -5.505888e-01 0.000000e+00
v 2.058006e+01 -4.347675e-01 0.000000e+00
v 4.493820e+01 -1.873703e+01 0.000000e+00
v 1.870636e+01 -3.433103e-01 0.000000e+00
v 1.683266e+01 -2.710919e-01 0.000000e+00
vn -0.000000 0.000000 1.000000
vn -0.000000 0.000000 1.000000
vn -0.000000 0.000000 1.000000
vn -0.000000 0.000000 1.000000
vn -0.000000 0.000000 1.000000
f -5//-5 -4//-4 -3//-3
f -3//-3 -4//-4 -2//-2
f -3//-3 -2//-2 -1//-1
v 3.182228e+01 -1.793407e+00 0.000000e+00
v 2.994858e+01 -1.416147e+00 0.000000e+00
v 4.493820e+01 -1.873703e+01 0.000000e+00
v 2.807488e+01 -1.118248e+00 0.000000e+00
v 2.620117e+01 -8.830147e-01 0.000000e+00
vn -0.000000 0.000000 1.000000
vn -0.000000 0.000000 1.000000
vn -0.000000 0.000000 1.000000
vn -0.000000 0.000000 1.000000
vn -0.000000 0.000000 1.000000
f -5//-5 -4//-4 -3//-3
f -3//-3 -4//-4 -2//-2
f -3//-3 -2//-2 -1//-1
v 1.495896e+01 2.140653e-01 0.000000e+00
v 1.683266e+01 2.710919e-01 0.000000e+00
v 4.493820e+01 1.873703e+01 0.000000e+00
v 1.870636e+01 3.433103e-01 0.000000e+00
v 2.058006e+01 4.347675e-01 0.000000e+00
vn -0.000000 0.000000 1.000000
vn -0.000000 0.000000 1.000000
vn -0.000000 0.000000 1.000000
vn -0.000000 0.000000 1.000000
vn -0.000000 0.000000 1.000000
f -5//-5 -4//-4 -3//-3
f -3//-3 -4//-4 -2//-2
f -3//-3 -2//-2 -1//-1
v 2.620117e+01 -8.830147e-01 0.000000e+00
v 2.432747e+01 -6.972646e-01 0.000000e+00
v 4.493820e+01 -1.873703e+01 0.000000e+00
v 2.245377e+01 -5.505888e-01 0.000000e+00
vn -0.000000 0.000000 1.000000
vn -0.000000 0.000000 1.000000
vn -0.000000 0.000000 1.000000
vn -0.000000 0.000000 1.000000
f -4//-4 -3//-3 -2//-2
f -2//-2 -3//-3 -1//-1
v 4.493820e+01 -1.873703e+01 0.000000e+00
v 3.369598e+01 -2.271167e+00 0.000000e+00
v 3.182228e+01 -1.793407e+00 0.000000e+00
vn -0.000000 0.000000 1.000000
vn -0.000000 0.000000 1.000000
vn -0.000000 0.000000 1.000000
f -3//-3 -2//-2 -1//-1
v 4.493820e+01 -1.873703e+01 0.000000e+00
v 7.464146e+00 -1.232073e+00 0.000000e+00
v 0.000000e+00 -1.873703e+01 0.000000e+00
v 5.000000e+00 -1.232073e+00 0.000000e+00
v 0.000000e+00 1.873703e+01 0.000000e+00
v 5.000000e+00 1.232073e+00 0.000000e+00
v 7.464146e+00 1.232073e+00 0.000000e+00
vn -0.000000 0.000000 1.000000
vn -0.000000 0.000000 1.000000
vn -0.000000 0.000000 1.000000
vn -0.000000 0.000000 1.000000
vn -0.000000 0.000000 1.000000
vn -0.000000 0.000000 1.000000
vn -0.000000 0.000000 1.000000
f -7//-7 -6//-6 -5//-5
f -5//-5 -6//-6 -4//-4
f -5//-5 -4//-4 -3//-3
f -3//-3 -4//-4 -2//-2
f -3//-3 -2//-2 -1//-1
v 4.493820e+01 -1.873703e+01 0.000000e+00
v 1.683266e+01 -2.710919e-01 0.000000e+00
v 1.495896e+01 -2.140653e-01 0.000000e+00
vn -0.000000 0.000000 1.000000
vn -0.000000 0.000000 1.000000
vn -0.000000 0.000000 1.000000
f -3//-3 -2//-2 -1//-1
v 0.000000e+00 1.873703e+01 0.000000e+00
v 7.464146e+00 1.232073e+00 0.000000e+00
v 4.493820e+01 1.873703e+01 0.000000e+00
vn -0.000000 0.000000 1.000000
vn -0.000000 0.000000 1.000000
vn -0.000000 0.000000 1.000000
f -3//-3 -2//-2 -1//-1
