#
mtllib ant_top_catalog.mtl
usemtl ff4180ff
v 4.493820e+01 1.873703e+01 1.575000e+00
v 7.464146e+00 1.232073e+00 1.575000e+00
v 4.493820e+01 -1.873703e+01 1.575000e+00
v 7.464146e+00 -1.232073e+00 1.575000e+00
v 0.000000e+00 -1.873703e+01 1.575000e+00
v 5.000000e+00 -1.232073e+00 1.575000e+00
v 0.000000e+00 1.873703e+01 1.575000e+00
v 5.000000e+00 1.232073e+00 1.575000e+00
v 7.464146e+00 1.232073e+00 1.575000e+00
vn -0.000000 0.000000 1.000000
vn -0.000000 0.000000 1.000000
vn -0.000000 0.000000 1.000000
vn -0.000000 0.000000 1.000000
vn -0.000000 0.000000 1.000000
vn -0.000000 0.000000 1.000000
vn -0.000000 0.000000 1.000000
vn -0.000000 0.000000 1.000000
vn -0.000000 0.000000 1.000000
f -9//-9 -8//-8 -7//-7
f -7//-7 -8//-8 -6//-6
f -7//-7 -6//-6 -5//-5
f -5//-5 -6//-6 -4//-4
f -5//-5 -4//-4 -3//-3
f -3//-3 -4//-4 -2//-2
f -3//-3 -2//-2 -1//-1
v 0.000000e+00 1.873703e+01 1.575000e+00
v 7.464146e+00 1.232073e+00 1.575000e+00
v 4.493820e+01 1.873703e+01 1.575000e+00
vn -0.000000 0.000000 1.000000
vn -0.000000 0.000000 1.000000
vn -0.000000 0.000000 1.000000
f -3//-3 -2//-2 -1//-1
