# Generated by Visualization Toolkit
v 1.18 -0.12 -0.05
v 1.24 -0.12 -0.05
v 1.24 0.12 -0.05
v 1.18 0.12 -0.05
v 1.18 -0.12 0.05
v 1.24 -0.12 0.05
v 1.24 0.12 0.05
v 1.18 0.12 0.05
vn 0.8164965510368347 0.40824827551841736 0.40824827551841736
vn -0.3333333432674408 0.6666666865348816 0.6666666865348816
vn -0.8164965510368347 -0.40824827551841736 0.40824827551841736
vn 0.3333333432674408 -0.6666666865348816 0.6666666865348816
vn 0.40824827551841736 0.8164965510368347 -0.40824827551841736
vn -0.6666666865348816 0.3333333432674408 -0.6666666865348816
vn -0.40824827551841736 -0.8164965510368347 -0.40824827551841736
vn 0.6666666865348816 -0.3333333432674408 -0.6666666865348816
f 1//1 2//2 4//4
f 2//2 3//3 4//4
f 5//5 8//8 6//6
f 8//8 7//7 6//6
f 1//1 5//5 2//2
f 5//5 6//6 2//2
f 2//2 6//6 3//3
f 6//6 7//7 3//3
f 3//3 7//7 4//4
f 7//7 8//8 4//4
f 5//5 1//1 8//8
f 1//1 4//4 8//8
