#
mtllib feed_pin_MbyN_Patch_Array_1_0.mtl
usemtl ff4180ff
v 9.656167e+01 -1.410659e+02 0.000000e+00
v 9.664887e+01 -1.414386e+02 1.272000e+00
v 9.664887e+01 -1.414386e+02 0.000000e+00
v 9.667818e+01 -1.418203e+02 1.272000e+00
v 9.667818e+01 -1.418203e+02 0.000000e+00
v 9.664887e+01 -1.422019e+02 1.272000e+00
v 9.664887e+01 -1.422019e+02 0.000000e+00
v 9.656167e+01 -1.425746e+02 1.272000e+00
v 9.656167e+01 -1.425746e+02 0.000000e+00
v 9.641859e+01 -1.429296e+02 1.272000e+00
v 9.641859e+01 -1.429296e+02 0.000000e+00
v 9.622300e+01 -1.432585e+02 1.272000e+00
v 9.622300e+01 -1.432585e+02 0.000000e+00
v 9.597948e+01 -1.435538e+02 1.272000e+00
v 9.597948e+01 -1.435538e+02 0.000000e+00
v 9.569374e+01 -1.438085e+02 1.272000e+00
v 9.569374e+01 -1.438085e+02 0.000000e+00
v 9.537247e+01 -1.440165e+02 1.272000e+00
v 9.537247e+01 -1.440165e+02 0.000000e+00
v 9.502322e+01 -1.441731e+02 1.272000e+00
v 9.502322e+01 -1.441731e+02 0.000000e+00
v 9.465415e+01 -1.442745e+02 1.272000e+00
v 9.465415e+01 -1.442745e+02 0.000000e+00
v 9.427393e+01 -1.443184e+02 1.272000e+00
v 9.427393e+01 -1.443184e+02 0.000000e+00
v 9.389146e+01 -1.443038e+02 1.272000e+00
v 9.389146e+01 -1.443038e+02 0.000000e+00
v 9.351572e+01 -1.442309e+02 1.272000e+00
v 9.351572e+01 -1.442309e+02 0.000000e+00
v 9.315550e+01 -1.441015e+02 1.272000e+00
v 9.315550e+01 -1.441015e+02 0.000000e+00
v 9.281925e+01 -1.439187e+02 1.272000e+00
v 9.281925e+01 -1.439187e+02 0.000000e+00
v 9.251486e+01 -1.436866e+02 1.272000e+00
v 9.251486e+01 -1.436866e+02 0.000000e+00
v 9.224945e+01 -1.434109e+02 1.272000e+00
v 9.224945e+01 -1.434109e+02 0.000000e+00
v 9.202925e+01 -1.430978e+02 1.272000e+00
v 9.202925e+01 -1.430978e+02 0.000000e+00
v 9.185942e+01 -1.427548e+02 1.272000e+00
v 9.185942e+01 -1.427548e+02 0.000000e+00
v 9.174393e+01 -1.423899e+02 1.272000e+00
v 9.174393e+01 -1.423899e+02 0.000000e+00
v 9.168551e+01 -1.420116e+02 1.272000e+00
v 9.168551e+01 -1.420116e+02 0.000000e+00
v 9.168551e+01 -1.416289e+02 1.272000e+00
v 9.168551e+01 -1.416289e+02 0.000000e+00
v 9.174393e+01 -1.412506e+02 1.272000e+00
v 9.174393e+01 -1.412506e+02 0.000000e+00
v 9.185942e+01 -1.408857e+02 1.272000e+00
v 9.185942e+01 -1.408857e+02 0.000000e+00
v 9.202925e+01 -1.405427e+02 1.272000e+00
v 9.202925e+01 -1.405427e+02 0.000000e+00
v 9.224945e+01 -1.402296e+02 1.272000e+00
v 9.224945e+01 -1.402296e+02 0.000000e+00
v 9.251486e+01 -1.399539e+02 1.272000e+00
v 9.251486e+01 -1.399539e+02 0.000000e+00
v 9.281925e+01 -1.397218e+02 1.272000e+00
v 9.281925e+01 -1.397218e+02 0.000000e+00
v 9.315550e+01 -1.395390e+02 1.272000e+00
v 9.315550e+01 -1.395390e+02 0.000000e+00
v 9.351572e+01 -1.394096e+02 1.272000e+00
v 9.351572e+01 -1.394096e+02 0.000000e+00
v 9.389146e+01 -1.393367e+02 1.272000e+00
vn 0.953396 0.301721 -0.000000
vn 0.988280 0.152649 -0.000000
vn 0.988280 0.152649 -0.000000
vn 1.000000 0.000000 0.000000
vn 1.000000 0.000000 0.000000
vn 0.988280 -0.152649 0.000000
vn 0.988280 -0.152649 0.000000
vn 0.953396 -0.301721 0.000000
vn 0.953396 -0.301721 0.000000
vn 0.896166 -0.443720 0.000000
vn 0.896166 -0.443720 0.000000
vn 0.817929 -0.575319 0.000000
vn 0.817929 -0.575319 0.000000
vn 0.720522 -0.693433 0.000000
vn 0.720522 -0.693433 0.000000
vn 0.606225 -0.795293 0.000000
vn 0.606225 -0.795293 0.000000
vn 0.477720 -0.878512 0.000000
vn 0.477720 -0.878512 0.000000
vn 0.338017 -0.941140 0.000000
vn 0.338017 -0.941140 0.000000
vn 0.190391 -0.981708 0.000000
vn 0.190391 -0.981708 0.000000
vn 0.038303 -0.999266 0.000000
vn 0.038303 -0.999266 0.000000
vn -0.114683 -0.993402 0.000000
vn -0.114683 -0.993402 0.000000
vn -0.264982 -0.964253 0.000000
vn -0.264982 -0.964253 0.000000
vn -0.409069 -0.912504 0.000000
vn -0.409069 -0.912504 0.000000
vn -0.543568 -0.839365 0.000000
vn -0.543568 -0.839365 0.000000
vn -0.665326 -0.746553 0.000000
vn -0.665326 -0.746553 0.000000
vn -0.771489 -0.636242 0.000000
vn -0.771489 -0.636242 0.000000
vn -0.859570 -0.511019 0.000000
vn -0.859570 -0.511019 0.000000
vn -0.927502 -0.373817 0.000000
vn -0.927502 -0.373817 0.000000
vn -0.973695 -0.227854 0.000000
vn -0.973695 -0.227854 0.000000
vn -0.997066 -0.076549 0.000000
vn -0.997066 -0.076549 0.000000
vn -0.997066 0.076549 0.000000
vn -0.997066 0.076549 0.000000
vn -0.973695 0.227854 0.000000
vn -0.973695 0.227854 0.000000
vn -0.927502 0.373817 0.000000
vn -0.927502 0.373817 0.000000
vn -0.859570 0.511019 0.000000
vn -0.859570 0.511019 0.000000
vn -0.771489 0.636242 0.000000
vn -0.771489 0.636242 0.000000
vn -0.665326 0.746553 0.000000
vn -0.665326 0.746553 0.000000
vn -0.543568 0.839365 0.000000
vn -0.543568 0.839365 0.000000
vn -0.409069 0.912504 0.000000
vn -0.409069 0.912504 0.000000
vn -0.264982 0.964253 0.000000
vn -0.264982 0.964253 0.000000
vn -0.114683 0.993402 0.000000
f -64//-64 -63//-63 -62//-62
f -62//-62 -63//-63 -61//-61
f -62//-62 -61//-61 -60//-60
f -60//-60 -61//-61 -59//-59
f -60//-60 -59//-59 -58//-58
f -58//-58 -59//-59 -57//-57
f -58//-58 -57//-57 -56//-56
f -56//-56 -57//-57 -55//-55
f -56//-56 -55//-55 -54//-54
f -54//-54 -55//-55 -53//-53
f -54//-54 -53//-53 -52//-52
f -52//-52 -53//-53 -51//-51
f -52//-52 -51//-51 -50//-50
f -50//-50 -51//-51 -49//-49
f -50//-50 -49//-49 -48//-48
f -48//-48 -49//-49 -47//-47
f -48//-48 -47//-47 -46//-46
f -46//-46 -47//-47 -45//-45
f -46//-46 -45//-45 -44//-44
f -44//-44 -45//-45 -43//-43
f -44//-44 -43//-43 -42//-42
f -42//-42 -43//-43 -41//-41
f -42//-42 -41//-41 -40//-40
f -40//-40 -41//-41 -39//-39
f -40//-40 -39//-39 -38//-38
f -38//-38 -39//-39 -37//-37
f -38//-38 -37//-37 -36//-36
f -36//-36 -37//-37 -35//-35
f -36//-36 -35//-35 -34//-34
f -34//-34 -35//-35 -33//-33
f -34//-34 -33//-33 -32//-32
f -32//-32 -33//-33 -31//-31
f -32//-32 -31//-31 -30//-30
f -30//-30 -31//-31 -29//-29
f -30//-30 -29//-29 -28//-28
f -28//-28 -29//-29 -27//-27
f -28//-28 -27//-27 -26//-26
f -26//-26 -27//-27 -25//-25
f -26//-26 -25//-25 -24//-24
f -24//-24 -25//-25 -23//-23
f -24//-24 -23//-23 -22//-22
f -22//-22 -23//-23 -21//-21
f -22//-22 -21//-21 -20//-20
f -20//-20 -21//-21 -19//-19
f -20//-20 -19//-19 -18//-18
f -18//-18 -19//-19 -17//-17
f -18//-18 -17//-17 -16//-16
f -16//-16 -17//-17 -15//-15
f -16//-16 -15//-15 -14//-14
f -14//-14 -15//-15 -13//-13
f -14//-14 -13//-13 -12//-12
f -12//-12 -13//-13 -11//-11
f -12//-12 -11//-11 -10//-10
f -10//-10 -11//-11 -9//-9
f -10//-10 -9//-9 -8//-8
f -8//-8 -9//-9 -7//-7
f -8//-8 -7//-7 -6//-6
f -6//-6 -7//-7 -5//-5
f -6//-6 -5//-5 -4//-4
f -4//-4 -5//-5 -3//-3
f -4//-4 -3//-3 -2//-2
f -2//-2 -3//-3 -1//-1
v 9.351572e+01 -1.394096e+02 0.000000e+00
v 9.389146e+01 -1.393367e+02 1.272000e+00
v 9.389146e+01 -1.393367e+02 0.000000e+00
v 9.427393e+01 -1.393221e+02 1.272000e+00
v 9.427393e+01 -1.393221e+02 0.000000e+00
v 9.465415e+01 -1.393660e+02 1.272000e+00
v 9.465415e+01 -1.393660e+02 0.000000e+00
v 9.502322e+01 -1.394674e+02 1.272000e+00
v 9.502322e+01 -1.394674e+02 0.000000e+00
v 9.537247e+01 -1.396240e+02 1.272000e+00
v 9.537247e+01 -1.396240e+02 0.000000e+00
v 9.569374e+01 -1.398320e+02 1.272000e+00
v 9.569374e+01 -1.398320e+02 0.000000e+00
v 9.597948e+01 -1.400867e+02 1.272000e+00
v 9.597948e+01 -1.400867e+02 0.000000e+00
v 9.622300e+01 -1.403820e+02 1.272000e+00
v 9.622300e+01 -1.403820e+02 0.000000e+00
v 9.641859e+01 -1.407110e+02 1.272000e+00
v 9.641859e+01 -1.407110e+02 0.000000e+00
v 9.656167e+01 -1.410659e+02 1.272000e+00
v 9.656167e+01 -1.410659e+02 0.000000e+00
v 9.664887e+01 -1.414386e+02 1.272000e+00
vn -0.264982 0.964253 0.000000
vn -0.114683 0.993402 0.000000
vn -0.114683 0.993402 0.000000
vn 0.038303 0.999266 -0.000000
vn 0.038303 0.999266 -0.000000
vn 0.190391 0.981708 -0.000000
vn 0.190391 0.981708 -0.000000
vn 0.338017 0.941140 -0.000000
vn 0.338017 0.941140 -0.000000
vn 0.477720 0.878512 -0.000000
vn 0.477720 0.878512 -0.000000
vn 0.606225 0.795293 -0.000000
vn 0.606225 0.795293 -0.000000
vn 0.720522 0.693433 -0.000000
vn 0.720522 0.693433 -0.000000
vn 0.817929 0.575319 -0.000000
vn 0.817929 0.575319 -0.000000
vn 0.896166 0.443720 -0.000000
vn 0.896166 0.443720 -0.000000
vn 0.953396 0.301721 -0.000000
vn 0.953396 0.301721 -0.000000
vn 0.988280 0.152649 -0.000000
f -22//-22 -21//-21 -20//-20
f -20//-20 -21//-21 -19//-19
f -20//-20 -19//-19 -18//-18
f -18//-18 -19//-19 -17//-17
f -18//-18 -17//-17 -16//-16
f -16//-16 -17//-17 -15//-15
f -16//-16 -15//-15 -14//-14
f -14//-14 -15//-15 -13//-13
f -14//-14 -13//-13 -12//-12
f -12//-12 -13//-13 -11//-11
f -12//-12 -11//-11 -10//-10
f -10//-10 -11//-11 -9//-9
f -10//-10 -9//-9 -8//-8
f -8//-8 -9//-9 -7//-7
f -8//-8 -7//-7 -6//-6
f -6//-6 -7//-7 -5//-5
f -6//-6 -5//-5 -4//-4
f -4//-4 -5//-5 -3//-3
f -4//-4 -3//-3 -2//-2
f -2//-2 -3//-3 -1//-1
v 9.667818e+01 -1.418203e+02 0.000000e+00
v 9.664887e+01 -1.422019e+02 0.000000e+00
v 9.417818e+01 -1.418203e+02 0.000000e+00
v 9.656167e+01 -1.425746e+02 0.000000e+00
v 9.641859e+01 -1.429296e+02 0.000000e+00
vn -0.000000 -0.000000 -1.000000
vn -0.000000 -0.000000 -1.000000
vn -0.000000 -0.000000 -1.000000
vn -0.000000 -0.000000 -1.000000
vn -0.000000 -0.000000 -1.000000
f -5//-5 -4//-4 -3//-3
f -3//-3 -4//-4 -2//-2
f -3//-3 -2//-2 -1//-1
v 9.641859e+01 -1.429296e+02 0.000000e+00
v 9.622300e+01 -1.432585e+02 0.000000e+00
v 9.417818e+01 -1.418203e+02 0.000000e+00
v 9.597948e+01 -1.435538e+02 0.000000e+00
v 9.569374e+01 -1.438085e+02 0.000000e+00
vn -0.000000 -0.000000 -1.000000
vn -0.000000 -0.000000 -1.000000
vn -0.000000 -0.000000 -1.000000
vn -0.000000 -0.000000 -1.000000
vn -0.000000 -0.000000 -1.000000
f -5//-5 -4//-4 -3//-3
f -3//-3 -4//-4 -2//-2
f -3//-3 -2//-2 -1//-1
v 9.569374e+01 -1.438085e+02 0.000000e+00
v 9.537247e+01 -1.440165e+02 0.000000e+00
v 9.417818e+01 -1.418203e+02 0.000000e+00
v 9.502322e+01 -1.441731e+02 0.000000e+00
v 9.465415e+01 -1.442745e+02 0.000000e+00
vn -0.000000 -0.000000 -1.000000
vn -0.000000 -0.000000 -1.000000
vn -0.000000 -0.000000 -1.000000
vn -0.000000 -0.000000 -1.000000
vn -0.000000 -0.000000 -1.000000
f -5//-5 -4//-4 -3//-3
f -3//-3 -4//-4 -2//-2
f -3//-3 -2//-2 -1//-1
v 9.465415e+01 -1.442745e+02 0.000000e+00
v 9.427393e+01 -1.443184e+02 0.000000e+00
v 9.417818e+01 -1.418203e+02 0.000000e+00
v 9.389146e+01 -1.443038e+02 0.000000e+00
v 9.351572e+01 -1.442309e+02 0.000000e+00
vn -0.000000 -0.000000 -1.000000
vn -0.000000 -0.000000 -1.000000
vn -0.000000 -0.000000 -1.000000
vn -0.000000 -0.000000 -1.000000
vn -0.000000 -0.000000 -1.000000
f -5//-5 -4//-4 -3//-3
f -3//-3 -4//-4 -2//-2
f -3//-3 -2//-2 -1//-1
v 9.351572e+01 -1.442309e+02 0.000000e+00
v 9.315550e+01 -1.441015e+02 0.000000e+00
v 9.417818e+01 -1.418203e+02 0.000000e+00
v 9.281925e+01 -1.439187e+02 0.000000e+00
v 9.251486e+01 -1.436866e+02 0.000000e+00
vn -0.000000 -0.000000 -1.000000
vn -0.000000 -0.000000 -1.000000
vn -0.000000 -0.000000 -1.000000
vn -0.000000 -0.000000 -1.000000
vn -0.000000 -0.000000 -1.000000
f -5//-5 -4//-4 -3//-3
f -3//-3 -4//-4 -2//-2
f -3//-3 -2//-2 -1//-1
v 9.251486e+01 -1.436866e+02 0.000000e+00
v 9.224945e+01 -1.434109e+02 0.000000e+00
v 9.417818e+01 -1.418203e+02 0.000000e+00
v 9.202925e+01 -1.430978e+02 0.000000e+00
v 9.185942e+01 -1.427548e+02 0.000000e+00
vn -0.000000 -0.000000 -1.000000
vn -0.000000 -0.000000 -1.000000
vn -0.000000 -0.000000 -1.000000
vn -0.000000 -0.000000 -1.000000
vn -0.000000 -0.000000 -1.000000
f -5//-5 -4//-4 -3//-3
f -3//-3 -4//-4 -2//-2
f -3//-3 -2//-2 -1//-1
v 9.185942e+01 -1.427548e+02 0.000000e+00
v 9.174393e+01 -1.423899e+02 0.000000e+00
v 9.417818e+01 -1.418203e+02 0.000000e+00
v 9.168551e+01 -1.420116e+02 0.000000e+00
v 9.168551e+01 -1.416289e+02 0.000000e+00
vn -0.000000 -0.000000 -1.000000
vn -0.000000 -0.000000 -1.000000
vn -0.000000 -0.000000 -1.000000
vn -0.000000 -0.000000 -1.000000
vn -0.000000 -0.000000 -1.000000
f -5//-5 -4//-4 -3//-3
f -3//-3 -4//-4 -2//-2
f -3//-3 -2//-2 -1//-1
v 9.168551e+01 -1.416289e+02 0.000000e+00
v 9.174393e+01 -1.412506e+02 0.000000e+00
v 9.417818e+01 -1.418203e+02 0.000000e+00
v 9.185942e+01 -1.408857e+02 0.000000e+00
v 9.202925e+01 -1.405427e+02 0.000000e+00
vn -0.000000 -0.000000 -1.000000
vn -0.000000 -0.000000 -1.000000
vn -0.000000 -0.000000 -1.000000
vn -0.000000 -0.000000 -1.000000
vn -0.000000 -0.000000 -1.000000
f -5//-5 -4//-4 -3//-3
f -3//-3 -4//-4 -2//-2
f -3//-3 -2//-2 -1//-1
v 9.202925e+01 -1.405427e+02 0.000000e+00
v 9.224945e+01 -1.402296e+02 0.000000e+00
v 9.417818e+01 -1.418203e+02 0.000000e+00
v 9.251486e+01 -1.399539e+02 0.000000e+00
v 9.281925e+01 -1.397218e+02 0.000000e+00
vn -0.000000 -0.000000 -1.000000
vn -0.000000 -0.000000 -1.000000
vn -0.000000 -0.000000 -1.000000
vn -0.000000 -0.000000 -1.000000
vn -0.000000 -0.000000 -1.000000
f -5//-5 -4//-4 -3//-3
f -3//-3 -4//-4 -2//-2
f -3//-3 -2//-2 -1//-1
v 9.281925e+01 -1.397218e+02 0.000000e+00
v 9.315550e+01 -1.395390e+02 0.000000e+00
v 9.417818e+01 -1.418203e+02 0.000000e+00
v 9.351572e+01 -1.394096e+02 0.000000e+00
v 9.389146e+01 -1.393367e+02 0.000000e+00
vn -0.000000 -0.000000 -1.000000
vn -0.000000 -0.000000 -1.000000
vn -0.000000 -0.000000 -1.000000
vn -0.000000 -0.000000 -1.000000
vn -0.000000 -0.000000 -1.000000
f -5//-5 -4//-4 -3//-3
f -3//-3 -4//-4 -2//-2
f -3//-3 -2//-2 -1//-1
v 9.389146e+01 -1.393367e+02 0.000000e+00
v 9.427393e+01 -1.393221e+02 0.000000e+00
v 9.417818e+01 -1.418203e+02 0.000000e+00
v 9.465415e+01 -1.393660e+02 0.000000e+00
v 9.502322e+01 -1.394674e+02 0.000000e+00
vn -0.000000 -0.000000 -1.000000
vn -0.000000 -0.000000 -1.000000
vn -0.000000 -0.000000 -1.000000
vn -0.000000 -0.000000 -1.000000
vn -0.000000 -0.000000 -1.000000
f -5//-5 -4//-4 -3//-3
f -3//-3 -4//-4 -2//-2
f -3//-3 -2//-2 -1//-1
v 9.502322e+01 -1.394674e+02 0.000000e+00
v 9.537247e+01 -1.396240e+02 0.000000e+00
v 9.417818e+01 -1.418203e+02 0.000000e+00
v 9.569374e+01 -1.398320e+02 0.000000e+00
v 9.597948e+01 -1.400867e+02 0.000000e+00
vn -0.000000 -0.000000 -1.000000
vn -0.000000 -0.000000 -1.000000
vn -0.000000 -0.000000 -1.000000
vn -0.000000 -0.000000 -1.000000
vn -0.000000 -0.000000 -1.000000
f -5//-5 -4//-4 -3//-3
f -3//-3 -4//-4 -2//-2
f -3//-3 -2//-2 -1//-1
v 9.597948e+01 -1.400867e+02 0.000000e+00
v 9.622300e+01 -1.403820e+02 0.000000e+00
v 9.417818e+01 -1.418203e+02 0.000000e+00
v 9.641859e+01 -1.407110e+02 0.000000e+00
v 9.656167e+01 -1.410659e+02 0.000000e+00
vn -0.000000 -0.000000 -1.000000
vn -0.000000 -0.000000 -1.000000
vn -0.000000 -0.000000 -1.000000
vn -0.000000 -0.000000 -1.000000
vn -0.000000 -0.000000 -1.000000
f -5//-5 -4//-4 -3//-3
f -3//-3 -4//-4 -2//-2
f -3//-3 -2//-2 -1//-1
v 9.656167e+01 -1.410659e+02 0.000000e+00
v 9.664887e+01 -1.414386e+02 0.000000e+00
v 9.417818e+01 -1.418203e+02 0.000000e+00
v 9.667818e+01 -1.418203e+02 0.000000e+00
vn -0.000000 -0.000000 -1.000000
vn -0.000000 -0.000000 -1.000000
vn -0.000000 -0.000000 -1.000000
vn -0.000000 -0.000000 -1.000000
f -4//-4 -3//-3 -2//-2
f -2//-2 -3//-3 -1//-1
v 9.667818e+01 -1.418203e+02 1.272000e+00
v 9.664887e+01 -1.414386e+02 1.272000e+00
v 9.417818e+01 -1.418203e+02 1.272000e+00
v 9.656167e+01 -1.410659e+02 1.272000e+00
v 9.641859e+01 -1.407110e+02 1.272000e+00
vn 0.000000 0.000000 1.000000
vn 0.000000 0.000000 1.000000
vn 0.000000 0.000000 1.000000
vn 0.000000 0.000000 1.000000
vn 0.000000 0.000000 1.000000
f -5//-5 -4//-4 -3//-3
f -3//-3 -4//-4 -2//-2
f -3//-3 -2//-2 -1//-1
v 9.641859e+01 -1.407110e+02 1.272000e+00
v 9.622300e+01 -1.403820e+02 1.272000e+00
v 9.417818e+01 -1.418203e+02 1.272000e+00
v 9.597948e+01 -1.400867e+02 1.272000e+00
v 9.569374e+01 -1.398320e+02 1.272000e+00
vn 0.000000 0.000000 1.000000
vn 0.000000 0.000000 1.000000
vn 0.000000 0.000000 1.000000
vn 0.000000 0.000000 1.000000
vn 0.000000 0.000000 1.000000
f -5//-5 -4//-4 -3//-3
f -3//-3 -4//-4 -2//-2
f -3//-3 -2//-2 -1//-1
v 9.569374e+01 -1.398320e+02 1.272000e+00
v 9.537247e+01 -1.396240e+02 1.272000e+00
v 9.417818e+01 -1.418203e+02 1.272000e+00
v 9.502322e+01 -1.394674e+02 1.272000e+00
v 9.465415e+01 -1.393660e+02 1.272000e+00
vn 0.000000 0.000000 1.000000
vn 0.000000 0.000000 1.000000
vn 0.000000 0.000000 1.000000
vn 0.000000 0.000000 1.000000
vn 0.000000 0.000000 1.000000
f -5//-5 -4//-4 -3//-3
f -3//-3 -4//-4 -2//-2
f -3//-3 -2//-2 -1//-1
v 9.465415e+01 -1.393660e+02 1.272000e+00
v 9.427393e+01 -1.393221e+02 1.272000e+00
v 9.417818e+01 -1.418203e+02 1.272000e+00
v 9.389146e+01 -1.393367e+02 1.272000e+00
v 9.351572e+01 -1.394096e+02 1.272000e+00
vn 0.000000 0.000000 1.000000
vn 0.000000 0.000000 1.000000
vn 0.000000 0.000000 1.000000
vn 0.000000 0.000000 1.000000
vn 0.000000 0.000000 1.000000
f -5//-5 -4//-4 -3//-3
f -3//-3 -4//-4 -2//-2
f -3//-3 -2//-2 -1//-1
v 9.351572e+01 -1.394096e+02 1.272000e+00
v 9.315550e+01 -1.395390e+02 1.272000e+00
v 9.417818e+01 -1.418203e+02 1.272000e+00
v 9.281925e+01 -1.397218e+02 1.272000e+00
v 9.251486e+01 -1.399539e+02 1.272000e+00
vn 0.000000 0.000000 1.000000
vn 0.000000 0.000000 1.000000
vn 0.000000 0.000000 1.000000
vn 0.000000 0.000000 1.000000
vn 0.000000 0.000000 1.000000
f -5//-5 -4//-4 -3//-3
f -3//-3 -4//-4 -2//-2
f -3//-3 -2//-2 -1//-1
v 9.251486e+01 -1.399539e+02 1.272000e+00
v 9.224945e+01 -1.402296e+02 1.272000e+00
v 9.417818e+01 -1.418203e+02 1.272000e+00
v 9.202925e+01 -1.405427e+02 1.272000e+00
v 9.185942e+01 -1.408857e+02 1.272000e+00
vn 0.000000 0.000000 1.000000
vn 0.000000 0.000000 1.000000
vn 0.000000 0.000000 1.000000
vn 0.000000 0.000000 1.000000
vn 0.000000 0.000000 1.000000
f -5//-5 -4//-4 -3//-3
f -3//-3 -4//-4 -2//-2
f -3//-3 -2//-2 -1//-1
v 9.185942e+01 -1.408857e+02 1.272000e+00
v 9.174393e+01 -1.412506e+02 1.272000e+00
v 9.417818e+01 -1.418203e+02 1.272000e+00
v 9.168551e+01 -1.416289e+02 1.272000e+00
v 9.168551e+01 -1.420116e+02 1.272000e+00
vn 0.000000 0.000000 1.000000
vn 0.000000 0.000000 1.000000
vn 0.000000 0.000000 1.000000
vn 0.000000 0.000000 1.000000
vn 0.000000 0.000000 1.000000
f -5//-5 -4//-4 -3//-3
f -3//-3 -4//-4 -2//-2
f -3//-3 -2//-2 -1//-1
v 9.168551e+01 -1.420116e+02 1.272000e+00
v 9.174393e+01 -1.423899e+02 1.272000e+00
v 9.417818e+01 -1.418203e+02 1.272000e+00
v 9.185942e+01 -1.427548e+02 1.272000e+00
v 9.202925e+01 -1.430978e+02 1.272000e+00
vn 0.000000 0.000000 1.000000
vn 0.000000 0.000000 1.000000
vn 0.000000 0.000000 1.000000
vn 0.000000 0.000000 1.000000
vn 0.000000 0.000000 1.000000
f -5//-5 -4//-4 -3//-3
f -3//-3 -4//-4 -2//-2
f -3//-3 -2//-2 -1//-1
v 9.202925e+01 -1.430978e+02 1.272000e+00
v 9.224945e+01 -1.434109e+02 1.272000e+00
v 9.417818e+01 -1.418203e+02 1.272000e+00
v 9.251486e+01 -1.436866e+02 1.272000e+00
v 9.281925e+01 -1.439187e+02 1.272000e+00
vn 0.000000 0.000000 1.000000
vn 0.000000 0.000000 1.000000
vn 0.000000 0.000000 1.000000
vn 0.000000 0.000000 1.000000
vn 0.000000 0.000000 1.000000
f -5//-5 -4//-4 -3//-3
f -3//-3 -4//-4 -2//-2
f -3//-3 -2//-2 -1//-1
v 9.281925e+01 -1.439187e+02 1.272000e+00
v 9.315550e+01 -1.441015e+02 1.272000e+00
v 9.417818e+01 -1.418203e+02 1.272000e+00
v 9.351572e+01 -1.442309e+02 1.272000e+00
v 9.389146e+01 -1.443038e+02 1.272000e+00
vn 0.000000 0.000000 1.000000
vn 0.000000 0.000000 1.000000
vn 0.000000 0.000000 1.000000
vn 0.000000 0.000000 1.000000
vn 0.000000 0.000000 1.000000
f -5//-5 -4//-4 -3//-3
f -3//-3 -4//-4 -2//-2
f -3//-3 -2//-2 -1//-1
v 9.389146e+01 -1.443038e+02 1.272000e+00
v 9.427393e+01 -1.443184e+02 1.272000e+00
v 9.417818e+01 -1.418203e+02 1.272000e+00
v 9.465415e+01 -1.442745e+02 1.272000e+00
v 9.502322e+01 -1.441731e+02 1.272000e+00
vn 0.000000 0.000000 1.000000
vn 0.000000 0.000000 1.000000
vn 0.000000 0.000000 1.000000
vn 0.000000 0.000000 1.000000
vn 0.000000 0.000000 1.000000
f -5//-5 -4//-4 -3//-3
f -3//-3 -4//-4 -2//-2
f -3//-3 -2//-2 -1//-1
v 9.502322e+01 -1.441731e+02 1.272000e+00
v 9.537247e+01 -1.440165e+02 1.272000e+00
v 9.417818e+01 -1.418203e+02 1.272000e+00
v 9.569374e+01 -1.438085e+02 1.272000e+00
v 9.597948e+01 -1.435538e+02 1.272000e+00
vn 0.000000 0.000000 1.000000
vn 0.000000 0.000000 1.000000
vn 0.000000 0.000000 1.000000
vn 0.000000 0.000000 1.000000
vn 0.000000 0.000000 1.000000
f -5//-5 -4//-4 -3//-3
f -3//-3 -4//-4 -2//-2
f -3//-3 -2//-2 -1//-1
v 9.597948e+01 -1.435538e+02 1.272000e+00
v 9.622300e+01 -1.432585e+02 1.272000e+00
v 9.417818e+01 -1.418203e+02 1.272000e+00
v 9.641859e+01 -1.429296e+02 1.272000e+00
v 9.656167e+01 -1.425746e+02 1.272000e+00
vn 0.000000 0.000000 1.000000
vn 0.000000 0.000000 1.000000
vn 0.000000 0.000000 1.000000
vn 0.000000 0.000000 1.000000
vn 0.000000 0.000000 1.000000
f -5//-5 -4//-4 -3//-3
f -3//-3 -4//-4 -2//-2
f -3//-3 -2//-2 -1//-1
v 9.656167e+01 -1.425746e+02 1.272000e+00
v 9.664887e+01 -1.422019e+02 1.272000e+00
v 9.417818e+01 -1.418203e+02 1.272000e+00
v 9.667818e+01 -1.418203e+02 1.272000e+00
vn 0.000000 0.000000 1.000000
vn 0.000000 0.000000 1.000000
vn 0.000000 0.000000 1.000000
vn 0.000000 0.000000 1.000000
f -4//-4 -3//-3 -2//-2
f -2//-2 -3//-3 -1//-1
