#
mtllib gnd_MbyN_Patch_Array.mtl
usemtl ff4180ff
v -2.146611e+02 -2.649824e+02 0.000000e+00
v -1.586696e+02 -2.649824e+02 0.000000e+00
v -2.146611e+02 -2.076513e+02 0.000000e+00
v -1.586696e+02 -2.076513e+02 0.000000e+00
v -2.146611e+02 -6.079914e+01 0.000000e+00
v -1.586696e+02 -6.079914e+01 0.000000e+00
v -2.146611e+02 1.012431e+02 0.000000e+00
v -1.586696e+02 1.012431e+02 0.000000e+00
v -2.146611e+02 2.649824e+02 0.000000e+00
v -1.586696e+02 2.649824e+02 0.000000e+00
vn -0.000000 0.000000 1.000000
vn -0.000000 0.000000 1.000000
vn -0.000000 0.000000 1.000000
vn -0.000000 0.000000 1.000000
vn -0.000000 0.000000 1.000000
vn -0.000000 0.000000 1.000000
vn -0.000000 0.000000 1.000000
vn -0.000000 0.000000 1.000000
vn -0.000000 0.000000 1.000000
vn -0.000000 0.000000 1.000000
f -10//-10 -9//-9 -8//-8
f -8//-8 -9//-9 -7//-7
f -8//-8 -7//-7 -6//-6
f -6//-6 -7//-7 -5//-5
f -6//-6 -5//-5 -4//-4
f -4//-4 -5//-5 -3//-3
f -4//-4 -3//-3 -2//-2
f -2//-2 -3//-3 -1//-1
v 1.015394e+02 -1.375703e+02 0.000000e+00
v 1.023885e+02 -1.396203e+02 0.000000e+00
v 2.146611e+02 -6.079914e+01 0.000000e+00
v 1.026782e+02 -1.418203e+02 0.000000e+00
v 2.146611e+02 -2.076513e+02 0.000000e+00
v 1.023885e+02 -1.440202e+02 0.000000e+00
v 1.015394e+02 -1.460703e+02 0.000000e+00
vn -0.000000 0.000000 1.000000
vn -0.000000 0.000000 1.000000
vn -0.000000 0.000000 1.000000
vn -0.000000 0.000000 1.000000
vn -0.000000 0.000000 1.000000
vn -0.000000 0.000000 1.000000
vn -0.000000 0.000000 1.000000
f -7//-7 -6//-6 -5//-5
f -5//-5 -6//-6 -4//-4
f -5//-5 -4//-4 -3//-3
f -3//-3 -4//-4 -2//-2
f -3//-3 -2//-2 -1//-1
v 8.681696e+01 2.447197e+01 0.000000e+00
v 8.816777e+01 2.623238e+01 0.000000e+00
v 0.000000e+00 1.012431e+02 0.000000e+00
v 8.992818e+01 2.758319e+01 0.000000e+00
v 9.417818e+01 1.012431e+02 0.000000e+00
v 9.197821e+01 2.843234e+01 0.000000e+00
v 9.417818e+01 2.872197e+01 0.000000e+00
vn -0.000000 0.000000 1.000000
vn -0.000000 0.000000 1.000000
vn -0.000000 0.000000 1.000000
vn -0.000000 0.000000 1.000000
vn -0.000000 0.000000 1.000000
vn -0.000000 0.000000 1.000000
vn -0.000000 0.000000 1.000000
f -7//-7 -6//-6 -5//-5
f -5//-5 -6//-6 -4//-4
f -5//-5 -4//-4 -3//-3
f -3//-3 -4//-4 -2//-2
f -3//-3 -2//-2 -1//-1
v 1.015394e+02 -1.460703e+02 0.000000e+00
v 1.001886e+02 -1.478307e+02 0.000000e+00
v 2.146611e+02 -2.076513e+02 0.000000e+00
v 9.842818e+01 -1.491815e+02 0.000000e+00
v 9.417818e+01 -2.076513e+02 0.000000e+00
v 9.637814e+01 -1.500306e+02 0.000000e+00
v 9.417818e+01 -1.503203e+02 0.000000e+00
vn -0.000000 0.000000 1.000000
vn -0.000000 0.000000 1.000000
vn -0.000000 0.000000 1.000000
vn -0.000000 0.000000 1.000000
vn -0.000000 0.000000 1.000000
vn -0.000000 0.000000 1.000000
vn -0.000000 0.000000 1.000000
f -7//-7 -6//-6 -5//-5
f -5//-5 -6//-6 -4//-4
f -5//-5 -4//-4 -3//-3
f -3//-3 -4//-4 -2//-2
f -3//-3 -2//-2 -1//-1
v -8.681696e+01 1.865142e+02 0.000000e+00
v -8.596780e+01 1.844642e+02 0.000000e+00
v 0.000000e+00 2.649824e+02 0.000000e+00
v -8.567818e+01 1.822642e+02 0.000000e+00
v 0.000000e+00 1.012431e+02 0.000000e+00
v -8.596780e+01 1.800642e+02 0.000000e+00
v -8.681696e+01 1.780142e+02 0.000000e+00
vn -0.000000 0.000000 1.000000
vn -0.000000 0.000000 1.000000
vn -0.000000 0.000000 1.000000
vn -0.000000 0.000000 1.000000
vn -0.000000 0.000000 1.000000
vn -0.000000 0.000000 1.000000
vn -0.000000 0.000000 1.000000
f -7//-7 -6//-6 -5//-5
f -5//-5 -6//-6 -4//-4
f -5//-5 -4//-4 -3//-3
f -3//-3 -4//-4 -2//-2
f -3//-3 -2//-2 -1//-1
v -8.992818e+01 -1.491815e+02 0.000000e+00
v -9.197821e+01 -1.500306e+02 0.000000e+00
v 0.000000e+00 -2.076513e+02 0.000000e+00
v -9.417818e+01 -1.503203e+02 0.000000e+00
v -1.586696e+02 -2.076513e+02 0.000000e+00
v -9.637814e+01 -1.500306e+02 0.000000e+00
v -9.842818e+01 -1.491815e+02 0.000000e+00
vn -0.000000 0.000000 1.000000
vn -0.000000 0.000000 1.000000
vn -0.000000 0.000000 1.000000
vn -0.000000 0.000000 1.000000
vn -0.000000 0.000000 1.000000
vn -0.000000 0.000000 1.000000
vn -0.000000 0.000000 1.000000
f -7//-7 -6//-6 -5//-5
f -5//-5 -6//-6 -4//-4
f -5//-5 -4//-4 -3//-3
f -3//-3 -4//-4 -2//-2
f -3//-3 -2//-2 -1//-1
v 8.681696e+01 1.865142e+02 0.000000e+00
v 8.816777e+01 1.882746e+02 0.000000e+00
v 0.000000e+00 2.649824e+02 0.000000e+00
v 8.992818e+01 1.896254e+02 0.000000e+00
v 9.417818e+01 2.649824e+02 0.000000e+00
v 9.197821e+01 1.904746e+02 0.000000e+00
v 9.417818e+01 1.907642e+02 0.000000e+00
vn -0.000000 0.000000 1.000000
vn -0.000000 0.000000 1.000000
vn -0.000000 0.000000 1.000000
vn -0.000000 0.000000 1.000000
vn -0.000000 0.000000 1.000000
vn -0.000000 0.000000 1.000000
vn -0.000000 0.000000 1.000000
f -7//-7 -6//-6 -5//-5
f -5//-5 -6//-6 -4//-4
f -5//-5 -4//-4 -3//-3
f -3//-3 -4//-4 -2//-2
f -3//-3 -2//-2 -1//-1
v 9.417818e+01 1.737642e+02 0.000000e+00
v 9.197821e+01 1.740538e+02 0.000000e+00
v 9.417818e+01 1.012431e+02 0.000000e+00
v 8.992818e+01 1.749030e+02 0.000000e+00
v 0.000000e+00 1.012431e+02 0.000000e+00
v 8.816777e+01 1.762538e+02 0.000000e+00
v 8.681696e+01 1.780142e+02 0.000000e+00
vn -0.000000 0.000000 1.000000
vn -0.000000 0.000000 1.000000
vn -0.000000 0.000000 1.000000
vn -0.000000 0.000000 1.000000
vn -0.000000 0.000000 1.000000
vn -0.000000 0.000000 1.000000
vn -0.000000 0.000000 1.000000
f -7//-7 -6//-6 -5//-5
f -5//-5 -6//-6 -4//-4
f -5//-5 -4//-4 -3//-3
f -3//-3 -4//-4 -2//-2
f -3//-3 -2//-2 -1//-1
v 9.417818e+01 -1.333203e+02 0.000000e+00
v 9.637814e+01 -1.336099e+02 0.000000e+00
v 9.417818e+01 -6.079914e+01 0.000000e+00
v 9.842818e+01 -1.344590e+02 0.000000e+00
v 2.146611e+02 -6.079914e+01 0.000000e+00
v 1.001886e+02 -1.358098e+02 0.000000e+00
v 1.015394e+02 -1.375703e+02 0.000000e+00
vn -0.000000 0.000000 1.000000
vn -0.000000 0.000000 1.000000
vn -0.000000 0.000000 1.000000
vn -0.000000 0.000000 1.000000
vn -0.000000 0.000000 1.000000
vn -0.000000 0.000000 1.000000
vn -0.000000 0.000000 1.000000
f -7//-7 -6//-6 -5//-5
f -5//-5 -6//-6 -4//-4
f -5//-5 -4//-4 -3//-3
f -3//-3 -4//-4 -2//-2
f -3//-3 -2//-2 -1//-1
v -1.015394e+02 -1.460703e+02 0.000000e+00
v -1.023885e+02 -1.440202e+02 0.000000e+00
v -1.586696e+02 -2.076513e+02 0.000000e+00
v -1.026782e+02 -1.418203e+02 0.000000e+00
v -1.586696e+02 -6.079914e+01 0.000000e+00
v -1.023885e+02 -1.396203e+02 0.000000e+00
v -1.015394e+02 -1.375703e+02 0.000000e+00
vn -0.000000 0.000000 1.000000
vn -0.000000 0.000000 1.000000
vn -0.000000 0.000000 1.000000
vn -0.000000 0.000000 1.000000
vn -0.000000 0.000000 1.000000
vn -0.000000 0.000000 1.000000
vn -0.000000 0.000000 1.000000
f -7//-7 -6//-6 -5//-5
f -5//-5 -6//-6 -4//-4
f -5//-5 -4//-4 -3//-3
f -3//-3 -4//-4 -2//-2
f -3//-3 -2//-2 -1//-1
v 8.681696e+01 1.780142e+02 0.000000e+00
v 8.596780e+01 1.800642e+02 0.000000e+00
v 0.000000e+00 1.012431e+02 0.000000e+00
v 8.567818e+01 1.822642e+02 0.000000e+00
v 0.000000e+00 2.649824e+02 0.000000e+00
v 8.596780e+01 1.844642e+02 0.000000e+00
v 8.681696e+01 1.865142e+02 0.000000e+00
vn -0.000000 0.000000 1.000000
vn -0.000000 0.000000 1.000000
vn -0.000000 0.000000 1.000000
vn -0.000000 0.000000 1.000000
vn -0.000000 0.000000 1.000000
vn -0.000000 0.000000 1.000000
vn -0.000000 0.000000 1.000000
f -7//-7 -6//-6 -5//-5
f -5//-5 -6//-6 -4//-4
f -5//-5 -4//-4 -3//-3
f -3//-3 -4//-4 -2//-2
f -3//-3 -2//-2 -1//-1
v -1.015394e+02 -1.460703e+02 0.000000e+00
v -1.586696e+02 -2.076513e+02 0.000000e+00
v -1.001886e+02 -1.478307e+02 0.000000e+00
v -9.842818e+01 -1.491815e+02 0.000000e+00
vn -0.000000 0.000000 1.000000
vn -0.000000 0.000000 1.000000
vn -0.000000 0.000000 1.000000
vn -0.000000 0.000000 1.000000
f -4//-4 -3//-3 -2//-2
f -2//-2 -3//-3 -1//-1
v -9.417818e+01 -1.333203e+02 0.000000e+00
v -9.197821e+01 -1.336099e+02 0.000000e+00
v 0.000000e+00 -6.079914e+01 0.000000e+00
v -8.992818e+01 -1.344590e+02 0.000000e+00
v -8.816777e+01 -1.358098e+02 0.000000e+00
vn -0.000000 0.000000 1.000000
vn -0.000000 0.000000 1.000000
vn -0.000000 0.000000 1.000000
vn -0.000000 0.000000 1.000000
vn -0.000000 0.000000 1.000000
f -5//-5 -4//-4 -3//-3
f -3//-3 -4//-4 -2//-2
f -3//-3 -2//-2 -1//-1
v -8.681696e+01 -1.375703e+02 0.000000e+00
v -8.596780e+01 -1.396203e+02 0.000000e+00
v 0.000000e+00 -6.079914e+01 0.000000e+00
v -8.567818e+01 -1.418203e+02 0.000000e+00
v 0.000000e+00 -2.076513e+02 0.000000e+00
v -8.596780e+01 -1.440202e+02 0.000000e+00
v -8.681696e+01 -1.460703e+02 0.000000e+00
vn -0.000000 0.000000 1.000000
vn -0.000000 0.000000 1.000000
vn -0.000000 0.000000 1.000000
vn -0.000000 0.000000 1.000000
vn -0.000000 0.000000 1.000000
vn -0.000000 0.000000 1.000000
vn -0.000000 0.000000 1.000000
f -7//-7 -6//-6 -5//-5
f -5//-5 -6//-6 -4//-4
f -5//-5 -4//-4 -3//-3
f -3//-3 -4//-4 -2//-2
f -3//-3 -2//-2 -1//-1
v 2.146611e+02 -2.649824e+02 0.000000e+00
v 9.417818e+01 -2.076513e+02 0.000000e+00
v 9.417818e+01 -2.649824e+02 0.000000e+00
v 0.000000e+00 -2.076513e+02 0.000000e+00
v 0.000000e+00 -2.649824e+02 0.000000e+00
v -1.586696e+02 -2.076513e+02 0.000000e+00
v -1.586696e+02 -2.649824e+02 0.000000e+00
vn -0.000000 0.000000 1.000000
vn -0.000000 0.000000 1.000000
vn -0.000000 0.000000 1.000000
vn -0.000000 0.000000 1.000000
vn -0.000000 0.000000 1.000000
vn -0.000000 0.000000 1.000000
vn -0.000000 0.000000 1.000000
f -7//-7 -6//-6 -5//-5
f -5//-5 -6//-6 -4//-4
f -5//-5 -4//-4 -3//-3
f -3//-3 -4//-4 -2//-2
f -3//-3 -2//-2 -1//-1
v -8.992818e+01 1.749030e+02 0.000000e+00
v -9.197821e+01 1.740538e+02 0.000000e+00
v 0.000000e+00 1.012431e+02 0.000000e+00
v -9.417818e+01 1.737642e+02 0.000000e+00
v -1.586696e+02 1.012431e+02 0.000000e+00
v -9.637814e+01 1.740538e+02 0.000000e+00
v -9.842818e+01 1.749030e+02 0.000000e+00
vn -0.000000 0.000000 1.000000
vn -0.000000 0.000000 1.000000
vn -0.000000 0.000000 1.000000
vn -0.000000 0.000000 1.000000
vn -0.000000 0.000000 1.000000
vn -0.000000 0.000000 1.000000
vn -0.000000 0.000000 1.000000
f -7//-7 -6//-6 -5//-5
f -5//-5 -6//-6 -4//-4
f -5//-5 -4//-4 -3//-3
f -3//-3 -4//-4 -2//-2
f -3//-3 -2//-2 -1//-1
v -9.842818e+01 2.758319e+01 0.000000e+00
v -9.637814e+01 2.843234e+01 0.000000e+00
v -1.586696e+02 1.012431e+02 0.000000e+00
v -9.417818e+01 2.872197e+01 0.000000e+00
v 0.000000e+00 1.012431e+02 0.000000e+00
v -9.197821e+01 2.843234e+01 0.000000e+00
v -8.992818e+01 2.758319e+01 0.000000e+00
vn -0.000000 0.000000 1.000000
vn -0.000000 0.000000 1.000000
vn -0.000000 0.000000 1.000000
vn -0.000000 0.000000 1.000000
vn -0.000000 0.000000 1.000000
vn -0.000000 0.000000 1.000000
vn -0.000000 0.000000 1.000000
f -7//-7 -6//-6 -5//-5
f -5//-5 -6//-6 -4//-4
f -5//-5 -4//-4 -3//-3
f -3//-3 -4//-4 -2//-2
f -3//-3 -2//-2 -1//-1
v -9.637814e+01 -1.336099e+02 0.000000e+00
v -9.417818e+01 -1.333203e+02 0.000000e+00
v -1.586696e+02 -6.079914e+01 0.000000e+00
v 0.000000e+00 -6.079914e+01 0.000000e+00
v -9.417818e+01 1.172197e+01 0.000000e+00
v -9.197821e+01 1.201160e+01 0.000000e+00
vn -0.000000 0.000000 1.000000
vn -0.000000 0.000000 1.000000
vn -0.000000 0.000000 1.000000
vn -0.000000 0.000000 1.000000
vn -0.000000 0.000000 1.000000
vn -0.000000 0.000000 1.000000
f -6//-6 -5//-5 -4//-4
f -4//-4 -5//-5 -3//-3
f -4//-4 -3//-3 -2//-2
f -2//-2 -3//-3 -1//-1
v 9.417818e+01 -2.076513e+02 0.000000e+00
v 2.146611e+02 -2.649824e+02 0.000000e+00
v 2.146611e+02 -2.076513e+02 0.000000e+00
vn -0.000000 0.000000 1.000000
vn -0.000000 0.000000 1.000000
vn -0.000000 0.000000 1.000000
f -3//-3 -2//-2 -1//-1
v -9.842818e+01 1.286076e+01 0.000000e+00
v -1.001886e+02 1.421157e+01 0.000000e+00
v -1.586696e+02 -6.079914e+01 0.000000e+00
v -1.015394e+02 1.597197e+01 0.000000e+00
v -1.023885e+02 1.802201e+01 0.000000e+00
vn -0.000000 0.000000 1.000000
vn -0.000000 0.000000 1.000000
vn -0.000000 0.000000 1.000000
vn -0.000000 0.000000 1.000000
vn -0.000000 0.000000 1.000000
f -5//-5 -4//-4 -3//-3
f -3//-3 -4//-4 -2//-2
f -3//-3 -2//-2 -1//-1
v -1.023885e+02 2.242194e+01 0.000000e+00
v -1.015394e+02 2.447197e+01 0.000000e+00
v -1.586696e+02 1.012431e+02 0.000000e+00
v -1.001886e+02 2.623238e+01 0.000000e+00
v -9.842818e+01 2.758319e+01 0.000000e+00
vn -0.000000 0.000000 1.000000
vn -0.000000 0.000000 1.000000
vn -0.000000 0.000000 1.000000
vn -0.000000 0.000000 1.000000
vn -0.000000 0.000000 1.000000
f -5//-5 -4//-4 -3//-3
f -3//-3 -4//-4 -2//-2
f -3//-3 -2//-2 -1//-1
v -1.015394e+02 -1.375703e+02 0.000000e+00
v -1.001886e+02 -1.358098e+02 0.000000e+00
v -1.586696e+02 -6.079914e+01 0.000000e+00
v -9.842818e+01 -1.344590e+02 0.000000e+00
v -9.637814e+01 -1.336099e+02 0.000000e+00
vn -0.000000 0.000000 1.000000
vn -0.000000 0.000000 1.000000
vn -0.000000 0.000000 1.000000
vn -0.000000 0.000000 1.000000
vn -0.000000 0.000000 1.000000
f -5//-5 -4//-4 -3//-3
f -3//-3 -4//-4 -2//-2
f -3//-3 -2//-2 -1//-1
v 1.015394e+02 1.780142e+02 0.000000e+00
v 1.001886e+02 1.762538e+02 0.000000e+00
v 2.146611e+02 1.012431e+02 0.000000e+00
v 9.842818e+01 1.749030e+02 0.000000e+00
v 9.417818e+01 1.012431e+02 0.000000e+00
v 9.637814e+01 1.740538e+02 0.000000e+00
v 9.417818e+01 1.737642e+02 0.000000e+00
vn -0.000000 0.000000 1.000000
vn -0.000000 0.000000 1.000000
vn -0.000000 0.000000 1.000000
vn -0.000000 0.000000 1.000000
vn -0.000000 0.000000 1.000000
vn -0.000000 0.000000 1.000000
vn -0.000000 0.000000 1.000000
f -7//-7 -6//-6 -5//-5
f -5//-5 -6//-6 -4//-4
f -5//-5 -4//-4 -3//-3
f -3//-3 -4//-4 -2//-2
f -3//-3 -2//-2 -1//-1
v 8.681696e+01 -1.375703e+02 0.000000e+00
v 8.816777e+01 -1.358098e+02 0.000000e+00
v 0.000000e+00 -6.079914e+01 0.000000e+00
v 8.992818e+01 -1.344590e+02 0.000000e+00
v 9.417818e+01 -6.079914e+01 0.000000e+00
v 9.197821e+01 -1.336099e+02 0.000000e+00
v 9.417818e+01 -1.333203e+02 0.000000e+00
vn -0.000000 0.000000 1.000000
vn -0.000000 0.000000 1.000000
vn -0.000000 0.000000 1.000000
vn -0.000000 0.000000 1.000000
vn -0.000000 0.000000 1.000000
vn -0.000000 0.000000 1.000000
vn -0.000000 0.000000 1.000000
f -7//-7 -6//-6 -5//-5
f -5//-5 -6//-6 -4//-4
f -5//-5 -4//-4 -3//-3
f -3//-3 -4//-4 -2//-2
f -3//-3 -2//-2 -1//-1
v -8.681696e+01 1.597197e+01 0.000000e+00
v -8.816777e+01 1.421157e+01 0.000000e+00
v 0.000000e+00 -6.079914e+01 0.000000e+00
v -8.992818e+01 1.286076e+01 0.000000e+00
v -9.197821e+01 1.201160e+01 0.000000e+00
vn -0.000000 0.000000 1.000000
vn -0.000000 0.000000 1.000000
vn -0.000000 0.000000 1.000000
vn -0.000000 0.000000 1.000000
vn -0.000000 0.000000 1.000000
f -5//-5 -4//-4 -3//-3
f -3//-3 -4//-4 -2//-2
f -3//-3 -2//-2 -1//-1
v -8.992818e+01 2.758319e+01 0.000000e+00
v -8.816777e+01 2.623238e+01 0.000000e+00
v 0.000000e+00 1.012431e+02 0.000000e+00
v -8.681696e+01 2.447197e+01 0.000000e+00
v -8.596780e+01 2.242194e+01 0.000000e+00
vn -0.000000 0.000000 1.000000
vn -0.000000 0.000000 1.000000
vn -0.000000 0.000000 1.000000
vn -0.000000 0.000000 1.000000
vn -0.000000 0.000000 1.000000
f -5//-5 -4//-4 -3//-3
f -3//-3 -4//-4 -2//-2
f -3//-3 -2//-2 -1//-1
v -1.023885e+02 2.242194e+01 0.000000e+00
v -1.586696e+02 1.012431e+02 0.000000e+00
v -1.026782e+02 2.022197e+01 0.000000e+00
v -1.586696e+02 -6.079914e+01 0.000000e+00
v -1.023885e+02 1.802201e+01 0.000000e+00
vn -0.000000 0.000000 1.000000
vn -0.000000 0.000000 1.000000
vn -0.000000 0.000000 1.000000
vn -0.000000 0.000000 1.000000
vn -0.000000 0.000000 1.000000
f -5//-5 -4//-4 -3//-3
f -3//-3 -4//-4 -2//-2
f -3//-3 -2//-2 -1//-1
v 0.000000e+00 -6.079914e+01 0.000000e+00
v -8.816777e+01 -1.358098e+02 0.000000e+00
v -8.681696e+01 -1.375703e+02 0.000000e+00
vn -0.000000 0.000000 1.000000
vn -0.000000 0.000000 1.000000
vn -0.000000 0.000000 1.000000
f -3//-3 -2//-2 -1//-1
v 0.000000e+00 1.012431e+02 0.000000e+00
v -8.567818e+01 2.022197e+01 0.000000e+00
v 0.000000e+00 -6.079914e+01 0.000000e+00
v -8.596780e+01 1.802201e+01 0.000000e+00
v -8.681696e+01 1.597197e+01 0.000000e+00
vn -0.000000 0.000000 1.000000
vn -0.000000 0.000000 1.000000
vn -0.000000 0.000000 1.000000
vn -0.000000 0.000000 1.000000
vn -0.000000 0.000000 1.000000
f -5//-5 -4//-4 -3//-3
f -3//-3 -4//-4 -2//-2
f -3//-3 -2//-2 -1//-1
v -8.992818e+01 -1.491815e+02 0.000000e+00
v 0.000000e+00 -2.076513e+02 0.000000e+00
v -8.816777e+01 -1.478307e+02 0.000000e+00
v -8.681696e+01 -1.460703e+02 0.000000e+00
vn -0.000000 0.000000 1.000000
vn -0.000000 0.000000 1.000000
vn -0.000000 0.000000 1.000000
vn -0.000000 0.000000 1.000000
f -4//-4 -3//-3 -2//-2
f -2//-2 -3//-3 -1//-1
v -9.842818e+01 1.896254e+02 0.000000e+00
v -9.637814e+01 1.904746e+02 0.000000e+00
v -1.586696e+02 2.649824e+02 0.000000e+00
v -9.417818e+01 1.907642e+02 0.000000e+00
v 0.000000e+00 2.649824e+02 0.000000e+00
v -9.197821e+01 1.904746e+02 0.000000e+00
v -8.992818e+01 1.896254e+02 0.000000e+00
vn -0.000000 0.000000 1.000000
vn -0.000000 0.000000 1.000000
vn -0.000000 0.000000 1.000000
vn -0.000000 0.000000 1.000000
vn -0.000000 0.000000 1.000000
vn -0.000000 0.000000 1.000000
vn -0.000000 0.000000 1.000000
f -7//-7 -6//-6 -5//-5
f -5//-5 -6//-6 -4//-4
f -5//-5 -4//-4 -3//-3
f -3//-3 -4//-4 -2//-2
f -3//-3 -2//-2 -1//-1
v -1.015394e+02 1.780142e+02 0.000000e+00
v -1.023885e+02 1.800642e+02 0.000000e+00
v -1.586696e+02 1.012431e+02 0.000000e+00
v -1.026782e+02 1.822642e+02 0.000000e+00
v -1.586696e+02 2.649824e+02 0.000000e+00
v -1.023885e+02 1.844642e+02 0.000000e+00
v -1.015394e+02 1.865142e+02 0.000000e+00
vn -0.000000 0.000000 1.000000
vn -0.000000 0.000000 1.000000
vn -0.000000 0.000000 1.000000
vn -0.000000 0.000000 1.000000
vn -0.000000 0.000000 1.000000
vn -0.000000 0.000000 1.000000
vn -0.000000 0.000000 1.000000
f -7//-7 -6//-6 -5//-5
f -5//-5 -6//-6 -4//-4
f -5//-5 -4//-4 -3//-3
f -3//-3 -4//-4 -2//-2
f -3//-3 -2//-2 -1//-1
v 1.015394e+02 2.447197e+01 0.000000e+00
v 1.023885e+02 2.242194e+01 0.000000e+00
v 2.146611e+02 1.012431e+02 0.000000e+00
v 1.026782e+02 2.022197e+01 0.000000e+00
v 2.146611e+02 -6.079914e+01 0.000000e+00
v 1.023885e+02 1.802201e+01 0.000000e+00
v 1.015394e+02 1.597197e+01 0.000000e+00
vn -0.000000 0.000000 1.000000
vn -0.000000 0.000000 1.000000
vn -0.000000 0.000000 1.000000
vn -0.000000 0.000000 1.000000
vn -0.000000 0.000000 1.000000
vn -0.000000 0.000000 1.000000
vn -0.000000 0.000000 1.000000
f -7//-7 -6//-6 -5//-5
f -5//-5 -6//-6 -4//-4
f -5//-5 -4//-4 -3//-3
f -3//-3 -4//-4 -2//-2
f -3//-3 -2//-2 -1//-1
v -8.992818e+01 1.896254e+02 0.000000e+00
v -8.816777e+01 1.882746e+02 0.000000e+00
v 0.000000e+00 2.649824e+02 0.000000e+00
v -8.681696e+01 1.865142e+02 0.000000e+00
vn -0.000000 0.000000 1.000000
vn -0.000000 0.000000 1.000000
vn -0.000000 0.000000 1.000000
vn -0.000000 0.000000 1.000000
f -4//-4 -3//-3 -2//-2
f -2//-2 -3//-3 -1//-1
v -9.842818e+01 1.896254e+02 0.000000e+00
v -1.586696e+02 2.649824e+02 0.000000e+00
v -1.001886e+02 1.882746e+02 0.000000e+00
v -1.015394e+02 1.865142e+02 0.000000e+00
vn -0.000000 0.000000 1.000000
vn -0.000000 0.000000 1.000000
vn -0.000000 0.000000 1.000000
vn -0.000000 0.000000 1.000000
f -4//-4 -3//-3 -2//-2
f -2//-2 -3//-3 -1//-1
v -8.992818e+01 1.749030e+02 0.000000e+00
v 0.000000e+00 1.012431e+02 0.000000e+00
v -8.816777e+01 1.762538e+02 0.000000e+00
v -8.681696e+01 1.780142e+02 0.000000e+00
vn -0.000000 0.000000 1.000000
vn -0.000000 0.000000 1.000000
vn -0.000000 0.000000 1.000000
vn -0.000000 0.000000 1.000000
f -4//-4 -3//-3 -2//-2
f -2//-2 -3//-3 -1//-1
v -9.417818e+01 1.172197e+01 0.000000e+00
v -9.637814e+01 1.201160e+01 0.000000e+00
v -1.586696e+02 -6.079914e+01 0.000000e+00
v -9.842818e+01 1.286076e+01 0.000000e+00
vn -0.000000 0.000000 1.000000
vn -0.000000 0.000000 1.000000
vn -0.000000 0.000000 1.000000
vn -0.000000 0.000000 1.000000
f -4//-4 -3//-3 -2//-2
f -2//-2 -3//-3 -1//-1
v 1.015394e+02 1.597197e+01 0.000000e+00
v 1.001886e+02 1.421157e+01 0.000000e+00
v 2.146611e+02 -6.079914e+01 0.000000e+00
v 9.842818e+01 1.286076e+01 0.000000e+00
v 9.417818e+01 -6.079914e+01 0.000000e+00
v 9.637814e+01 1.201160e+01 0.000000e+00
v 9.417818e+01 1.172197e+01 0.000000e+00
vn -0.000000 0.000000 1.000000
vn -0.000000 0.000000 1.000000
vn -0.000000 0.000000 1.000000
vn -0.000000 0.000000 1.000000
vn -0.000000 0.000000 1.000000
vn -0.000000 0.000000 1.000000
vn -0.000000 0.000000 1.000000
f -7//-7 -6//-6 -5//-5
f -5//-5 -6//-6 -4//-4
f -5//-5 -4//-4 -3//-3
f -3//-3 -4//-4 -2//-2
f -3//-3 -2//-2 -1//-1
v 9.417818e+01 1.907642e+02 0.000000e+00
v 9.637814e+01 1.904746e+02 0.000000e+00
v 9.417818e+01 2.649824e+02 0.000000e+00
v 9.842818e+01 1.896254e+02 0.000000e+00
v 2.146611e+02 2.649824e+02 0.000000e+00
v 1.001886e+02 1.882746e+02 0.000000e+00
v 1.015394e+02 1.865142e+02 0.000000e+00
vn -0.000000 0.000000 1.000000
vn -0.000000 0.000000 1.000000
vn -0.000000 0.000000 1.000000
vn -0.000000 0.000000 1.000000
vn -0.000000 0.000000 1.000000
vn -0.000000 0.000000 1.000000
vn -0.000000 0.000000 1.000000
f -7//-7 -6//-6 -5//-5
f -5//-5 -6//-6 -4//-4
f -5//-5 -4//-4 -3//-3
f -3//-3 -4//-4 -2//-2
f -3//-3 -2//-2 -1//-1
v 1.015394e+02 1.865142e+02 0.000000e+00
v 1.023885e+02 1.844642e+02 0.000000e+00
v 2.146611e+02 2.649824e+02 0.000000e+00
v 1.026782e+02 1.822642e+02 0.000000e+00
v 2.146611e+02 1.012431e+02 0.000000e+00
v 1.023885e+02 1.800642e+02 0.000000e+00
v 1.015394e+02 1.780142e+02 0.000000e+00
vn -0.000000 0.000000 1.000000
vn -0.000000 0.000000 1.000000
vn -0.000000 0.000000 1.000000
vn -0.000000 0.000000 1.000000
vn -0.000000 0.000000 1.000000
vn -0.000000 0.000000 1.000000
vn -0.000000 0.000000 1.000000
f -7//-7 -6//-6 -5//-5
f -5//-5 -6//-6 -4//-4
f -5//-5 -4//-4 -3//-3
f -3//-3 -4//-4 -2//-2
f -3//-3 -2//-2 -1//-1
v 8.681696e+01 1.597197e+01 0.000000e+00
v 8.596780e+01 1.802201e+01 0.000000e+00
v 0.000000e+00 -6.079914e+01 0.000000e+00
v 8.567818e+01 2.022197e+01 0.000000e+00
v 0.000000e+00 1.012431e+02 0.000000e+00
v 8.596780e+01 2.242194e+01 0.000000e+00
v 8.681696e+01 2.447197e+01 0.000000e+00
vn -0.000000 0.000000 1.000000
vn -0.000000 0.000000 1.000000
vn -0.000000 0.000000 1.000000
vn -0.000000 0.000000 1.000000
vn -0.000000 0.000000 1.000000
vn -0.000000 0.000000 1.000000
vn -0.000000 0.000000 1.000000
f -7//-7 -6//-6 -5//-5
f -5//-5 -6//-6 -4//-4
f -5//-5 -4//-4 -3//-3
f -3//-3 -4//-4 -2//-2
f -3//-3 -2//-2 -1//-1
v 9.417818e+01 1.172197e+01 0.000000e+00
v 9.197821e+01 1.201160e+01 0.000000e+00
v 9.417818e+01 -6.079914e+01 0.000000e+00
v 8.992818e+01 1.286076e+01 0.000000e+00
v 0.000000e+00 -6.079914e+01 0.000000e+00
v 8.816777e+01 1.421157e+01 0.000000e+00
v 8.681696e+01 1.597197e+01 0.000000e+00
vn -0.000000 0.000000 1.000000
vn -0.000000 0.000000 1.000000
vn -0.000000 0.000000 1.000000
vn -0.000000 0.000000 1.000000
vn -0.000000 0.000000 1.000000
vn -0.000000 0.000000 1.000000
vn -0.000000 0.000000 1.000000
f -7//-7 -6//-6 -5//-5
f -5//-5 -6//-6 -4//-4
f -5//-5 -4//-4 -3//-3
f -3//-3 -4//-4 -2//-2
f -3//-3 -2//-2 -1//-1
v 0.000000e+00 1.012431e+02 0.000000e+00
v -8.596780e+01 2.242194e+01 0.000000e+00
v -8.567818e+01 2.022197e+01 0.000000e+00
vn -0.000000 0.000000 1.000000
vn -0.000000 0.000000 1.000000
vn -0.000000 0.000000 1.000000
f -3//-3 -2//-2 -1//-1
v 9.417818e+01 2.872197e+01 0.000000e+00
v 9.637814e+01 2.843234e+01 0.000000e+00
v 9.417818e+01 1.012431e+02 0.000000e+00
v 9.842818e+01 2.758319e+01 0.000000e+00
v 2.146611e+02 1.012431e+02 0.000000e+00
v 1.001886e+02 2.623238e+01 0.000000e+00
v 1.015394e+02 2.447197e+01 0.000000e+00
vn -0.000000 0.000000 1.000000
vn -0.000000 0.000000 1.000000
vn -0.000000 0.000000 1.000000
vn -0.000000 0.000000 1.000000
vn -0.000000 0.000000 1.000000
vn -0.000000 0.000000 1.000000
vn -0.000000 0.000000 1.000000
f -7//-7 -6//-6 -5//-5
f -5//-5 -6//-6 -4//-4
f -5//-5 -4//-4 -3//-3
f -3//-3 -4//-4 -2//-2
f -3//-3 -2//-2 -1//-1
v -1.015394e+02 1.780142e+02 0.000000e+00
v -1.586696e+02 1.012431e+02 0.000000e+00
v -1.001886e+02 1.762538e+02 0.000000e+00
v -9.842818e+01 1.749030e+02 0.000000e+00
vn -0.000000 0.000000 1.000000
vn -0.000000 0.000000 1.000000
vn -0.000000 0.000000 1.000000
vn -0.000000 0.000000 1.000000
f -4//-4 -3//-3 -2//-2
f -2//-2 -3//-3 -1//-1
v 9.417818e+01 -1.503203e+02 0.000000e+00
v 9.197821e+01 -1.500306e+02 0.000000e+00
v 9.417818e+01 -2.076513e+02 0.000000e+00
v 8.992818e+01 -1.491815e+02 0.000000e+00
v 0.000000e+00 -2.076513e+02 0.000000e+00
v 8.816777e+01 -1.478307e+02 0.000000e+00
v 8.681696e+01 -1.460703e+02 0.000000e+00
vn -0.000000 0.000000 1.000000
vn -0.000000 0.000000 1.000000
vn -0.000000 0.000000 1.000000
vn -0.000000 0.000000 1.000000
vn -0.000000 0.000000 1.000000
vn -0.000000 0.000000 1.000000
vn -0.000000 0.000000 1.000000
f -7//-7 -6//-6 -5//-5
f -5//-5 -6//-6 -4//-4
f -5//-5 -4//-4 -3//-3
f -3//-3 -4//-4 -2//-2
f -3//-3 -2//-2 -1//-1
v 8.681696e+01 -1.460703e+02 0.000000e+00
v 8.596780e+01 -1.440202e+02 0.000000e+00
v 0.000000e+00 -2.076513e+02 0.000000e+00
v 8.567818e+01 -1.418203e+02 0.000000e+00
v 0.000000e+00 -6.079914e+01 0.000000e+00
v 8.596780e+01 -1.396203e+02 0.000000e+00
v 8.681696e+01 -1.375703e+02 0.000000e+00
vn -0.000000 0.000000 1.000000
vn -0.000000 0.000000 1.000000
vn -0.000000 0.000000 1.000000
vn -0.000000 0.000000 1.000000
vn -0.000000 0.000000 1.000000
vn -0.000000 0.000000 1.000000
vn -0.000000 0.000000 1.000000
f -7//-7 -6//-6 -5//-5
f -5//-5 -6//-6 -4//-4
f -5//-5 -4//-4 -3//-3
f -3//-3 -4//-4 -2//-2
f -3//-3 -2//-2 -1//-1
