#
mtllib sub_MbyN_Patch_Array.mtl
usemtl ff008000
v 2.146611e+02 2.649824e+02 1.272000e+00
v -2.146611e+02 2.649824e+02 1.272000e+00
v 2.146611e+02 -2.649824e+02 1.272000e+00
v -2.146611e+02 -2.649824e+02 1.272000e+00
vn 0.000000 0.000000 1.000000
vn 0.000000 0.000000 1.000000
vn 0.000000 0.000000 1.000000
vn 0.000000 0.000000 1.000000
f -4//-4 -3//-3 -2//-2
f -2//-2 -3//-3 -1//-1
v -2.146611e+02 -2.649824e+02 0.000000e+00
v -2.146611e+02 2.649824e+02 0.000000e+00
v 2.146611e+02 -2.649824e+02 0.000000e+00
v 2.146611e+02 2.649824e+02 0.000000e+00
vn -0.000000 -0.000000 -1.000000
vn -0.000000 -0.000000 -1.000000
vn -0.000000 -0.000000 -1.000000
vn -0.000000 -0.000000 -1.000000
f -4//-4 -3//-3 -2//-2
f -2//-2 -3//-3 -1//-1
v -2.146611e+02 -2.649824e+02 1.272000e+00
v -2.146611e+02 -2.649824e+02 0.000000e+00
v 2.146611e+02 -2.649824e+02 1.272000e+00
v 2.146611e+02 -2.649824e+02 0.000000e+00
vn -0.000000 -1.000000 -0.000000
vn -0.000000 -1.000000 -0.000000
vn -0.000000 -1.000000 -0.000000
vn -0.000000 -1.000000 -0.000000
f -4//-4 -3//-3 -2//-2
f -2//-2 -3//-3 -1//-1
v -2.146611e+02 2.649824e+02 1.272000e+00
v -2.146611e+02 2.649824e+02 0.000000e+00
v -2.146611e+02 -2.649824e+02 1.272000e+00
v -2.146611e+02 -2.649824e+02 0.000000e+00
vn -1.000000 -0.000000 -0.000000
vn -1.000000 -0.000000 -0.000000
vn -1.000000 -0.000000 -0.000000
vn -1.000000 -0.000000 -0.000000
f -4//-4 -3//-3 -2//-2
f -2//-2 -3//-3 -1//-1
v 2.146611e+02 2.649824e+02 1.272000e+00
v 2.146611e+02 2.649824e+02 0.000000e+00
v -2.146611e+02 2.649824e+02 1.272000e+00
v -2.146611e+02 2.649824e+02 0.000000e+00
vn 0.000000 1.000000 0.000000
vn 0.000000 1.000000 0.000000
vn 0.000000 1.000000 0.000000
vn 0.000000 1.000000 0.000000
f -4//-4 -3//-3 -2//-2
f -2//-2 -3//-3 -1//-1
v 2.146611e+02 2.649824e+02 1.272000e+00
v 2.146611e+02 -2.649824e+02 1.272000e+00
v 2.146611e+02 2.649824e+02 0.000000e+00
v 2.146611e+02 -2.649824e+02 0.000000e+00
vn 1.000000 0.000000 0.000000
vn 1.000000 0.000000 0.000000
vn 1.000000 0.000000 0.000000
vn 1.000000 0.000000 0.000000
f -4//-4 -3//-3 -2//-2
f -2//-2 -3//-3 -1//-1
