# Generated by Visualization Toolkit
v 21.347379684448242 -6.991499900817871 -10.813520431518555
v 24.330419540405273 -6.991499900817871 -10.813520431518555
v 21.347379684448242 6.991499900817871 -10.813520431518555
v 24.330419540405273 6.991499900817871 -10.813520431518555
v 21.347379684448242 -6.991499900817871 -9.135560035705566
v 24.330419540405273 -6.991499900817871 -9.135560035705566
v 21.347379684448242 6.991499900817871 -9.135560035705566
v 24.330419540405273 6.991499900817871 -9.135560035705566
vn -0.40824827551841736 -0.40824827551841736 -0.8164965510368347
vn 0.6666666865348816 -0.6666666865348816 -0.3333333432674408
vn -0.6666666865348816 0.6666666865348816 -0.3333333432674408
vn 0.40824827551841736 0.40824827551841736 -0.8164965510368347
vn -0.6666666865348816 -0.6666666865348816 0.3333333432674408
vn 0.40824827551841736 -0.40824827551841736 0.8164965510368347
vn -0.40824827551841736 0.40824827551841736 0.8164965510368347
vn 0.6666666865348816 0.6666666865348816 0.3333333432674408
f 1//1 5//5 3//3
f 5//5 7//7 3//3
f 6//6 2//2 8//8
f 2//2 4//4 8//8
f 1//1 2//2 5//5
f 2//2 6//6 5//5
f 7//7 8//8 3//3
f 8//8 4//4 3//3
f 2//2 1//1 4//4
f 1//1 3//3 4//4
f 5//5 6//6 7//7
f 6//6 8//8 7//7
