#
mtllib short_2.mtl
usemtl ffe8f2f7
v -3.368181e+00 2.433042e+01 1.249822e+02
v -1.738715e+00 -2.433042e+01 1.256273e+02
v -1.738715e+00 2.433042e+01 1.256273e+02
v 3.707139e-15 -2.433042e+01 1.258470e+02
v 5.739199e-16 2.433042e+01 1.258470e+02
v 1.738715e+00 -2.433042e+01 1.256273e+02
v 1.738715e+00 2.433042e+01 1.256273e+02
v 3.368181e+00 -2.433042e+01 1.249822e+02
v 3.368181e+00 2.433042e+01 1.249822e+02
v 4.786011e+00 -2.433042e+01 1.239521e+02
v 4.786011e+00 2.433042e+01 1.239521e+02
v 5.903119e+00 -2.433042e+01 1.226017e+02
v 5.903119e+00 2.433042e+01 1.226017e+02
v 6.649312e+00 -2.433042e+01 1.210160e+02
v 6.649312e+00 2.433042e+01 1.210160e+02
v 6.977704e+00 -2.433042e+01 1.192945e+02
v 6.977704e+00 2.433042e+01 1.192945e+02
v 6.867661e+00 -2.433042e+01 1.175454e+02
v 6.867661e+00 2.433042e+01 1.175454e+02
v 6.326098e+00 -2.433042e+01 1.158787e+02
v 6.326098e+00 2.433042e+01 1.158787e+02
v 5.387043e+00 -2.433042e+01 1.143989e+02
v 5.387043e+00 2.433042e+01 1.143989e+02
v 4.109500e+00 -2.433042e+01 1.131993e+02
v 4.109500e+00 2.433042e+01 1.131993e+02
v 2.573743e+00 -2.433042e+01 1.123550e+02
v 2.573743e+00 2.433042e+01 1.123550e+02
v 8.762673e-01 -2.433042e+01 1.119191e+02
v 8.762673e-01 2.433042e+01 1.119191e+02
v -8.762673e-01 -2.433042e+01 1.119191e+02
v -8.762673e-01 2.433042e+01 1.119191e+02
v -2.573743e+00 -2.433042e+01 1.123550e+02
v -2.573743e+00 2.433042e+01 1.123550e+02
v -4.109500e+00 -2.433042e+01 1.131993e+02
v -4.109500e+00 2.433042e+01 1.131993e+02
v -5.387043e+00 -2.433042e+01 1.143989e+02
v -5.387043e+00 2.433042e+01 1.143989e+02
v -6.326098e+00 -2.433042e+01 1.158787e+02
v -6.326098e+00 2.433042e+01 1.158787e+02
v -6.867661e+00 -2.433042e+01 1.175454e+02
v -6.867661e+00 2.433042e+01 1.175454e+02
v -6.977704e+00 -2.433042e+01 1.192945e+02
v -6.977704e+00 2.433042e+01 1.192945e+02
v -6.649312e+00 -2.433042e+01 1.210160e+02
v -6.649312e+00 2.433042e+01 1.210160e+02
v -5.903119e+00 -2.433042e+01 1.226017e+02
v -5.903119e+00 2.433042e+01 1.226017e+02
v -4.786011e+00 -2.433042e+01 1.239521e+02
v -4.786011e+00 2.433042e+01 1.239521e+02
v -3.368181e+00 -2.433042e+01 1.249822e+02
v -3.368181e+00 2.433042e+01 1.249822e+02
v -1.738715e+00 -2.433042e+01 1.256273e+02
vn -0.481754 0.000000 0.876307
vn -0.248690 0.000000 0.968583
vn -0.248690 0.000000 0.968583
vn 0.000000 0.000000 1.000000
vn 0.000000 0.000000 1.000000
vn 0.248690 0.000000 0.968583
vn 0.248690 0.000000 0.968583
vn 0.481754 0.000000 0.876307
vn 0.481754 0.000000 0.876307
vn 0.684547 0.000000 0.728969
vn 0.684547 0.000000 0.728969
vn 0.844328 0.000000 0.535827
vn 0.844328 0.000000 0.535827
vn 0.951057 0.000000 0.309017
vn 0.951057 0.000000 0.309017
vn 0.998027 0.000000 0.062791
vn 0.998027 0.000000 0.062791
vn 0.982287 0.000000 -0.187381
vn 0.982287 0.000000 -0.187381
vn 0.904827 0.000000 -0.425779
vn 0.904827 0.000000 -0.425779
vn 0.770513 -0.000000 -0.637424
vn 0.770513 -0.000000 -0.637424
vn 0.587785 -0.000000 -0.809017
vn 0.587785 -0.000000 -0.809017
vn 0.368125 -0.000000 -0.929776
vn 0.368125 -0.000000 -0.929776
vn 0.125333 -0.000000 -0.992115
vn 0.125333 -0.000000 -0.992115
vn -0.125333 -0.000000 -0.992115
vn -0.125333 -0.000000 -0.992115
vn -0.368125 -0.000000 -0.929776
vn -0.368125 -0.000000 -0.929776
vn -0.587785 -0.000000 -0.809017
vn -0.587785 -0.000000 -0.809017
vn -0.770513 -0.000000 -0.637424
vn -0.770513 -0.000000 -0.637424
vn -0.904827 -0.000000 -0.425779
vn -0.904827 -0.000000 -0.425779
vn -0.982287 -0.000000 -0.187381
vn -0.982287 -0.000000 -0.187381
vn -0.998027 -0.000000 0.062791
vn -0.998027 -0.000000 0.062791
vn -0.951057 -0.000000 0.309017
vn -0.951057 -0.000000 0.309017
vn -0.844328 0.000000 0.535827
vn -0.844328 0.000000 0.535827
vn -0.684547 0.000000 0.728969
vn -0.684547 0.000000 0.728969
vn -0.481754 0.000000 0.876307
vn -0.481754 0.000000 0.876307
vn -0.248690 0.000000 0.968583
f -52//-52 -51//-51 -50//-50
f -50//-50 -51//-51 -49//-49
f -50//-50 -49//-49 -48//-48
f -48//-48 -49//-49 -47//-47
f -48//-48 -47//-47 -46//-46
f -46//-46 -47//-47 -45//-45
f -46//-46 -45//-45 -44//-44
f -44//-44 -45//-45 -43//-43
f -44//-44 -43//-43 -42//-42
f -42//-42 -43//-43 -41//-41
f -42//-42 -41//-41 -40//-40
f -40//-40 -41//-41 -39//-39
f -40//-40 -39//-39 -38//-38
f -38//-38 -39//-39 -37//-37
f -38//-38 -37//-37 -36//-36
f -36//-36 -37//-37 -35//-35
f -36//-36 -35//-35 -34//-34
f -34//-34 -35//-35 -33//-33
f -34//-34 -33//-33 -32//-32
f -32//-32 -33//-33 -31//-31
f -32//-32 -31//-31 -30//-30
f -30//-30 -31//-31 -29//-29
f -30//-30 -29//-29 -28//-28
f -28//-28 -29//-29 -27//-27
f -28//-28 -27//-27 -26//-26
f -26//-26 -27//-27 -25//-25
f -26//-26 -25//-25 -24//-24
f -24//-24 -25//-25 -23//-23
f -24//-24 -23//-23 -22//-22
f -22//-22 -23//-23 -21//-21
f -22//-22 -21//-21 -20//-20
f -20//-20 -21//-21 -19//-19
f -20//-20 -19//-19 -18//-18
f -18//-18 -19//-19 -17//-17
f -18//-18 -17//-17 -16//-16
f -16//-16 -17//-17 -15//-15
f -16//-16 -15//-15 -14//-14
f -14//-14 -15//-15 -13//-13
f -14//-14 -13//-13 -12//-12
f -12//-12 -13//-13 -11//-11
f -12//-12 -11//-11 -10//-10
f -10//-10 -11//-11 -9//-9
f -10//-10 -9//-9 -8//-8
f -8//-8 -9//-9 -7//-7
f -8//-8 -7//-7 -6//-6
f -6//-6 -7//-7 -5//-5
f -6//-6 -5//-5 -4//-4
f -4//-4 -5//-5 -3//-3
f -4//-4 -3//-3 -2//-2
f -2//-2 -3//-3 -1//-1
v 3.707139e-15 -2.433042e+01 1.258470e+02
v -1.738715e+00 -2.433042e+01 1.256273e+02
v 2.422821e-15 -2.433042e+01 1.188555e+02
v -3.368181e+00 -2.433042e+01 1.249822e+02
v -4.786011e+00 -2.433042e+01 1.239521e+02
vn 0.000000 -1.000000 0.000000
vn 0.000000 -1.000000 0.000000
vn 0.000000 -1.000000 0.000000
vn 0.000000 -1.000000 0.000000
vn 0.000000 -1.000000 0.000000
f -5//-5 -4//-4 -3//-3
f -3//-3 -4//-4 -2//-2
f -3//-3 -2//-2 -1//-1
v -4.786011e+00 -2.433042e+01 1.239521e+02
v -5.903119e+00 -2.433042e+01 1.226017e+02
v 2.422821e-15 -2.433042e+01 1.188555e+02
v -6.649312e+00 -2.433042e+01 1.210160e+02
v -6.977704e+00 -2.433042e+01 1.192945e+02
vn 0.000000 -1.000000 0.000000
vn 0.000000 -1.000000 0.000000
vn 0.000000 -1.000000 0.000000
vn 0.000000 -1.000000 0.000000
vn 0.000000 -1.000000 0.000000
f -5//-5 -4//-4 -3//-3
f -3//-3 -4//-4 -2//-2
f -3//-3 -2//-2 -1//-1
v -6.977704e+00 -2.433042e+01 1.192945e+02
v -6.867661e+00 -2.433042e+01 1.175454e+02
v 2.422821e-15 -2.433042e+01 1.188555e+02
v -6.326098e+00 -2.433042e+01 1.158787e+02
v -5.387043e+00 -2.433042e+01 1.143989e+02
vn 0.000000 -1.000000 0.000000
vn 0.000000 -1.000000 0.000000
vn 0.000000 -1.000000 0.000000
vn 0.000000 -1.000000 0.000000
vn 0.000000 -1.000000 0.000000
f -5//-5 -4//-4 -3//-3
f -3//-3 -4//-4 -2//-2
f -3//-3 -2//-2 -1//-1
v -5.387043e+00 -2.433042e+01 1.143989e+02
v -4.109500e+00 -2.433042e+01 1.131993e+02
v 2.422821e-15 -2.433042e+01 1.188555e+02
v -2.573743e+00 -2.433042e+01 1.123550e+02
v -8.762673e-01 -2.433042e+01 1.119191e+02
vn 0.000000 -1.000000 0.000000
vn 0.000000 -1.000000 0.000000
vn 0.000000 -1.000000 0.000000
vn 0.000000 -1.000000 0.000000
vn 0.000000 -1.000000 0.000000
f -5//-5 -4//-4 -3//-3
f -3//-3 -4//-4 -2//-2
f -3//-3 -2//-2 -1//-1
v -8.762673e-01 -2.433042e+01 1.119191e+02
v 8.762673e-01 -2.433042e+01 1.119191e+02
v 2.422821e-15 -2.433042e+01 1.188555e+02
v 2.573743e+00 -2.433042e+01 1.123550e+02
v 4.109500e+00 -2.433042e+01 1.131993e+02
vn 0.000000 -1.000000 0.000000
vn 0.000000 -1.000000 0.000000
vn 0.000000 -1.000000 0.000000
vn 0.000000 -1.000000 0.000000
vn 0.000000 -1.000000 0.000000
f -5//-5 -4//-4 -3//-3
f -3//-3 -4//-4 -2//-2
f -3//-3 -2//-2 -1//-1
v 4.109500e+00 -2.433042e+01 1.131993e+02
v 5.387043e+00 -2.433042e+01 1.143989e+02
v 2.422821e-15 -2.433042e+01 1.188555e+02
v 6.326098e+00 -2.433042e+01 1.158787e+02
v 6.867661e+00 -2.433042e+01 1.175454e+02
vn 0.000000 -1.000000 0.000000
vn 0.000000 -1.000000 0.000000
vn 0.000000 -1.000000 0.000000
vn 0.000000 -1.000000 0.000000
vn 0.000000 -1.000000 0.000000
f -5//-5 -4//-4 -3//-3
f -3//-3 -4//-4 -2//-2
f -3//-3 -2//-2 -1//-1
v 6.867661e+00 -2.433042e+01 1.175454e+02
v 6.977704e+00 -2.433042e+01 1.192945e+02
v 2.422821e-15 -2.433042e+01 1.188555e+02
v 6.649312e+00 -2.433042e+01 1.210160e+02
v 5.903119e+00 -2.433042e+01 1.226017e+02
vn 0.000000 -1.000000 0.000000
vn 0.000000 -1.000000 0.000000
vn 0.000000 -1.000000 0.000000
vn 0.000000 -1.000000 0.000000
vn 0.000000 -1.000000 0.000000
f -5//-5 -4//-4 -3//-3
f -3//-3 -4//-4 -2//-2
f -3//-3 -2//-2 -1//-1
v 5.903119e+00 -2.433042e+01 1.226017e+02
v 4.786011e+00 -2.433042e+01 1.239521e+02
v 2.422821e-15 -2.433042e+01 1.188555e+02
v 3.368181e+00 -2.433042e+01 1.249822e+02
v 1.738715e+00 -2.433042e+01 1.256273e+02
vn 0.000000 -1.000000 0.000000
vn 0.000000 -1.000000 0.000000
vn 0.000000 -1.000000 0.000000
vn 0.000000 -1.000000 0.000000
vn 0.000000 -1.000000 0.000000
f -5//-5 -4//-4 -3//-3
f -3//-3 -4//-4 -2//-2
f -3//-3 -2//-2 -1//-1
v 2.422821e-15 -2.433042e+01 1.188555e+02
v 1.738715e+00 -2.433042e+01 1.256273e+02
v 3.707139e-15 -2.433042e+01 1.258470e+02
vn 0.000000 -1.000000 0.000000
vn 0.000000 -1.000000 0.000000
vn 0.000000 -1.000000 0.000000
f -3//-3 -2//-2 -1//-1
v 5.739199e-16 2.433042e+01 1.258470e+02
v 1.738715e+00 2.433042e+01 1.256273e+02
v -2.422821e-15 2.433042e+01 1.188555e+02
v 3.368181e+00 2.433042e+01 1.249822e+02
v 4.786011e+00 2.433042e+01 1.239521e+02
vn -0.000000 1.000000 -0.000000
vn -0.000000 1.000000 -0.000000
vn -0.000000 1.000000 -0.000000
vn -0.000000 1.000000 -0.000000
vn -0.000000 1.000000 -0.000000
f -5//-5 -4//-4 -3//-3
f -3//-3 -4//-4 -2//-2
f -3//-3 -2//-2 -1//-1
v 4.786011e+00 2.433042e+01 1.239521e+02
v 5.903119e+00 2.433042e+01 1.226017e+02
v -2.422821e-15 2.433042e+01 1.188555e+02
v 6.649312e+00 2.433042e+01 1.210160e+02
v 6.977704e+00 2.433042e+01 1.192945e+02
vn -0.000000 1.000000 -0.000000
vn -0.000000 1.000000 -0.000000
vn -0.000000 1.000000 -0.000000
vn -0.000000 1.000000 -0.000000
vn -0.000000 1.000000 -0.000000
f -5//-5 -4//-4 -3//-3
f -3//-3 -4//-4 -2//-2
f -3//-3 -2//-2 -1//-1
v 6.977704e+00 2.433042e+01 1.192945e+02
v 6.867661e+00 2.433042e+01 1.175454e+02
v -2.422821e-15 2.433042e+01 1.188555e+02
v 6.326098e+00 2.433042e+01 1.158787e+02
v 5.387043e+00 2.433042e+01 1.143989e+02
vn -0.000000 1.000000 -0.000000
vn -0.000000 1.000000 -0.000000
vn -0.000000 1.000000 -0.000000
vn -0.000000 1.000000 -0.000000
vn -0.000000 1.000000 -0.000000
f -5//-5 -4//-4 -3//-3
f -3//-3 -4//-4 -2//-2
f -3//-3 -2//-2 -1//-1
v 5.387043e+00 2.433042e+01 1.143989e+02
v 4.109500e+00 2.433042e+01 1.131993e+02
v -2.422821e-15 2.433042e+01 1.188555e+02
v 2.573743e+00 2.433042e+01 1.123550e+02
v 8.762673e-01 2.433042e+01 1.119191e+02
vn -0.000000 1.000000 -0.000000
vn -0.000000 1.000000 -0.000000
vn -0.000000 1.000000 -0.000000
vn -0.000000 1.000000 -0.000000
vn -0.000000 1.000000 -0.000000
f -5//-5 -4//-4 -3//-3
f -3//-3 -4//-4 -2//-2
f -3//-3 -2//-2 -1//-1
v 8.762673e-01 2.433042e+01 1.119191e+02
v -8.762673e-01 2.433042e+01 1.119191e+02
v -2.422821e-15 2.433042e+01 1.188555e+02
v -2.573743e+00 2.433042e+01 1.123550e+02
v -4.109500e+00 2.433042e+01 1.131993e+02
vn -0.000000 1.000000 -0.000000
vn -0.000000 1.000000 -0.000000
vn -0.000000 1.000000 -0.000000
vn -0.000000 1.000000 -0.000000
vn -0.000000 1.000000 -0.000000
f -5//-5 -4//-4 -3//-3
f -3//-3 -4//-4 -2//-2
f -3//-3 -2//-2 -1//-1
v -4.109500e+00 2.433042e+01 1.131993e+02
v -5.387043e+00 2.433042e+01 1.143989e+02
v -2.422821e-15 2.433042e+01 1.188555e+02
v -6.326098e+00 2.433042e+01 1.158787e+02
v -6.867661e+00 2.433042e+01 1.175454e+02
vn -0.000000 1.000000 -0.000000
vn -0.000000 1.000000 -0.000000
vn -0.000000 1.000000 -0.000000
vn -0.000000 1.000000 -0.000000
vn -0.000000 1.000000 -0.000000
f -5//-5 -4//-4 -3//-3
f -3//-3 -4//-4 -2//-2
f -3//-3 -2//-2 -1//-1
v -6.867661e+00 2.433042e+01 1.175454e+02
v -6.977704e+00 2.433042e+01 1.192945e+02
v -2.422821e-15 2.433042e+01 1.188555e+02
v -6.649312e+00 2.433042e+01 1.210160e+02
v -5.903119e+00 2.433042e+01 1.226017e+02
vn -0.000000 1.000000 -0.000000
vn -0.000000 1.000000 -0.000000
vn -0.000000 1.000000 -0.000000
vn -0.000000 1.000000 -0.000000
vn -0.000000 1.000000 -0.000000
f -5//-5 -4//-4 -3//-3
f -3//-3 -4//-4 -2//-2
f -3//-3 -2//-2 -1//-1
v -5.903119e+00 2.433042e+01 1.226017e+02
v -4.786011e+00 2.433042e+01 1.239521e+02
v -2.422821e-15 2.433042e+01 1.188555e+02
v -3.368181e+00 2.433042e+01 1.249822e+02
v -1.738715e+00 2.433042e+01 1.256273e+02
vn -0.000000 1.000000 -0.000000
vn -0.000000 1.000000 -0.000000
vn -0.000000 1.000000 -0.000000
vn -0.000000 1.000000 -0.000000
vn -0.000000 1.000000 -0.000000
f -5//-5 -4//-4 -3//-3
f -3//-3 -4//-4 -2//-2
f -3//-3 -2//-2 -1//-1
v -2.422821e-15 2.433042e+01 1.188555e+02
v -1.738715e+00 2.433042e+01 1.256273e+02
v 5.739199e-16 2.433042e+01 1.258470e+02
vn -0.000000 1.000000 -0.000000
vn -0.000000 1.000000 -0.000000
vn -0.000000 1.000000 -0.000000
f -3//-3 -2//-2 -1//-1
