#
mtllib coax_Helix_7BU898.mtl
usemtl ffc18484
v 2.379213e+02 -7.074116e+00 -8.458200e+00
v 2.391361e+02 -4.829419e+00 -1.084582e+02
v 2.391361e+02 -4.829419e+00 -8.458200e+00
v 2.395562e+02 -2.311910e+00 -1.084582e+02
v 2.395562e+02 -2.311910e+00 -8.458200e+00
v 2.391361e+02 2.055986e-01 -1.084582e+02
v 2.391361e+02 2.055986e-01 -8.458200e+00
v 2.379213e+02 2.450296e+00 -1.084582e+02
v 2.379213e+02 2.450296e+00 -8.458200e+00
v 2.360435e+02 4.178935e+00 -1.084582e+02
v 2.360435e+02 4.178935e+00 -8.458200e+00
v 2.337062e+02 5.204190e+00 -1.084582e+02
v 2.337062e+02 5.204190e+00 -8.458200e+00
v 2.311626e+02 5.414958e+00 -1.084582e+02
v 2.311626e+02 5.414958e+00 -8.458200e+00
v 2.286883e+02 4.788401e+00 -1.084582e+02
v 2.286883e+02 4.788401e+00 -8.458200e+00
v 2.265516e+02 3.392415e+00 -1.084582e+02
v 2.265516e+02 3.392415e+00 -8.458200e+00
v 2.249840e+02 1.378277e+00 -1.084582e+02
v 2.249840e+02 1.378277e+00 -8.458200e+00
v 2.241552e+02 -1.035751e+00 -1.084582e+02
v 2.241552e+02 -1.035751e+00 -8.458200e+00
v 2.241552e+02 -3.588069e+00 -1.084582e+02
v 2.241552e+02 -3.588069e+00 -8.458200e+00
v 2.249840e+02 -6.002097e+00 -1.084582e+02
v 2.249840e+02 -6.002097e+00 -8.458200e+00
v 2.265516e+02 -8.016235e+00 -1.084582e+02
v 2.265516e+02 -8.016235e+00 -8.458200e+00
v 2.286883e+02 -9.412221e+00 -1.084582e+02
v 2.286883e+02 -9.412221e+00 -8.458200e+00
v 2.311626e+02 -1.003878e+01 -1.084582e+02
v 2.311626e+02 -1.003878e+01 -8.458200e+00
v 2.337062e+02 -9.828010e+00 -1.084582e+02
v 2.337062e+02 -9.828010e+00 -8.458200e+00
v 2.360435e+02 -8.802754e+00 -1.084582e+02
v 2.360435e+02 -8.802754e+00 -8.458200e+00
v 2.379213e+02 -7.074116e+00 -1.084582e+02
v 2.379213e+02 -7.074116e+00 -8.458200e+00
v 2.391361e+02 -4.829419e+00 -1.084582e+02
vn 0.789141 -0.614213 0.000000
vn 0.945817 -0.324699 0.000000
vn 0.945817 -0.324699 0.000000
vn 1.000000 0.000000 0.000000
vn 1.000000 0.000000 0.000000
vn 0.945817 0.324699 0.000000
vn 0.945817 0.324699 0.000000
vn 0.789141 0.614213 0.000000
vn 0.789141 0.614213 0.000000
vn 0.546948 0.837166 0.000000
vn 0.546948 0.837166 0.000000
vn 0.245485 0.969400 0.000000
vn 0.245485 0.969400 0.000000
vn -0.082579 0.996584 0.000000
vn -0.082579 0.996584 0.000000
vn -0.401695 0.915773 0.000000
vn -0.401695 0.915773 0.000000
vn -0.677282 0.735724 0.000000
vn -0.677282 0.735724 0.000000
vn -0.879474 0.475947 0.000000
vn -0.879474 0.475947 0.000000
vn -0.986361 0.164595 0.000000
vn -0.986361 0.164595 0.000000
vn -0.986361 -0.164595 -0.000000
vn -0.986361 -0.164595 -0.000000
vn -0.879474 -0.475947 -0.000000
vn -0.879474 -0.475947 -0.000000
vn -0.677282 -0.735724 -0.000000
vn -0.677282 -0.735724 -0.000000
vn -0.401695 -0.915773 -0.000000
vn -0.401695 -0.915773 -0.000000
vn -0.082579 -0.996584 -0.000000
vn -0.082579 -0.996584 -0.000000
vn 0.245485 -0.969400 0.000000
vn 0.245485 -0.969400 0.000000
vn 0.546948 -0.837166 0.000000
vn 0.546948 -0.837166 0.000000
vn 0.789141 -0.614213 0.000000
vn 0.789141 -0.614213 0.000000
vn 0.945817 -0.324699 0.000000
f -40//-40 -39//-39 -38//-38
f -38//-38 -39//-39 -37//-37
f -38//-38 -37//-37 -36//-36
f -36//-36 -37//-37 -35//-35
f -36//-36 -35//-35 -34//-34
f -34//-34 -35//-35 -33//-33
f -34//-34 -33//-33 -32//-32
f -32//-32 -33//-33 -31//-31
f -32//-32 -31//-31 -30//-30
f -30//-30 -31//-31 -29//-29
f -30//-30 -29//-29 -28//-28
f -28//-28 -29//-29 -27//-27
f -28//-28 -27//-27 -26//-26
f -26//-26 -27//-27 -25//-25
f -26//-26 -25//-25 -24//-24
f -24//-24 -25//-25 -23//-23
f -24//-24 -23//-23 -22//-22
f -22//-22 -23//-23 -21//-21
f -22//-22 -21//-21 -20//-20
f -20//-20 -21//-21 -19//-19
f -20//-20 -19//-19 -18//-18
f -18//-18 -19//-19 -17//-17
f -18//-18 -17//-17 -16//-16
f -16//-16 -17//-17 -15//-15
f -16//-16 -15//-15 -14//-14
f -14//-14 -15//-15 -13//-13
f -14//-14 -13//-13 -12//-12
f -12//-12 -13//-13 -11//-11
f -12//-12 -11//-11 -10//-10
f -10//-10 -11//-11 -9//-9
f -10//-10 -9//-9 -8//-8
f -8//-8 -9//-9 -7//-7
f -8//-8 -7//-7 -6//-6
f -6//-6 -7//-7 -5//-5
f -6//-6 -5//-5 -4//-4
f -4//-4 -5//-5 -3//-3
f -4//-4 -3//-3 -2//-2
f -2//-2 -3//-3 -1//-1
v 2.395562e+02 -2.311910e+00 -1.084582e+02
v 2.391361e+02 -4.829419e+00 -1.084582e+02
v 2.318028e+02 -2.311910e+00 -1.084582e+02
v 2.379213e+02 -7.074116e+00 -1.084582e+02
v 2.360435e+02 -8.802754e+00 -1.084582e+02
vn 0.000000 0.000000 -1.000000
vn 0.000000 0.000000 -1.000000
vn 0.000000 0.000000 -1.000000
vn 0.000000 0.000000 -1.000000
vn 0.000000 0.000000 -1.000000
f -5//-5 -4//-4 -3//-3
f -3//-3 -4//-4 -2//-2
f -3//-3 -2//-2 -1//-1
v 2.360435e+02 -8.802754e+00 -1.084582e+02
v 2.337062e+02 -9.828010e+00 -1.084582e+02
v 2.318028e+02 -2.311910e+00 -1.084582e+02
v 2.311626e+02 -1.003878e+01 -1.084582e+02
v 2.286883e+02 -9.412221e+00 -1.084582e+02
vn 0.000000 0.000000 -1.000000
vn 0.000000 0.000000 -1.000000
vn 0.000000 0.000000 -1.000000
vn 0.000000 0.000000 -1.000000
vn 0.000000 0.000000 -1.000000
f -5//-5 -4//-4 -3//-3
f -3//-3 -4//-4 -2//-2
f -3//-3 -2//-2 -1//-1
v 2.286883e+02 -9.412221e+00 -1.084582e+02
v 2.265516e+02 -8.016235e+00 -1.084582e+02
v 2.318028e+02 -2.311910e+00 -1.084582e+02
v 2.249840e+02 -6.002097e+00 -1.084582e+02
v 2.241552e+02 -3.588069e+00 -1.084582e+02
vn 0.000000 0.000000 -1.000000
vn 0.000000 0.000000 -1.000000
vn 0.000000 0.000000 -1.000000
vn 0.000000 0.000000 -1.000000
vn 0.000000 0.000000 -1.000000
f -5//-5 -4//-4 -3//-3
f -3//-3 -4//-4 -2//-2
f -3//-3 -2//-2 -1//-1
v 2.241552e+02 -3.588069e+00 -1.084582e+02
v 2.241552e+02 -1.035751e+00 -1.084582e+02
v 2.318028e+02 -2.311910e+00 -1.084582e+02
v 2.249840e+02 1.378277e+00 -1.084582e+02
v 2.265516e+02 3.392415e+00 -1.084582e+02
vn 0.000000 0.000000 -1.000000
vn 0.000000 0.000000 -1.000000
vn 0.000000 0.000000 -1.000000
vn 0.000000 0.000000 -1.000000
vn 0.000000 0.000000 -1.000000
f -5//-5 -4//-4 -3//-3
f -3//-3 -4//-4 -2//-2
f -3//-3 -2//-2 -1//-1
v 2.265516e+02 3.392415e+00 -1.084582e+02
v 2.286883e+02 4.788401e+00 -1.084582e+02
v 2.318028e+02 -2.311910e+00 -1.084582e+02
v 2.311626e+02 5.414958e+00 -1.084582e+02
v 2.337062e+02 5.204190e+00 -1.084582e+02
vn 0.000000 0.000000 -1.000000
vn 0.000000 0.000000 -1.000000
vn 0.000000 0.000000 -1.000000
vn 0.000000 0.000000 -1.000000
vn 0.000000 0.000000 -1.000000
f -5//-5 -4//-4 -3//-3
f -3//-3 -4//-4 -2//-2
f -3//-3 -2//-2 -1//-1
v 2.337062e+02 5.204190e+00 -1.084582e+02
v 2.360435e+02 4.178935e+00 -1.084582e+02
v 2.318028e+02 -2.311910e+00 -1.084582e+02
v 2.379213e+02 2.450296e+00 -1.084582e+02
v 2.391361e+02 2.055986e-01 -1.084582e+02
vn 0.000000 0.000000 -1.000000
vn 0.000000 0.000000 -1.000000
vn 0.000000 0.000000 -1.000000
vn 0.000000 0.000000 -1.000000
vn 0.000000 0.000000 -1.000000
f -5//-5 -4//-4 -3//-3
f -3//-3 -4//-4 -2//-2
f -3//-3 -2//-2 -1//-1
v 2.318028e+02 -2.311910e+00 -1.084582e+02
v 2.391361e+02 2.055986e-01 -1.084582e+02
v 2.395562e+02 -2.311910e+00 -1.084582e+02
vn 0.000000 0.000000 -1.000000
vn 0.000000 0.000000 -1.000000
vn 0.000000 0.000000 -1.000000
f -3//-3 -2//-2 -1//-1
v 2.395562e+02 -2.311910e+00 -8.458200e+00
v 2.391361e+02 2.055986e-01 -8.458200e+00
v 2.318028e+02 -2.311910e+00 -8.458200e+00
v 2.379213e+02 2.450296e+00 -8.458200e+00
v 2.360435e+02 4.178935e+00 -8.458200e+00
vn -0.000000 -0.000000 1.000000
vn -0.000000 -0.000000 1.000000
vn -0.000000 -0.000000 1.000000
vn -0.000000 -0.000000 1.000000
vn -0.000000 -0.000000 1.000000
f -5//-5 -4//-4 -3//-3
f -3//-3 -4//-4 -2//-2
f -3//-3 -2//-2 -1//-1
v 2.360435e+02 4.178935e+00 -8.458200e+00
v 2.337062e+02 5.204190e+00 -8.458200e+00
v 2.318028e+02 -2.311910e+00 -8.458200e+00
v 2.311626e+02 5.414958e+00 -8.458200e+00
v 2.286883e+02 4.788401e+00 -8.458200e+00
vn -0.000000 -0.000000 1.000000
vn -0.000000 -0.000000 1.000000
vn -0.000000 -0.000000 1.000000
vn -0.000000 -0.000000 1.000000
vn -0.000000 -0.000000 1.000000
f -5//-5 -4//-4 -3//-3
f -3//-3 -4//-4 -2//-2
f -3//-3 -2//-2 -1//-1
v 2.286883e+02 4.788401e+00 -8.458200e+00
v 2.265516e+02 3.392415e+00 -8.458200e+00
v 2.318028e+02 -2.311910e+00 -8.458200e+00
v 2.249840e+02 1.378277e+00 -8.458200e+00
v 2.241552e+02 -1.035751e+00 -8.458200e+00
vn -0.000000 -0.000000 1.000000
vn -0.000000 -0.000000 1.000000
vn -0.000000 -0.000000 1.000000
vn -0.000000 -0.000000 1.000000
vn -0.000000 -0.000000 1.000000
f -5//-5 -4//-4 -3//-3
f -3//-3 -4//-4 -2//-2
f -3//-3 -2//-2 -1//-1
v 2.241552e+02 -1.035751e+00 -8.458200e+00
v 2.241552e+02 -3.588069e+00 -8.458200e+00
v 2.318028e+02 -2.311910e+00 -8.458200e+00
v 2.249840e+02 -6.002097e+00 -8.458200e+00
v 2.265516e+02 -8.016235e+00 -8.458200e+00
vn -0.000000 -0.000000 1.000000
vn -0.000000 -0.000000 1.000000
vn -0.000000 -0.000000 1.000000
vn -0.000000 -0.000000 1.000000
vn -0.000000 -0.000000 1.000000
f -5//-5 -4//-4 -3//-3
f -3//-3 -4//-4 -2//-2
f -3//-3 -2//-2 -1//-1
v 2.265516e+02 -8.016235e+00 -8.458200e+00
v 2.286883e+02 -9.412221e+00 -8.458200e+00
v 2.318028e+02 -2.311910e+00 -8.458200e+00
v 2.311626e+02 -1.003878e+01 -8.458200e+00
v 2.337062e+02 -9.828010e+00 -8.458200e+00
vn -0.000000 -0.000000 1.000000
vn -0.000000 -0.000000 1.000000
vn -0.000000 -0.000000 1.000000
vn -0.000000 -0.000000 1.000000
vn -0.000000 -0.000000 1.000000
f -5//-5 -4//-4 -3//-3
f -3//-3 -4//-4 -2//-2
f -3//-3 -2//-2 -1//-1
v 2.337062e+02 -9.828010e+00 -8.458200e+00
v 2.360435e+02 -8.802754e+00 -8.458200e+00
v 2.318028e+02 -2.311910e+00 -8.458200e+00
v 2.379213e+02 -7.074116e+00 -8.458200e+00
v 2.391361e+02 -4.829419e+00 -8.458200e+00
vn -0.000000 -0.000000 1.000000
vn -0.000000 -0.000000 1.000000
vn -0.000000 -0.000000 1.000000
vn -0.000000 -0.000000 1.000000
vn -0.000000 -0.000000 1.000000
f -5//-5 -4//-4 -3//-3
f -3//-3 -4//-4 -2//-2
f -3//-3 -2//-2 -1//-1
v 2.318028e+02 -2.311910e+00 -8.458200e+00
v 2.391361e+02 -4.829419e+00 -8.458200e+00
v 2.395562e+02 -2.311910e+00 -8.458200e+00
vn -0.000000 -0.000000 1.000000
vn -0.000000 -0.000000 1.000000
vn -0.000000 -0.000000 1.000000
f -3//-3 -2//-2 -1//-1
