#
mtllib Feed1_Helix_7BU898.mtl
usemtl ffe8f2f7
v 2.329588e+02 -4.314083e+00 -8.458200e+00
v 2.338050e+02 -3.467865e+00 -1.084582e+02
v 2.338050e+02 -3.467865e+00 -8.458200e+00
v 2.341147e+02 -2.311910e+00 -1.084582e+02
v 2.341147e+02 -2.311910e+00 -8.458200e+00
v 2.338050e+02 -1.155955e+00 -1.084582e+02
v 2.338050e+02 -1.155955e+00 -8.458200e+00
v 2.329588e+02 -3.097372e-01 -1.084582e+02
v 2.329588e+02 -3.097372e-01 -8.458200e+00
v 2.318028e+02 0.000000e+00 -1.084582e+02
v 2.318028e+02 0.000000e+00 -8.458200e+00
v 2.306469e+02 -3.097372e-01 -1.084582e+02
v 2.306469e+02 -3.097372e-01 -8.458200e+00
v 2.298007e+02 -1.155955e+00 -1.084582e+02
v 2.298007e+02 -1.155955e+00 -8.458200e+00
v 2.294909e+02 -2.311910e+00 -1.084582e+02
v 2.294909e+02 -2.311910e+00 -8.458200e+00
v 2.298007e+02 -3.467865e+00 -1.084582e+02
v 2.298007e+02 -3.467865e+00 -8.458200e+00
v 2.306469e+02 -4.314083e+00 -1.084582e+02
v 2.306469e+02 -4.314083e+00 -8.458200e+00
v 2.318028e+02 -4.623820e+00 -1.084582e+02
v 2.318028e+02 -4.623820e+00 -8.458200e+00
v 2.329588e+02 -4.314083e+00 -1.084582e+02
v 2.329588e+02 -4.314083e+00 -8.458200e+00
v 2.338050e+02 -3.467865e+00 -1.084582e+02
vn 0.500000 -0.866025 0.000000
vn 0.866025 -0.500000 0.000000
vn 0.866025 -0.500000 0.000000
vn 1.000000 0.000000 0.000000
vn 1.000000 0.000000 0.000000
vn 0.866025 0.500000 0.000000
vn 0.866025 0.500000 0.000000
vn 0.500000 0.866025 0.000000
vn 0.500000 0.866025 0.000000
vn -0.000000 1.000000 0.000000
vn -0.000000 1.000000 0.000000
vn -0.500000 0.866025 0.000000
vn -0.500000 0.866025 0.000000
vn -0.866025 0.500000 0.000000
vn -0.866025 0.500000 0.000000
vn -1.000000 -0.000000 -0.000000
vn -1.000000 -0.000000 -0.000000
vn -0.866025 -0.500000 -0.000000
vn -0.866025 -0.500000 -0.000000
vn -0.500000 -0.866025 -0.000000
vn -0.500000 -0.866025 -0.000000
vn 0.000000 -1.000000 0.000000
vn 0.000000 -1.000000 0.000000
vn 0.500000 -0.866025 0.000000
vn 0.500000 -0.866025 0.000000
vn 0.866025 -0.500000 0.000000
f -26//-26 -25//-25 -24//-24
f -24//-24 -25//-25 -23//-23
f -24//-24 -23//-23 -22//-22
f -22//-22 -23//-23 -21//-21
f -22//-22 -21//-21 -20//-20
f -20//-20 -21//-21 -19//-19
f -20//-20 -19//-19 -18//-18
f -18//-18 -19//-19 -17//-17
f -18//-18 -17//-17 -16//-16
f -16//-16 -17//-17 -15//-15
f -16//-16 -15//-15 -14//-14
f -14//-14 -15//-15 -13//-13
f -14//-14 -13//-13 -12//-12
f -12//-12 -13//-13 -11//-11
f -12//-12 -11//-11 -10//-10
f -10//-10 -11//-11 -9//-9
f -10//-10 -9//-9 -8//-8
f -8//-8 -9//-9 -7//-7
f -8//-8 -7//-7 -6//-6
f -6//-6 -7//-7 -5//-5
f -6//-6 -5//-5 -4//-4
f -4//-4 -5//-5 -3//-3
f -4//-4 -3//-3 -2//-2
f -2//-2 -3//-3 -1//-1
v 2.341147e+02 -2.311910e+00 -1.084582e+02
v 2.338050e+02 -3.467865e+00 -1.084582e+02
v 2.318028e+02 -2.311910e+00 -1.084582e+02
v 2.329588e+02 -4.314083e+00 -1.084582e+02
v 2.318028e+02 -4.623820e+00 -1.084582e+02
vn 0.000000 0.000000 -1.000000
vn 0.000000 0.000000 -1.000000
vn 0.000000 0.000000 -1.000000
vn 0.000000 0.000000 -1.000000
vn 0.000000 0.000000 -1.000000
f -5//-5 -4//-4 -3//-3
f -3//-3 -4//-4 -2//-2
f -3//-3 -2//-2 -1//-1
v 2.318028e+02 -4.623820e+00 -1.084582e+02
v 2.306469e+02 -4.314083e+00 -1.084582e+02
v 2.318028e+02 -2.311910e+00 -1.084582e+02
v 2.298007e+02 -3.467865e+00 -1.084582e+02
v 2.294909e+02 -2.311910e+00 -1.084582e+02
vn 0.000000 0.000000 -1.000000
vn 0.000000 0.000000 -1.000000
vn 0.000000 0.000000 -1.000000
vn 0.000000 0.000000 -1.000000
vn 0.000000 0.000000 -1.000000
f -5//-5 -4//-4 -3//-3
f -3//-3 -4//-4 -2//-2
f -3//-3 -2//-2 -1//-1
v 2.294909e+02 -2.311910e+00 -1.084582e+02
v 2.298007e+02 -1.155955e+00 -1.084582e+02
v 2.318028e+02 -2.311910e+00 -1.084582e+02
v 2.306469e+02 -3.097372e-01 -1.084582e+02
v 2.318028e+02 0.000000e+00 -1.084582e+02
vn 0.000000 0.000000 -1.000000
vn 0.000000 0.000000 -1.000000
vn 0.000000 0.000000 -1.000000
vn 0.000000 0.000000 -1.000000
vn 0.000000 0.000000 -1.000000
f -5//-5 -4//-4 -3//-3
f -3//-3 -4//-4 -2//-2
f -3//-3 -2//-2 -1//-1
v 2.318028e+02 0.000000e+00 -1.084582e+02
v 2.329588e+02 -3.097372e-01 -1.084582e+02
v 2.318028e+02 -2.311910e+00 -1.084582e+02
v 2.338050e+02 -1.155955e+00 -1.084582e+02
v 2.341147e+02 -2.311910e+00 -1.084582e+02
vn 0.000000 0.000000 -1.000000
vn 0.000000 0.000000 -1.000000
vn 0.000000 0.000000 -1.000000
vn 0.000000 0.000000 -1.000000
vn 0.000000 0.000000 -1.000000
f -5//-5 -4//-4 -3//-3
f -3//-3 -4//-4 -2//-2
f -3//-3 -2//-2 -1//-1
v 2.341147e+02 -2.311910e+00 -8.458200e+00
v 2.338050e+02 -1.155955e+00 -8.458200e+00
v 2.318028e+02 -2.311910e+00 -8.458200e+00
v 2.329588e+02 -3.097372e-01 -8.458200e+00
v 2.318028e+02 0.000000e+00 -8.458200e+00
vn -0.000000 -0.000000 1.000000
vn -0.000000 -0.000000 1.000000
vn -0.000000 -0.000000 1.000000
vn -0.000000 -0.000000 1.000000
vn -0.000000 -0.000000 1.000000
f -5//-5 -4//-4 -3//-3
f -3//-3 -4//-4 -2//-2
f -3//-3 -2//-2 -1//-1
v 2.318028e+02 0.000000e+00 -8.458200e+00
v 2.306469e+02 -3.097372e-01 -8.458200e+00
v 2.318028e+02 -2.311910e+00 -8.458200e+00
v 2.298007e+02 -1.155955e+00 -8.458200e+00
v 2.294909e+02 -2.311910e+00 -8.458200e+00
vn -0.000000 -0.000000 1.000000
vn -0.000000 -0.000000 1.000000
vn -0.000000 -0.000000 1.000000
vn -0.000000 -0.000000 1.000000
vn -0.000000 -0.000000 1.000000
f -5//-5 -4//-4 -3//-3
f -3//-3 -4//-4 -2//-2
f -3//-3 -2//-2 -1//-1
v 2.294909e+02 -2.311910e+00 -8.458200e+00
v 2.298007e+02 -3.467865e+00 -8.458200e+00
v 2.318028e+02 -2.311910e+00 -8.458200e+00
v 2.306469e+02 -4.314083e+00 -8.458200e+00
v 2.318028e+02 -4.623820e+00 -8.458200e+00
vn -0.000000 -0.000000 1.000000
vn -0.000000 -0.000000 1.000000
vn -0.000000 -0.000000 1.000000
vn -0.000000 -0.000000 1.000000
vn -0.000000 -0.000000 1.000000
f -5//-5 -4//-4 -3//-3
f -3//-3 -4//-4 -2//-2
f -3//-3 -2//-2 -1//-1
v 2.318028e+02 -4.623820e+00 -8.458200e+00
v 2.329588e+02 -4.314083e+00 -8.458200e+00
v 2.318028e+02 -2.311910e+00 -8.458200e+00
v 2.338050e+02 -3.467865e+00 -8.458200e+00
v 2.341147e+02 -2.311910e+00 -8.458200e+00
vn -0.000000 -0.000000 1.000000
vn -0.000000 -0.000000 1.000000
vn -0.000000 -0.000000 1.000000
vn -0.000000 -0.000000 1.000000
vn -0.000000 -0.000000 1.000000
f -5//-5 -4//-4 -3//-3
f -3//-3 -4//-4 -2//-2
f -3//-3 -2//-2 -1//-1
