#
mtllib port_Helix_7BU898.mtl
usemtl ff000080
v 2.395562e+02 -2.311910e+00 -1.084582e+02
v 2.395107e+02 -1.473625e+00 -1.084582e+02
v 2.318028e+02 -2.311910e+00 -1.084582e+02
v 2.393749e+02 -6.451690e-01 -1.084582e+02
v 2.391503e+02 1.637465e-01 -1.084582e+02
vn 0.000000 0.000000 1.000000
vn 0.000000 0.000000 1.000000
vn 0.000000 0.000000 1.000000
vn 0.000000 0.000000 1.000000
vn 0.000000 0.000000 1.000000
f -5//-5 -4//-4 -3//-3
f -3//-3 -4//-4 -2//-2
f -3//-3 -2//-2 -1//-1
v 2.391503e+02 1.637465e-01 -1.084582e+02
v 2.388396e+02 9.436372e-01 -1.084582e+02
v 2.318028e+02 -2.311910e+00 -1.084582e+02
v 2.384464e+02 1.685359e+00 -1.084582e+02
v 2.379752e+02 2.380218e+00 -1.084582e+02
vn 0.000000 0.000000 1.000000
vn 0.000000 0.000000 1.000000
vn 0.000000 0.000000 1.000000
vn 0.000000 0.000000 1.000000
vn 0.000000 0.000000 1.000000
f -5//-5 -4//-4 -3//-3
f -3//-3 -4//-4 -2//-2
f -3//-3 -2//-2 -1//-1
v 2.379752e+02 2.380218e+00 -1.084582e+02
v 2.374317e+02 3.020065e+00 -1.084582e+02
v 2.318028e+02 -2.311910e+00 -1.084582e+02
v 2.368222e+02 3.597399e+00 -1.084582e+02
v 2.361539e+02 4.105453e+00 -1.084582e+02
vn 0.000000 0.000000 1.000000
vn 0.000000 0.000000 1.000000
vn 0.000000 0.000000 1.000000
vn 0.000000 0.000000 1.000000
vn 0.000000 0.000000 1.000000
f -5//-5 -4//-4 -3//-3
f -3//-3 -4//-4 -2//-2
f -3//-3 -2//-2 -1//-1
v 2.361539e+02 4.105453e+00 -1.084582e+02
v 2.354346e+02 4.538268e+00 -1.084582e+02
v 2.318028e+02 -2.311910e+00 -1.084582e+02
v 2.346726e+02 4.890772e+00 -1.084582e+02
v 2.338771e+02 5.158830e+00 -1.084582e+02
vn 0.000000 0.000000 1.000000
vn 0.000000 0.000000 1.000000
vn 0.000000 0.000000 1.000000
vn 0.000000 0.000000 1.000000
vn 0.000000 0.000000 1.000000
f -5//-5 -4//-4 -3//-3
f -3//-3 -4//-4 -2//-2
f -3//-3 -2//-2 -1//-1
v 2.338771e+02 5.158830e+00 -1.084582e+02
v 2.330572e+02 5.339302e+00 -1.084582e+02
v 2.318028e+02 -2.311910e+00 -1.084582e+02
v 2.322226e+02 5.430069e+00 -1.084582e+02
v 2.313831e+02 5.430069e+00 -1.084582e+02
vn 0.000000 0.000000 1.000000
vn 0.000000 0.000000 1.000000
vn 0.000000 0.000000 1.000000
vn 0.000000 0.000000 1.000000
vn 0.000000 0.000000 1.000000
f -5//-5 -4//-4 -3//-3
f -3//-3 -4//-4 -2//-2
f -3//-3 -2//-2 -1//-1
v 2.313831e+02 5.430069e+00 -1.084582e+02
v 2.305485e+02 5.339302e+00 -1.084582e+02
v 2.318028e+02 -2.311910e+00 -1.084582e+02
v 2.297286e+02 5.158830e+00 -1.084582e+02
v 2.289330e+02 4.890772e+00 -1.084582e+02
vn 0.000000 0.000000 1.000000
vn 0.000000 0.000000 1.000000
vn 0.000000 0.000000 1.000000
vn 0.000000 0.000000 1.000000
vn 0.000000 0.000000 1.000000
f -5//-5 -4//-4 -3//-3
f -3//-3 -4//-4 -2//-2
f -3//-3 -2//-2 -1//-1
v 2.289330e+02 4.890772e+00 -1.084582e+02
v 2.281711e+02 4.538268e+00 -1.084582e+02
v 2.318028e+02 -2.311910e+00 -1.084582e+02
v 2.274518e+02 4.105453e+00 -1.084582e+02
v 2.267834e+02 3.597399e+00 -1.084582e+02
vn 0.000000 0.000000 1.000000
vn 0.000000 0.000000 1.000000
vn 0.000000 0.000000 1.000000
vn 0.000000 0.000000 1.000000
vn 0.000000 0.000000 1.000000
f -5//-5 -4//-4 -3//-3
f -3//-3 -4//-4 -2//-2
f -3//-3 -2//-2 -1//-1
v 2.267834e+02 3.597399e+00 -1.084582e+02
v 2.261739e+02 3.020065e+00 -1.084582e+02
v 2.318028e+02 -2.311910e+00 -1.084582e+02
v 2.256304e+02 2.380218e+00 -1.084582e+02
v 2.251593e+02 1.685359e+00 -1.084582e+02
vn 0.000000 0.000000 1.000000
vn 0.000000 0.000000 1.000000
vn 0.000000 0.000000 1.000000
vn 0.000000 0.000000 1.000000
vn 0.000000 0.000000 1.000000
f -5//-5 -4//-4 -3//-3
f -3//-3 -4//-4 -2//-2
f -3//-3 -2//-2 -1//-1
v 2.251593e+02 1.685359e+00 -1.084582e+02
v 2.247661e+02 9.436372e-01 -1.084582e+02
v 2.318028e+02 -2.311910e+00 -1.084582e+02
v 2.244553e+02 1.637465e-01 -1.084582e+02
v 2.242307e+02 -6.451690e-01 -1.084582e+02
vn 0.000000 0.000000 1.000000
vn 0.000000 0.000000 1.000000
vn 0.000000 0.000000 1.000000
vn 0.000000 0.000000 1.000000
vn 0.000000 0.000000 1.000000
f -5//-5 -4//-4 -3//-3
f -3//-3 -4//-4 -2//-2
f -3//-3 -2//-2 -1//-1
v 2.242307e+02 -6.451690e-01 -1.084582e+02
v 2.240949e+02 -1.473625e+00 -1.084582e+02
v 2.318028e+02 -2.311910e+00 -1.084582e+02
v 2.240495e+02 -2.311910e+00 -1.084582e+02
v 2.240949e+02 -3.150195e+00 -1.084582e+02
vn 0.000000 0.000000 1.000000
vn 0.000000 0.000000 1.000000
vn 0.000000 0.000000 1.000000
vn 0.000000 0.000000 1.000000
vn 0.000000 0.000000 1.000000
f -5//-5 -4//-4 -3//-3
f -3//-3 -4//-4 -2//-2
f -3//-3 -2//-2 -1//-1
v 2.240949e+02 -3.150195e+00 -1.084582e+02
v 2.242307e+02 -3.978651e+00 -1.084582e+02
v 2.318028e+02 -2.311910e+00 -1.084582e+02
v 2.244553e+02 -4.787567e+00 -1.084582e+02
v 2.247661e+02 -5.567457e+00 -1.084582e+02
vn 0.000000 0.000000 1.000000
vn 0.000000 0.000000 1.000000
vn 0.000000 0.000000 1.000000
vn 0.000000 0.000000 1.000000
vn 0.000000 0.000000 1.000000
f -5//-5 -4//-4 -3//-3
f -3//-3 -4//-4 -2//-2
f -3//-3 -2//-2 -1//-1
v 2.247661e+02 -5.567457e+00 -1.084582e+02
v 2.251593e+02 -6.309179e+00 -1.084582e+02
v 2.318028e+02 -2.311910e+00 -1.084582e+02
v 2.256304e+02 -7.004037e+00 -1.084582e+02
v 2.261739e+02 -7.643885e+00 -1.084582e+02
vn 0.000000 0.000000 1.000000
vn 0.000000 0.000000 1.000000
vn 0.000000 0.000000 1.000000
vn 0.000000 0.000000 1.000000
vn 0.000000 0.000000 1.000000
f -5//-5 -4//-4 -3//-3
f -3//-3 -4//-4 -2//-2
f -3//-3 -2//-2 -1//-1
v 2.261739e+02 -7.643885e+00 -1.084582e+02
v 2.267834e+02 -8.221219e+00 -1.084582e+02
v 2.318028e+02 -2.311910e+00 -1.084582e+02
v 2.274518e+02 -8.729273e+00 -1.084582e+02
v 2.281711e+02 -9.162088e+00 -1.084582e+02
vn 0.000000 0.000000 1.000000
vn 0.000000 0.000000 1.000000
vn 0.000000 0.000000 1.000000
vn 0.000000 0.000000 1.000000
vn 0.000000 0.000000 1.000000
f -5//-5 -4//-4 -3//-3
f -3//-3 -4//-4 -2//-2
f -3//-3 -2//-2 -1//-1
v 2.281711e+02 -9.162088e+00 -1.084582e+02
v 2.289330e+02 -9.514591e+00 -1.084582e+02
v 2.318028e+02 -2.311910e+00 -1.084582e+02
v 2.297286e+02 -9.782650e+00 -1.084582e+02
v 2.305485e+02 -9.963121e+00 -1.084582e+02
vn 0.000000 0.000000 1.000000
vn 0.000000 0.000000 1.000000
vn 0.000000 0.000000 1.000000
vn 0.000000 0.000000 1.000000
vn 0.000000 0.000000 1.000000
f -5//-5 -4//-4 -3//-3
f -3//-3 -4//-4 -2//-2
f -3//-3 -2//-2 -1//-1
v 2.305485e+02 -9.963121e+00 -1.084582e+02
v 2.313831e+02 -1.005389e+01 -1.084582e+02
v 2.318028e+02 -2.311910e+00 -1.084582e+02
v 2.322226e+02 -1.005389e+01 -1.084582e+02
v 2.330572e+02 -9.963121e+00 -1.084582e+02
vn 0.000000 0.000000 1.000000
vn 0.000000 0.000000 1.000000
vn 0.000000 0.000000 1.000000
vn 0.000000 0.000000 1.000000
vn 0.000000 0.000000 1.000000
f -5//-5 -4//-4 -3//-3
f -3//-3 -4//-4 -2//-2
f -3//-3 -2//-2 -1//-1
v 2.330572e+02 -9.963121e+00 -1.084582e+02
v 2.338771e+02 -9.782650e+00 -1.084582e+02
v 2.318028e+02 -2.311910e+00 -1.084582e+02
v 2.346726e+02 -9.514591e+00 -1.084582e+02
v 2.354346e+02 -9.162088e+00 -1.084582e+02
vn 0.000000 0.000000 1.000000
vn 0.000000 0.000000 1.000000
vn 0.000000 0.000000 1.000000
vn 0.000000 0.000000 1.000000
vn 0.000000 0.000000 1.000000
f -5//-5 -4//-4 -3//-3
f -3//-3 -4//-4 -2//-2
f -3//-3 -2//-2 -1//-1
v 2.354346e+02 -9.162088e+00 -1.084582e+02
v 2.361539e+02 -8.729273e+00 -1.084582e+02
v 2.318028e+02 -2.311910e+00 -1.084582e+02
v 2.368222e+02 -8.221219e+00 -1.084582e+02
v 2.374317e+02 -7.643885e+00 -1.084582e+02
vn 0.000000 0.000000 1.000000
vn 0.000000 0.000000 1.000000
vn 0.000000 0.000000 1.000000
vn 0.000000 0.000000 1.000000
vn 0.000000 0.000000 1.000000
f -5//-5 -4//-4 -3//-3
f -3//-3 -4//-4 -2//-2
f -3//-3 -2//-2 -1//-1
v 2.374317e+02 -7.643885e+00 -1.084582e+02
v 2.379752e+02 -7.004037e+00 -1.084582e+02
v 2.318028e+02 -2.311910e+00 -1.084582e+02
v 2.384464e+02 -6.309179e+00 -1.084582e+02
v 2.388396e+02 -5.567457e+00 -1.084582e+02
vn 0.000000 0.000000 1.000000
vn 0.000000 0.000000 1.000000
vn 0.000000 0.000000 1.000000
vn 0.000000 0.000000 1.000000
vn 0.000000 0.000000 1.000000
f -5//-5 -4//-4 -3//-3
f -3//-3 -4//-4 -2//-2
f -3//-3 -2//-2 -1//-1
v 2.388396e+02 -5.567457e+00 -1.084582e+02
v 2.391503e+02 -4.787567e+00 -1.084582e+02
v 2.318028e+02 -2.311910e+00 -1.084582e+02
v 2.393749e+02 -3.978651e+00 -1.084582e+02
v 2.395107e+02 -3.150195e+00 -1.084582e+02
vn 0.000000 0.000000 1.000000
vn 0.000000 0.000000 1.000000
vn 0.000000 0.000000 1.000000
vn 0.000000 0.000000 1.000000
vn 0.000000 0.000000 1.000000
f -5//-5 -4//-4 -3//-3
f -3//-3 -4//-4 -2//-2
f -3//-3 -2//-2 -1//-1
v 2.318028e+02 -2.311910e+00 -1.084582e+02
v 2.395107e+02 -3.150195e+00 -1.084582e+02
v 2.395562e+02 -2.311910e+00 -1.084582e+02
vn 0.000000 0.000000 1.000000
vn 0.000000 0.000000 1.000000
vn 0.000000 0.000000 1.000000
f -3//-3 -2//-2 -1//-1
