#
mtllib Feed1_Axial_Mode_Taper.mtl
usemtl ffe8f2f7
v 4.986642e+00 -6.179142e-01 -1.268730e+00
v 5.082869e+00 -4.972508e-01 -9.768730e+00
v 5.082869e+00 -4.972508e-01 -1.268730e+00
v 5.117211e+00 -3.467860e-01 -9.768730e+00
v 5.117211e+00 -3.467860e-01 -1.268730e+00
v 5.082869e+00 -1.963212e-01 -9.768730e+00
v 5.082869e+00 -1.963212e-01 -1.268730e+00
v 4.986642e+00 -7.565778e-02 -9.768730e+00
v 4.986642e+00 -7.565778e-02 -1.268730e+00
v 4.847592e+00 -8.694649e-03 -9.768730e+00
v 4.847592e+00 -8.694649e-03 -1.268730e+00
v 4.693258e+00 -8.694649e-03 -9.768730e+00
v 4.693258e+00 -8.694649e-03 -1.268730e+00
v 4.554207e+00 -7.565778e-02 -9.768730e+00
v 4.554207e+00 -7.565778e-02 -1.268730e+00
v 4.457982e+00 -1.963212e-01 -9.768730e+00
v 4.457982e+00 -1.963212e-01 -1.268730e+00
v 4.423639e+00 -3.467860e-01 -9.768730e+00
v 4.423639e+00 -3.467860e-01 -1.268730e+00
v 4.457982e+00 -4.972508e-01 -9.768730e+00
v 4.457982e+00 -4.972508e-01 -1.268730e+00
v 4.554207e+00 -6.179142e-01 -9.768730e+00
v 4.554207e+00 -6.179142e-01 -1.268730e+00
v 4.693258e+00 -6.848773e-01 -9.768730e+00
v 4.693258e+00 -6.848773e-01 -1.268730e+00
v 4.847592e+00 -6.848773e-01 -9.768730e+00
v 4.847592e+00 -6.848773e-01 -1.268730e+00
v 4.986642e+00 -6.179142e-01 -9.768730e+00
v 4.986642e+00 -6.179142e-01 -1.268730e+00
v 5.082869e+00 -4.972508e-01 -9.768730e+00
vn 0.623490 -0.781832 0.000000
vn 0.900969 -0.433884 0.000000
vn 0.900969 -0.433884 0.000000
vn 1.000000 0.000000 0.000000
vn 1.000000 0.000000 0.000000
vn 0.900969 0.433884 0.000000
vn 0.900969 0.433884 0.000000
vn 0.623490 0.781832 0.000000
vn 0.623490 0.781832 0.000000
vn 0.222521 0.974928 0.000000
vn 0.222521 0.974928 0.000000
vn -0.222521 0.974928 0.000000
vn -0.222521 0.974928 0.000000
vn -0.623490 0.781832 0.000000
vn -0.623490 0.781832 0.000000
vn -0.900969 0.433884 0.000000
vn -0.900969 0.433884 0.000000
vn -1.000000 -0.000000 -0.000000
vn -1.000000 -0.000000 -0.000000
vn -0.900969 -0.433884 -0.000000
vn -0.900969 -0.433884 -0.000000
vn -0.623490 -0.781832 -0.000000
vn -0.623490 -0.781832 -0.000000
vn -0.222521 -0.974928 -0.000000
vn -0.222521 -0.974928 -0.000000
vn 0.222521 -0.974928 0.000000
vn 0.222521 -0.974928 0.000000
vn 0.623490 -0.781832 0.000000
vn 0.623490 -0.781832 0.000000
vn 0.900969 -0.433884 0.000000
f -30//-30 -29//-29 -28//-28
f -28//-28 -29//-29 -27//-27
f -28//-28 -27//-27 -26//-26
f -26//-26 -27//-27 -25//-25
f -26//-26 -25//-25 -24//-24
f -24//-24 -25//-25 -23//-23
f -24//-24 -23//-23 -22//-22
f -22//-22 -23//-23 -21//-21
f -22//-22 -21//-21 -20//-20
f -20//-20 -21//-21 -19//-19
f -20//-20 -19//-19 -18//-18
f -18//-18 -19//-19 -17//-17
f -18//-18 -17//-17 -16//-16
f -16//-16 -17//-17 -15//-15
f -16//-16 -15//-15 -14//-14
f -14//-14 -15//-15 -13//-13
f -14//-14 -13//-13 -12//-12
f -12//-12 -13//-13 -11//-11
f -12//-12 -11//-11 -10//-10
f -10//-10 -11//-11 -9//-9
f -10//-10 -9//-9 -8//-8
f -8//-8 -9//-9 -7//-7
f -8//-8 -7//-7 -6//-6
f -6//-6 -7//-7 -5//-5
f -6//-6 -5//-5 -4//-4
f -4//-4 -5//-5 -3//-3
f -4//-4 -3//-3 -2//-2
f -2//-2 -3//-3 -1//-1
v 5.117211e+00 -3.467860e-01 -9.768730e+00
v 5.082869e+00 -4.972508e-01 -9.768730e+00
v 4.770425e+00 -3.467860e-01 -9.768730e+00
v 4.986642e+00 -6.179142e-01 -9.768730e+00
v 4.847592e+00 -6.848773e-01 -9.768730e+00
vn 0.000000 0.000000 -1.000000
vn 0.000000 0.000000 -1.000000
vn 0.000000 0.000000 -1.000000
vn 0.000000 0.000000 -1.000000
vn 0.000000 0.000000 -1.000000
f -5//-5 -4//-4 -3//-3
f -3//-3 -4//-4 -2//-2
f -3//-3 -2//-2 -1//-1
v 4.847592e+00 -6.848773e-01 -9.768730e+00
v 4.693258e+00 -6.848773e-01 -9.768730e+00
v 4.770425e+00 -3.467860e-01 -9.768730e+00
v 4.554207e+00 -6.179142e-01 -9.768730e+00
v 4.457982e+00 -4.972508e-01 -9.768730e+00
vn 0.000000 0.000000 -1.000000
vn 0.000000 0.000000 -1.000000
vn 0.000000 0.000000 -1.000000
vn 0.000000 0.000000 -1.000000
vn 0.000000 0.000000 -1.000000
f -5//-5 -4//-4 -3//-3
f -3//-3 -4//-4 -2//-2
f -3//-3 -2//-2 -1//-1
v 4.457982e+00 -4.972508e-01 -9.768730e+00
v 4.423639e+00 -3.467860e-01 -9.768730e+00
v 4.770425e+00 -3.467860e-01 -9.768730e+00
v 4.457982e+00 -1.963212e-01 -9.768730e+00
v 4.554207e+00 -7.565778e-02 -9.768730e+00
vn 0.000000 0.000000 -1.000000
vn 0.000000 0.000000 -1.000000
vn 0.000000 0.000000 -1.000000
vn 0.000000 0.000000 -1.000000
vn 0.000000 0.000000 -1.000000
f -5//-5 -4//-4 -3//-3
f -3//-3 -4//-4 -2//-2
f -3//-3 -2//-2 -1//-1
v 4.554207e+00 -7.565778e-02 -9.768730e+00
v 4.693258e+00 -8.694649e-03 -9.768730e+00
v 4.770425e+00 -3.467860e-01 -9.768730e+00
v 4.847592e+00 -8.694649e-03 -9.768730e+00
v 4.986642e+00 -7.565778e-02 -9.768730e+00
vn 0.000000 0.000000 -1.000000
vn 0.000000 0.000000 -1.000000
vn 0.000000 0.000000 -1.000000
vn 0.000000 0.000000 -1.000000
vn 0.000000 0.000000 -1.000000
f -5//-5 -4//-4 -3//-3
f -3//-3 -4//-4 -2//-2
f -3//-3 -2//-2 -1//-1
v 4.986642e+00 -7.565778e-02 -9.768730e+00
v 5.082869e+00 -1.963212e-01 -9.768730e+00
v 4.770425e+00 -3.467860e-01 -9.768730e+00
v 5.117211e+00 -3.467860e-01 -9.768730e+00
vn 0.000000 0.000000 -1.000000
vn 0.000000 0.000000 -1.000000
vn 0.000000 0.000000 -1.000000
vn 0.000000 0.000000 -1.000000
f -4//-4 -3//-3 -2//-2
f -2//-2 -3//-3 -1//-1
v 5.117211e+00 -3.467860e-01 -1.268730e+00
v 5.082869e+00 -1.963212e-01 -1.268730e+00
v 4.770425e+00 -3.467860e-01 -1.268730e+00
v 4.986642e+00 -7.565778e-02 -1.268730e+00
v 4.847592e+00 -8.694649e-03 -1.268730e+00
vn -0.000000 -0.000000 1.000000
vn -0.000000 -0.000000 1.000000
vn -0.000000 -0.000000 1.000000
vn -0.000000 -0.000000 1.000000
vn -0.000000 -0.000000 1.000000
f -5//-5 -4//-4 -3//-3
f -3//-3 -4//-4 -2//-2
f -3//-3 -2//-2 -1//-1
v 4.847592e+00 -8.694649e-03 -1.268730e+00
v 4.693258e+00 -8.694649e-03 -1.268730e+00
v 4.770425e+00 -3.467860e-01 -1.268730e+00
v 4.554207e+00 -7.565778e-02 -1.268730e+00
v 4.457982e+00 -1.963212e-01 -1.268730e+00
vn -0.000000 -0.000000 1.000000
vn -0.000000 -0.000000 1.000000
vn -0.000000 -0.000000 1.000000
vn -0.000000 -0.000000 1.000000
vn -0.000000 -0.000000 1.000000
f -5//-5 -4//-4 -3//-3
f -3//-3 -4//-4 -2//-2
f -3//-3 -2//-2 -1//-1
v 4.457982e+00 -1.963212e-01 -1.268730e+00
v 4.423639e+00 -3.467860e-01 -1.268730e+00
v 4.770425e+00 -3.467860e-01 -1.268730e+00
v 4.457982e+00 -4.972508e-01 -1.268730e+00
v 4.554207e+00 -6.179142e-01 -1.268730e+00
vn -0.000000 -0.000000 1.000000
vn -0.000000 -0.000000 1.000000
vn -0.000000 -0.000000 1.000000
vn -0.000000 -0.000000 1.000000
vn -0.000000 -0.000000 1.000000
f -5//-5 -4//-4 -3//-3
f -3//-3 -4//-4 -2//-2
f -3//-3 -2//-2 -1//-1
v 4.554207e+00 -6.179142e-01 -1.268730e+00
v 4.693258e+00 -6.848773e-01 -1.268730e+00
v 4.770425e+00 -3.467860e-01 -1.268730e+00
v 4.847592e+00 -6.848773e-01 -1.268730e+00
v 4.986642e+00 -6.179142e-01 -1.268730e+00
vn -0.000000 -0.000000 1.000000
vn -0.000000 -0.000000 1.000000
vn -0.000000 -0.000000 1.000000
vn -0.000000 -0.000000 1.000000
vn -0.000000 -0.000000 1.000000
f -5//-5 -4//-4 -3//-3
f -3//-3 -4//-4 -2//-2
f -3//-3 -2//-2 -1//-1
v 4.986642e+00 -6.179142e-01 -1.268730e+00
v 5.082869e+00 -4.972508e-01 -1.268730e+00
v 4.770425e+00 -3.467860e-01 -1.268730e+00
v 5.117211e+00 -3.467860e-01 -1.268730e+00
vn -0.000000 -0.000000 1.000000
vn -0.000000 -0.000000 1.000000
vn -0.000000 -0.000000 1.000000
vn -0.000000 -0.000000 1.000000
f -4//-4 -3//-3 -2//-2
f -2//-2 -3//-3 -1//-1
