#
mtllib gnd_Axial_Mode_Taper.mtl
usemtl ffe6e6e6
v 3.948058e+00 4.755813e-01 -1.268730e+00
v 4.188923e+00 6.604041e-01 -1.268730e+00
v -1.691640e+01 1.691640e+01 -1.268730e+00
v 4.469418e+00 7.765886e-01 -1.268730e+00
v 1.691640e+01 1.691640e+01 -1.268730e+00
v 4.770425e+00 8.162170e-01 -1.268730e+00
v 5.071432e+00 7.765886e-01 -1.268730e+00
vn -0.000000 0.000000 1.000000
vn -0.000000 0.000000 1.000000
vn -0.000000 0.000000 1.000000
vn -0.000000 0.000000 1.000000
vn -0.000000 0.000000 1.000000
vn -0.000000 0.000000 1.000000
vn -0.000000 0.000000 1.000000
f -7//-7 -6//-6 -5//-5
f -5//-5 -6//-6 -4//-4
f -5//-5 -4//-4 -3//-3
f -3//-3 -4//-4 -2//-2
f -3//-3 -2//-2 -1//-1
v 5.071432e+00 7.765886e-01 -1.268730e+00
v 5.351926e+00 6.604041e-01 -1.268730e+00
v 1.691640e+01 1.691640e+01 -1.268730e+00
v 5.592793e+00 4.755813e-01 -1.268730e+00
v 5.777615e+00 2.347155e-01 -1.268730e+00
vn -0.000000 0.000000 1.000000
vn -0.000000 0.000000 1.000000
vn -0.000000 0.000000 1.000000
vn -0.000000 0.000000 1.000000
vn -0.000000 0.000000 1.000000
f -5//-5 -4//-4 -3//-3
f -3//-3 -4//-4 -2//-2
f -3//-3 -2//-2 -1//-1
v 3.607422e+00 -3.467860e-01 -1.268730e+00
v 3.647050e+00 -4.577867e-02 -1.268730e+00
v -1.691640e+01 1.691640e+01 -1.268730e+00
v 3.763235e+00 2.347155e-01 -1.268730e+00
v 3.948058e+00 4.755813e-01 -1.268730e+00
vn -0.000000 0.000000 1.000000
vn -0.000000 0.000000 1.000000
vn -0.000000 0.000000 1.000000
vn -0.000000 0.000000 1.000000
vn -0.000000 0.000000 1.000000
f -5//-5 -4//-4 -3//-3
f -3//-3 -4//-4 -2//-2
f -3//-3 -2//-2 -1//-1
v 5.071432e+00 -1.470161e+00 -1.268730e+00
v 4.770425e+00 -1.509789e+00 -1.268730e+00
v 1.691640e+01 -1.691640e+01 -1.268730e+00
v 4.469418e+00 -1.470161e+00 -1.268730e+00
v -1.691640e+01 -1.691640e+01 -1.268730e+00
v 4.188923e+00 -1.353976e+00 -1.268730e+00
v 3.948058e+00 -1.169153e+00 -1.268730e+00
vn -0.000000 0.000000 1.000000
vn -0.000000 0.000000 1.000000
vn -0.000000 0.000000 1.000000
vn -0.000000 0.000000 1.000000
vn -0.000000 0.000000 1.000000
vn -0.000000 0.000000 1.000000
vn -0.000000 0.000000 1.000000
f -7//-7 -6//-6 -5//-5
f -5//-5 -6//-6 -4//-4
f -5//-5 -4//-4 -3//-3
f -3//-3 -4//-4 -2//-2
f -3//-3 -2//-2 -1//-1
v 5.893800e+00 -6.477934e-01 -1.268730e+00
v 5.777615e+00 -9.282875e-01 -1.268730e+00
v 1.691640e+01 -1.691640e+01 -1.268730e+00
v 5.592793e+00 -1.169153e+00 -1.268730e+00
v 5.351926e+00 -1.353976e+00 -1.268730e+00
vn -0.000000 0.000000 1.000000
vn -0.000000 0.000000 1.000000
vn -0.000000 0.000000 1.000000
vn -0.000000 0.000000 1.000000
vn -0.000000 0.000000 1.000000
f -5//-5 -4//-4 -3//-3
f -3//-3 -4//-4 -2//-2
f -3//-3 -2//-2 -1//-1
v 5.893800e+00 -6.477934e-01 -1.268730e+00
v 1.691640e+01 -1.691640e+01 -1.268730e+00
v 5.933428e+00 -3.467860e-01 -1.268730e+00
v 1.691640e+01 1.691640e+01 -1.268730e+00
v 5.893800e+00 -4.577867e-02 -1.268730e+00
v 5.777615e+00 2.347155e-01 -1.268730e+00
vn -0.000000 0.000000 1.000000
vn -0.000000 0.000000 1.000000
vn -0.000000 0.000000 1.000000
vn -0.000000 0.000000 1.000000
vn -0.000000 0.000000 1.000000
vn -0.000000 0.000000 1.000000
f -6//-6 -5//-5 -4//-4
f -4//-4 -5//-5 -3//-3
f -4//-4 -3//-3 -2//-2
f -2//-2 -3//-3 -1//-1
v 3.763235e+00 -9.282875e-01 -1.268730e+00
v 3.647050e+00 -6.477934e-01 -1.268730e+00
v -1.691640e+01 -1.691640e+01 -1.268730e+00
v 3.607422e+00 -3.467860e-01 -1.268730e+00
v -1.691640e+01 1.691640e+01 -1.268730e+00
vn -0.000000 0.000000 1.000000
vn -0.000000 0.000000 1.000000
vn -0.000000 0.000000 1.000000
vn -0.000000 0.000000 1.000000
vn -0.000000 0.000000 1.000000
f -5//-5 -4//-4 -3//-3
f -3//-3 -4//-4 -2//-2
f -3//-3 -2//-2 -1//-1
v 1.691640e+01 -1.691640e+01 -1.268730e+00
v 5.351926e+00 -1.353976e+00 -1.268730e+00
v 5.071432e+00 -1.470161e+00 -1.268730e+00
vn -0.000000 0.000000 1.000000
vn -0.000000 0.000000 1.000000
vn -0.000000 0.000000 1.000000
f -3//-3 -2//-2 -1//-1
v 3.763235e+00 -9.282875e-01 -1.268730e+00
v -1.691640e+01 -1.691640e+01 -1.268730e+00
v 3.948058e+00 -1.169153e+00 -1.268730e+00
vn -0.000000 0.000000 1.000000
vn -0.000000 0.000000 1.000000
vn -0.000000 0.000000 1.000000
f -3//-3 -2//-2 -1//-1
