#
mtllib port_cap_Horn_BYDY2V.mtl
usemtl ffc18484
v 1.981720e+02 1.279500e+00 -1.040000e+00
v 1.981720e+02 -1.279500e+00 -1.040000e+00
v 2.018280e+02 1.279500e+00 -1.040000e+00
v 2.018280e+02 -1.279500e+00 -1.040000e+00
vn -0.000000 -0.000000 1.000000
vn -0.000000 -0.000000 1.000000
vn -0.000000 -0.000000 1.000000
vn -0.000000 -0.000000 1.000000
f -4//-4 -3//-3 -2//-2
f -2//-2 -3//-3 -1//-1
v 2.018280e+02 -1.279500e+00 -1.373000e+00
v 1.981720e+02 -1.279500e+00 -1.373000e+00
v 2.018280e+02 1.279500e+00 -1.373000e+00
v 1.981720e+02 1.279500e+00 -1.373000e+00
vn 0.000000 0.000000 -1.000000
vn 0.000000 0.000000 -1.000000
vn 0.000000 0.000000 -1.000000
vn 0.000000 0.000000 -1.000000
f -4//-4 -3//-3 -2//-2
f -2//-2 -3//-3 -1//-1
v 2.018280e+02 -1.279500e+00 -1.373000e+00
v 2.018280e+02 -1.279500e+00 -1.040000e+00
v 1.981720e+02 -1.279500e+00 -1.373000e+00
v 1.981720e+02 -1.279500e+00 -1.040000e+00
vn 0.000000 -1.000000 0.000000
vn 0.000000 -1.000000 0.000000
vn 0.000000 -1.000000 0.000000
vn 0.000000 -1.000000 0.000000
f -4//-4 -3//-3 -2//-2
f -2//-2 -3//-3 -1//-1
v 1.981720e+02 -1.279500e+00 -1.373000e+00
v 1.981720e+02 -1.279500e+00 -1.040000e+00
v 1.981720e+02 1.279500e+00 -1.373000e+00
v 1.981720e+02 1.279500e+00 -1.040000e+00
vn -1.000000 -0.000000 -0.000000
vn -1.000000 -0.000000 -0.000000
vn -1.000000 -0.000000 -0.000000
vn -1.000000 -0.000000 -0.000000
f -4//-4 -3//-3 -2//-2
f -2//-2 -3//-3 -1//-1
v 1.981720e+02 1.279500e+00 -1.373000e+00
v 1.981720e+02 1.279500e+00 -1.040000e+00
v 2.018280e+02 1.279500e+00 -1.373000e+00
v 2.018280e+02 1.279500e+00 -1.040000e+00
vn -0.000000 1.000000 -0.000000
vn -0.000000 1.000000 -0.000000
vn -0.000000 1.000000 -0.000000
vn -0.000000 1.000000 -0.000000
f -4//-4 -3//-3 -2//-2
f -2//-2 -3//-3 -1//-1
v 2.018280e+02 -1.279500e+00 -1.373000e+00
v 2.018280e+02 1.279500e+00 -1.373000e+00
v 2.018280e+02 -1.279500e+00 -1.040000e+00
v 2.018280e+02 1.279500e+00 -1.040000e+00
vn 1.000000 0.000000 0.000000
vn 1.000000 0.000000 0.000000
vn 1.000000 0.000000 0.000000
vn 1.000000 0.000000 0.000000
f -4//-4 -3//-3 -2//-2
f -2//-2 -3//-3 -1//-1
