#
mtllib sub_Quasi_Yagi.mtl
usemtl ff008000
v 0.000000e+00 3.750000e+01 0.000000e+00
v -3.175000e+00 3.750000e+01 0.000000e+00
v 0.000000e+00 -3.750000e+01 0.000000e+00
v -3.175000e+00 -3.750000e+01 0.000000e+00
vn 0.000000 0.000000 1.000000
vn 0.000000 0.000000 1.000000
vn 0.000000 0.000000 1.000000
vn 0.000000 0.000000 1.000000
f -4//-4 -3//-3 -2//-2
f -2//-2 -3//-3 -1//-1
v -3.175000e+00 -3.750000e+01 -8.650000e+01
v -3.175000e+00 3.750000e+01 -8.650000e+01
v 0.000000e+00 -3.750000e+01 -8.650000e+01
v 0.000000e+00 3.750000e+01 -8.650000e+01
vn -0.000000 -0.000000 -1.000000
vn -0.000000 -0.000000 -1.000000
vn -0.000000 -0.000000 -1.000000
vn -0.000000 -0.000000 -1.000000
f -4//-4 -3//-3 -2//-2
f -2//-2 -3//-3 -1//-1
v -3.175000e+00 -3.750000e+01 0.000000e+00
v -3.175000e+00 -3.750000e+01 -8.650000e+01
v 0.000000e+00 -3.750000e+01 0.000000e+00
v 0.000000e+00 -3.750000e+01 -8.650000e+01
vn -0.000000 -1.000000 -0.000000
vn -0.000000 -1.000000 -0.000000
vn -0.000000 -1.000000 -0.000000
vn -0.000000 -1.000000 -0.000000
f -4//-4 -3//-3 -2//-2
f -2//-2 -3//-3 -1//-1
v -3.175000e+00 3.750000e+01 0.000000e+00
v -3.175000e+00 3.750000e+01 -8.650000e+01
v -3.175000e+00 -3.750000e+01 0.000000e+00
v -3.175000e+00 -3.750000e+01 -8.650000e+01
vn -1.000000 -0.000000 -0.000000
vn -1.000000 -0.000000 -0.000000
vn -1.000000 -0.000000 -0.000000
vn -1.000000 -0.000000 -0.000000
f -4//-4 -3//-3 -2//-2
f -2//-2 -3//-3 -1//-1
v 0.000000e+00 3.750000e+01 0.000000e+00
v 0.000000e+00 3.750000e+01 -8.650000e+01
v -3.175000e+00 3.750000e+01 0.000000e+00
v -3.175000e+00 3.750000e+01 -8.650000e+01
vn 0.000000 1.000000 0.000000
vn 0.000000 1.000000 0.000000
vn 0.000000 1.000000 0.000000
vn 0.000000 1.000000 0.000000
f -4//-4 -3//-3 -2//-2
f -2//-2 -3//-3 -1//-1
v 0.000000e+00 3.750000e+01 0.000000e+00
v 0.000000e+00 -3.750000e+01 0.000000e+00
v 0.000000e+00 3.750000e+01 -8.650000e+01
v 0.000000e+00 -3.750000e+01 -8.650000e+01
vn 1.000000 0.000000 0.000000
vn 1.000000 0.000000 0.000000
vn 1.000000 0.000000 0.000000
vn 1.000000 0.000000 0.000000
f -4//-4 -3//-3 -2//-2
f -2//-2 -3//-3 -1//-1
