#
mtllib sub_Planar_Dipole.mtl
usemtl ff008000
v 6.350000e+00 8.450000e+00 0.000000e+00
v -6.350000e+00 8.450000e+00 0.000000e+00
v 6.350000e+00 -8.450000e+00 0.000000e+00
v -6.350000e+00 -8.450000e+00 0.000000e+00
vn 0.000000 0.000000 1.000000
vn 0.000000 0.000000 1.000000
vn 0.000000 0.000000 1.000000
vn 0.000000 0.000000 1.000000
f -4//-4 -3//-3 -2//-2
f -2//-2 -3//-3 -1//-1
v -6.350000e+00 -8.450000e+00 -1.575000e+00
v -6.350000e+00 8.450000e+00 -1.575000e+00
v 6.350000e+00 -8.450000e+00 -1.575000e+00
v 6.350000e+00 8.450000e+00 -1.575000e+00
vn -0.000000 -0.000000 -1.000000
vn -0.000000 -0.000000 -1.000000
vn -0.000000 -0.000000 -1.000000
vn -0.000000 -0.000000 -1.000000
f -4//-4 -3//-3 -2//-2
f -2//-2 -3//-3 -1//-1
v -6.350000e+00 -8.450000e+00 0.000000e+00
v -6.350000e+00 -8.450000e+00 -1.575000e+00
v 6.350000e+00 -8.450000e+00 0.000000e+00
v 6.350000e+00 -8.450000e+00 -1.575000e+00
vn -0.000000 -1.000000 -0.000000
vn -0.000000 -1.000000 -0.000000
vn -0.000000 -1.000000 -0.000000
vn -0.000000 -1.000000 -0.000000
f -4//-4 -3//-3 -2//-2
f -2//-2 -3//-3 -1//-1
v -6.350000e+00 8.450000e+00 0.000000e+00
v -6.350000e+00 8.450000e+00 -1.575000e+00
v -6.350000e+00 -8.450000e+00 0.000000e+00
v -6.350000e+00 -8.450000e+00 -1.575000e+00
vn -1.000000 -0.000000 -0.000000
vn -1.000000 -0.000000 -0.000000
vn -1.000000 -0.000000 -0.000000
vn -1.000000 -0.000000 -0.000000
f -4//-4 -3//-3 -2//-2
f -2//-2 -3//-3 -1//-1
v 6.350000e+00 8.450000e+00 0.000000e+00
v 6.350000e+00 8.450000e+00 -1.575000e+00
v -6.350000e+00 8.450000e+00 0.000000e+00
v -6.350000e+00 8.450000e+00 -1.575000e+00
vn 0.000000 1.000000 0.000000
vn 0.000000 1.000000 0.000000
vn 0.000000 1.000000 0.000000
vn 0.000000 1.000000 0.000000
f -4//-4 -3//-3 -2//-2
f -2//-2 -3//-3 -1//-1
v 6.350000e+00 8.450000e+00 0.000000e+00
v 6.350000e+00 -8.450000e+00 0.000000e+00
v 6.350000e+00 8.450000e+00 -1.575000e+00
v 6.350000e+00 -8.450000e+00 -1.575000e+00
vn 1.000000 0.000000 0.000000
vn 1.000000 0.000000 0.000000
vn 1.000000 0.000000 0.000000
vn 1.000000 0.000000 0.000000
f -4//-4 -3//-3 -2//-2
f -2//-2 -3//-3 -1//-1
