#
mtllib ant_Patch_SLOWYQ.mtl
usemtl ff4180ff
v 1.995949e+02 8.000000e-01 1.000000e+00
v 1.982000e+02 4.000000e+00 1.000000e+00
v 1.900000e+02 1.000000e+01 1.000000e+00
v 2.018000e+02 4.000000e+00 1.000000e+00
v 2.100000e+02 1.000000e+01 1.000000e+00
v 2.004051e+02 8.000000e-01 1.000000e+00
v 2.003179e+02 6.000000e-01 1.000000e+00
v 2.001000e+02 8.000000e-01 1.000000e+00
v 2.001000e+02 6.000000e-01 1.000000e+00
vn -0.000000 0.000000 1.000000
vn -0.000000 0.000000 1.000000
vn -0.000000 0.000000 1.000000
vn -0.000000 0.000000 1.000000
vn -0.000000 0.000000 1.000000
vn -0.000000 0.000000 1.000000
vn -0.000000 0.000000 1.000000
vn -0.000000 0.000000 1.000000
vn -0.000000 0.000000 1.000000
f -9//-9 -8//-8 -7//-7
f -7//-7 -8//-8 -6//-6
f -7//-7 -6//-6 -5//-5
f -5//-5 -6//-6 -4//-4
f -5//-5 -4//-4 -3//-3
f -3//-3 -4//-4 -2//-2
f -3//-3 -2//-2 -1//-1
v 1.999000e+02 6.000000e-01 1.000000e+00
v 1.999000e+02 8.000000e-01 1.000000e+00
v 1.996821e+02 6.000000e-01 1.000000e+00
v 1.995949e+02 8.000000e-01 1.000000e+00
v 1.900000e+02 1.000000e+01 1.000000e+00
vn -0.000000 0.000000 1.000000
vn -0.000000 0.000000 1.000000
vn -0.000000 0.000000 1.000000
vn -0.000000 0.000000 1.000000
vn -0.000000 0.000000 1.000000
f -5//-5 -4//-4 -3//-3
f -3//-3 -4//-4 -2//-2
f -3//-3 -2//-2 -1//-1
v 2.001000e+02 1.000000e-01 1.000000e+00
v 2.001000e+02 -1.000000e-01 1.000000e+00
v 2.100000e+02 -1.000000e+01 1.000000e+00
v 2.018000e+02 -4.000000e+00 1.000000e+00
v 1.900000e+02 -1.000000e+01 1.000000e+00
v 1.982000e+02 -4.000000e+00 1.000000e+00
v 1.999000e+02 -1.000000e-01 1.000000e+00
vn -0.000000 0.000000 1.000000
vn -0.000000 0.000000 1.000000
vn -0.000000 0.000000 1.000000
vn -0.000000 0.000000 1.000000
vn -0.000000 0.000000 1.000000
vn -0.000000 0.000000 1.000000
vn -0.000000 0.000000 1.000000
f -7//-7 -6//-6 -5//-5
f -5//-5 -6//-6 -4//-4
f -5//-5 -4//-4 -3//-3
f -3//-3 -4//-4 -2//-2
f -3//-3 -2//-2 -1//-1
v 1.999000e+02 -1.000000e-01 1.000000e+00
v 1.999000e+02 1.000000e-01 1.000000e+00
v 1.900000e+02 -1.000000e+01 1.000000e+00
v 1.996821e+02 6.000000e-01 1.000000e+00
v 1.900000e+02 1.000000e+01 1.000000e+00
vn -0.000000 0.000000 1.000000
vn -0.000000 0.000000 1.000000
vn -0.000000 0.000000 1.000000
vn -0.000000 0.000000 1.000000
vn -0.000000 0.000000 1.000000
f -5//-5 -4//-4 -3//-3
f -3//-3 -4//-4 -2//-2
f -3//-3 -2//-2 -1//-1
v 2.001000e+02 1.000000e-01 1.000000e+00
v 2.100000e+02 -1.000000e+01 1.000000e+00
v 2.003179e+02 6.000000e-01 1.000000e+00
v 2.100000e+02 1.000000e+01 1.000000e+00
vn -0.000000 0.000000 1.000000
vn -0.000000 0.000000 1.000000
vn -0.000000 0.000000 1.000000
vn -0.000000 0.000000 1.000000
f -4//-4 -3//-3 -2//-2
f -2//-2 -3//-3 -1//-1
