#
mtllib horn_Horn_VEPT2N.mtl
usemtl ffc18484
v 2.107950e+02 -6.032500e+00 -3.385820e+01
v 2.095250e+02 -4.762500e+00 -3.385820e+01
v 2.107950e+02 6.032500e+00 -3.385820e+01
v 2.095250e+02 4.762500e+00 -3.385820e+01
v 1.892050e+02 6.032500e+00 -3.385820e+01
v 1.904750e+02 4.762500e+00 -3.385820e+01
v 1.892050e+02 -6.032500e+00 -3.385820e+01
v 1.904750e+02 -4.762500e+00 -3.385820e+01
v 2.095250e+02 -4.762500e+00 -3.385820e+01
vn -0.000000 -0.000000 -1.000000
vn -0.000000 -0.000000 -1.000000
vn -0.000000 -0.000000 -1.000000
vn -0.000000 -0.000000 -1.000000
vn -0.000000 -0.000000 -1.000000
vn -0.000000 -0.000000 -1.000000
vn -0.000000 -0.000000 -1.000000
vn -0.000000 -0.000000 -1.000000
vn -0.000000 -0.000000 -1.000000
f -9//-9 -8//-8 -7//-7
f -7//-7 -8//-8 -6//-6
f -7//-7 -6//-6 -5//-5
f -5//-5 -6//-6 -4//-4
f -5//-5 -4//-4 -3//-3
f -3//-3 -4//-4 -2//-2
f -3//-3 -2//-2 -1//-1
v 1.892050e+02 -6.032500e+00 -3.385820e+01
v 2.095250e+02 -4.762500e+00 -3.385820e+01
v 2.107950e+02 -6.032500e+00 -3.385820e+01
vn -0.000000 -0.000000 -1.000000
vn -0.000000 -0.000000 -1.000000
vn -0.000000 -0.000000 -1.000000
f -3//-3 -2//-2 -1//-1
v 1.892050e+02 6.032500e+00 0.000000e+00
v 1.892050e+02 6.032500e+00 -3.385820e+01
v 1.892050e+02 -6.032500e+00 0.000000e+00
v 1.892050e+02 -6.032500e+00 -3.385820e+01
vn -1.000000 -0.000000 -0.000000
vn -1.000000 -0.000000 -0.000000
vn -1.000000 -0.000000 -0.000000
vn -1.000000 -0.000000 -0.000000
f -4//-4 -3//-3 -2//-2
f -2//-2 -3//-3 -1//-1
v 2.107950e+02 6.032500e+00 0.000000e+00
v 2.107950e+02 -6.032500e+00 0.000000e+00
v 2.107950e+02 6.032500e+00 -3.385820e+01
v 2.107950e+02 -6.032500e+00 -3.385820e+01
vn 1.000000 0.000000 0.000000
vn 1.000000 0.000000 0.000000
vn 1.000000 0.000000 0.000000
vn 1.000000 0.000000 0.000000
f -4//-4 -3//-3 -2//-2
f -2//-2 -3//-3 -1//-1
v 1.904750e+02 4.762500e+00 -3.385820e+01
v 1.904750e+02 4.762500e+00 0.000000e+00
v 1.904750e+02 -4.762500e+00 -3.385820e+01
v 1.904750e+02 -4.762500e+00 0.000000e+00
vn 1.000000 0.000000 0.000000
vn 1.000000 0.000000 0.000000
vn 1.000000 0.000000 0.000000
vn 1.000000 0.000000 0.000000
f -4//-4 -3//-3 -2//-2
f -2//-2 -3//-3 -1//-1
v 2.095250e+02 -4.762500e+00 0.000000e+00
v 2.095250e+02 4.762500e+00 0.000000e+00
v 2.095250e+02 -4.762500e+00 -3.385820e+01
v 2.095250e+02 4.762500e+00 -3.385820e+01
vn -1.000000 -0.000000 -0.000000
vn -1.000000 -0.000000 -0.000000
vn -1.000000 -0.000000 -0.000000
vn -1.000000 -0.000000 -0.000000
f -4//-4 -3//-3 -2//-2
f -2//-2 -3//-3 -1//-1
v 1.834900e+02 -6.032500e+00 5.080000e+01
v 1.847600e+02 -4.762500e+00 5.080000e+01
v 1.834900e+02 6.032500e+00 5.080000e+01
v 1.847600e+02 4.762500e+00 5.080000e+01
v 2.165100e+02 6.032500e+00 5.080000e+01
v 2.152400e+02 4.762500e+00 5.080000e+01
v 2.165100e+02 -6.032500e+00 5.080000e+01
v 2.152400e+02 -4.762500e+00 5.080000e+01
v 1.847600e+02 -4.762500e+00 5.080000e+01
vn -0.000000 0.000000 1.000000
vn -0.000000 0.000000 1.000000
vn -0.000000 0.000000 1.000000
vn -0.000000 0.000000 1.000000
vn -0.000000 0.000000 1.000000
vn -0.000000 0.000000 1.000000
vn -0.000000 0.000000 1.000000
vn -0.000000 0.000000 1.000000
vn -0.000000 0.000000 1.000000
f -9//-9 -8//-8 -7//-7
f -7//-7 -8//-8 -6//-6
f -7//-7 -6//-6 -5//-5
f -5//-5 -6//-6 -4//-4
f -5//-5 -4//-4 -3//-3
f -3//-3 -4//-4 -2//-2
f -3//-3 -2//-2 -1//-1
v 2.165100e+02 -6.032500e+00 5.080000e+01
v 1.847600e+02 -4.762500e+00 5.080000e+01
v 1.834900e+02 -6.032500e+00 5.080000e+01
vn -0.000000 0.000000 1.000000
vn -0.000000 0.000000 1.000000
vn -0.000000 0.000000 1.000000
f -3//-3 -2//-2 -1//-1
v 1.834900e+02 -6.032500e+00 5.080000e+01
v 1.892050e+02 -6.032500e+00 0.000000e+00
v 2.107950e+02 -6.032500e+00 0.000000e+00
v 1.892050e+02 -6.032500e+00 -3.385820e+01
v 2.107950e+02 -6.032500e+00 -3.385820e+01
vn 0.000000 -1.000000 -0.000000
vn 0.000000 -1.000000 -0.000000
vn 0.000000 -1.000000 -0.000000
vn 0.000000 -1.000000 -0.000000
vn 0.000000 -1.000000 -0.000000
f -5//-5 -4//-4 -3//-3
f -3//-3 -4//-4 -2//-2
f -3//-3 -2//-2 -1//-1
v 1.834900e+02 -6.032500e+00 5.080000e+01
v 2.107950e+02 -6.032500e+00 0.000000e+00
v 2.165100e+02 -6.032500e+00 5.080000e+01
vn 0.000000 -1.000000 -0.000000
vn 0.000000 -1.000000 -0.000000
vn 0.000000 -1.000000 -0.000000
f -3//-3 -2//-2 -1//-1
v 2.165100e+02 6.032500e+00 5.080000e+01
v 2.165100e+02 -6.032500e+00 5.080000e+01
v 2.107950e+02 6.032500e+00 0.000000e+00
v 2.107950e+02 -6.032500e+00 0.000000e+00
vn 0.993731 -0.000000 -0.111795
vn 0.993731 -0.000000 -0.111795
vn 0.993731 -0.000000 -0.111795
vn 0.993731 -0.000000 -0.111795
f -4//-4 -3//-3 -2//-2
f -2//-2 -3//-3 -1//-1
v 1.834900e+02 6.032500e+00 5.080000e+01
v 2.165100e+02 6.032500e+00 5.080000e+01
v 1.892050e+02 6.032500e+00 0.000000e+00
v 2.107950e+02 6.032500e+00 0.000000e+00
v 1.892050e+02 6.032500e+00 -3.385820e+01
v 2.107950e+02 6.032500e+00 -3.385820e+01
vn 0.000000 1.000000 -0.000000
vn 0.000000 1.000000 -0.000000
vn 0.000000 1.000000 -0.000000
vn 0.000000 1.000000 -0.000000
vn 0.000000 1.000000 -0.000000
vn 0.000000 1.000000 -0.000000
f -6//-6 -5//-5 -4//-4
f -4//-4 -5//-5 -3//-3
f -4//-4 -3//-3 -2//-2
f -2//-2 -3//-3 -1//-1
v 1.834900e+02 -6.032500e+00 5.080000e+01
v 1.834900e+02 6.032500e+00 5.080000e+01
v 1.892050e+02 -6.032500e+00 0.000000e+00
v 1.892050e+02 6.032500e+00 0.000000e+00
vn -0.993731 -0.000000 -0.111795
vn -0.993731 -0.000000 -0.111795
vn -0.993731 -0.000000 -0.111795
vn -0.993731 -0.000000 -0.111795
f -4//-4 -3//-3 -2//-2
f -2//-2 -3//-3 -1//-1
v 2.095250e+02 -4.762500e+00 -3.385820e+01
v 1.904750e+02 -4.762500e+00 -3.385820e+01
v 2.095250e+02 -4.762500e+00 0.000000e+00
v 1.904750e+02 -4.762500e+00 0.000000e+00
v 2.152400e+02 -4.762500e+00 5.080000e+01
v 1.847600e+02 -4.762500e+00 5.080000e+01
vn -0.000000 1.000000 -0.000000
vn -0.000000 1.000000 -0.000000
vn -0.000000 1.000000 -0.000000
vn -0.000000 1.000000 -0.000000
vn -0.000000 1.000000 -0.000000
vn -0.000000 1.000000 -0.000000
f -6//-6 -5//-5 -4//-4
f -4//-4 -5//-5 -3//-3
f -4//-4 -3//-3 -2//-2
f -2//-2 -3//-3 -1//-1
v 2.095250e+02 -4.762500e+00 0.000000e+00
v 2.152400e+02 -4.762500e+00 5.080000e+01
v 2.095250e+02 4.762500e+00 0.000000e+00
v 2.152400e+02 4.762500e+00 5.080000e+01
vn -0.993731 -0.000000 0.111795
vn -0.993731 -0.000000 0.111795
vn -0.993731 -0.000000 0.111795
vn -0.993731 -0.000000 0.111795
f -4//-4 -3//-3 -2//-2
f -2//-2 -3//-3 -1//-1
v 1.904750e+02 4.762500e+00 -3.385820e+01
v 2.095250e+02 4.762500e+00 -3.385820e+01
v 1.904750e+02 4.762500e+00 0.000000e+00
v 2.095250e+02 4.762500e+00 0.000000e+00
v 1.847600e+02 4.762500e+00 5.080000e+01
v 2.152400e+02 4.762500e+00 5.080000e+01
vn -0.000000 -1.000000 0.000000
vn -0.000000 -1.000000 0.000000
vn -0.000000 -1.000000 0.000000
vn -0.000000 -1.000000 0.000000
vn -0.000000 -1.000000 0.000000
vn -0.000000 -1.000000 0.000000
f -6//-6 -5//-5 -4//-4
f -4//-4 -5//-5 -3//-3
f -4//-4 -3//-3 -2//-2
f -2//-2 -3//-3 -1//-1
v 1.904750e+02 -4.762500e+00 0.000000e+00
v 1.904750e+02 4.762500e+00 0.000000e+00
v 1.847600e+02 -4.762500e+00 5.080000e+01
v 1.847600e+02 4.762500e+00 5.080000e+01
vn 0.993731 0.000000 0.111795
vn 0.993731 0.000000 0.111795
vn 0.993731 0.000000 0.111795
vn 0.993731 0.000000 0.111795
f -4//-4 -3//-3 -2//-2
f -2//-2 -3//-3 -1//-1
