#
mtllib port_cap_Horn_VEPT2N.mtl
usemtl ffc18484
v 1.892050e+02 6.032500e+00 -3.385820e+01
v 1.892050e+02 -6.032500e+00 -3.385820e+01
v 2.107950e+02 6.032500e+00 -3.385820e+01
v 2.107950e+02 -6.032500e+00 -3.385820e+01
vn -0.000000 -0.000000 1.000000
vn -0.000000 -0.000000 1.000000
vn -0.000000 -0.000000 1.000000
vn -0.000000 -0.000000 1.000000
f -4//-4 -3//-3 -2//-2
f -2//-2 -3//-3 -1//-1
v 2.107950e+02 -6.032500e+00 -3.512820e+01
v 1.892050e+02 -6.032500e+00 -3.512820e+01
v 2.107950e+02 6.032500e+00 -3.512820e+01
v 1.892050e+02 6.032500e+00 -3.512820e+01
vn 0.000000 0.000000 -1.000000
vn 0.000000 0.000000 -1.000000
vn 0.000000 0.000000 -1.000000
vn 0.000000 0.000000 -1.000000
f -4//-4 -3//-3 -2//-2
f -2//-2 -3//-3 -1//-1
v 2.107950e+02 -6.032500e+00 -3.512820e+01
v 2.107950e+02 -6.032500e+00 -3.385820e+01
v 1.892050e+02 -6.032500e+00 -3.512820e+01
v 1.892050e+02 -6.032500e+00 -3.385820e+01
vn 0.000000 -1.000000 0.000000
vn 0.000000 -1.000000 0.000000
vn 0.000000 -1.000000 0.000000
vn 0.000000 -1.000000 0.000000
f -4//-4 -3//-3 -2//-2
f -2//-2 -3//-3 -1//-1
v 1.892050e+02 -6.032500e+00 -3.512820e+01
v 1.892050e+02 -6.032500e+00 -3.385820e+01
v 1.892050e+02 6.032500e+00 -3.512820e+01
v 1.892050e+02 6.032500e+00 -3.385820e+01
vn -1.000000 -0.000000 -0.000000
vn -1.000000 -0.000000 -0.000000
vn -1.000000 -0.000000 -0.000000
vn -1.000000 -0.000000 -0.000000
f -4//-4 -3//-3 -2//-2
f -2//-2 -3//-3 -1//-1
v 1.892050e+02 6.032500e+00 -3.512820e+01
v 1.892050e+02 6.032500e+00 -3.385820e+01
v 2.107950e+02 6.032500e+00 -3.512820e+01
v 2.107950e+02 6.032500e+00 -3.385820e+01
vn -0.000000 1.000000 -0.000000
vn -0.000000 1.000000 -0.000000
vn -0.000000 1.000000 -0.000000
vn -0.000000 1.000000 -0.000000
f -4//-4 -3//-3 -2//-2
f -2//-2 -3//-3 -1//-1
v 2.107950e+02 -6.032500e+00 -3.512820e+01
v 2.107950e+02 6.032500e+00 -3.512820e+01
v 2.107950e+02 -6.032500e+00 -3.385820e+01
v 2.107950e+02 6.032500e+00 -3.385820e+01
vn 1.000000 0.000000 0.000000
vn 1.000000 0.000000 0.000000
vn 1.000000 0.000000 0.000000
vn 1.000000 0.000000 0.000000
f -4//-4 -3//-3 -2//-2
f -2//-2 -3//-3 -1//-1
