#
mtllib ant_arm.mtl
usemtl ff4180ff
v 1.998737e+02 2.563755e+00 1.000000e+00
v 2.000000e+02 2.570417e+00 1.000000e+00
v 2.003732e+02 2.510899e+00 1.000000e+00
v 2.001263e+02 2.563755e+00 1.000000e+00
v 2.002511e+02 2.543842e+00 1.000000e+00
vn -0.000000 0.000000 -1.000000
vn -0.000000 0.000000 -1.000000
vn -0.000000 0.000000 -1.000000
vn -0.000000 0.000000 -1.000000
vn -0.000000 0.000000 -1.000000
f -5//-5 -4//-4 -3//-3
f -3//-3 -4//-4 -2//-2
f -3//-3 -2//-2 -1//-1
v 2.010434e+02 1.963089e+00 1.000000e+00
v 2.011000e+02 1.850000e+00 1.000000e+00
v 1.989000e+02 1.850000e+00 1.000000e+00
v 2.000500e+02 5.000000e-02 1.000000e+00
v 1.999500e+02 5.000000e-02 1.000000e+00
vn -0.000000 0.000000 -1.000000
vn -0.000000 0.000000 -1.000000
vn -0.000000 0.000000 -1.000000
vn -0.000000 0.000000 -1.000000
vn -0.000000 0.000000 -1.000000
f -5//-5 -4//-4 -3//-3
f -3//-3 -4//-4 -2//-2
f -3//-3 -2//-2 -1//-1
v 2.006037e+02 2.407530e+00 1.000000e+00
v 2.007094e+02 2.338250e+00 1.000000e+00
v 1.995088e+02 2.465293e+00 1.000000e+00
v 2.008073e+02 2.258224e+00 1.000000e+00
v 1.993963e+02 2.407530e+00 1.000000e+00
v 1.992906e+02 2.338250e+00 1.000000e+00
vn -0.000000 0.000000 -1.000000
vn -0.000000 0.000000 -1.000000
vn -0.000000 0.000000 -1.000000
vn -0.000000 0.000000 -1.000000
vn -0.000000 0.000000 -1.000000
vn -0.000000 0.000000 -1.000000
f -6//-6 -5//-5 -4//-4
f -4//-4 -5//-5 -3//-3
f -4//-4 -3//-3 -2//-2
f -2//-2 -3//-3 -1//-1
v 2.004912e+02 2.465293e+00 1.000000e+00
v 1.995088e+02 2.465293e+00 1.000000e+00
v 2.003732e+02 2.510899e+00 1.000000e+00
v 1.996268e+02 2.510899e+00 1.000000e+00
v 1.997489e+02 2.543842e+00 1.000000e+00
vn -0.000000 0.000000 -1.000000
vn -0.000000 0.000000 -1.000000
vn -0.000000 0.000000 -1.000000
vn -0.000000 0.000000 -1.000000
vn -0.000000 0.000000 -1.000000
f -5//-5 -4//-4 -3//-3
f -3//-3 -4//-4 -2//-2
f -3//-3 -2//-2 -1//-1
v 1.995088e+02 2.465293e+00 1.000000e+00
v 2.004912e+02 2.465293e+00 1.000000e+00
v 2.006037e+02 2.407530e+00 1.000000e+00
vn -0.000000 0.000000 -1.000000
vn -0.000000 0.000000 -1.000000
vn -0.000000 0.000000 -1.000000
f -3//-3 -2//-2 -1//-1
v 1.990247e+02 2.069596e+00 1.000000e+00
v 1.991037e+02 2.168340e+00 1.000000e+00
v 2.008073e+02 2.258224e+00 1.000000e+00
v 1.991927e+02 2.258224e+00 1.000000e+00
v 1.992906e+02 2.338250e+00 1.000000e+00
vn -0.000000 0.000000 -1.000000
vn -0.000000 0.000000 -1.000000
vn -0.000000 0.000000 -1.000000
vn -0.000000 0.000000 -1.000000
vn -0.000000 0.000000 -1.000000
f -5//-5 -4//-4 -3//-3
f -3//-3 -4//-4 -2//-2
f -3//-3 -2//-2 -1//-1
v 2.008073e+02 2.258224e+00 1.000000e+00
v 2.008963e+02 2.168340e+00 1.000000e+00
v 1.989000e+02 1.850000e+00 1.000000e+00
v 2.009753e+02 2.069596e+00 1.000000e+00
v 2.010434e+02 1.963089e+00 1.000000e+00
vn -0.000000 0.000000 -1.000000
vn -0.000000 0.000000 -1.000000
vn -0.000000 0.000000 -1.000000
vn -0.000000 0.000000 -1.000000
vn -0.000000 0.000000 -1.000000
f -5//-5 -4//-4 -3//-3
f -3//-3 -4//-4 -2//-2
f -3//-3 -2//-2 -1//-1
v 1.989000e+02 1.850000e+00 1.000000e+00
v 1.989566e+02 1.963089e+00 1.000000e+00
v 2.008073e+02 2.258224e+00 1.000000e+00
v 1.990247e+02 2.069596e+00 1.000000e+00
vn -0.000000 0.000000 -1.000000
vn -0.000000 0.000000 -1.000000
vn -0.000000 0.000000 -1.000000
vn -0.000000 0.000000 -1.000000
f -4//-4 -3//-3 -2//-2
f -2//-2 -3//-3 -1//-1
v 2.003732e+02 2.510899e+00 1.000000e+00
v 1.997489e+02 2.543842e+00 1.000000e+00
v 1.998737e+02 2.563755e+00 1.000000e+00
vn -0.000000 0.000000 -1.000000
vn -0.000000 0.000000 -1.000000
vn -0.000000 0.000000 -1.000000
f -3//-3 -2//-2 -1//-1
