#
mtllib ant.mtl
usemtl ff4180ff
v 5.674903e+00 1.948197e+00 1.012500e+01
v 1.229562e-01 4.221093e-02 1.250000e-01
v 5.918168e+00 9.875675e-01 1.012500e+01
v 1.282270e-01 2.139730e-02 1.250000e-01
v 6.000000e+00 -1.469576e-15 1.012500e+01
v 1.300000e-01 0.000000e+00 1.250000e-01
v 5.918168e+00 -9.875675e-01 1.012500e+01
v 1.282270e-01 -2.139730e-02 1.250000e-01
v 5.674903e+00 -1.948197e+00 1.012500e+01
v 1.229562e-01 -4.221093e-02 1.250000e-01
v 5.276843e+00 -2.855684e+00 1.012500e+01
v 1.143316e-01 -6.187316e-02 1.250000e-01
v 4.734843e+00 -3.685276e+00 1.012500e+01
v 1.025883e-01 -7.984766e-02 1.250000e-01
v 4.063689e+00 -4.414343e+00 1.012500e+01
v 8.804660e-02 -9.564411e-02 1.250000e-01
v 3.281689e+00 -5.022999e+00 1.012500e+01
v 7.110326e-02 -1.088316e-01 1.250000e-01
v 2.410172e+00 -5.494640e+00 1.012500e+01
v 5.222040e-02 -1.190505e-01 1.250000e-01
v 1.472913e+00 -5.816401e+00 1.012500e+01
v 3.191311e-02 -1.260220e-01 1.250000e-01
v 4.954761e-01 -5.979507e+00 1.012500e+01
v 1.073532e-02 -1.295560e-01 1.250000e-01
v -4.954761e-01 -5.979507e+00 1.012500e+01
v -1.073532e-02 -1.295560e-01 1.250000e-01
v -1.472913e+00 -5.816401e+00 1.012500e+01
v -3.191311e-02 -1.260220e-01 1.250000e-01
v -2.410172e+00 -5.494640e+00 1.012500e+01
v -5.222040e-02 -1.190505e-01 1.250000e-01
v -3.281689e+00 -5.022999e+00 1.012500e+01
v -7.110326e-02 -1.088316e-01 1.250000e-01
v -4.063689e+00 -4.414343e+00 1.012500e+01
v -8.804660e-02 -9.564411e-02 1.250000e-01
v -4.734843e+00 -3.685276e+00 1.012500e+01
v -1.025883e-01 -7.984766e-02 1.250000e-01
v -5.276843e+00 -2.855684e+00 1.012500e+01
v -1.143316e-01 -6.187316e-02 1.250000e-01
v -5.674903e+00 -1.948197e+00 1.012500e+01
v -1.229562e-01 -4.221093e-02 1.250000e-01
v -5.918168e+00 -9.875675e-01 1.012500e+01
v -1.282270e-01 -2.139730e-02 1.250000e-01
v -6.000000e+00 7.347881e-16 1.012500e+01
v -1.300000e-01 1.592041e-17 1.250000e-01
v -5.918168e+00 9.875675e-01 1.012500e+01
v -1.282270e-01 2.139730e-02 1.250000e-01
v -5.674903e+00 1.948197e+00 1.012500e+01
v -1.229562e-01 4.221093e-02 1.250000e-01
v -5.276843e+00 2.855684e+00 1.012500e+01
v -1.143316e-01 6.187316e-02 1.250000e-01
v -4.734843e+00 3.685276e+00 1.012500e+01
v -1.025883e-01 7.984766e-02 1.250000e-01
v -4.063689e+00 4.414343e+00 1.012500e+01
v -8.804660e-02 9.564411e-02 1.250000e-01
v -3.281689e+00 5.022999e+00 1.012500e+01
v -7.110326e-02 1.088316e-01 1.250000e-01
v -2.410172e+00 5.494640e+00 1.012500e+01
v -5.222040e-02 1.190505e-01 1.250000e-01
v -1.472913e+00 5.816401e+00 1.012500e+01
v -3.191311e-02 1.260220e-01 1.250000e-01
v -4.954761e-01 5.979507e+00 1.012500e+01
v -1.073532e-02 1.295560e-01 1.250000e-01
v 4.954761e-01 5.979507e+00 1.012500e+01
v 1.073532e-02 1.295560e-01 1.250000e-01
vn -0.815672 -0.280021 0.506228
vn -0.815672 -0.280021 0.506228
vn -0.850637 -0.141946 0.506228
vn -0.850637 -0.141946 0.506228
vn -0.862399 -0.000000 0.506228
vn -0.862399 -0.000000 0.506228
vn -0.850637 0.141946 0.506228
vn -0.850637 0.141946 0.506228
vn -0.815672 0.280021 0.506228
vn -0.815672 0.280021 0.506228
vn -0.758458 0.410457 0.506228
vn -0.758458 0.410457 0.506228
vn -0.680554 0.529697 0.506228
vn -0.680554 0.529697 0.506228
vn -0.584087 0.634488 0.506228
vn -0.584087 0.634488 0.506228
vn -0.471688 0.721972 0.506228
vn -0.471688 0.721972 0.506228
vn -0.346422 0.789762 0.506228
vn -0.346422 0.789762 0.506228
vn -0.211707 0.836010 0.506228
vn -0.211707 0.836010 0.506228
vn -0.071216 0.859454 0.506228
vn -0.071216 0.859454 0.506228
vn 0.071216 0.859454 0.506228
vn 0.071216 0.859454 0.506228
vn 0.211707 0.836010 0.506228
vn 0.211707 0.836010 0.506228
vn 0.346422 0.789762 0.506228
vn 0.346422 0.789762 0.506228
vn 0.471688 0.721972 0.506228
vn 0.471688 0.721972 0.506228
vn 0.584087 0.634488 0.506228
vn 0.584087 0.634488 0.506228
vn 0.680554 0.529697 0.506228
vn 0.680554 0.529697 0.506228
vn 0.758458 0.410457 0.506228
vn 0.758458 0.410457 0.506228
vn 0.815672 0.280021 0.506228
vn 0.815672 0.280021 0.506228
vn 0.850637 0.141946 0.506228
vn 0.850637 0.141946 0.506228
vn 0.862399 0.000000 0.506228
vn 0.862399 0.000000 0.506228
vn 0.850637 -0.141946 0.506228
vn 0.850637 -0.141946 0.506228
vn 0.815672 -0.280021 0.506228
vn 0.815672 -0.280021 0.506228
vn 0.758458 -0.410457 0.506228
vn 0.758458 -0.410457 0.506228
vn 0.680554 -0.529697 0.506228
vn 0.680554 -0.529697 0.506228
vn 0.584087 -0.634488 0.506228
vn 0.584087 -0.634488 0.506228
vn 0.471688 -0.721972 0.506228
vn 0.471688 -0.721972 0.506228
vn 0.346422 -0.789762 0.506228
vn 0.346422 -0.789762 0.506228
vn 0.211707 -0.836010 0.506228
vn 0.211707 -0.836010 0.506228
vn 0.071216 -0.859454 0.506228
vn 0.071216 -0.859454 0.506228
vn -0.071216 -0.859454 0.506228
vn -0.071216 -0.859454 0.506228
f -64//-64 -63//-63 -62//-62
f -62//-62 -63//-63 -61//-61
f -62//-62 -61//-61 -60//-60
f -60//-60 -61//-61 -59//-59
f -60//-60 -59//-59 -58//-58
f -58//-58 -59//-59 -57//-57
f -58//-58 -57//-57 -56//-56
f -56//-56 -57//-57 -55//-55
f -56//-56 -55//-55 -54//-54
f -54//-54 -55//-55 -53//-53
f -54//-54 -53//-53 -52//-52
f -52//-52 -53//-53 -51//-51
f -52//-52 -51//-51 -50//-50
f -50//-50 -51//-51 -49//-49
f -50//-50 -49//-49 -48//-48
f -48//-48 -49//-49 -47//-47
f -48//-48 -47//-47 -46//-46
f -46//-46 -47//-47 -45//-45
f -46//-46 -45//-45 -44//-44
f -44//-44 -45//-45 -43//-43
f -44//-44 -43//-43 -42//-42
f -42//-42 -43//-43 -41//-41
f -42//-42 -41//-41 -40//-40
f -40//-40 -41//-41 -39//-39
f -40//-40 -39//-39 -38//-38
f -38//-38 -39//-39 -37//-37
f -38//-38 -37//-37 -36//-36
f -36//-36 -37//-37 -35//-35
f -36//-36 -35//-35 -34//-34
f -34//-34 -35//-35 -33//-33
f -34//-34 -33//-33 -32//-32
f -32//-32 -33//-33 -31//-31
f -32//-32 -31//-31 -30//-30
f -30//-30 -31//-31 -29//-29
f -30//-30 -29//-29 -28//-28
f -28//-28 -29//-29 -27//-27
f -28//-28 -27//-27 -26//-26
f -26//-26 -27//-27 -25//-25
f -26//-26 -25//-25 -24//-24
f -24//-24 -25//-25 -23//-23
f -24//-24 -23//-23 -22//-22
f -22//-22 -23//-23 -21//-21
f -22//-22 -21//-21 -20//-20
f -20//-20 -21//-21 -19//-19
f -20//-20 -19//-19 -18//-18
f -18//-18 -19//-19 -17//-17
f -18//-18 -17//-17 -16//-16
f -16//-16 -17//-17 -15//-15
f -16//-16 -15//-15 -14//-14
f -14//-14 -15//-15 -13//-13
f -14//-14 -13//-13 -12//-12
f -12//-12 -13//-13 -11//-11
f -12//-12 -11//-11 -10//-10
f -10//-10 -11//-11 -9//-9
f -10//-10 -9//-9 -8//-8
f -8//-8 -9//-9 -7//-7
f -8//-8 -7//-7 -6//-6
f -6//-6 -7//-7 -5//-5
f -6//-6 -5//-5 -4//-4
f -4//-4 -5//-5 -3//-3
f -4//-4 -3//-3 -2//-2
f -2//-2 -3//-3 -1//-1
v 4.954761e-01 5.979507e+00 1.012500e+01
v 1.073532e-02 1.295560e-01 1.250000e-01
v 1.472913e+00 5.816401e+00 1.012500e+01
v 3.191311e-02 1.260220e-01 1.250000e-01
v 2.410172e+00 5.494640e+00 1.012500e+01
v 5.222040e-02 1.190505e-01 1.250000e-01
v 3.281689e+00 5.022999e+00 1.012500e+01
v 7.110326e-02 1.088316e-01 1.250000e-01
v 4.063689e+00 4.414343e+00 1.012500e+01
v 8.804660e-02 9.564411e-02 1.250000e-01
v 4.734843e+00 3.685276e+00 1.012500e+01
v 1.025883e-01 7.984766e-02 1.250000e-01
v 5.276843e+00 2.855684e+00 1.012500e+01
v 1.143316e-01 6.187316e-02 1.250000e-01
v 5.674903e+00 1.948197e+00 1.012500e+01
v 1.229562e-01 4.221093e-02 1.250000e-01
vn -0.071216 -0.859454 0.506228
vn -0.071216 -0.859454 0.506228
vn -0.211707 -0.836010 0.506228
vn -0.211707 -0.836010 0.506228
vn -0.346422 -0.789762 0.506228
vn -0.346422 -0.789762 0.506228
vn -0.471688 -0.721972 0.506228
vn -0.471688 -0.721972 0.506228
vn -0.584087 -0.634488 0.506228
vn -0.584087 -0.634488 0.506228
vn -0.680554 -0.529697 0.506228
vn -0.680554 -0.529697 0.506228
vn -0.758458 -0.410457 0.506228
vn -0.758458 -0.410457 0.506228
vn -0.815672 -0.280021 0.506228
vn -0.815672 -0.280021 0.506228
f -16//-16 -15//-15 -14//-14
f -14//-14 -15//-15 -13//-13
f -14//-14 -13//-13 -12//-12
f -12//-12 -13//-13 -11//-11
f -12//-12 -11//-11 -10//-10
f -10//-10 -11//-11 -9//-9
f -10//-10 -9//-9 -8//-8
f -8//-8 -9//-9 -7//-7
f -8//-8 -7//-7 -6//-6
f -6//-6 -7//-7 -5//-5
f -6//-6 -5//-5 -4//-4
f -4//-4 -5//-5 -3//-3
f -4//-4 -3//-3 -2//-2
f -2//-2 -3//-3 -1//-1
v 1.300000e-01 0.000000e+00 1.250000e-01
v 1.282270e-01 2.139730e-02 1.250000e-01
v 0.000000e+00 0.000000e+00 1.250000e-01
v 1.229562e-01 4.221093e-02 1.250000e-01
v 1.143316e-01 6.187316e-02 1.250000e-01
vn 0.000000 0.000000 1.000000
vn 0.000000 0.000000 1.000000
vn 0.000000 0.000000 1.000000
vn 0.000000 0.000000 1.000000
vn 0.000000 0.000000 1.000000
f -5//-5 -4//-4 -3//-3
f -3//-3 -4//-4 -2//-2
f -3//-3 -2//-2 -1//-1
v 1.143316e-01 6.187316e-02 1.250000e-01
v 1.025883e-01 7.984766e-02 1.250000e-01
v 0.000000e+00 0.000000e+00 1.250000e-01
v 8.804660e-02 9.564411e-02 1.250000e-01
v 7.110326e-02 1.088316e-01 1.250000e-01
vn 0.000000 0.000000 1.000000
vn 0.000000 0.000000 1.000000
vn 0.000000 0.000000 1.000000
vn 0.000000 0.000000 1.000000
vn 0.000000 0.000000 1.000000
f -5//-5 -4//-4 -3//-3
f -3//-3 -4//-4 -2//-2
f -3//-3 -2//-2 -1//-1
v 7.110326e-02 1.088316e-01 1.250000e-01
v 5.222040e-02 1.190505e-01 1.250000e-01
v 0.000000e+00 0.000000e+00 1.250000e-01
v 3.191311e-02 1.260220e-01 1.250000e-01
v 1.073532e-02 1.295560e-01 1.250000e-01
vn 0.000000 0.000000 1.000000
vn 0.000000 0.000000 1.000000
vn 0.000000 0.000000 1.000000
vn 0.000000 0.000000 1.000000
vn 0.000000 0.000000 1.000000
f -5//-5 -4//-4 -3//-3
f -3//-3 -4//-4 -2//-2
f -3//-3 -2//-2 -1//-1
v 1.073532e-02 1.295560e-01 1.250000e-01
v -1.073532e-02 1.295560e-01 1.250000e-01
v 0.000000e+00 0.000000e+00 1.250000e-01
v -3.191311e-02 1.260220e-01 1.250000e-01
v -5.222040e-02 1.190505e-01 1.250000e-01
vn 0.000000 0.000000 1.000000
vn 0.000000 0.000000 1.000000
vn 0.000000 0.000000 1.000000
vn 0.000000 0.000000 1.000000
vn 0.000000 0.000000 1.000000
f -5//-5 -4//-4 -3//-3
f -3//-3 -4//-4 -2//-2
f -3//-3 -2//-2 -1//-1
v -5.222040e-02 1.190505e-01 1.250000e-01
v -7.110326e-02 1.088316e-01 1.250000e-01
v 0.000000e+00 0.000000e+00 1.250000e-01
v -8.804660e-02 9.564411e-02 1.250000e-01
v -1.025883e-01 7.984766e-02 1.250000e-01
vn 0.000000 0.000000 1.000000
vn 0.000000 0.000000 1.000000
vn 0.000000 0.000000 1.000000
vn 0.000000 0.000000 1.000000
vn 0.000000 0.000000 1.000000
f -5//-5 -4//-4 -3//-3
f -3//-3 -4//-4 -2//-2
f -3//-3 -2//-2 -1//-1
v -1.025883e-01 7.984766e-02 1.250000e-01
v -1.143316e-01 6.187316e-02 1.250000e-01
v 0.000000e+00 0.000000e+00 1.250000e-01
v -1.229562e-01 4.221093e-02 1.250000e-01
v -1.282270e-01 2.139730e-02 1.250000e-01
vn 0.000000 0.000000 1.000000
vn 0.000000 0.000000 1.000000
vn 0.000000 0.000000 1.000000
vn 0.000000 0.000000 1.000000
vn 0.000000 0.000000 1.000000
f -5//-5 -4//-4 -3//-3
f -3//-3 -4//-4 -2//-2
f -3//-3 -2//-2 -1//-1
v -1.282270e-01 2.139730e-02 1.250000e-01
v -1.300000e-01 1.592041e-17 1.250000e-01
v 0.000000e+00 0.000000e+00 1.250000e-01
v -1.282270e-01 -2.139730e-02 1.250000e-01
v -1.229562e-01 -4.221093e-02 1.250000e-01
vn 0.000000 0.000000 1.000000
vn 0.000000 0.000000 1.000000
vn 0.000000 0.000000 1.000000
vn 0.000000 0.000000 1.000000
vn 0.000000 0.000000 1.000000
f -5//-5 -4//-4 -3//-3
f -3//-3 -4//-4 -2//-2
f -3//-3 -2//-2 -1//-1
v -1.229562e-01 -4.221093e-02 1.250000e-01
v -1.143316e-01 -6.187316e-02 1.250000e-01
v 0.000000e+00 0.000000e+00 1.250000e-01
v -1.025883e-01 -7.984766e-02 1.250000e-01
v -8.804660e-02 -9.564411e-02 1.250000e-01
vn 0.000000 0.000000 1.000000
vn 0.000000 0.000000 1.000000
vn 0.000000 0.000000 1.000000
vn 0.000000 0.000000 1.000000
vn 0.000000 0.000000 1.000000
f -5//-5 -4//-4 -3//-3
f -3//-3 -4//-4 -2//-2
f -3//-3 -2//-2 -1//-1
v -8.804660e-02 -9.564411e-02 1.250000e-01
v -7.110326e-02 -1.088316e-01 1.250000e-01
v 0.000000e+00 0.000000e+00 1.250000e-01
v -5.222040e-02 -1.190505e-01 1.250000e-01
v -3.191311e-02 -1.260220e-01 1.250000e-01
vn 0.000000 0.000000 1.000000
vn 0.000000 0.000000 1.000000
vn 0.000000 0.000000 1.000000
vn 0.000000 0.000000 1.000000
vn 0.000000 0.000000 1.000000
f -5//-5 -4//-4 -3//-3
f -3//-3 -4//-4 -2//-2
f -3//-3 -2//-2 -1//-1
v -3.191311e-02 -1.260220e-01 1.250000e-01
v -1.073532e-02 -1.295560e-01 1.250000e-01
v 0.000000e+00 0.000000e+00 1.250000e-01
v 1.073532e-02 -1.295560e-01 1.250000e-01
v 3.191311e-02 -1.260220e-01 1.250000e-01
vn 0.000000 0.000000 1.000000
vn 0.000000 0.000000 1.000000
vn 0.000000 0.000000 1.000000
vn 0.000000 0.000000 1.000000
vn 0.000000 0.000000 1.000000
f -5//-5 -4//-4 -3//-3
f -3//-3 -4//-4 -2//-2
f -3//-3 -2//-2 -1//-1
v 3.191311e-02 -1.260220e-01 1.250000e-01
v 5.222040e-02 -1.190505e-01 1.250000e-01
v 0.000000e+00 0.000000e+00 1.250000e-01
v 7.110326e-02 -1.088316e-01 1.250000e-01
v 8.804660e-02 -9.564411e-02 1.250000e-01
vn 0.000000 0.000000 1.000000
vn 0.000000 0.000000 1.000000
vn 0.000000 0.000000 1.000000
vn 0.000000 0.000000 1.000000
vn 0.000000 0.000000 1.000000
f -5//-5 -4//-4 -3//-3
f -3//-3 -4//-4 -2//-2
f -3//-3 -2//-2 -1//-1
v 8.804660e-02 -9.564411e-02 1.250000e-01
v 1.025883e-01 -7.984766e-02 1.250000e-01
v 0.000000e+00 0.000000e+00 1.250000e-01
v 1.143316e-01 -6.187316e-02 1.250000e-01
v 1.229562e-01 -4.221093e-02 1.250000e-01
vn 0.000000 0.000000 1.000000
vn 0.000000 0.000000 1.000000
vn 0.000000 0.000000 1.000000
vn 0.000000 0.000000 1.000000
vn 0.000000 0.000000 1.000000
f -5//-5 -4//-4 -3//-3
f -3//-3 -4//-4 -2//-2
f -3//-3 -2//-2 -1//-1
v 1.229562e-01 -4.221093e-02 1.250000e-01
v 1.282270e-01 -2.139730e-02 1.250000e-01
v 0.000000e+00 0.000000e+00 1.250000e-01
v 1.300000e-01 0.000000e+00 1.250000e-01
vn 0.000000 0.000000 1.000000
vn 0.000000 0.000000 1.000000
vn 0.000000 0.000000 1.000000
vn 0.000000 0.000000 1.000000
f -4//-4 -3//-3 -2//-2
f -2//-2 -3//-3 -1//-1
