#
mtllib gnd.mtl
usemtl ffe6e6e6
v 3.500000e+00 0.000000e+00 0.000000e+00
v 3.479483e+00 3.784166e-01 0.000000e+00
v 0.000000e+00 0.000000e+00 0.000000e+00
v 3.418172e+00 7.523965e-01 0.000000e+00
v 3.316786e+00 1.117555e+00 0.000000e+00
vn 0.000000 0.000000 1.000000
vn 0.000000 0.000000 1.000000
vn 0.000000 0.000000 1.000000
vn 0.000000 0.000000 1.000000
vn 0.000000 0.000000 1.000000
f -5//-5 -4//-4 -3//-3
f -3//-3 -4//-4 -2//-2
f -3//-3 -2//-2 -1//-1
v 3.316786e+00 1.117555e+00 0.000000e+00
v 3.176514e+00 1.469612e+00 0.000000e+00
v 0.000000e+00 0.000000e+00 0.000000e+00
v 2.999000e+00 1.804438e+00 0.000000e+00
v 2.786326e+00 2.118110e+00 0.000000e+00
vn 0.000000 0.000000 1.000000
vn 0.000000 0.000000 1.000000
vn 0.000000 0.000000 1.000000
vn 0.000000 0.000000 1.000000
vn 0.000000 0.000000 1.000000
f -5//-5 -4//-4 -3//-3
f -3//-3 -4//-4 -2//-2
f -3//-3 -2//-2 -1//-1
v 2.786326e+00 2.118110e+00 0.000000e+00
v 2.540984e+00 2.406948e+00 0.000000e+00
v 0.000000e+00 0.000000e+00 0.000000e+00
v 2.265852e+00 2.667567e+00 0.000000e+00
v 1.964155e+00 2.896911e+00 0.000000e+00
vn 0.000000 0.000000 1.000000
vn 0.000000 0.000000 1.000000
vn 0.000000 0.000000 1.000000
vn 0.000000 0.000000 1.000000
vn 0.000000 0.000000 1.000000
f -5//-5 -4//-4 -3//-3
f -3//-3 -4//-4 -2//-2
f -3//-3 -2//-2 -1//-1
v 1.964155e+00 2.896911e+00 0.000000e+00
v 1.639430e+00 3.092292e+00 0.000000e+00
v 0.000000e+00 0.000000e+00 0.000000e+00
v 1.295484e+00 3.251419e+00 0.000000e+00
v 9.363492e-01 3.372425e+00 0.000000e+00
vn 0.000000 0.000000 1.000000
vn 0.000000 0.000000 1.000000
vn 0.000000 0.000000 1.000000
vn 0.000000 0.000000 1.000000
vn 0.000000 0.000000 1.000000
f -5//-5 -4//-4 -3//-3
f -3//-3 -4//-4 -2//-2
f -3//-3 -2//-2 -1//-1
v 9.363492e-01 3.372425e+00 0.000000e+00
v 5.662370e-01 3.453893e+00 0.000000e+00
v 0.000000e+00 0.000000e+00 0.000000e+00
v 1.894862e-01 3.494867e+00 0.000000e+00
v -1.894862e-01 3.494867e+00 0.000000e+00
vn 0.000000 0.000000 1.000000
vn 0.000000 0.000000 1.000000
vn 0.000000 0.000000 1.000000
vn 0.000000 0.000000 1.000000
vn 0.000000 0.000000 1.000000
f -5//-5 -4//-4 -3//-3
f -3//-3 -4//-4 -2//-2
f -3//-3 -2//-2 -1//-1
v -1.894862e-01 3.494867e+00 0.000000e+00
v -5.662370e-01 3.453893e+00 0.000000e+00
v 0.000000e+00 0.000000e+00 0.000000e+00
v -9.363492e-01 3.372425e+00 0.000000e+00
v -1.295484e+00 3.251419e+00 0.000000e+00
vn 0.000000 0.000000 1.000000
vn 0.000000 0.000000 1.000000
vn 0.000000 0.000000 1.000000
vn 0.000000 0.000000 1.000000
vn 0.000000 0.000000 1.000000
f -5//-5 -4//-4 -3//-3
f -3//-3 -4//-4 -2//-2
f -3//-3 -2//-2 -1//-1
v -1.295484e+00 3.251419e+00 0.000000e+00
v -1.639430e+00 3.092292e+00 0.000000e+00
v 0.000000e+00 0.000000e+00 0.000000e+00
v -1.964155e+00 2.896911e+00 0.000000e+00
v -2.265852e+00 2.667567e+00 0.000000e+00
vn 0.000000 0.000000 1.000000
vn 0.000000 0.000000 1.000000
vn 0.000000 0.000000 1.000000
vn 0.000000 0.000000 1.000000
vn 0.000000 0.000000 1.000000
f -5//-5 -4//-4 -3//-3
f -3//-3 -4//-4 -2//-2
f -3//-3 -2//-2 -1//-1
v -2.265852e+00 2.667567e+00 0.000000e+00
v -2.540984e+00 2.406948e+00 0.000000e+00
v 0.000000e+00 0.000000e+00 0.000000e+00
v -2.786326e+00 2.118110e+00 0.000000e+00
v -2.999000e+00 1.804438e+00 0.000000e+00
vn 0.000000 0.000000 1.000000
vn 0.000000 0.000000 1.000000
vn 0.000000 0.000000 1.000000
vn 0.000000 0.000000 1.000000
vn 0.000000 0.000000 1.000000
f -5//-5 -4//-4 -3//-3
f -3//-3 -4//-4 -2//-2
f -3//-3 -2//-2 -1//-1
v -2.999000e+00 1.804438e+00 0.000000e+00
v -3.176514e+00 1.469612e+00 0.000000e+00
v 0.000000e+00 0.000000e+00 0.000000e+00
v -3.316786e+00 1.117555e+00 0.000000e+00
v -3.418172e+00 7.523965e-01 0.000000e+00
vn 0.000000 0.000000 1.000000
vn 0.000000 0.000000 1.000000
vn 0.000000 0.000000 1.000000
vn 0.000000 0.000000 1.000000
vn 0.000000 0.000000 1.000000
f -5//-5 -4//-4 -3//-3
f -3//-3 -4//-4 -2//-2
f -3//-3 -2//-2 -1//-1
v -3.418172e+00 7.523965e-01 0.000000e+00
v -3.479483e+00 3.784166e-01 0.000000e+00
v 0.000000e+00 0.000000e+00 0.000000e+00
v -3.500000e+00 -7.285839e-16 0.000000e+00
v -3.479483e+00 -3.784166e-01 0.000000e+00
vn 0.000000 0.000000 1.000000
vn 0.000000 0.000000 1.000000
vn 0.000000 0.000000 1.000000
vn 0.000000 0.000000 1.000000
vn 0.000000 0.000000 1.000000
f -5//-5 -4//-4 -3//-3
f -3//-3 -4//-4 -2//-2
f -3//-3 -2//-2 -1//-1
v -3.479483e+00 -3.784166e-01 0.000000e+00
v -3.418172e+00 -7.523965e-01 0.000000e+00
v 0.000000e+00 0.000000e+00 0.000000e+00
v -3.316786e+00 -1.117555e+00 0.000000e+00
v -3.176514e+00 -1.469612e+00 0.000000e+00
vn 0.000000 0.000000 1.000000
vn 0.000000 0.000000 1.000000
vn 0.000000 0.000000 1.000000
vn 0.000000 0.000000 1.000000
vn 0.000000 0.000000 1.000000
f -5//-5 -4//-4 -3//-3
f -3//-3 -4//-4 -2//-2
f -3//-3 -2//-2 -1//-1
v -3.176514e+00 -1.469612e+00 0.000000e+00
v -2.999000e+00 -1.804438e+00 0.000000e+00
v 0.000000e+00 0.000000e+00 0.000000e+00
v -2.786326e+00 -2.118110e+00 0.000000e+00
v -2.540984e+00 -2.406948e+00 0.000000e+00
vn 0.000000 0.000000 1.000000
vn 0.000000 0.000000 1.000000
vn 0.000000 0.000000 1.000000
vn 0.000000 0.000000 1.000000
vn 0.000000 0.000000 1.000000
f -5//-5 -4//-4 -3//-3
f -3//-3 -4//-4 -2//-2
f -3//-3 -2//-2 -1//-1
v -2.540984e+00 -2.406948e+00 0.000000e+00
v -2.265852e+00 -2.667567e+00 0.000000e+00
v 0.000000e+00 0.000000e+00 0.000000e+00
v -1.964155e+00 -2.896911e+00 0.000000e+00
v -1.639430e+00 -3.092292e+00 0.000000e+00
vn 0.000000 0.000000 1.000000
vn 0.000000 0.000000 1.000000
vn 0.000000 0.000000 1.000000
vn 0.000000 0.000000 1.000000
vn 0.000000 0.000000 1.000000
f -5//-5 -4//-4 -3//-3
f -3//-3 -4//-4 -2//-2
f -3//-3 -2//-2 -1//-1
v -1.639430e+00 -3.092292e+00 0.000000e+00
v -1.295484e+00 -3.251419e+00 0.000000e+00
v 0.000000e+00 0.000000e+00 0.000000e+00
v -9.363492e-01 -3.372425e+00 0.000000e+00
v -5.662370e-01 -3.453893e+00 0.000000e+00
vn 0.000000 0.000000 1.000000
vn 0.000000 0.000000 1.000000
vn 0.000000 0.000000 1.000000
vn 0.000000 0.000000 1.000000
vn 0.000000 0.000000 1.000000
f -5//-5 -4//-4 -3//-3
f -3//-3 -4//-4 -2//-2
f -3//-3 -2//-2 -1//-1
v -5.662370e-01 -3.453893e+00 0.000000e+00
v -1.894862e-01 -3.494867e+00 0.000000e+00
v 0.000000e+00 0.000000e+00 0.000000e+00
v 1.894862e-01 -3.494867e+00 0.000000e+00
v 5.662370e-01 -3.453893e+00 0.000000e+00
vn 0.000000 0.000000 1.000000
vn 0.000000 0.000000 1.000000
vn 0.000000 0.000000 1.000000
vn 0.000000 0.000000 1.000000
vn 0.000000 0.000000 1.000000
f -5//-5 -4//-4 -3//-3
f -3//-3 -4//-4 -2//-2
f -3//-3 -2//-2 -1//-1
v 5.662370e-01 -3.453893e+00 0.000000e+00
v 9.363492e-01 -3.372425e+00 0.000000e+00
v 0.000000e+00 0.000000e+00 0.000000e+00
v 1.295484e+00 -3.251419e+00 0.000000e+00
v 1.639430e+00 -3.092292e+00 0.000000e+00
vn 0.000000 0.000000 1.000000
vn 0.000000 0.000000 1.000000
vn 0.000000 0.000000 1.000000
vn 0.000000 0.000000 1.000000
vn 0.000000 0.000000 1.000000
f -5//-5 -4//-4 -3//-3
f -3//-3 -4//-4 -2//-2
f -3//-3 -2//-2 -1//-1
v 1.639430e+00 -3.092292e+00 0.000000e+00
v 1.964155e+00 -2.896911e+00 0.000000e+00
v 0.000000e+00 0.000000e+00 0.000000e+00
v 2.265852e+00 -2.667567e+00 0.000000e+00
v 2.540984e+00 -2.406948e+00 0.000000e+00
vn 0.000000 0.000000 1.000000
vn 0.000000 0.000000 1.000000
vn 0.000000 0.000000 1.000000
vn 0.000000 0.000000 1.000000
vn 0.000000 0.000000 1.000000
f -5//-5 -4//-4 -3//-3
f -3//-3 -4//-4 -2//-2
f -3//-3 -2//-2 -1//-1
v 2.540984e+00 -2.406948e+00 0.000000e+00
v 2.786326e+00 -2.118110e+00 0.000000e+00
v 0.000000e+00 0.000000e+00 0.000000e+00
v 2.999000e+00 -1.804438e+00 0.000000e+00
v 3.176514e+00 -1.469612e+00 0.000000e+00
vn 0.000000 0.000000 1.000000
vn 0.000000 0.000000 1.000000
vn 0.000000 0.000000 1.000000
vn 0.000000 0.000000 1.000000
vn 0.000000 0.000000 1.000000
f -5//-5 -4//-4 -3//-3
f -3//-3 -4//-4 -2//-2
f -3//-3 -2//-2 -1//-1
v 3.176514e+00 -1.469612e+00 0.000000e+00
v 3.316786e+00 -1.117555e+00 0.000000e+00
v 0.000000e+00 0.000000e+00 0.000000e+00
v 3.418172e+00 -7.523965e-01 0.000000e+00
v 3.479483e+00 -3.784166e-01 0.000000e+00
vn 0.000000 0.000000 1.000000
vn 0.000000 0.000000 1.000000
vn 0.000000 0.000000 1.000000
vn 0.000000 0.000000 1.000000
vn 0.000000 0.000000 1.000000
f -5//-5 -4//-4 -3//-3
f -3//-3 -4//-4 -2//-2
f -3//-3 -2//-2 -1//-1
v 0.000000e+00 0.000000e+00 0.000000e+00
v 3.479483e+00 -3.784166e-01 0.000000e+00
v 3.500000e+00 0.000000e+00 0.000000e+00
vn 0.000000 0.000000 1.000000
vn 0.000000 0.000000 1.000000
vn 0.000000 0.000000 1.000000
f -3//-3 -2//-2 -1//-1
