# Generated by Visualization Toolkit
v 18.399999618530273 -0.800000011920929 -4.099999904632568
v 21.600000381469727 -0.800000011920929 -4.099999904632568
v 18.399999618530273 0.800000011920929 -4.099999904632568
v 21.600000381469727 0.800000011920929 -4.099999904632568
v 18.399999618530273 -0.800000011920929 -3.9000000953674316
v 21.600000381469727 -0.800000011920929 -3.9000000953674316
v 18.399999618530273 0.800000011920929 -3.9000000953674316
v 21.600000381469727 0.800000011920929 -3.9000000953674316
vn -0.40824827551841736 -0.40824827551841736 -0.8164965510368347
vn 0.6666666865348816 -0.6666666865348816 -0.3333333432674408
vn -0.6666666865348816 0.6666666865348816 -0.3333333432674408
vn 0.40824827551841736 0.40824827551841736 -0.8164965510368347
vn -0.6666666865348816 -0.6666666865348816 0.3333333432674408
vn 0.40824827551841736 -0.40824827551841736 0.8164965510368347
vn -0.40824827551841736 0.40824827551841736 0.8164965510368347
vn 0.6666666865348816 0.6666666865348816 0.3333333432674408
f 1//1 5//5 3//3
f 5//5 7//7 3//3
f 6//6 2//2 8//8
f 2//2 4//4 8//8
f 1//1 2//2 5//5
f 2//2 6//6 5//5
f 7//7 8//8 3//3
f 8//8 4//4 3//3
f 2//2 1//1 4//4
f 1//1 3//3 4//4
f 5//5 6//6 7//7
f 6//6 8//8 7//7
