#
mtllib RadiatingSurface.mtl
usemtl ff0000ff
v 1.300000e+02 1.300000e+02 2.539580e+02
v -1.300000e+02 1.300000e+02 2.539580e+02
v 1.300000e+02 -1.300000e+02 2.539580e+02
v -1.300000e+02 -1.300000e+02 2.539580e+02
vn 0.000000 0.000000 1.000000
vn 0.000000 0.000000 1.000000
vn 0.000000 0.000000 1.000000
vn 0.000000 0.000000 1.000000
f -4//-4 -3//-3 -2//-2
f -2//-2 -3//-3 -1//-1
v -1.300000e+02 -1.300000e+02 -1.072000e+02
v -1.300000e+02 1.300000e+02 -1.072000e+02
v 1.300000e+02 -1.300000e+02 -1.072000e+02
v 1.300000e+02 1.300000e+02 -1.072000e+02
vn -0.000000 -0.000000 -1.000000
vn -0.000000 -0.000000 -1.000000
vn -0.000000 -0.000000 -1.000000
vn -0.000000 -0.000000 -1.000000
f -4//-4 -3//-3 -2//-2
f -2//-2 -3//-3 -1//-1
v -1.300000e+02 -1.300000e+02 2.539580e+02
v -1.300000e+02 -1.300000e+02 -1.072000e+02
v 1.300000e+02 -1.300000e+02 2.539580e+02
v 1.300000e+02 -1.300000e+02 -1.072000e+02
vn -0.000000 -1.000000 -0.000000
vn -0.000000 -1.000000 -0.000000
vn -0.000000 -1.000000 -0.000000
vn -0.000000 -1.000000 -0.000000
f -4//-4 -3//-3 -2//-2
f -2//-2 -3//-3 -1//-1
v -1.300000e+02 1.300000e+02 2.539580e+02
v -1.300000e+02 1.300000e+02 -1.072000e+02
v -1.300000e+02 -1.300000e+02 2.539580e+02
v -1.300000e+02 -1.300000e+02 -1.072000e+02
vn -1.000000 -0.000000 -0.000000
vn -1.000000 -0.000000 -0.000000
vn -1.000000 -0.000000 -0.000000
vn -1.000000 -0.000000 -0.000000
f -4//-4 -3//-3 -2//-2
f -2//-2 -3//-3 -1//-1
v 1.300000e+02 1.300000e+02 2.539580e+02
v 1.300000e+02 1.300000e+02 -1.072000e+02
v -1.300000e+02 1.300000e+02 2.539580e+02
v -1.300000e+02 1.300000e+02 -1.072000e+02
vn 0.000000 1.000000 0.000000
vn 0.000000 1.000000 0.000000
vn 0.000000 1.000000 0.000000
vn 0.000000 1.000000 0.000000
f -4//-4 -3//-3 -2//-2
f -2//-2 -3//-3 -1//-1
v 1.300000e+02 1.300000e+02 2.539580e+02
v 1.300000e+02 -1.300000e+02 2.539580e+02
v 1.300000e+02 1.300000e+02 -1.072000e+02
v 1.300000e+02 -1.300000e+02 -1.072000e+02
vn 1.000000 0.000000 0.000000
vn 1.000000 0.000000 0.000000
vn 1.000000 0.000000 0.000000
vn 1.000000 0.000000 0.000000
f -4//-4 -3//-3 -2//-2
f -2//-2 -3//-3 -1//-1
