#
mtllib port_Shorting_Plate_PIFA.mtl
usemtl ff000080
v 4.400000e+00 -2.818301e+00 -1.665514e+01
v 4.374207e+00 -2.342577e+00 -1.665514e+01
v 0.000000e+00 -2.818301e+00 -1.665514e+01
v 4.297131e+00 -1.872431e+00 -1.665514e+01
v 4.169674e+00 -1.413374e+00 -1.665514e+01
vn 0.000000 0.000000 1.000000
vn 0.000000 0.000000 1.000000
vn 0.000000 0.000000 1.000000
vn 0.000000 0.000000 1.000000
vn 0.000000 0.000000 1.000000
f -5//-5 -4//-4 -3//-3
f -3//-3 -4//-4 -2//-2
f -3//-3 -2//-2 -1//-1
v 4.169674e+00 -1.413374e+00 -1.665514e+01
v 3.993332e+00 -9.707890e-01 -1.665514e+01
v 0.000000e+00 -2.818301e+00 -1.665514e+01
v 3.770172e+00 -5.498641e-01 -1.665514e+01
v 3.502810e+00 -1.555344e-01 -1.665514e+01
vn 0.000000 0.000000 1.000000
vn 0.000000 0.000000 1.000000
vn 0.000000 0.000000 1.000000
vn 0.000000 0.000000 1.000000
vn 0.000000 0.000000 1.000000
f -5//-5 -4//-4 -3//-3
f -3//-3 -4//-4 -2//-2
f -3//-3 -2//-2 -1//-1
v 3.502810e+00 -1.555344e-01 -1.665514e+01
v 3.194380e+00 2.075766e-01 -1.665514e+01
v 0.000000e+00 -2.818301e+00 -1.665514e+01
v 2.848500e+00 5.352120e-01 -1.665514e+01
v 2.469223e+00 8.235306e-01 -1.665514e+01
vn 0.000000 0.000000 1.000000
vn 0.000000 0.000000 1.000000
vn 0.000000 0.000000 1.000000
vn 0.000000 0.000000 1.000000
vn 0.000000 0.000000 1.000000
f -5//-5 -4//-4 -3//-3
f -3//-3 -4//-4 -2//-2
f -3//-3 -2//-2 -1//-1
v 2.469223e+00 8.235306e-01 -1.665514e+01
v 2.060997e+00 1.069152e+00 -1.665514e+01
v 0.000000e+00 -2.818301e+00 -1.665514e+01
v 1.628608e+00 1.269197e+00 -1.665514e+01
v 1.177125e+00 1.421319e+00 -1.665514e+01
vn 0.000000 0.000000 1.000000
vn 0.000000 0.000000 1.000000
vn 0.000000 0.000000 1.000000
vn 0.000000 0.000000 1.000000
vn 0.000000 0.000000 1.000000
f -5//-5 -4//-4 -3//-3
f -3//-3 -4//-4 -2//-2
f -3//-3 -2//-2 -1//-1
v 1.177125e+00 1.421319e+00 -1.665514e+01
v 7.118408e-01 1.523736e+00 -1.665514e+01
v 0.000000e+00 -2.818301e+00 -1.665514e+01
v 2.382112e-01 1.575246e+00 -1.665514e+01
v -2.382112e-01 1.575246e+00 -1.665514e+01
vn 0.000000 0.000000 1.000000
vn 0.000000 0.000000 1.000000
vn 0.000000 0.000000 1.000000
vn 0.000000 0.000000 1.000000
vn 0.000000 0.000000 1.000000
f -5//-5 -4//-4 -3//-3
f -3//-3 -4//-4 -2//-2
f -3//-3 -2//-2 -1//-1
v -2.382112e-01 1.575246e+00 -1.665514e+01
v -7.118408e-01 1.523736e+00 -1.665514e+01
v 0.000000e+00 -2.818301e+00 -1.665514e+01
v -1.177125e+00 1.421319e+00 -1.665514e+01
v -1.628608e+00 1.269197e+00 -1.665514e+01
vn 0.000000 0.000000 1.000000
vn 0.000000 0.000000 1.000000
vn 0.000000 0.000000 1.000000
vn 0.000000 0.000000 1.000000
vn 0.000000 0.000000 1.000000
f -5//-5 -4//-4 -3//-3
f -3//-3 -4//-4 -2//-2
f -3//-3 -2//-2 -1//-1
v -1.628608e+00 1.269197e+00 -1.665514e+01
v -2.060997e+00 1.069152e+00 -1.665514e+01
v 0.000000e+00 -2.818301e+00 -1.665514e+01
v -2.469223e+00 8.235306e-01 -1.665514e+01
v -2.848500e+00 5.352120e-01 -1.665514e+01
vn 0.000000 0.000000 1.000000
vn 0.000000 0.000000 1.000000
vn 0.000000 0.000000 1.000000
vn 0.000000 0.000000 1.000000
vn 0.000000 0.000000 1.000000
f -5//-5 -4//-4 -3//-3
f -3//-3 -4//-4 -2//-2
f -3//-3 -2//-2 -1//-1
v -2.848500e+00 5.352120e-01 -1.665514e+01
v -3.194380e+00 2.075766e-01 -1.665514e+01
v 0.000000e+00 -2.818301e+00 -1.665514e+01
v -3.502810e+00 -1.555344e-01 -1.665514e+01
v -3.770172e+00 -5.498641e-01 -1.665514e+01
vn 0.000000 0.000000 1.000000
vn 0.000000 0.000000 1.000000
vn 0.000000 0.000000 1.000000
vn 0.000000 0.000000 1.000000
vn 0.000000 0.000000 1.000000
f -5//-5 -4//-4 -3//-3
f -3//-3 -4//-4 -2//-2
f -3//-3 -2//-2 -1//-1
v -3.770172e+00 -5.498641e-01 -1.665514e+01
v -3.993332e+00 -9.707890e-01 -1.665514e+01
v 0.000000e+00 -2.818301e+00 -1.665514e+01
v -4.169674e+00 -1.413374e+00 -1.665514e+01
v -4.297131e+00 -1.872431e+00 -1.665514e+01
vn 0.000000 0.000000 1.000000
vn 0.000000 0.000000 1.000000
vn 0.000000 0.000000 1.000000
vn 0.000000 0.000000 1.000000
vn 0.000000 0.000000 1.000000
f -5//-5 -4//-4 -3//-3
f -3//-3 -4//-4 -2//-2
f -3//-3 -2//-2 -1//-1
v -4.297131e+00 -1.872431e+00 -1.665514e+01
v -4.374207e+00 -2.342577e+00 -1.665514e+01
v 0.000000e+00 -2.818301e+00 -1.665514e+01
v -4.400000e+00 -2.818301e+00 -1.665514e+01
v -4.374207e+00 -3.294025e+00 -1.665514e+01
vn 0.000000 0.000000 1.000000
vn 0.000000 0.000000 1.000000
vn 0.000000 0.000000 1.000000
vn 0.000000 0.000000 1.000000
vn 0.000000 0.000000 1.000000
f -5//-5 -4//-4 -3//-3
f -3//-3 -4//-4 -2//-2
f -3//-3 -2//-2 -1//-1
v -4.374207e+00 -3.294025e+00 -1.665514e+01
v -4.297131e+00 -3.764171e+00 -1.665514e+01
v 0.000000e+00 -2.818301e+00 -1.665514e+01
v -4.169674e+00 -4.223228e+00 -1.665514e+01
v -3.993332e+00 -4.665813e+00 -1.665514e+01
vn 0.000000 0.000000 1.000000
vn 0.000000 0.000000 1.000000
vn 0.000000 0.000000 1.000000
vn 0.000000 0.000000 1.000000
vn 0.000000 0.000000 1.000000
f -5//-5 -4//-4 -3//-3
f -3//-3 -4//-4 -2//-2
f -3//-3 -2//-2 -1//-1
v -3.993332e+00 -4.665813e+00 -1.665514e+01
v -3.770172e+00 -5.086738e+00 -1.665514e+01
v 0.000000e+00 -2.818301e+00 -1.665514e+01
v -3.502810e+00 -5.481068e+00 -1.665514e+01
v -3.194380e+00 -5.844179e+00 -1.665514e+01
vn 0.000000 0.000000 1.000000
vn 0.000000 0.000000 1.000000
vn 0.000000 0.000000 1.000000
vn 0.000000 0.000000 1.000000
vn 0.000000 0.000000 1.000000
f -5//-5 -4//-4 -3//-3
f -3//-3 -4//-4 -2//-2
f -3//-3 -2//-2 -1//-1
v -3.194380e+00 -5.844179e+00 -1.665514e+01
v -2.848500e+00 -6.171814e+00 -1.665514e+01
v 0.000000e+00 -2.818301e+00 -1.665514e+01
v -2.469223e+00 -6.460133e+00 -1.665514e+01
v -2.060997e+00 -6.705754e+00 -1.665514e+01
vn 0.000000 0.000000 1.000000
vn 0.000000 0.000000 1.000000
vn 0.000000 0.000000 1.000000
vn 0.000000 0.000000 1.000000
vn 0.000000 0.000000 1.000000
f -5//-5 -4//-4 -3//-3
f -3//-3 -4//-4 -2//-2
f -3//-3 -2//-2 -1//-1
v -2.060997e+00 -6.705754e+00 -1.665514e+01
v -1.628608e+00 -6.905798e+00 -1.665514e+01
v 0.000000e+00 -2.818301e+00 -1.665514e+01
v -1.177125e+00 -7.057921e+00 -1.665514e+01
v -7.118408e-01 -7.160338e+00 -1.665514e+01
vn 0.000000 0.000000 1.000000
vn 0.000000 0.000000 1.000000
vn 0.000000 0.000000 1.000000
vn 0.000000 0.000000 1.000000
vn 0.000000 0.000000 1.000000
f -5//-5 -4//-4 -3//-3
f -3//-3 -4//-4 -2//-2
f -3//-3 -2//-2 -1//-1
v -7.118408e-01 -7.160338e+00 -1.665514e+01
v -2.382112e-01 -7.211848e+00 -1.665514e+01
v 0.000000e+00 -2.818301e+00 -1.665514e+01
v 2.382112e-01 -7.211848e+00 -1.665514e+01
v 7.118408e-01 -7.160338e+00 -1.665514e+01
vn 0.000000 0.000000 1.000000
vn 0.000000 0.000000 1.000000
vn 0.000000 0.000000 1.000000
vn 0.000000 0.000000 1.000000
vn 0.000000 0.000000 1.000000
f -5//-5 -4//-4 -3//-3
f -3//-3 -4//-4 -2//-2
f -3//-3 -2//-2 -1//-1
v 7.118408e-01 -7.160338e+00 -1.665514e+01
v 1.177125e+00 -7.057921e+00 -1.665514e+01
v 0.000000e+00 -2.818301e+00 -1.665514e+01
v 1.628608e+00 -6.905798e+00 -1.665514e+01
v 2.060997e+00 -6.705754e+00 -1.665514e+01
vn 0.000000 0.000000 1.000000
vn 0.000000 0.000000 1.000000
vn 0.000000 0.000000 1.000000
vn 0.000000 0.000000 1.000000
vn 0.000000 0.000000 1.000000
f -5//-5 -4//-4 -3//-3
f -3//-3 -4//-4 -2//-2
f -3//-3 -2//-2 -1//-1
v 2.060997e+00 -6.705754e+00 -1.665514e+01
v 2.469223e+00 -6.460133e+00 -1.665514e+01
v 0.000000e+00 -2.818301e+00 -1.665514e+01
v 2.848500e+00 -6.171814e+00 -1.665514e+01
v 3.194380e+00 -5.844179e+00 -1.665514e+01
vn 0.000000 0.000000 1.000000
vn 0.000000 0.000000 1.000000
vn 0.000000 0.000000 1.000000
vn 0.000000 0.000000 1.000000
vn 0.000000 0.000000 1.000000
f -5//-5 -4//-4 -3//-3
f -3//-3 -4//-4 -2//-2
f -3//-3 -2//-2 -1//-1
v 3.194380e+00 -5.844179e+00 -1.665514e+01
v 3.502810e+00 -5.481068e+00 -1.665514e+01
v 0.000000e+00 -2.818301e+00 -1.665514e+01
v 3.770172e+00 -5.086738e+00 -1.665514e+01
v 3.993332e+00 -4.665813e+00 -1.665514e+01
vn 0.000000 0.000000 1.000000
vn 0.000000 0.000000 1.000000
vn 0.000000 0.000000 1.000000
vn 0.000000 0.000000 1.000000
vn 0.000000 0.000000 1.000000
f -5//-5 -4//-4 -3//-3
f -3//-3 -4//-4 -2//-2
f -3//-3 -2//-2 -1//-1
v 3.993332e+00 -4.665813e+00 -1.665514e+01
v 4.169674e+00 -4.223228e+00 -1.665514e+01
v 0.000000e+00 -2.818301e+00 -1.665514e+01
v 4.297131e+00 -3.764171e+00 -1.665514e+01
v 4.374207e+00 -3.294025e+00 -1.665514e+01
vn 0.000000 0.000000 1.000000
vn 0.000000 0.000000 1.000000
vn 0.000000 0.000000 1.000000
vn 0.000000 0.000000 1.000000
vn 0.000000 0.000000 1.000000
f -5//-5 -4//-4 -3//-3
f -3//-3 -4//-4 -2//-2
f -3//-3 -2//-2 -1//-1
v 0.000000e+00 -2.818301e+00 -1.665514e+01
v 4.374207e+00 -3.294025e+00 -1.665514e+01
v 4.400000e+00 -2.818301e+00 -1.665514e+01
vn 0.000000 0.000000 1.000000
vn 0.000000 0.000000 1.000000
vn 0.000000 0.000000 1.000000
f -3//-3 -2//-2 -1//-1
