#
mtllib ant_Patch_TZFQAI.mtl
usemtl ff4180ff
v -2.465000e+00 3.221210e+00 1.575000e+00
v -4.564354e+00 3.221210e+00 1.575000e+00
v -2.465000e+00 0.000000e+00 1.575000e+00
v -4.564354e+00 -3.221210e+00 1.575000e+00
v 2.465000e+00 0.000000e+00 1.575000e+00
v 4.564354e+00 -3.221210e+00 1.575000e+00
v 4.564354e+00 3.221210e+00 1.575000e+00
vn -0.000000 0.000000 1.000000
vn -0.000000 0.000000 1.000000
vn -0.000000 0.000000 1.000000
vn -0.000000 0.000000 1.000000
vn -0.000000 0.000000 1.000000
vn -0.000000 0.000000 1.000000
vn -0.000000 0.000000 1.000000
f -7//-7 -6//-6 -5//-5
f -5//-5 -6//-6 -4//-4
f -5//-5 -4//-4 -3//-3
f -3//-3 -4//-4 -2//-2
f -3//-3 -2//-2 -1//-1
v 2.465000e+00 0.000000e+00 1.575000e+00
v 4.564354e+00 3.221210e+00 1.575000e+00
v 2.465000e+00 3.221210e+00 1.575000e+00
vn -0.000000 0.000000 1.000000
vn -0.000000 0.000000 1.000000
vn -0.000000 0.000000 1.000000
f -3//-3 -2//-2 -1//-1
