#
mtllib port_Circular_Waveguide.mtl
usemtl ff000080
v 1.143000e+01 0.000000e+00 -5.080000e+01
v 1.136300e+01 1.235800e+00 -5.080000e+01
v 0.000000e+00 0.000000e+00 -5.080000e+01
v 1.116277e+01 2.457112e+00 -5.080000e+01
v 1.083168e+01 3.649616e+00 -5.080000e+01
vn 0.000000 0.000000 1.000000
vn 0.000000 0.000000 1.000000
vn 0.000000 0.000000 1.000000
vn 0.000000 0.000000 1.000000
vn 0.000000 0.000000 1.000000
f -5//-5 -4//-4 -3//-3
f -3//-3 -4//-4 -2//-2
f -3//-3 -2//-2 -1//-1
v 1.083168e+01 3.649616e+00 -5.080000e+01
v 1.037359e+01 4.799333e+00 -5.080000e+01
v 0.000000e+00 0.000000e+00 -5.080000e+01
v 9.793878e+00 5.892781e+00 -5.080000e+01
v 9.099343e+00 6.917141e+00 -5.080000e+01
vn 0.000000 0.000000 1.000000
vn 0.000000 0.000000 1.000000
vn 0.000000 0.000000 1.000000
vn 0.000000 0.000000 1.000000
vn 0.000000 0.000000 1.000000
f -5//-5 -4//-4 -3//-3
f -3//-3 -4//-4 -2//-2
f -3//-3 -2//-2 -1//-1
v 9.099343e+00 6.917141e+00 -5.080000e+01
v 8.298128e+00 7.860405e+00 -5.080000e+01
v 0.000000e+00 0.000000e+00 -5.080000e+01
v 7.399625e+00 8.711513e+00 -5.080000e+01
v 6.414368e+00 9.460485e+00 -5.080000e+01
vn 0.000000 0.000000 1.000000
vn 0.000000 0.000000 1.000000
vn 0.000000 0.000000 1.000000
vn 0.000000 0.000000 1.000000
vn 0.000000 0.000000 1.000000
f -5//-5 -4//-4 -3//-3
f -3//-3 -4//-4 -2//-2
f -3//-3 -2//-2 -1//-1
v 6.414368e+00 9.460485e+00 -5.080000e+01
v 5.353909e+00 1.009854e+01 -5.080000e+01
v 0.000000e+00 0.000000e+00 -5.080000e+01
v 4.230679e+00 1.061820e+01 -5.080000e+01
v 3.057849e+00 1.101338e+01 -5.080000e+01
vn 0.000000 0.000000 1.000000
vn 0.000000 0.000000 1.000000
vn 0.000000 0.000000 1.000000
vn 0.000000 0.000000 1.000000
vn 0.000000 0.000000 1.000000
f -5//-5 -4//-4 -3//-3
f -3//-3 -4//-4 -2//-2
f -3//-3 -2//-2 -1//-1
v 3.057849e+00 1.101338e+01 -5.080000e+01
v 1.849168e+00 1.127943e+01 -5.080000e+01
v 0.000000e+00 0.000000e+00 -5.080000e+01
v 6.188077e-01 1.141324e+01 -5.080000e+01
v -6.188077e-01 1.141324e+01 -5.080000e+01
vn 0.000000 0.000000 1.000000
vn 0.000000 0.000000 1.000000
vn 0.000000 0.000000 1.000000
vn 0.000000 0.000000 1.000000
vn 0.000000 0.000000 1.000000
f -5//-5 -4//-4 -3//-3
f -3//-3 -4//-4 -2//-2
f -3//-3 -2//-2 -1//-1
v -6.188077e-01 1.141324e+01 -5.080000e+01
v -1.849168e+00 1.127943e+01 -5.080000e+01
v 0.000000e+00 0.000000e+00 -5.080000e+01
v -3.057849e+00 1.101338e+01 -5.080000e+01
v -4.230679e+00 1.061820e+01 -5.080000e+01
vn 0.000000 0.000000 1.000000
vn 0.000000 0.000000 1.000000
vn 0.000000 0.000000 1.000000
vn 0.000000 0.000000 1.000000
vn 0.000000 0.000000 1.000000
f -5//-5 -4//-4 -3//-3
f -3//-3 -4//-4 -2//-2
f -3//-3 -2//-2 -1//-1
v -4.230679e+00 1.061820e+01 -5.080000e+01
v -5.353909e+00 1.009854e+01 -5.080000e+01
v 0.000000e+00 0.000000e+00 -5.080000e+01
v -6.414368e+00 9.460485e+00 -5.080000e+01
v -7.399625e+00 8.711513e+00 -5.080000e+01
vn 0.000000 0.000000 1.000000
vn 0.000000 0.000000 1.000000
vn 0.000000 0.000000 1.000000
vn 0.000000 0.000000 1.000000
vn 0.000000 0.000000 1.000000
f -5//-5 -4//-4 -3//-3
f -3//-3 -4//-4 -2//-2
f -3//-3 -2//-2 -1//-1
v -7.399625e+00 8.711513e+00 -5.080000e+01
v -8.298128e+00 7.860405e+00 -5.080000e+01
v 0.000000e+00 0.000000e+00 -5.080000e+01
v -9.099343e+00 6.917141e+00 -5.080000e+01
v -9.793878e+00 5.892781e+00 -5.080000e+01
vn 0.000000 0.000000 1.000000
vn 0.000000 0.000000 1.000000
vn 0.000000 0.000000 1.000000
vn 0.000000 0.000000 1.000000
vn 0.000000 0.000000 1.000000
f -5//-5 -4//-4 -3//-3
f -3//-3 -4//-4 -2//-2
f -3//-3 -2//-2 -1//-1
v -9.793878e+00 5.892781e+00 -5.080000e+01
v -1.037359e+01 4.799333e+00 -5.080000e+01
v 0.000000e+00 0.000000e+00 -5.080000e+01
v -1.083168e+01 3.649616e+00 -5.080000e+01
v -1.116277e+01 2.457112e+00 -5.080000e+01
vn 0.000000 0.000000 1.000000
vn 0.000000 0.000000 1.000000
vn 0.000000 0.000000 1.000000
vn 0.000000 0.000000 1.000000
vn 0.000000 0.000000 1.000000
f -5//-5 -4//-4 -3//-3
f -3//-3 -4//-4 -2//-2
f -3//-3 -2//-2 -1//-1
v -1.116277e+01 2.457112e+00 -5.080000e+01
v -1.136300e+01 1.235800e+00 -5.080000e+01
v 0.000000e+00 0.000000e+00 -5.080000e+01
v -1.143000e+01 -2.379347e-15 -5.080000e+01
v -1.136300e+01 -1.235800e+00 -5.080000e+01
vn 0.000000 0.000000 1.000000
vn 0.000000 0.000000 1.000000
vn 0.000000 0.000000 1.000000
vn 0.000000 0.000000 1.000000
vn 0.000000 0.000000 1.000000
f -5//-5 -4//-4 -3//-3
f -3//-3 -4//-4 -2//-2
f -3//-3 -2//-2 -1//-1
v -1.136300e+01 -1.235800e+00 -5.080000e+01
v -1.116277e+01 -2.457112e+00 -5.080000e+01
v 0.000000e+00 0.000000e+00 -5.080000e+01
v -1.083168e+01 -3.649616e+00 -5.080000e+01
v -1.037359e+01 -4.799333e+00 -5.080000e+01
vn 0.000000 0.000000 1.000000
vn 0.000000 0.000000 1.000000
vn 0.000000 0.000000 1.000000
vn 0.000000 0.000000 1.000000
vn 0.000000 0.000000 1.000000
f -5//-5 -4//-4 -3//-3
f -3//-3 -4//-4 -2//-2
f -3//-3 -2//-2 -1//-1
v -1.037359e+01 -4.799333e+00 -5.080000e+01
v -9.793878e+00 -5.892781e+00 -5.080000e+01
v 0.000000e+00 0.000000e+00 -5.080000e+01
v -9.099343e+00 -6.917141e+00 -5.080000e+01
v -8.298128e+00 -7.860405e+00 -5.080000e+01
vn 0.000000 0.000000 1.000000
vn 0.000000 0.000000 1.000000
vn 0.000000 0.000000 1.000000
vn 0.000000 0.000000 1.000000
vn 0.000000 0.000000 1.000000
f -5//-5 -4//-4 -3//-3
f -3//-3 -4//-4 -2//-2
f -3//-3 -2//-2 -1//-1
v -8.298128e+00 -7.860405e+00 -5.080000e+01
v -7.399625e+00 -8.711513e+00 -5.080000e+01
v 0.000000e+00 0.000000e+00 -5.080000e+01
v -6.414368e+00 -9.460485e+00 -5.080000e+01
v -5.353909e+00 -1.009854e+01 -5.080000e+01
vn 0.000000 0.000000 1.000000
vn 0.000000 0.000000 1.000000
vn 0.000000 0.000000 1.000000
vn 0.000000 0.000000 1.000000
vn 0.000000 0.000000 1.000000
f -5//-5 -4//-4 -3//-3
f -3//-3 -4//-4 -2//-2
f -3//-3 -2//-2 -1//-1
v -5.353909e+00 -1.009854e+01 -5.080000e+01
v -4.230679e+00 -1.061820e+01 -5.080000e+01
v 0.000000e+00 0.000000e+00 -5.080000e+01
v -3.057849e+00 -1.101338e+01 -5.080000e+01
v -1.849168e+00 -1.127943e+01 -5.080000e+01
vn 0.000000 0.000000 1.000000
vn 0.000000 0.000000 1.000000
vn 0.000000 0.000000 1.000000
vn 0.000000 0.000000 1.000000
vn 0.000000 0.000000 1.000000
f -5//-5 -4//-4 -3//-3
f -3//-3 -4//-4 -2//-2
f -3//-3 -2//-2 -1//-1
v -1.849168e+00 -1.127943e+01 -5.080000e+01
v -6.188077e-01 -1.141324e+01 -5.080000e+01
v 0.000000e+00 0.000000e+00 -5.080000e+01
v 6.188077e-01 -1.141324e+01 -5.080000e+01
v 1.849168e+00 -1.127943e+01 -5.080000e+01
vn 0.000000 0.000000 1.000000
vn 0.000000 0.000000 1.000000
vn 0.000000 0.000000 1.000000
vn 0.000000 0.000000 1.000000
vn 0.000000 0.000000 1.000000
f -5//-5 -4//-4 -3//-3
f -3//-3 -4//-4 -2//-2
f -3//-3 -2//-2 -1//-1
v 1.849168e+00 -1.127943e+01 -5.080000e+01
v 3.057849e+00 -1.101338e+01 -5.080000e+01
v 0.000000e+00 0.000000e+00 -5.080000e+01
v 4.230679e+00 -1.061820e+01 -5.080000e+01
v 5.353909e+00 -1.009854e+01 -5.080000e+01
vn 0.000000 0.000000 1.000000
vn 0.000000 0.000000 1.000000
vn 0.000000 0.000000 1.000000
vn 0.000000 0.000000 1.000000
vn 0.000000 0.000000 1.000000
f -5//-5 -4//-4 -3//-3
f -3//-3 -4//-4 -2//-2
f -3//-3 -2//-2 -1//-1
v 5.353909e+00 -1.009854e+01 -5.080000e+01
v 6.414368e+00 -9.460485e+00 -5.080000e+01
v 0.000000e+00 0.000000e+00 -5.080000e+01
v 7.399625e+00 -8.711513e+00 -5.080000e+01
v 8.298128e+00 -7.860405e+00 -5.080000e+01
vn 0.000000 0.000000 1.000000
vn 0.000000 0.000000 1.000000
vn 0.000000 0.000000 1.000000
vn 0.000000 0.000000 1.000000
vn 0.000000 0.000000 1.000000
f -5//-5 -4//-4 -3//-3
f -3//-3 -4//-4 -2//-2
f -3//-3 -2//-2 -1//-1
v 8.298128e+00 -7.860405e+00 -5.080000e+01
v 9.099343e+00 -6.917141e+00 -5.080000e+01
v 0.000000e+00 0.000000e+00 -5.080000e+01
v 9.793878e+00 -5.892781e+00 -5.080000e+01
v 1.037359e+01 -4.799333e+00 -5.080000e+01
vn 0.000000 0.000000 1.000000
vn 0.000000 0.000000 1.000000
vn 0.000000 0.000000 1.000000
vn 0.000000 0.000000 1.000000
vn 0.000000 0.000000 1.000000
f -5//-5 -4//-4 -3//-3
f -3//-3 -4//-4 -2//-2
f -3//-3 -2//-2 -1//-1
v 1.037359e+01 -4.799333e+00 -5.080000e+01
v 1.083168e+01 -3.649616e+00 -5.080000e+01
v 0.000000e+00 0.000000e+00 -5.080000e+01
v 1.116277e+01 -2.457112e+00 -5.080000e+01
v 1.136300e+01 -1.235800e+00 -5.080000e+01
vn 0.000000 0.000000 1.000000
vn 0.000000 0.000000 1.000000
vn 0.000000 0.000000 1.000000
vn 0.000000 0.000000 1.000000
vn 0.000000 0.000000 1.000000
f -5//-5 -4//-4 -3//-3
f -3//-3 -4//-4 -2//-2
f -3//-3 -2//-2 -1//-1
v 0.000000e+00 0.000000e+00 -5.080000e+01
v 1.136300e+01 -1.235800e+00 -5.080000e+01
v 1.143000e+01 0.000000e+00 -5.080000e+01
vn 0.000000 0.000000 1.000000
vn 0.000000 0.000000 1.000000
vn 0.000000 0.000000 1.000000
f -3//-3 -2//-2 -1//-1
