#
mtllib port_Horn_DTI0Z0.mtl
usemtl ff000080
v 2.099931e+02 0.000000e+00 -7.994470e+00
v 2.099345e+02 1.080442e+00 -7.994470e+00
v 2.000000e+02 0.000000e+00 -7.994470e+00
v 2.097594e+02 2.148217e+00 -7.994470e+00
v 2.094700e+02 3.190806e+00 -7.994470e+00
vn 0.000000 0.000000 1.000000
vn 0.000000 0.000000 1.000000
vn 0.000000 0.000000 1.000000
vn 0.000000 0.000000 1.000000
vn 0.000000 0.000000 1.000000
f -5//-5 -4//-4 -3//-3
f -3//-3 -4//-4 -2//-2
f -3//-3 -2//-2 -1//-1
v 2.094700e+02 3.190806e+00 -7.994470e+00
v 2.090695e+02 4.195985e+00 -7.994470e+00
v 2.000000e+02 0.000000e+00 -7.994470e+00
v 2.085626e+02 5.151971e+00 -7.994470e+00
v 2.079554e+02 6.047554e+00 -7.994470e+00
vn 0.000000 0.000000 1.000000
vn 0.000000 0.000000 1.000000
vn 0.000000 0.000000 1.000000
vn 0.000000 0.000000 1.000000
vn 0.000000 0.000000 1.000000
f -5//-5 -4//-4 -3//-3
f -3//-3 -4//-4 -2//-2
f -3//-3 -2//-2 -1//-1
v 2.079554e+02 6.047554e+00 -7.994470e+00
v 2.072549e+02 6.872236e+00 -7.994470e+00
v 2.000000e+02 0.000000e+00 -7.994470e+00
v 2.064694e+02 7.616346e+00 -7.994470e+00
v 2.056080e+02 8.271162e+00 -7.994470e+00
vn 0.000000 0.000000 1.000000
vn 0.000000 0.000000 1.000000
vn 0.000000 0.000000 1.000000
vn 0.000000 0.000000 1.000000
vn 0.000000 0.000000 1.000000
f -5//-5 -4//-4 -3//-3
f -3//-3 -4//-4 -2//-2
f -3//-3 -2//-2 -1//-1
v 2.056080e+02 8.271162e+00 -7.994470e+00
v 2.046808e+02 8.829006e+00 -7.994470e+00
v 2.000000e+02 0.000000e+00 -7.994470e+00
v 2.036988e+02 9.283339e+00 -7.994470e+00
v 2.026734e+02 9.628832e+00 -7.994470e+00
vn 0.000000 0.000000 1.000000
vn 0.000000 0.000000 1.000000
vn 0.000000 0.000000 1.000000
vn 0.000000 0.000000 1.000000
vn 0.000000 0.000000 1.000000
f -5//-5 -4//-4 -3//-3
f -3//-3 -4//-4 -2//-2
f -3//-3 -2//-2 -1//-1
v 2.026734e+02 9.628832e+00 -7.994470e+00
v 2.016167e+02 9.861437e+00 -7.994470e+00
v 2.000000e+02 0.000000e+00 -7.994470e+00
v 2.005410e+02 9.978424e+00 -7.994470e+00
v 1.994590e+02 9.978424e+00 -7.994470e+00
vn 0.000000 0.000000 1.000000
vn 0.000000 0.000000 1.000000
vn 0.000000 0.000000 1.000000
vn 0.000000 0.000000 1.000000
vn 0.000000 0.000000 1.000000
f -5//-5 -4//-4 -3//-3
f -3//-3 -4//-4 -2//-2
f -3//-3 -2//-2 -1//-1
v 1.994590e+02 9.978424e+00 -7.994470e+00
v 1.983833e+02 9.861437e+00 -7.994470e+00
v 2.000000e+02 0.000000e+00 -7.994470e+00
v 1.973266e+02 9.628832e+00 -7.994470e+00
v 1.963012e+02 9.283339e+00 -7.994470e+00
vn 0.000000 0.000000 1.000000
vn 0.000000 0.000000 1.000000
vn 0.000000 0.000000 1.000000
vn 0.000000 0.000000 1.000000
vn 0.000000 0.000000 1.000000
f -5//-5 -4//-4 -3//-3
f -3//-3 -4//-4 -2//-2
f -3//-3 -2//-2 -1//-1
v 1.963012e+02 9.283339e+00 -7.994470e+00
v 1.953192e+02 8.829006e+00 -7.994470e+00
v 2.000000e+02 0.000000e+00 -7.994470e+00
v 1.943920e+02 8.271162e+00 -7.994470e+00
v 1.935306e+02 7.616346e+00 -7.994470e+00
vn 0.000000 0.000000 1.000000
vn 0.000000 0.000000 1.000000
vn 0.000000 0.000000 1.000000
vn 0.000000 0.000000 1.000000
vn 0.000000 0.000000 1.000000
f -5//-5 -4//-4 -3//-3
f -3//-3 -4//-4 -2//-2
f -3//-3 -2//-2 -1//-1
v 1.935306e+02 7.616346e+00 -7.994470e+00
v 1.927451e+02 6.872236e+00 -7.994470e+00
v 2.000000e+02 0.000000e+00 -7.994470e+00
v 1.920446e+02 6.047554e+00 -7.994470e+00
v 1.914374e+02 5.151971e+00 -7.994470e+00
vn 0.000000 0.000000 1.000000
vn 0.000000 0.000000 1.000000
vn 0.000000 0.000000 1.000000
vn 0.000000 0.000000 1.000000
vn 0.000000 0.000000 1.000000
f -5//-5 -4//-4 -3//-3
f -3//-3 -4//-4 -2//-2
f -3//-3 -2//-2 -1//-1
v 1.914374e+02 5.151971e+00 -7.994470e+00
v 1.909305e+02 4.195985e+00 -7.994470e+00
v 2.000000e+02 0.000000e+00 -7.994470e+00
v 1.905300e+02 3.190806e+00 -7.994470e+00
v 1.902406e+02 2.148217e+00 -7.994470e+00
vn 0.000000 0.000000 1.000000
vn 0.000000 0.000000 1.000000
vn 0.000000 0.000000 1.000000
vn 0.000000 0.000000 1.000000
vn 0.000000 0.000000 1.000000
f -5//-5 -4//-4 -3//-3
f -3//-3 -4//-4 -2//-2
f -3//-3 -2//-2 -1//-1
v 1.902406e+02 2.148217e+00 -7.994470e+00
v 1.900655e+02 1.080442e+00 -7.994470e+00
v 2.000000e+02 0.000000e+00 -7.994470e+00
v 1.900069e+02 -2.080228e-15 -7.994470e+00
v 1.900655e+02 -1.080442e+00 -7.994470e+00
vn 0.000000 0.000000 1.000000
vn 0.000000 0.000000 1.000000
vn 0.000000 0.000000 1.000000
vn 0.000000 0.000000 1.000000
vn 0.000000 0.000000 1.000000
f -5//-5 -4//-4 -3//-3
f -3//-3 -4//-4 -2//-2
f -3//-3 -2//-2 -1//-1
v 1.900655e+02 -1.080442e+00 -7.994470e+00
v 1.902406e+02 -2.148217e+00 -7.994470e+00
v 2.000000e+02 0.000000e+00 -7.994470e+00
v 1.905300e+02 -3.190806e+00 -7.994470e+00
v 1.909305e+02 -4.195985e+00 -7.994470e+00
vn 0.000000 0.000000 1.000000
vn 0.000000 0.000000 1.000000
vn 0.000000 0.000000 1.000000
vn 0.000000 0.000000 1.000000
vn 0.000000 0.000000 1.000000
f -5//-5 -4//-4 -3//-3
f -3//-3 -4//-4 -2//-2
f -3//-3 -2//-2 -1//-1
v 1.909305e+02 -4.195985e+00 -7.994470e+00
v 1.914374e+02 -5.151971e+00 -7.994470e+00
v 2.000000e+02 0.000000e+00 -7.994470e+00
v 1.920446e+02 -6.047554e+00 -7.994470e+00
v 1.927451e+02 -6.872236e+00 -7.994470e+00
vn 0.000000 0.000000 1.000000
vn 0.000000 0.000000 1.000000
vn 0.000000 0.000000 1.000000
vn 0.000000 0.000000 1.000000
vn 0.000000 0.000000 1.000000
f -5//-5 -4//-4 -3//-3
f -3//-3 -4//-4 -2//-2
f -3//-3 -2//-2 -1//-1
v 1.927451e+02 -6.872236e+00 -7.994470e+00
v 1.935306e+02 -7.616346e+00 -7.994470e+00
v 2.000000e+02 0.000000e+00 -7.994470e+00
v 1.943920e+02 -8.271162e+00 -7.994470e+00
v 1.953192e+02 -8.829006e+00 -7.994470e+00
vn 0.000000 0.000000 1.000000
vn 0.000000 0.000000 1.000000
vn 0.000000 0.000000 1.000000
vn 0.000000 0.000000 1.000000
vn 0.000000 0.000000 1.000000
f -5//-5 -4//-4 -3//-3
f -3//-3 -4//-4 -2//-2
f -3//-3 -2//-2 -1//-1
v 1.953192e+02 -8.829006e+00 -7.994470e+00
v 1.963012e+02 -9.283339e+00 -7.994470e+00
v 2.000000e+02 0.000000e+00 -7.994470e+00
v 1.973266e+02 -9.628832e+00 -7.994470e+00
v 1.983833e+02 -9.861437e+00 -7.994470e+00
vn 0.000000 0.000000 1.000000
vn 0.000000 0.000000 1.000000
vn 0.000000 0.000000 1.000000
vn 0.000000 0.000000 1.000000
vn 0.000000 0.000000 1.000000
f -5//-5 -4//-4 -3//-3
f -3//-3 -4//-4 -2//-2
f -3//-3 -2//-2 -1//-1
v 1.983833e+02 -9.861437e+00 -7.994470e+00
v 1.994590e+02 -9.978424e+00 -7.994470e+00
v 2.000000e+02 0.000000e+00 -7.994470e+00
v 2.005410e+02 -9.978424e+00 -7.994470e+00
v 2.016167e+02 -9.861437e+00 -7.994470e+00
vn 0.000000 0.000000 1.000000
vn 0.000000 0.000000 1.000000
vn 0.000000 0.000000 1.000000
vn 0.000000 0.000000 1.000000
vn 0.000000 0.000000 1.000000
f -5//-5 -4//-4 -3//-3
f -3//-3 -4//-4 -2//-2
f -3//-3 -2//-2 -1//-1
v 2.016167e+02 -9.861437e+00 -7.994470e+00
v 2.026734e+02 -9.628832e+00 -7.994470e+00
v 2.000000e+02 0.000000e+00 -7.994470e+00
v 2.036988e+02 -9.283339e+00 -7.994470e+00
v 2.046808e+02 -8.829006e+00 -7.994470e+00
vn 0.000000 0.000000 1.000000
vn 0.000000 0.000000 1.000000
vn 0.000000 0.000000 1.000000
vn 0.000000 0.000000 1.000000
vn 0.000000 0.000000 1.000000
f -5//-5 -4//-4 -3//-3
f -3//-3 -4//-4 -2//-2
f -3//-3 -2//-2 -1//-1
v 2.046808e+02 -8.829006e+00 -7.994470e+00
v 2.056080e+02 -8.271162e+00 -7.994470e+00
v 2.000000e+02 0.000000e+00 -7.994470e+00
v 2.064694e+02 -7.616346e+00 -7.994470e+00
v 2.072549e+02 -6.872236e+00 -7.994470e+00
vn 0.000000 0.000000 1.000000
vn 0.000000 0.000000 1.000000
vn 0.000000 0.000000 1.000000
vn 0.000000 0.000000 1.000000
vn 0.000000 0.000000 1.000000
f -5//-5 -4//-4 -3//-3
f -3//-3 -4//-4 -2//-2
f -3//-3 -2//-2 -1//-1
v 2.072549e+02 -6.872236e+00 -7.994470e+00
v 2.079554e+02 -6.047554e+00 -7.994470e+00
v 2.000000e+02 0.000000e+00 -7.994470e+00
v 2.085626e+02 -5.151971e+00 -7.994470e+00
v 2.090695e+02 -4.195985e+00 -7.994470e+00
vn 0.000000 0.000000 1.000000
vn 0.000000 0.000000 1.000000
vn 0.000000 0.000000 1.000000
vn 0.000000 0.000000 1.000000
vn 0.000000 0.000000 1.000000
f -5//-5 -4//-4 -3//-3
f -3//-3 -4//-4 -2//-2
f -3//-3 -2//-2 -1//-1
v 2.090695e+02 -4.195985e+00 -7.994470e+00
v 2.094700e+02 -3.190806e+00 -7.994470e+00
v 2.000000e+02 0.000000e+00 -7.994470e+00
v 2.097594e+02 -2.148217e+00 -7.994470e+00
v 2.099345e+02 -1.080442e+00 -7.994470e+00
vn 0.000000 0.000000 1.000000
vn 0.000000 0.000000 1.000000
vn 0.000000 0.000000 1.000000
vn 0.000000 0.000000 1.000000
vn 0.000000 0.000000 1.000000
f -5//-5 -4//-4 -3//-3
f -3//-3 -4//-4 -2//-2
f -3//-3 -2//-2 -1//-1
v 2.000000e+02 0.000000e+00 -7.994470e+00
v 2.099345e+02 -1.080442e+00 -7.994470e+00
v 2.099931e+02 0.000000e+00 -7.994470e+00
vn 0.000000 0.000000 1.000000
vn 0.000000 0.000000 1.000000
vn 0.000000 0.000000 1.000000
f -3//-3 -2//-2 -1//-1
