#
mtllib ant_SeqRotated2Patch_2.mtl
usemtl ff4180ff
v -5.976272e+00 -1.614300e+01 1.272000e+00
v -6.203064e+00 -1.490687e+01 1.272000e+00
v -7.382000e+00 -1.614300e+01 1.272000e+00
v -6.560419e+00 -1.370199e+01 1.272000e+00
v -7.044260e+00 -1.254211e+01 1.272000e+00
vn 0.000000 0.000000 1.000000
vn 0.000000 0.000000 1.000000
vn 0.000000 0.000000 1.000000
vn 0.000000 0.000000 1.000000
vn 0.000000 0.000000 1.000000
f -5//-5 -4//-4 -3//-3
f -3//-3 -4//-4 -2//-2
f -3//-3 -2//-2 -1//-1
v -2.824574e+01 -1.254211e+01 1.272000e+00
v -2.872958e+01 -1.370199e+01 1.272000e+00
v -2.790800e+01 -1.614300e+01 1.272000e+00
v -2.908694e+01 -1.490687e+01 1.272000e+00
v -2.931373e+01 -1.614300e+01 1.272000e+00
vn 0.000000 0.000000 1.000000
vn 0.000000 0.000000 1.000000
vn 0.000000 0.000000 1.000000
vn 0.000000 0.000000 1.000000
vn 0.000000 0.000000 1.000000
f -5//-5 -4//-4 -3//-3
f -3//-3 -4//-4 -2//-2
f -3//-3 -2//-2 -1//-1
v -7.044260e+00 -2.274789e+01 1.272000e+00
v -6.560419e+00 -2.158801e+01 1.272000e+00
v -7.382000e+00 -1.914700e+01 1.272000e+00
v -6.203064e+00 -2.038313e+01 1.272000e+00
v -5.976272e+00 -1.914700e+01 1.272000e+00
vn 0.000000 0.000000 1.000000
vn 0.000000 0.000000 1.000000
vn 0.000000 0.000000 1.000000
vn 0.000000 0.000000 1.000000
vn 0.000000 0.000000 1.000000
f -5//-5 -4//-4 -3//-3
f -3//-3 -4//-4 -2//-2
f -3//-3 -2//-2 -1//-1
v -1.011383e+01 -2.668362e+01 1.272000e+00
v -9.192656e+00 -2.582871e+01 1.272000e+00
v -7.044260e+00 -2.274789e+01 1.272000e+00
v -8.367929e+00 -2.488041e+01 1.272000e+00
v -7.649063e+00 -2.384955e+01 1.272000e+00
vn 0.000000 0.000000 1.000000
vn 0.000000 0.000000 1.000000
vn 0.000000 0.000000 1.000000
vn 0.000000 0.000000 1.000000
vn 0.000000 0.000000 1.000000
f -5//-5 -4//-4 -3//-3
f -3//-3 -4//-4 -2//-2
f -3//-3 -2//-2 -1//-1
v -2.931373e+01 -1.914700e+01 1.272000e+00
v -2.908694e+01 -2.038313e+01 1.272000e+00
v -2.790800e+01 -1.914700e+01 1.272000e+00
v -2.872958e+01 -2.158801e+01 1.272000e+00
v -2.824574e+01 -2.274789e+01 1.272000e+00
vn 0.000000 0.000000 1.000000
vn 0.000000 0.000000 1.000000
vn 0.000000 0.000000 1.000000
vn 0.000000 0.000000 1.000000
vn 0.000000 0.000000 1.000000
f -5//-5 -4//-4 -3//-3
f -3//-3 -4//-4 -2//-2
f -3//-3 -2//-2 -1//-1
v -1.453888e+01 -6.297436e+00 1.272000e+00
v -1.576703e+01 -6.030850e+00 1.272000e+00
v -7.382000e+00 -1.614300e+01 1.272000e+00
v -1.701662e+01 -5.896793e+00 1.272000e+00
v -2.790800e+01 -1.614300e+01 1.272000e+00
v -1.827338e+01 -5.896793e+00 1.272000e+00
v -1.952297e+01 -6.030850e+00 1.272000e+00
vn 0.000000 0.000000 1.000000
vn 0.000000 0.000000 1.000000
vn 0.000000 0.000000 1.000000
vn 0.000000 0.000000 1.000000
vn 0.000000 0.000000 1.000000
vn 0.000000 0.000000 1.000000
vn 0.000000 0.000000 1.000000
f -7//-7 -6//-6 -5//-5
f -5//-5 -6//-6 -4//-4
f -5//-5 -4//-4 -3//-3
f -3//-3 -4//-4 -2//-2
f -3//-3 -2//-2 -1//-1
v -1.334616e+01 -2.859649e+01 1.272000e+00
v -1.220250e+01 -2.807546e+01 1.272000e+00
v -7.044260e+00 -2.274789e+01 1.272000e+00
v -1.112094e+01 -2.743540e+01 1.272000e+00
v -1.011383e+01 -2.668362e+01 1.272000e+00
vn 0.000000 0.000000 1.000000
vn 0.000000 0.000000 1.000000
vn 0.000000 0.000000 1.000000
vn 0.000000 0.000000 1.000000
vn 0.000000 0.000000 1.000000
f -5//-5 -4//-4 -3//-3
f -3//-3 -4//-4 -2//-2
f -3//-3 -2//-2 -1//-1
v -2.692207e+01 -2.488041e+01 1.272000e+00
v -2.609735e+01 -2.582871e+01 1.272000e+00
v -2.790800e+01 -1.914700e+01 1.272000e+00
v -2.517617e+01 -2.668362e+01 1.272000e+00
v -2.416906e+01 -2.743540e+01 1.272000e+00
vn 0.000000 0.000000 1.000000
vn 0.000000 0.000000 1.000000
vn 0.000000 0.000000 1.000000
vn 0.000000 0.000000 1.000000
vn 0.000000 0.000000 1.000000
f -5//-5 -4//-4 -3//-3
f -3//-3 -4//-4 -2//-2
f -3//-3 -2//-2 -1//-1
v -2.692207e+01 -2.488041e+01 1.272000e+00
v -2.790800e+01 -1.914700e+01 1.272000e+00
v -2.764094e+01 -2.384955e+01 1.272000e+00
v -2.824574e+01 -2.274789e+01 1.272000e+00
vn 0.000000 0.000000 1.000000
vn 0.000000 0.000000 1.000000
vn 0.000000 0.000000 1.000000
vn 0.000000 0.000000 1.000000
f -4//-4 -3//-3 -2//-2
f -2//-2 -3//-3 -1//-1
v -2.416906e+01 -2.743540e+01 1.272000e+00
v -2.308750e+01 -2.807546e+01 1.272000e+00
v -2.790800e+01 -1.914700e+01 1.272000e+00
v -2.194384e+01 -2.859649e+01 1.272000e+00
v -2.075113e+01 -2.899257e+01 1.272000e+00
vn 0.000000 0.000000 1.000000
vn 0.000000 0.000000 1.000000
vn 0.000000 0.000000 1.000000
vn 0.000000 0.000000 1.000000
vn 0.000000 0.000000 1.000000
f -5//-5 -4//-4 -3//-3
f -3//-3 -4//-4 -2//-2
f -3//-3 -2//-2 -1//-1
v -1.952297e+01 -6.030850e+00 1.272000e+00
v -2.075113e+01 -6.297436e+00 1.272000e+00
v -2.790800e+01 -1.614300e+01 1.272000e+00
v -2.194384e+01 -6.693507e+00 1.272000e+00
v -2.308750e+01 -7.214544e+00 1.272000e+00
vn 0.000000 0.000000 1.000000
vn 0.000000 0.000000 1.000000
vn 0.000000 0.000000 1.000000
vn 0.000000 0.000000 1.000000
vn 0.000000 0.000000 1.000000
f -5//-5 -4//-4 -3//-3
f -3//-3 -4//-4 -2//-2
f -3//-3 -2//-2 -1//-1
v -1.701662e+01 -2.939321e+01 1.272000e+00
v -1.576703e+01 -2.925915e+01 1.272000e+00
v -7.044260e+00 -2.274789e+01 1.272000e+00
v -1.453888e+01 -2.899257e+01 1.272000e+00
v -1.334616e+01 -2.859649e+01 1.272000e+00
vn 0.000000 0.000000 1.000000
vn 0.000000 0.000000 1.000000
vn 0.000000 0.000000 1.000000
vn 0.000000 0.000000 1.000000
vn 0.000000 0.000000 1.000000
f -5//-5 -4//-4 -3//-3
f -3//-3 -4//-4 -2//-2
f -3//-3 -2//-2 -1//-1
v -2.075113e+01 -2.899257e+01 1.272000e+00
v -1.952297e+01 -2.925915e+01 1.272000e+00
v -2.790800e+01 -1.914700e+01 1.272000e+00
v -1.827338e+01 -2.939321e+01 1.272000e+00
v -7.382000e+00 -1.914700e+01 1.272000e+00
v -7.044260e+00 -2.274789e+01 1.272000e+00
vn 0.000000 0.000000 1.000000
vn 0.000000 0.000000 1.000000
vn 0.000000 0.000000 1.000000
vn 0.000000 0.000000 1.000000
vn 0.000000 0.000000 1.000000
vn 0.000000 0.000000 1.000000
f -6//-6 -5//-5 -4//-4
f -4//-4 -5//-5 -3//-3
f -4//-4 -3//-3 -2//-2
f -2//-2 -3//-3 -1//-1
v -1.011383e+01 -8.606377e+00 1.272000e+00
v -1.112094e+01 -7.854602e+00 1.272000e+00
v -7.382000e+00 -1.614300e+01 1.272000e+00
v -1.220250e+01 -7.214544e+00 1.272000e+00
v -1.334616e+01 -6.693507e+00 1.272000e+00
vn 0.000000 0.000000 1.000000
vn 0.000000 0.000000 1.000000
vn 0.000000 0.000000 1.000000
vn 0.000000 0.000000 1.000000
vn 0.000000 0.000000 1.000000
f -5//-5 -4//-4 -3//-3
f -3//-3 -4//-4 -2//-2
f -3//-3 -2//-2 -1//-1
v -2.790800e+01 -1.614300e+01 1.272000e+00
v -2.790800e+01 -1.914700e+01 1.272000e+00
v -7.382000e+00 -1.614300e+01 1.272000e+00
v -7.382000e+00 -1.914700e+01 1.272000e+00
vn 0.000000 0.000000 1.000000
vn 0.000000 0.000000 1.000000
vn 0.000000 0.000000 1.000000
vn 0.000000 0.000000 1.000000
f -4//-4 -3//-3 -2//-2
f -2//-2 -3//-3 -1//-1
v -7.044260e+00 -1.254211e+01 1.272000e+00
v -7.649063e+00 -1.144045e+01 1.272000e+00
v -7.382000e+00 -1.614300e+01 1.272000e+00
v -8.367929e+00 -1.040959e+01 1.272000e+00
v -9.192656e+00 -9.461290e+00 1.272000e+00
vn 0.000000 0.000000 1.000000
vn 0.000000 0.000000 1.000000
vn 0.000000 0.000000 1.000000
vn 0.000000 0.000000 1.000000
vn 0.000000 0.000000 1.000000
f -5//-5 -4//-4 -3//-3
f -3//-3 -4//-4 -2//-2
f -3//-3 -2//-2 -1//-1
v -7.382000e+00 -1.614300e+01 1.272000e+00
v -1.334616e+01 -6.693507e+00 1.272000e+00
v -1.453888e+01 -6.297436e+00 1.272000e+00
vn 0.000000 0.000000 1.000000
vn 0.000000 0.000000 1.000000
vn 0.000000 0.000000 1.000000
f -3//-3 -2//-2 -1//-1
v -1.011383e+01 -8.606377e+00 1.272000e+00
v -7.382000e+00 -1.614300e+01 1.272000e+00
v -9.192656e+00 -9.461290e+00 1.272000e+00
vn 0.000000 0.000000 1.000000
vn 0.000000 0.000000 1.000000
vn 0.000000 0.000000 1.000000
f -3//-3 -2//-2 -1//-1
v -1.701662e+01 -2.939321e+01 1.272000e+00
v -7.044260e+00 -2.274789e+01 1.272000e+00
v -1.827338e+01 -2.939321e+01 1.272000e+00
vn 0.000000 0.000000 1.000000
vn 0.000000 0.000000 1.000000
vn 0.000000 0.000000 1.000000
f -3//-3 -2//-2 -1//-1
v -2.609735e+01 -9.461290e+00 1.272000e+00
v -2.692207e+01 -1.040959e+01 1.272000e+00
v -2.790800e+01 -1.614300e+01 1.272000e+00
v -2.764094e+01 -1.144045e+01 1.272000e+00
v -2.824574e+01 -1.254211e+01 1.272000e+00
vn 0.000000 0.000000 1.000000
vn 0.000000 0.000000 1.000000
vn 0.000000 0.000000 1.000000
vn 0.000000 0.000000 1.000000
vn 0.000000 0.000000 1.000000
f -5//-5 -4//-4 -3//-3
f -3//-3 -4//-4 -2//-2
f -3//-3 -2//-2 -1//-1
v -2.308750e+01 -7.214544e+00 1.272000e+00
v -2.416906e+01 -7.854602e+00 1.272000e+00
v -2.790800e+01 -1.614300e+01 1.272000e+00
v -2.517617e+01 -8.606377e+00 1.272000e+00
v -2.609735e+01 -9.461290e+00 1.272000e+00
vn 0.000000 0.000000 1.000000
vn 0.000000 0.000000 1.000000
vn 0.000000 0.000000 1.000000
vn 0.000000 0.000000 1.000000
vn 0.000000 0.000000 1.000000
f -5//-5 -4//-4 -3//-3
f -3//-3 -4//-4 -2//-2
f -3//-3 -2//-2 -1//-1
