#
mtllib feed_pin_SeqRotated2Patch_3.mtl
usemtl ff4180ff
v 2.152629e+01 -1.779089e+01 0.000000e+00
v 2.154355e+01 -1.784212e+01 1.272000e+00
v 2.154355e+01 -1.784212e+01 0.000000e+00
v 2.154940e+01 -1.789586e+01 1.272000e+00
v 2.154940e+01 -1.789586e+01 0.000000e+00
v 2.154355e+01 -1.794960e+01 1.272000e+00
v 2.154355e+01 -1.794960e+01 0.000000e+00
v 2.152629e+01 -1.800083e+01 1.272000e+00
v 2.152629e+01 -1.800083e+01 0.000000e+00
v 2.149842e+01 -1.804716e+01 1.272000e+00
v 2.149842e+01 -1.804716e+01 0.000000e+00
v 2.146125e+01 -1.808640e+01 1.272000e+00
v 2.146125e+01 -1.808640e+01 0.000000e+00
v 2.141650e+01 -1.811674e+01 1.272000e+00
v 2.141650e+01 -1.811674e+01 0.000000e+00
v 2.136628e+01 -1.813675e+01 1.272000e+00
v 2.136628e+01 -1.813675e+01 0.000000e+00
v 2.131293e+01 -1.814549e+01 1.272000e+00
v 2.131293e+01 -1.814549e+01 0.000000e+00
v 2.125896e+01 -1.814257e+01 1.272000e+00
v 2.125896e+01 -1.814257e+01 0.000000e+00
v 2.120687e+01 -1.812811e+01 1.272000e+00
v 2.120687e+01 -1.812811e+01 0.000000e+00
v 2.115910e+01 -1.810278e+01 1.272000e+00
v 2.115910e+01 -1.810278e+01 0.000000e+00
v 2.111790e+01 -1.806779e+01 1.272000e+00
v 2.111790e+01 -1.806779e+01 0.000000e+00
v 2.108519e+01 -1.802475e+01 1.272000e+00
v 2.108519e+01 -1.802475e+01 0.000000e+00
v 2.106249e+01 -1.797569e+01 1.272000e+00
v 2.106249e+01 -1.797569e+01 0.000000e+00
v 2.105087e+01 -1.792289e+01 1.272000e+00
v 2.105087e+01 -1.792289e+01 0.000000e+00
v 2.105087e+01 -1.786883e+01 1.272000e+00
v 2.105087e+01 -1.786883e+01 0.000000e+00
v 2.106249e+01 -1.781604e+01 1.272000e+00
v 2.106249e+01 -1.781604e+01 0.000000e+00
v 2.108519e+01 -1.776697e+01 1.272000e+00
v 2.108519e+01 -1.776697e+01 0.000000e+00
v 2.111790e+01 -1.772394e+01 1.272000e+00
v 2.111790e+01 -1.772394e+01 0.000000e+00
v 2.115910e+01 -1.768894e+01 1.272000e+00
v 2.115910e+01 -1.768894e+01 0.000000e+00
v 2.120687e+01 -1.766362e+01 1.272000e+00
v 2.120687e+01 -1.766362e+01 0.000000e+00
v 2.125896e+01 -1.764915e+01 1.272000e+00
v 2.125896e+01 -1.764915e+01 0.000000e+00
v 2.131293e+01 -1.764623e+01 1.272000e+00
v 2.131293e+01 -1.764623e+01 0.000000e+00
v 2.136628e+01 -1.765497e+01 1.272000e+00
v 2.136628e+01 -1.765497e+01 0.000000e+00
v 2.141650e+01 -1.767498e+01 1.272000e+00
v 2.141650e+01 -1.767498e+01 0.000000e+00
v 2.146125e+01 -1.770532e+01 1.272000e+00
v 2.146125e+01 -1.770532e+01 0.000000e+00
v 2.149842e+01 -1.774457e+01 1.272000e+00
v 2.149842e+01 -1.774457e+01 0.000000e+00
v 2.152629e+01 -1.779089e+01 1.272000e+00
v 2.152629e+01 -1.779089e+01 0.000000e+00
v 2.154355e+01 -1.784212e+01 1.272000e+00
vn 0.907575 0.419889 -0.000000
vn 0.976621 0.214970 -0.000000
vn 0.976621 0.214970 -0.000000
vn 1.000000 0.000000 0.000000
vn 1.000000 0.000000 0.000000
vn 0.976621 -0.214970 0.000000
vn 0.976621 -0.214970 0.000000
vn 0.907575 -0.419889 0.000000
vn 0.907575 -0.419889 0.000000
vn 0.796093 -0.605174 0.000000
vn 0.796093 -0.605174 0.000000
vn 0.647386 -0.762162 0.000000
vn 0.647386 -0.762162 0.000000
vn 0.468408 -0.883512 0.000000
vn 0.468408 -0.883512 0.000000
vn 0.267528 -0.963550 0.000000
vn 0.267528 -0.963550 0.000000
vn 0.054139 -0.998533 0.000000
vn 0.054139 -0.998533 0.000000
vn -0.161782 -0.986827 0.000000
vn -0.161782 -0.986827 0.000000
vn -0.370138 -0.928977 0.000000
vn -0.370138 -0.928977 0.000000
vn -0.561187 -0.827689 0.000000
vn -0.561187 -0.827689 0.000000
vn -0.725995 -0.687699 0.000000
vn -0.725995 -0.687699 0.000000
vn -0.856857 -0.515554 0.000000
vn -0.856857 -0.515554 0.000000
vn -0.947653 -0.319302 0.000000
vn -0.947653 -0.319302 0.000000
vn -0.994138 -0.108119 0.000000
vn -0.994138 -0.108119 0.000000
vn -0.994138 0.108119 0.000000
vn -0.994138 0.108119 0.000000
vn -0.947653 0.319302 0.000000
vn -0.947653 0.319302 0.000000
vn -0.856857 0.515554 0.000000
vn -0.856857 0.515554 0.000000
vn -0.725995 0.687699 0.000000
vn -0.725995 0.687699 0.000000
vn -0.561187 0.827689 0.000000
vn -0.561187 0.827689 0.000000
vn -0.370138 0.928977 0.000000
vn -0.370138 0.928977 0.000000
vn -0.161782 0.986827 0.000000
vn -0.161782 0.986827 0.000000
vn 0.054139 0.998533 -0.000000
vn 0.054139 0.998533 -0.000000
vn 0.267528 0.963550 -0.000000
vn 0.267528 0.963550 -0.000000
vn 0.468408 0.883512 -0.000000
vn 0.468408 0.883512 -0.000000
vn 0.647386 0.762162 -0.000000
vn 0.647386 0.762162 -0.000000
vn 0.796093 0.605174 -0.000000
vn 0.796093 0.605174 -0.000000
vn 0.907575 0.419889 -0.000000
vn 0.907575 0.419889 -0.000000
vn 0.976621 0.214970 -0.000000
f -60//-60 -59//-59 -58//-58
f -58//-58 -59//-59 -57//-57
f -58//-58 -57//-57 -56//-56
f -56//-56 -57//-57 -55//-55
f -56//-56 -55//-55 -54//-54
f -54//-54 -55//-55 -53//-53
f -54//-54 -53//-53 -52//-52
f -52//-52 -53//-53 -51//-51
f -52//-52 -51//-51 -50//-50
f -50//-50 -51//-51 -49//-49
f -50//-50 -49//-49 -48//-48
f -48//-48 -49//-49 -47//-47
f -48//-48 -47//-47 -46//-46
f -46//-46 -47//-47 -45//-45
f -46//-46 -45//-45 -44//-44
f -44//-44 -45//-45 -43//-43
f -44//-44 -43//-43 -42//-42
f -42//-42 -43//-43 -41//-41
f -42//-42 -41//-41 -40//-40
f -40//-40 -41//-41 -39//-39
f -40//-40 -39//-39 -38//-38
f -38//-38 -39//-39 -37//-37
f -38//-38 -37//-37 -36//-36
f -36//-36 -37//-37 -35//-35
f -36//-36 -35//-35 -34//-34
f -34//-34 -35//-35 -33//-33
f -34//-34 -33//-33 -32//-32
f -32//-32 -33//-33 -31//-31
f -32//-32 -31//-31 -30//-30
f -30//-30 -31//-31 -29//-29
f -30//-30 -29//-29 -28//-28
f -28//-28 -29//-29 -27//-27
f -28//-28 -27//-27 -26//-26
f -26//-26 -27//-27 -25//-25
f -26//-26 -25//-25 -24//-24
f -24//-24 -25//-25 -23//-23
f -24//-24 -23//-23 -22//-22
f -22//-22 -23//-23 -21//-21
f -22//-22 -21//-21 -20//-20
f -20//-20 -21//-21 -19//-19
f -20//-20 -19//-19 -18//-18
f -18//-18 -19//-19 -17//-17
f -18//-18 -17//-17 -16//-16
f -16//-16 -17//-17 -15//-15
f -16//-16 -15//-15 -14//-14
f -14//-14 -15//-15 -13//-13
f -14//-14 -13//-13 -12//-12
f -12//-12 -13//-13 -11//-11
f -12//-12 -11//-11 -10//-10
f -10//-10 -11//-11 -9//-9
f -10//-10 -9//-9 -8//-8
f -8//-8 -9//-9 -7//-7
f -8//-8 -7//-7 -6//-6
f -6//-6 -7//-7 -5//-5
f -6//-6 -5//-5 -4//-4
f -4//-4 -5//-5 -3//-3
f -4//-4 -3//-3 -2//-2
f -2//-2 -3//-3 -1//-1
v 2.154940e+01 -1.789586e+01 0.000000e+00
v 2.154355e+01 -1.794960e+01 0.000000e+00
v 2.129940e+01 -1.789586e+01 0.000000e+00
v 2.152629e+01 -1.800083e+01 0.000000e+00
v 2.149842e+01 -1.804716e+01 0.000000e+00
vn -0.000000 -0.000000 -1.000000
vn -0.000000 -0.000000 -1.000000
vn -0.000000 -0.000000 -1.000000
vn -0.000000 -0.000000 -1.000000
vn -0.000000 -0.000000 -1.000000
f -5//-5 -4//-4 -3//-3
f -3//-3 -4//-4 -2//-2
f -3//-3 -2//-2 -1//-1
v 2.149842e+01 -1.804716e+01 0.000000e+00
v 2.146125e+01 -1.808640e+01 0.000000e+00
v 2.129940e+01 -1.789586e+01 0.000000e+00
v 2.141650e+01 -1.811674e+01 0.000000e+00
v 2.136628e+01 -1.813675e+01 0.000000e+00
vn -0.000000 -0.000000 -1.000000
vn -0.000000 -0.000000 -1.000000
vn -0.000000 -0.000000 -1.000000
vn -0.000000 -0.000000 -1.000000
vn -0.000000 -0.000000 -1.000000
f -5//-5 -4//-4 -3//-3
f -3//-3 -4//-4 -2//-2
f -3//-3 -2//-2 -1//-1
v 2.136628e+01 -1.813675e+01 0.000000e+00
v 2.131293e+01 -1.814549e+01 0.000000e+00
v 2.129940e+01 -1.789586e+01 0.000000e+00
v 2.125896e+01 -1.814257e+01 0.000000e+00
v 2.120687e+01 -1.812811e+01 0.000000e+00
vn -0.000000 -0.000000 -1.000000
vn -0.000000 -0.000000 -1.000000
vn -0.000000 -0.000000 -1.000000
vn -0.000000 -0.000000 -1.000000
vn -0.000000 -0.000000 -1.000000
f -5//-5 -4//-4 -3//-3
f -3//-3 -4//-4 -2//-2
f -3//-3 -2//-2 -1//-1
v 2.120687e+01 -1.812811e+01 0.000000e+00
v 2.115910e+01 -1.810278e+01 0.000000e+00
v 2.129940e+01 -1.789586e+01 0.000000e+00
v 2.111790e+01 -1.806779e+01 0.000000e+00
v 2.108519e+01 -1.802475e+01 0.000000e+00
vn -0.000000 -0.000000 -1.000000
vn -0.000000 -0.000000 -1.000000
vn -0.000000 -0.000000 -1.000000
vn -0.000000 -0.000000 -1.000000
vn -0.000000 -0.000000 -1.000000
f -5//-5 -4//-4 -3//-3
f -3//-3 -4//-4 -2//-2
f -3//-3 -2//-2 -1//-1
v 2.108519e+01 -1.802475e+01 0.000000e+00
v 2.106249e+01 -1.797569e+01 0.000000e+00
v 2.129940e+01 -1.789586e+01 0.000000e+00
v 2.105087e+01 -1.792289e+01 0.000000e+00
v 2.105087e+01 -1.786883e+01 0.000000e+00
vn -0.000000 -0.000000 -1.000000
vn -0.000000 -0.000000 -1.000000
vn -0.000000 -0.000000 -1.000000
vn -0.000000 -0.000000 -1.000000
vn -0.000000 -0.000000 -1.000000
f -5//-5 -4//-4 -3//-3
f -3//-3 -4//-4 -2//-2
f -3//-3 -2//-2 -1//-1
v 2.105087e+01 -1.786883e+01 0.000000e+00
v 2.106249e+01 -1.781604e+01 0.000000e+00
v 2.129940e+01 -1.789586e+01 0.000000e+00
v 2.108519e+01 -1.776697e+01 0.000000e+00
v 2.111790e+01 -1.772394e+01 0.000000e+00
vn -0.000000 -0.000000 -1.000000
vn -0.000000 -0.000000 -1.000000
vn -0.000000 -0.000000 -1.000000
vn -0.000000 -0.000000 -1.000000
vn -0.000000 -0.000000 -1.000000
f -5//-5 -4//-4 -3//-3
f -3//-3 -4//-4 -2//-2
f -3//-3 -2//-2 -1//-1
v 2.111790e+01 -1.772394e+01 0.000000e+00
v 2.115910e+01 -1.768894e+01 0.000000e+00
v 2.129940e+01 -1.789586e+01 0.000000e+00
v 2.120687e+01 -1.766362e+01 0.000000e+00
v 2.125896e+01 -1.764915e+01 0.000000e+00
vn -0.000000 -0.000000 -1.000000
vn -0.000000 -0.000000 -1.000000
vn -0.000000 -0.000000 -1.000000
vn -0.000000 -0.000000 -1.000000
vn -0.000000 -0.000000 -1.000000
f -5//-5 -4//-4 -3//-3
f -3//-3 -4//-4 -2//-2
f -3//-3 -2//-2 -1//-1
v 2.125896e+01 -1.764915e+01 0.000000e+00
v 2.131293e+01 -1.764623e+01 0.000000e+00
v 2.129940e+01 -1.789586e+01 0.000000e+00
v 2.136628e+01 -1.765497e+01 0.000000e+00
v 2.141650e+01 -1.767498e+01 0.000000e+00
vn -0.000000 -0.000000 -1.000000
vn -0.000000 -0.000000 -1.000000
vn -0.000000 -0.000000 -1.000000
vn -0.000000 -0.000000 -1.000000
vn -0.000000 -0.000000 -1.000000
f -5//-5 -4//-4 -3//-3
f -3//-3 -4//-4 -2//-2
f -3//-3 -2//-2 -1//-1
v 2.141650e+01 -1.767498e+01 0.000000e+00
v 2.146125e+01 -1.770532e+01 0.000000e+00
v 2.129940e+01 -1.789586e+01 0.000000e+00
v 2.149842e+01 -1.774457e+01 0.000000e+00
v 2.152629e+01 -1.779089e+01 0.000000e+00
vn -0.000000 -0.000000 -1.000000
vn -0.000000 -0.000000 -1.000000
vn -0.000000 -0.000000 -1.000000
vn -0.000000 -0.000000 -1.000000
vn -0.000000 -0.000000 -1.000000
f -5//-5 -4//-4 -3//-3
f -3//-3 -4//-4 -2//-2
f -3//-3 -2//-2 -1//-1
v 2.152629e+01 -1.779089e+01 0.000000e+00
v 2.154355e+01 -1.784212e+01 0.000000e+00
v 2.129940e+01 -1.789586e+01 0.000000e+00
v 2.154940e+01 -1.789586e+01 0.000000e+00
vn -0.000000 -0.000000 -1.000000
vn -0.000000 -0.000000 -1.000000
vn -0.000000 -0.000000 -1.000000
vn -0.000000 -0.000000 -1.000000
f -4//-4 -3//-3 -2//-2
f -2//-2 -3//-3 -1//-1
v 2.154940e+01 -1.789586e+01 1.272000e+00
v 2.154355e+01 -1.784212e+01 1.272000e+00
v 2.129940e+01 -1.789586e+01 1.272000e+00
v 2.152629e+01 -1.779089e+01 1.272000e+00
v 2.149842e+01 -1.774457e+01 1.272000e+00
vn 0.000000 0.000000 1.000000
vn 0.000000 0.000000 1.000000
vn 0.000000 0.000000 1.000000
vn 0.000000 0.000000 1.000000
vn 0.000000 0.000000 1.000000
f -5//-5 -4//-4 -3//-3
f -3//-3 -4//-4 -2//-2
f -3//-3 -2//-2 -1//-1
v 2.149842e+01 -1.774457e+01 1.272000e+00
v 2.146125e+01 -1.770532e+01 1.272000e+00
v 2.129940e+01 -1.789586e+01 1.272000e+00
v 2.141650e+01 -1.767498e+01 1.272000e+00
v 2.136628e+01 -1.765497e+01 1.272000e+00
vn 0.000000 0.000000 1.000000
vn 0.000000 0.000000 1.000000
vn 0.000000 0.000000 1.000000
vn 0.000000 0.000000 1.000000
vn 0.000000 0.000000 1.000000
f -5//-5 -4//-4 -3//-3
f -3//-3 -4//-4 -2//-2
f -3//-3 -2//-2 -1//-1
v 2.136628e+01 -1.765497e+01 1.272000e+00
v 2.131293e+01 -1.764623e+01 1.272000e+00
v 2.129940e+01 -1.789586e+01 1.272000e+00
v 2.125896e+01 -1.764915e+01 1.272000e+00
v 2.120687e+01 -1.766362e+01 1.272000e+00
vn 0.000000 0.000000 1.000000
vn 0.000000 0.000000 1.000000
vn 0.000000 0.000000 1.000000
vn 0.000000 0.000000 1.000000
vn 0.000000 0.000000 1.000000
f -5//-5 -4//-4 -3//-3
f -3//-3 -4//-4 -2//-2
f -3//-3 -2//-2 -1//-1
v 2.120687e+01 -1.766362e+01 1.272000e+00
v 2.115910e+01 -1.768894e+01 1.272000e+00
v 2.129940e+01 -1.789586e+01 1.272000e+00
v 2.111790e+01 -1.772394e+01 1.272000e+00
v 2.108519e+01 -1.776697e+01 1.272000e+00
vn 0.000000 0.000000 1.000000
vn 0.000000 0.000000 1.000000
vn 0.000000 0.000000 1.000000
vn 0.000000 0.000000 1.000000
vn 0.000000 0.000000 1.000000
f -5//-5 -4//-4 -3//-3
f -3//-3 -4//-4 -2//-2
f -3//-3 -2//-2 -1//-1
v 2.108519e+01 -1.776697e+01 1.272000e+00
v 2.106249e+01 -1.781604e+01 1.272000e+00
v 2.129940e+01 -1.789586e+01 1.272000e+00
v 2.105087e+01 -1.786883e+01 1.272000e+00
v 2.105087e+01 -1.792289e+01 1.272000e+00
vn 0.000000 0.000000 1.000000
vn 0.000000 0.000000 1.000000
vn 0.000000 0.000000 1.000000
vn 0.000000 0.000000 1.000000
vn 0.000000 0.000000 1.000000
f -5//-5 -4//-4 -3//-3
f -3//-3 -4//-4 -2//-2
f -3//-3 -2//-2 -1//-1
v 2.105087e+01 -1.792289e+01 1.272000e+00
v 2.106249e+01 -1.797569e+01 1.272000e+00
v 2.129940e+01 -1.789586e+01 1.272000e+00
v 2.108519e+01 -1.802475e+01 1.272000e+00
v 2.111790e+01 -1.806779e+01 1.272000e+00
vn 0.000000 0.000000 1.000000
vn 0.000000 0.000000 1.000000
vn 0.000000 0.000000 1.000000
vn 0.000000 0.000000 1.000000
vn 0.000000 0.000000 1.000000
f -5//-5 -4//-4 -3//-3
f -3//-3 -4//-4 -2//-2
f -3//-3 -2//-2 -1//-1
v 2.111790e+01 -1.806779e+01 1.272000e+00
v 2.115910e+01 -1.810278e+01 1.272000e+00
v 2.129940e+01 -1.789586e+01 1.272000e+00
v 2.120687e+01 -1.812811e+01 1.272000e+00
v 2.125896e+01 -1.814257e+01 1.272000e+00
vn 0.000000 0.000000 1.000000
vn 0.000000 0.000000 1.000000
vn 0.000000 0.000000 1.000000
vn 0.000000 0.000000 1.000000
vn 0.000000 0.000000 1.000000
f -5//-5 -4//-4 -3//-3
f -3//-3 -4//-4 -2//-2
f -3//-3 -2//-2 -1//-1
v 2.125896e+01 -1.814257e+01 1.272000e+00
v 2.131293e+01 -1.814549e+01 1.272000e+00
v 2.129940e+01 -1.789586e+01 1.272000e+00
v 2.136628e+01 -1.813675e+01 1.272000e+00
v 2.141650e+01 -1.811674e+01 1.272000e+00
vn 0.000000 0.000000 1.000000
vn 0.000000 0.000000 1.000000
vn 0.000000 0.000000 1.000000
vn 0.000000 0.000000 1.000000
vn 0.000000 0.000000 1.000000
f -5//-5 -4//-4 -3//-3
f -3//-3 -4//-4 -2//-2
f -3//-3 -2//-2 -1//-1
v 2.141650e+01 -1.811674e+01 1.272000e+00
v 2.146125e+01 -1.808640e+01 1.272000e+00
v 2.129940e+01 -1.789586e+01 1.272000e+00
v 2.149842e+01 -1.804716e+01 1.272000e+00
v 2.152629e+01 -1.800083e+01 1.272000e+00
vn 0.000000 0.000000 1.000000
vn 0.000000 0.000000 1.000000
vn 0.000000 0.000000 1.000000
vn 0.000000 0.000000 1.000000
vn 0.000000 0.000000 1.000000
f -5//-5 -4//-4 -3//-3
f -3//-3 -4//-4 -2//-2
f -3//-3 -2//-2 -1//-1
v 2.152629e+01 -1.800083e+01 1.272000e+00
v 2.154355e+01 -1.794960e+01 1.272000e+00
v 2.129940e+01 -1.789586e+01 1.272000e+00
v 2.154940e+01 -1.789586e+01 1.272000e+00
vn 0.000000 0.000000 1.000000
vn 0.000000 0.000000 1.000000
vn 0.000000 0.000000 1.000000
vn 0.000000 0.000000 1.000000
f -4//-4 -3//-3 -2//-2
f -2//-2 -3//-3 -1//-1
