#
mtllib feed_pin_SeqRotated2Patch_1.mtl
usemtl ff4180ff
v -1.375545e+01 1.769976e+01 0.000000e+00
v -1.373819e+01 1.764853e+01 1.272000e+00
v -1.373819e+01 1.764853e+01 0.000000e+00
v -1.373234e+01 1.759479e+01 1.272000e+00
v -1.373234e+01 1.759479e+01 0.000000e+00
v -1.373819e+01 1.754105e+01 1.272000e+00
v -1.373819e+01 1.754105e+01 0.000000e+00
v -1.375545e+01 1.748982e+01 1.272000e+00
v -1.375545e+01 1.748982e+01 0.000000e+00
v -1.378332e+01 1.744350e+01 1.272000e+00
v -1.378332e+01 1.744350e+01 0.000000e+00
v -1.382050e+01 1.740425e+01 1.272000e+00
v -1.382050e+01 1.740425e+01 0.000000e+00
v -1.386524e+01 1.737391e+01 1.272000e+00
v -1.386524e+01 1.737391e+01 0.000000e+00
v -1.391546e+01 1.735390e+01 1.272000e+00
v -1.391546e+01 1.735390e+01 0.000000e+00
v -1.396881e+01 1.734516e+01 1.272000e+00
v -1.396881e+01 1.734516e+01 0.000000e+00
v -1.402279e+01 1.734808e+01 1.272000e+00
v -1.402279e+01 1.734808e+01 0.000000e+00
v -1.407488e+01 1.736255e+01 1.272000e+00
v -1.407488e+01 1.736255e+01 0.000000e+00
v -1.412264e+01 1.738787e+01 1.272000e+00
v -1.412264e+01 1.738787e+01 0.000000e+00
v -1.416384e+01 1.742286e+01 1.272000e+00
v -1.416384e+01 1.742286e+01 0.000000e+00
v -1.419656e+01 1.746590e+01 1.272000e+00
v -1.419656e+01 1.746590e+01 0.000000e+00
v -1.421926e+01 1.751497e+01 1.272000e+00
v -1.421926e+01 1.751497e+01 0.000000e+00
v -1.423088e+01 1.756776e+01 1.272000e+00
v -1.423088e+01 1.756776e+01 0.000000e+00
v -1.423088e+01 1.762182e+01 1.272000e+00
v -1.423088e+01 1.762182e+01 0.000000e+00
v -1.421926e+01 1.767462e+01 1.272000e+00
v -1.421926e+01 1.767462e+01 0.000000e+00
v -1.419656e+01 1.772368e+01 1.272000e+00
v -1.419656e+01 1.772368e+01 0.000000e+00
v -1.416384e+01 1.776671e+01 1.272000e+00
v -1.416384e+01 1.776671e+01 0.000000e+00
v -1.412264e+01 1.780171e+01 1.272000e+00
v -1.412264e+01 1.780171e+01 0.000000e+00
v -1.407488e+01 1.782703e+01 1.272000e+00
v -1.407488e+01 1.782703e+01 0.000000e+00
v -1.402279e+01 1.784150e+01 1.272000e+00
v -1.402279e+01 1.784150e+01 0.000000e+00
v -1.396881e+01 1.784442e+01 1.272000e+00
v -1.396881e+01 1.784442e+01 0.000000e+00
v -1.391546e+01 1.783568e+01 1.272000e+00
v -1.391546e+01 1.783568e+01 0.000000e+00
v -1.386524e+01 1.781567e+01 1.272000e+00
v -1.386524e+01 1.781567e+01 0.000000e+00
v -1.382050e+01 1.778533e+01 1.272000e+00
v -1.382050e+01 1.778533e+01 0.000000e+00
v -1.378332e+01 1.774608e+01 1.272000e+00
v -1.378332e+01 1.774608e+01 0.000000e+00
v -1.375545e+01 1.769976e+01 1.272000e+00
v -1.375545e+01 1.769976e+01 0.000000e+00
v -1.373819e+01 1.764853e+01 1.272000e+00
vn 0.907575 0.419889 -0.000000
vn 0.976621 0.214970 -0.000000
vn 0.976621 0.214970 -0.000000
vn 1.000000 0.000000 0.000000
vn 1.000000 0.000000 0.000000
vn 0.976621 -0.214970 0.000000
vn 0.976621 -0.214970 0.000000
vn 0.907575 -0.419889 0.000000
vn 0.907575 -0.419889 0.000000
vn 0.796093 -0.605174 0.000000
vn 0.796093 -0.605174 0.000000
vn 0.647386 -0.762162 0.000000
vn 0.647386 -0.762162 0.000000
vn 0.468408 -0.883512 0.000000
vn 0.468408 -0.883512 0.000000
vn 0.267528 -0.963550 0.000000
vn 0.267528 -0.963550 0.000000
vn 0.054139 -0.998533 0.000000
vn 0.054139 -0.998533 0.000000
vn -0.161782 -0.986827 0.000000
vn -0.161782 -0.986827 0.000000
vn -0.370138 -0.928977 0.000000
vn -0.370138 -0.928977 0.000000
vn -0.561187 -0.827689 0.000000
vn -0.561187 -0.827689 0.000000
vn -0.725995 -0.687699 0.000000
vn -0.725995 -0.687699 0.000000
vn -0.856857 -0.515554 0.000000
vn -0.856857 -0.515554 0.000000
vn -0.947653 -0.319302 0.000000
vn -0.947653 -0.319302 0.000000
vn -0.994138 -0.108119 0.000000
vn -0.994138 -0.108119 0.000000
vn -0.994138 0.108119 0.000000
vn -0.994138 0.108119 0.000000
vn -0.947653 0.319302 0.000000
vn -0.947653 0.319302 0.000000
vn -0.856857 0.515554 0.000000
vn -0.856857 0.515554 0.000000
vn -0.725995 0.687699 0.000000
vn -0.725995 0.687699 0.000000
vn -0.561187 0.827689 0.000000
vn -0.561187 0.827689 0.000000
vn -0.370138 0.928977 0.000000
vn -0.370138 0.928977 0.000000
vn -0.161782 0.986827 0.000000
vn -0.161782 0.986827 0.000000
vn 0.054139 0.998533 -0.000000
vn 0.054139 0.998533 -0.000000
vn 0.267528 0.963550 -0.000000
vn 0.267528 0.963550 -0.000000
vn 0.468408 0.883512 -0.000000
vn 0.468408 0.883512 -0.000000
vn 0.647386 0.762162 -0.000000
vn 0.647386 0.762162 -0.000000
vn 0.796093 0.605174 -0.000000
vn 0.796093 0.605174 -0.000000
vn 0.907575 0.419889 -0.000000
vn 0.907575 0.419889 -0.000000
vn 0.976621 0.214970 -0.000000
f -60//-60 -59//-59 -58//-58
f -58//-58 -59//-59 -57//-57
f -58//-58 -57//-57 -56//-56
f -56//-56 -57//-57 -55//-55
f -56//-56 -55//-55 -54//-54
f -54//-54 -55//-55 -53//-53
f -54//-54 -53//-53 -52//-52
f -52//-52 -53//-53 -51//-51
f -52//-52 -51//-51 -50//-50
f -50//-50 -51//-51 -49//-49
f -50//-50 -49//-49 -48//-48
f -48//-48 -49//-49 -47//-47
f -48//-48 -47//-47 -46//-46
f -46//-46 -47//-47 -45//-45
f -46//-46 -45//-45 -44//-44
f -44//-44 -45//-45 -43//-43
f -44//-44 -43//-43 -42//-42
f -42//-42 -43//-43 -41//-41
f -42//-42 -41//-41 -40//-40
f -40//-40 -41//-41 -39//-39
f -40//-40 -39//-39 -38//-38
f -38//-38 -39//-39 -37//-37
f -38//-38 -37//-37 -36//-36
f -36//-36 -37//-37 -35//-35
f -36//-36 -35//-35 -34//-34
f -34//-34 -35//-35 -33//-33
f -34//-34 -33//-33 -32//-32
f -32//-32 -33//-33 -31//-31
f -32//-32 -31//-31 -30//-30
f -30//-30 -31//-31 -29//-29
f -30//-30 -29//-29 -28//-28
f -28//-28 -29//-29 -27//-27
f -28//-28 -27//-27 -26//-26
f -26//-26 -27//-27 -25//-25
f -26//-26 -25//-25 -24//-24
f -24//-24 -25//-25 -23//-23
f -24//-24 -23//-23 -22//-22
f -22//-22 -23//-23 -21//-21
f -22//-22 -21//-21 -20//-20
f -20//-20 -21//-21 -19//-19
f -20//-20 -19//-19 -18//-18
f -18//-18 -19//-19 -17//-17
f -18//-18 -17//-17 -16//-16
f -16//-16 -17//-17 -15//-15
f -16//-16 -15//-15 -14//-14
f -14//-14 -15//-15 -13//-13
f -14//-14 -13//-13 -12//-12
f -12//-12 -13//-13 -11//-11
f -12//-12 -11//-11 -10//-10
f -10//-10 -11//-11 -9//-9
f -10//-10 -9//-9 -8//-8
f -8//-8 -9//-9 -7//-7
f -8//-8 -7//-7 -6//-6
f -6//-6 -7//-7 -5//-5
f -6//-6 -5//-5 -4//-4
f -4//-4 -5//-5 -3//-3
f -4//-4 -3//-3 -2//-2
f -2//-2 -3//-3 -1//-1
v -1.373234e+01 1.759479e+01 0.000000e+00
v -1.373819e+01 1.754105e+01 0.000000e+00
v -1.398234e+01 1.759479e+01 0.000000e+00
v -1.375545e+01 1.748982e+01 0.000000e+00
v -1.378332e+01 1.744350e+01 0.000000e+00
vn -0.000000 -0.000000 -1.000000
vn -0.000000 -0.000000 -1.000000
vn -0.000000 -0.000000 -1.000000
vn -0.000000 -0.000000 -1.000000
vn -0.000000 -0.000000 -1.000000
f -5//-5 -4//-4 -3//-3
f -3//-3 -4//-4 -2//-2
f -3//-3 -2//-2 -1//-1
v -1.378332e+01 1.744350e+01 0.000000e+00
v -1.382050e+01 1.740425e+01 0.000000e+00
v -1.398234e+01 1.759479e+01 0.000000e+00
v -1.386524e+01 1.737391e+01 0.000000e+00
v -1.391546e+01 1.735390e+01 0.000000e+00
vn -0.000000 -0.000000 -1.000000
vn -0.000000 -0.000000 -1.000000
vn -0.000000 -0.000000 -1.000000
vn -0.000000 -0.000000 -1.000000
vn -0.000000 -0.000000 -1.000000
f -5//-5 -4//-4 -3//-3
f -3//-3 -4//-4 -2//-2
f -3//-3 -2//-2 -1//-1
v -1.391546e+01 1.735390e+01 0.000000e+00
v -1.396881e+01 1.734516e+01 0.000000e+00
v -1.398234e+01 1.759479e+01 0.000000e+00
v -1.402279e+01 1.734808e+01 0.000000e+00
v -1.407488e+01 1.736255e+01 0.000000e+00
vn -0.000000 -0.000000 -1.000000
vn -0.000000 -0.000000 -1.000000
vn -0.000000 -0.000000 -1.000000
vn -0.000000 -0.000000 -1.000000
vn -0.000000 -0.000000 -1.000000
f -5//-5 -4//-4 -3//-3
f -3//-3 -4//-4 -2//-2
f -3//-3 -2//-2 -1//-1
v -1.407488e+01 1.736255e+01 0.000000e+00
v -1.412264e+01 1.738787e+01 0.000000e+00
v -1.398234e+01 1.759479e+01 0.000000e+00
v -1.416384e+01 1.742286e+01 0.000000e+00
v -1.419656e+01 1.746590e+01 0.000000e+00
vn -0.000000 -0.000000 -1.000000
vn -0.000000 -0.000000 -1.000000
vn -0.000000 -0.000000 -1.000000
vn -0.000000 -0.000000 -1.000000
vn -0.000000 -0.000000 -1.000000
f -5//-5 -4//-4 -3//-3
f -3//-3 -4//-4 -2//-2
f -3//-3 -2//-2 -1//-1
v -1.419656e+01 1.746590e+01 0.000000e+00
v -1.421926e+01 1.751497e+01 0.000000e+00
v -1.398234e+01 1.759479e+01 0.000000e+00
v -1.423088e+01 1.756776e+01 0.000000e+00
v -1.423088e+01 1.762182e+01 0.000000e+00
vn -0.000000 -0.000000 -1.000000
vn -0.000000 -0.000000 -1.000000
vn -0.000000 -0.000000 -1.000000
vn -0.000000 -0.000000 -1.000000
vn -0.000000 -0.000000 -1.000000
f -5//-5 -4//-4 -3//-3
f -3//-3 -4//-4 -2//-2
f -3//-3 -2//-2 -1//-1
v -1.423088e+01 1.762182e+01 0.000000e+00
v -1.421926e+01 1.767462e+01 0.000000e+00
v -1.398234e+01 1.759479e+01 0.000000e+00
v -1.419656e+01 1.772368e+01 0.000000e+00
v -1.416384e+01 1.776671e+01 0.000000e+00
vn -0.000000 -0.000000 -1.000000
vn -0.000000 -0.000000 -1.000000
vn -0.000000 -0.000000 -1.000000
vn -0.000000 -0.000000 -1.000000
vn -0.000000 -0.000000 -1.000000
f -5//-5 -4//-4 -3//-3
f -3//-3 -4//-4 -2//-2
f -3//-3 -2//-2 -1//-1
v -1.416384e+01 1.776671e+01 0.000000e+00
v -1.412264e+01 1.780171e+01 0.000000e+00
v -1.398234e+01 1.759479e+01 0.000000e+00
v -1.407488e+01 1.782703e+01 0.000000e+00
v -1.402279e+01 1.784150e+01 0.000000e+00
vn -0.000000 -0.000000 -1.000000
vn -0.000000 -0.000000 -1.000000
vn -0.000000 -0.000000 -1.000000
vn -0.000000 -0.000000 -1.000000
vn -0.000000 -0.000000 -1.000000
f -5//-5 -4//-4 -3//-3
f -3//-3 -4//-4 -2//-2
f -3//-3 -2//-2 -1//-1
v -1.402279e+01 1.784150e+01 0.000000e+00
v -1.396881e+01 1.784442e+01 0.000000e+00
v -1.398234e+01 1.759479e+01 0.000000e+00
v -1.391546e+01 1.783568e+01 0.000000e+00
v -1.386524e+01 1.781567e+01 0.000000e+00
vn -0.000000 -0.000000 -1.000000
vn -0.000000 -0.000000 -1.000000
vn -0.000000 -0.000000 -1.000000
vn -0.000000 -0.000000 -1.000000
vn -0.000000 -0.000000 -1.000000
f -5//-5 -4//-4 -3//-3
f -3//-3 -4//-4 -2//-2
f -3//-3 -2//-2 -1//-1
v -1.386524e+01 1.781567e+01 0.000000e+00
v -1.382050e+01 1.778533e+01 0.000000e+00
v -1.398234e+01 1.759479e+01 0.000000e+00
v -1.378332e+01 1.774608e+01 0.000000e+00
v -1.375545e+01 1.769976e+01 0.000000e+00
vn -0.000000 -0.000000 -1.000000
vn -0.000000 -0.000000 -1.000000
vn -0.000000 -0.000000 -1.000000
vn -0.000000 -0.000000 -1.000000
vn -0.000000 -0.000000 -1.000000
f -5//-5 -4//-4 -3//-3
f -3//-3 -4//-4 -2//-2
f -3//-3 -2//-2 -1//-1
v -1.375545e+01 1.769976e+01 0.000000e+00
v -1.373819e+01 1.764853e+01 0.000000e+00
v -1.398234e+01 1.759479e+01 0.000000e+00
v -1.373234e+01 1.759479e+01 0.000000e+00
vn -0.000000 -0.000000 -1.000000
vn -0.000000 -0.000000 -1.000000
vn -0.000000 -0.000000 -1.000000
vn -0.000000 -0.000000 -1.000000
f -4//-4 -3//-3 -2//-2
f -2//-2 -3//-3 -1//-1
v -1.373234e+01 1.759479e+01 1.272000e+00
v -1.373819e+01 1.764853e+01 1.272000e+00
v -1.398234e+01 1.759479e+01 1.272000e+00
v -1.375545e+01 1.769976e+01 1.272000e+00
v -1.378332e+01 1.774608e+01 1.272000e+00
vn 0.000000 0.000000 1.000000
vn 0.000000 0.000000 1.000000
vn 0.000000 0.000000 1.000000
vn 0.000000 0.000000 1.000000
vn 0.000000 0.000000 1.000000
f -5//-5 -4//-4 -3//-3
f -3//-3 -4//-4 -2//-2
f -3//-3 -2//-2 -1//-1
v -1.378332e+01 1.774608e+01 1.272000e+00
v -1.382050e+01 1.778533e+01 1.272000e+00
v -1.398234e+01 1.759479e+01 1.272000e+00
v -1.386524e+01 1.781567e+01 1.272000e+00
v -1.391546e+01 1.783568e+01 1.272000e+00
vn 0.000000 0.000000 1.000000
vn 0.000000 0.000000 1.000000
vn 0.000000 0.000000 1.000000
vn 0.000000 0.000000 1.000000
vn 0.000000 0.000000 1.000000
f -5//-5 -4//-4 -3//-3
f -3//-3 -4//-4 -2//-2
f -3//-3 -2//-2 -1//-1
v -1.391546e+01 1.783568e+01 1.272000e+00
v -1.396881e+01 1.784442e+01 1.272000e+00
v -1.398234e+01 1.759479e+01 1.272000e+00
v -1.402279e+01 1.784150e+01 1.272000e+00
v -1.407488e+01 1.782703e+01 1.272000e+00
vn 0.000000 0.000000 1.000000
vn 0.000000 0.000000 1.000000
vn 0.000000 0.000000 1.000000
vn 0.000000 0.000000 1.000000
vn 0.000000 0.000000 1.000000
f -5//-5 -4//-4 -3//-3
f -3//-3 -4//-4 -2//-2
f -3//-3 -2//-2 -1//-1
v -1.407488e+01 1.782703e+01 1.272000e+00
v -1.412264e+01 1.780171e+01 1.272000e+00
v -1.398234e+01 1.759479e+01 1.272000e+00
v -1.416384e+01 1.776671e+01 1.272000e+00
v -1.419656e+01 1.772368e+01 1.272000e+00
vn 0.000000 0.000000 1.000000
vn 0.000000 0.000000 1.000000
vn 0.000000 0.000000 1.000000
vn 0.000000 0.000000 1.000000
vn 0.000000 0.000000 1.000000
f -5//-5 -4//-4 -3//-3
f -3//-3 -4//-4 -2//-2
f -3//-3 -2//-2 -1//-1
v -1.419656e+01 1.772368e+01 1.272000e+00
v -1.421926e+01 1.767462e+01 1.272000e+00
v -1.398234e+01 1.759479e+01 1.272000e+00
v -1.423088e+01 1.762182e+01 1.272000e+00
v -1.423088e+01 1.756776e+01 1.272000e+00
vn 0.000000 0.000000 1.000000
vn 0.000000 0.000000 1.000000
vn 0.000000 0.000000 1.000000
vn 0.000000 0.000000 1.000000
vn 0.000000 0.000000 1.000000
f -5//-5 -4//-4 -3//-3
f -3//-3 -4//-4 -2//-2
f -3//-3 -2//-2 -1//-1
v -1.423088e+01 1.756776e+01 1.272000e+00
v -1.421926e+01 1.751497e+01 1.272000e+00
v -1.398234e+01 1.759479e+01 1.272000e+00
v -1.419656e+01 1.746590e+01 1.272000e+00
v -1.416384e+01 1.742286e+01 1.272000e+00
vn 0.000000 0.000000 1.000000
vn 0.000000 0.000000 1.000000
vn 0.000000 0.000000 1.000000
vn 0.000000 0.000000 1.000000
vn 0.000000 0.000000 1.000000
f -5//-5 -4//-4 -3//-3
f -3//-3 -4//-4 -2//-2
f -3//-3 -2//-2 -1//-1
v -1.416384e+01 1.742286e+01 1.272000e+00
v -1.412264e+01 1.738787e+01 1.272000e+00
v -1.398234e+01 1.759479e+01 1.272000e+00
v -1.407488e+01 1.736255e+01 1.272000e+00
v -1.402279e+01 1.734808e+01 1.272000e+00
vn 0.000000 0.000000 1.000000
vn 0.000000 0.000000 1.000000
vn 0.000000 0.000000 1.000000
vn 0.000000 0.000000 1.000000
vn 0.000000 0.000000 1.000000
f -5//-5 -4//-4 -3//-3
f -3//-3 -4//-4 -2//-2
f -3//-3 -2//-2 -1//-1
v -1.402279e+01 1.734808e+01 1.272000e+00
v -1.396881e+01 1.734516e+01 1.272000e+00
v -1.398234e+01 1.759479e+01 1.272000e+00
v -1.391546e+01 1.735390e+01 1.272000e+00
v -1.386524e+01 1.737391e+01 1.272000e+00
vn 0.000000 0.000000 1.000000
vn 0.000000 0.000000 1.000000
vn 0.000000 0.000000 1.000000
vn 0.000000 0.000000 1.000000
vn 0.000000 0.000000 1.000000
f -5//-5 -4//-4 -3//-3
f -3//-3 -4//-4 -2//-2
f -3//-3 -2//-2 -1//-1
v -1.386524e+01 1.737391e+01 1.272000e+00
v -1.382050e+01 1.740425e+01 1.272000e+00
v -1.398234e+01 1.759479e+01 1.272000e+00
v -1.378332e+01 1.744350e+01 1.272000e+00
v -1.375545e+01 1.748982e+01 1.272000e+00
vn 0.000000 0.000000 1.000000
vn 0.000000 0.000000 1.000000
vn 0.000000 0.000000 1.000000
vn 0.000000 0.000000 1.000000
vn 0.000000 0.000000 1.000000
f -5//-5 -4//-4 -3//-3
f -3//-3 -4//-4 -2//-2
f -3//-3 -2//-2 -1//-1
v -1.375545e+01 1.748982e+01 1.272000e+00
v -1.373819e+01 1.754105e+01 1.272000e+00
v -1.398234e+01 1.759479e+01 1.272000e+00
v -1.373234e+01 1.759479e+01 1.272000e+00
vn 0.000000 0.000000 1.000000
vn 0.000000 0.000000 1.000000
vn 0.000000 0.000000 1.000000
vn 0.000000 0.000000 1.000000
f -4//-4 -3//-3 -2//-2
f -2//-2 -3//-3 -1//-1
