#
mtllib feed_coax_SeqRotated2Patch_2.mtl
usemtl ff4180ff
v -1.377478e+01 -1.793075e+01 0.000000e+00
v -1.374522e+01 -1.786603e+01 -2.500000e+00
v -1.374522e+01 -1.786603e+01 0.000000e+00
v -1.373510e+01 -1.779559e+01 -2.500000e+00
v -1.373510e+01 -1.779559e+01 0.000000e+00
v -1.374522e+01 -1.772516e+01 -2.500000e+00
v -1.374522e+01 -1.772516e+01 0.000000e+00
v -1.377478e+01 -1.766043e+01 -2.500000e+00
v -1.377478e+01 -1.766043e+01 0.000000e+00
v -1.382138e+01 -1.760666e+01 -2.500000e+00
v -1.382138e+01 -1.760666e+01 0.000000e+00
v -1.388124e+01 -1.756818e+01 -2.500000e+00
v -1.388124e+01 -1.756818e+01 0.000000e+00
v -1.394952e+01 -1.754814e+01 -2.500000e+00
v -1.394952e+01 -1.754814e+01 0.000000e+00
v -1.402068e+01 -1.754814e+01 -2.500000e+00
v -1.402068e+01 -1.754814e+01 0.000000e+00
v -1.408895e+01 -1.756818e+01 -2.500000e+00
v -1.408895e+01 -1.756818e+01 0.000000e+00
v -1.414881e+01 -1.760666e+01 -2.500000e+00
v -1.414881e+01 -1.760666e+01 0.000000e+00
v -1.419541e+01 -1.766043e+01 -2.500000e+00
v -1.419541e+01 -1.766043e+01 0.000000e+00
v -1.422497e+01 -1.772516e+01 -2.500000e+00
v -1.422497e+01 -1.772516e+01 0.000000e+00
v -1.423510e+01 -1.779559e+01 -2.500000e+00
v -1.423510e+01 -1.779559e+01 0.000000e+00
v -1.422497e+01 -1.786603e+01 -2.500000e+00
v -1.422497e+01 -1.786603e+01 0.000000e+00
v -1.419541e+01 -1.793075e+01 -2.500000e+00
v -1.419541e+01 -1.793075e+01 0.000000e+00
v -1.414881e+01 -1.798453e+01 -2.500000e+00
v -1.414881e+01 -1.798453e+01 0.000000e+00
v -1.408895e+01 -1.802300e+01 -2.500000e+00
v -1.408895e+01 -1.802300e+01 0.000000e+00
v -1.402068e+01 -1.804305e+01 -2.500000e+00
v -1.402068e+01 -1.804305e+01 0.000000e+00
v -1.394952e+01 -1.804305e+01 -2.500000e+00
v -1.394952e+01 -1.804305e+01 0.000000e+00
v -1.388124e+01 -1.802300e+01 -2.500000e+00
v -1.388124e+01 -1.802300e+01 0.000000e+00
v -1.382138e+01 -1.798453e+01 -2.500000e+00
v -1.382138e+01 -1.798453e+01 0.000000e+00
v -1.377478e+01 -1.793075e+01 -2.500000e+00
v -1.377478e+01 -1.793075e+01 0.000000e+00
v -1.374522e+01 -1.786603e+01 -2.500000e+00
vn 0.841254 -0.540641 0.000000
vn 0.959493 -0.281733 0.000000
vn 0.959493 -0.281733 0.000000
vn 1.000000 0.000000 0.000000
vn 1.000000 0.000000 0.000000
vn 0.959493 0.281733 0.000000
vn 0.959493 0.281733 0.000000
vn 0.841254 0.540641 0.000000
vn 0.841254 0.540641 0.000000
vn 0.654861 0.755750 0.000000
vn 0.654861 0.755750 0.000000
vn 0.415415 0.909632 0.000000
vn 0.415415 0.909632 0.000000
vn 0.142315 0.989821 0.000000
vn 0.142315 0.989821 0.000000
vn -0.142315 0.989821 0.000000
vn -0.142315 0.989821 0.000000
vn -0.415415 0.909632 0.000000
vn -0.415415 0.909632 0.000000
vn -0.654861 0.755750 0.000000
vn -0.654861 0.755750 0.000000
vn -0.841254 0.540641 0.000000
vn -0.841254 0.540641 0.000000
vn -0.959493 0.281733 0.000000
vn -0.959493 0.281733 0.000000
vn -1.000000 -0.000000 -0.000000
vn -1.000000 -0.000000 -0.000000
vn -0.959493 -0.281733 -0.000000
vn -0.959493 -0.281733 -0.000000
vn -0.841254 -0.540641 -0.000000
vn -0.841254 -0.540641 -0.000000
vn -0.654861 -0.755750 -0.000000
vn -0.654861 -0.755750 -0.000000
vn -0.415415 -0.909632 -0.000000
vn -0.415415 -0.909632 -0.000000
vn -0.142315 -0.989821 -0.000000
vn -0.142315 -0.989821 -0.000000
vn 0.142315 -0.989821 0.000000
vn 0.142315 -0.989821 0.000000
vn 0.415415 -0.909632 0.000000
vn 0.415415 -0.909632 0.000000
vn 0.654861 -0.755750 0.000000
vn 0.654861 -0.755750 0.000000
vn 0.841254 -0.540641 0.000000
vn 0.841254 -0.540641 0.000000
vn 0.959493 -0.281733 0.000000
f -46//-46 -45//-45 -44//-44
f -44//-44 -45//-45 -43//-43
f -44//-44 -43//-43 -42//-42
f -42//-42 -43//-43 -41//-41
f -42//-42 -41//-41 -40//-40
f -40//-40 -41//-41 -39//-39
f -40//-40 -39//-39 -38//-38
f -38//-38 -39//-39 -37//-37
f -38//-38 -37//-37 -36//-36
f -36//-36 -37//-37 -35//-35
f -36//-36 -35//-35 -34//-34
f -34//-34 -35//-35 -33//-33
f -34//-34 -33//-33 -32//-32
f -32//-32 -33//-33 -31//-31
f -32//-32 -31//-31 -30//-30
f -30//-30 -31//-31 -29//-29
f -30//-30 -29//-29 -28//-28
f -28//-28 -29//-29 -27//-27
f -28//-28 -27//-27 -26//-26
f -26//-26 -27//-27 -25//-25
f -26//-26 -25//-25 -24//-24
f -24//-24 -25//-25 -23//-23
f -24//-24 -23//-23 -22//-22
f -22//-22 -23//-23 -21//-21
f -22//-22 -21//-21 -20//-20
f -20//-20 -21//-21 -19//-19
f -20//-20 -19//-19 -18//-18
f -18//-18 -19//-19 -17//-17
f -18//-18 -17//-17 -16//-16
f -16//-16 -17//-17 -15//-15
f -16//-16 -15//-15 -14//-14
f -14//-14 -15//-15 -13//-13
f -14//-14 -13//-13 -12//-12
f -12//-12 -13//-13 -11//-11
f -12//-12 -11//-11 -10//-10
f -10//-10 -11//-11 -9//-9
f -10//-10 -9//-9 -8//-8
f -8//-8 -9//-9 -7//-7
f -8//-8 -7//-7 -6//-6
f -6//-6 -7//-7 -5//-5
f -6//-6 -5//-5 -4//-4
f -4//-4 -5//-5 -3//-3
f -4//-4 -3//-3 -2//-2
f -2//-2 -3//-3 -1//-1
v -1.373510e+01 -1.779559e+01 -2.500000e+00
v -1.374522e+01 -1.786603e+01 -2.500000e+00
v -1.398510e+01 -1.779559e+01 -2.500000e+00
v -1.377478e+01 -1.793075e+01 -2.500000e+00
v -1.382138e+01 -1.798453e+01 -2.500000e+00
vn 0.000000 0.000000 -1.000000
vn 0.000000 0.000000 -1.000000
vn 0.000000 0.000000 -1.000000
vn 0.000000 0.000000 -1.000000
vn 0.000000 0.000000 -1.000000
f -5//-5 -4//-4 -3//-3
f -3//-3 -4//-4 -2//-2
f -3//-3 -2//-2 -1//-1
v -1.382138e+01 -1.798453e+01 -2.500000e+00
v -1.388124e+01 -1.802300e+01 -2.500000e+00
v -1.398510e+01 -1.779559e+01 -2.500000e+00
v -1.394952e+01 -1.804305e+01 -2.500000e+00
v -1.402068e+01 -1.804305e+01 -2.500000e+00
vn 0.000000 0.000000 -1.000000
vn 0.000000 0.000000 -1.000000
vn 0.000000 0.000000 -1.000000
vn 0.000000 0.000000 -1.000000
vn 0.000000 0.000000 -1.000000
f -5//-5 -4//-4 -3//-3
f -3//-3 -4//-4 -2//-2
f -3//-3 -2//-2 -1//-1
v -1.402068e+01 -1.804305e+01 -2.500000e+00
v -1.408895e+01 -1.802300e+01 -2.500000e+00
v -1.398510e+01 -1.779559e+01 -2.500000e+00
v -1.414881e+01 -1.798453e+01 -2.500000e+00
v -1.419541e+01 -1.793075e+01 -2.500000e+00
vn 0.000000 0.000000 -1.000000
vn 0.000000 0.000000 -1.000000
vn 0.000000 0.000000 -1.000000
vn 0.000000 0.000000 -1.000000
vn 0.000000 0.000000 -1.000000
f -5//-5 -4//-4 -3//-3
f -3//-3 -4//-4 -2//-2
f -3//-3 -2//-2 -1//-1
v -1.419541e+01 -1.793075e+01 -2.500000e+00
v -1.422497e+01 -1.786603e+01 -2.500000e+00
v -1.398510e+01 -1.779559e+01 -2.500000e+00
v -1.423510e+01 -1.779559e+01 -2.500000e+00
v -1.422497e+01 -1.772516e+01 -2.500000e+00
vn 0.000000 0.000000 -1.000000
vn 0.000000 0.000000 -1.000000
vn 0.000000 0.000000 -1.000000
vn 0.000000 0.000000 -1.000000
vn 0.000000 0.000000 -1.000000
f -5//-5 -4//-4 -3//-3
f -3//-3 -4//-4 -2//-2
f -3//-3 -2//-2 -1//-1
v -1.422497e+01 -1.772516e+01 -2.500000e+00
v -1.419541e+01 -1.766043e+01 -2.500000e+00
v -1.398510e+01 -1.779559e+01 -2.500000e+00
v -1.414881e+01 -1.760666e+01 -2.500000e+00
v -1.408895e+01 -1.756818e+01 -2.500000e+00
vn 0.000000 0.000000 -1.000000
vn 0.000000 0.000000 -1.000000
vn 0.000000 0.000000 -1.000000
vn 0.000000 0.000000 -1.000000
vn 0.000000 0.000000 -1.000000
f -5//-5 -4//-4 -3//-3
f -3//-3 -4//-4 -2//-2
f -3//-3 -2//-2 -1//-1
v -1.408895e+01 -1.756818e+01 -2.500000e+00
v -1.402068e+01 -1.754814e+01 -2.500000e+00
v -1.398510e+01 -1.779559e+01 -2.500000e+00
v -1.394952e+01 -1.754814e+01 -2.500000e+00
v -1.388124e+01 -1.756818e+01 -2.500000e+00
vn 0.000000 0.000000 -1.000000
vn 0.000000 0.000000 -1.000000
vn 0.000000 0.000000 -1.000000
vn 0.000000 0.000000 -1.000000
vn 0.000000 0.000000 -1.000000
f -5//-5 -4//-4 -3//-3
f -3//-3 -4//-4 -2//-2
f -3//-3 -2//-2 -1//-1
v -1.388124e+01 -1.756818e+01 -2.500000e+00
v -1.382138e+01 -1.760666e+01 -2.500000e+00
v -1.398510e+01 -1.779559e+01 -2.500000e+00
v -1.377478e+01 -1.766043e+01 -2.500000e+00
v -1.374522e+01 -1.772516e+01 -2.500000e+00
vn 0.000000 0.000000 -1.000000
vn 0.000000 0.000000 -1.000000
vn 0.000000 0.000000 -1.000000
vn 0.000000 0.000000 -1.000000
vn 0.000000 0.000000 -1.000000
f -5//-5 -4//-4 -3//-3
f -3//-3 -4//-4 -2//-2
f -3//-3 -2//-2 -1//-1
v -1.398510e+01 -1.779559e+01 -2.500000e+00
v -1.374522e+01 -1.772516e+01 -2.500000e+00
v -1.373510e+01 -1.779559e+01 -2.500000e+00
vn 0.000000 0.000000 -1.000000
vn 0.000000 0.000000 -1.000000
vn 0.000000 0.000000 -1.000000
f -3//-3 -2//-2 -1//-1
v -1.373510e+01 -1.779559e+01 0.000000e+00
v -1.374522e+01 -1.772516e+01 0.000000e+00
v -1.398510e+01 -1.779559e+01 0.000000e+00
v -1.377478e+01 -1.766043e+01 0.000000e+00
v -1.382138e+01 -1.760666e+01 0.000000e+00
vn -0.000000 -0.000000 1.000000
vn -0.000000 -0.000000 1.000000
vn -0.000000 -0.000000 1.000000
vn -0.000000 -0.000000 1.000000
vn -0.000000 -0.000000 1.000000
f -5//-5 -4//-4 -3//-3
f -3//-3 -4//-4 -2//-2
f -3//-3 -2//-2 -1//-1
v -1.382138e+01 -1.760666e+01 0.000000e+00
v -1.388124e+01 -1.756818e+01 0.000000e+00
v -1.398510e+01 -1.779559e+01 0.000000e+00
v -1.394952e+01 -1.754814e+01 0.000000e+00
v -1.402068e+01 -1.754814e+01 0.000000e+00
vn -0.000000 -0.000000 1.000000
vn -0.000000 -0.000000 1.000000
vn -0.000000 -0.000000 1.000000
vn -0.000000 -0.000000 1.000000
vn -0.000000 -0.000000 1.000000
f -5//-5 -4//-4 -3//-3
f -3//-3 -4//-4 -2//-2
f -3//-3 -2//-2 -1//-1
v -1.402068e+01 -1.754814e+01 0.000000e+00
v -1.408895e+01 -1.756818e+01 0.000000e+00
v -1.398510e+01 -1.779559e+01 0.000000e+00
v -1.414881e+01 -1.760666e+01 0.000000e+00
v -1.419541e+01 -1.766043e+01 0.000000e+00
vn -0.000000 -0.000000 1.000000
vn -0.000000 -0.000000 1.000000
vn -0.000000 -0.000000 1.000000
vn -0.000000 -0.000000 1.000000
vn -0.000000 -0.000000 1.000000
f -5//-5 -4//-4 -3//-3
f -3//-3 -4//-4 -2//-2
f -3//-3 -2//-2 -1//-1
v -1.419541e+01 -1.766043e+01 0.000000e+00
v -1.422497e+01 -1.772516e+01 0.000000e+00
v -1.398510e+01 -1.779559e+01 0.000000e+00
v -1.423510e+01 -1.779559e+01 0.000000e+00
v -1.422497e+01 -1.786603e+01 0.000000e+00
vn -0.000000 -0.000000 1.000000
vn -0.000000 -0.000000 1.000000
vn -0.000000 -0.000000 1.000000
vn -0.000000 -0.000000 1.000000
vn -0.000000 -0.000000 1.000000
f -5//-5 -4//-4 -3//-3
f -3//-3 -4//-4 -2//-2
f -3//-3 -2//-2 -1//-1
v -1.422497e+01 -1.786603e+01 0.000000e+00
v -1.419541e+01 -1.793075e+01 0.000000e+00
v -1.398510e+01 -1.779559e+01 0.000000e+00
v -1.414881e+01 -1.798453e+01 0.000000e+00
v -1.408895e+01 -1.802300e+01 0.000000e+00
vn -0.000000 -0.000000 1.000000
vn -0.000000 -0.000000 1.000000
vn -0.000000 -0.000000 1.000000
vn -0.000000 -0.000000 1.000000
vn -0.000000 -0.000000 1.000000
f -5//-5 -4//-4 -3//-3
f -3//-3 -4//-4 -2//-2
f -3//-3 -2//-2 -1//-1
v -1.408895e+01 -1.802300e+01 0.000000e+00
v -1.402068e+01 -1.804305e+01 0.000000e+00
v -1.398510e+01 -1.779559e+01 0.000000e+00
v -1.394952e+01 -1.804305e+01 0.000000e+00
v -1.388124e+01 -1.802300e+01 0.000000e+00
vn -0.000000 -0.000000 1.000000
vn -0.000000 -0.000000 1.000000
vn -0.000000 -0.000000 1.000000
vn -0.000000 -0.000000 1.000000
vn -0.000000 -0.000000 1.000000
f -5//-5 -4//-4 -3//-3
f -3//-3 -4//-4 -2//-2
f -3//-3 -2//-2 -1//-1
v -1.388124e+01 -1.802300e+01 0.000000e+00
v -1.382138e+01 -1.798453e+01 0.000000e+00
v -1.398510e+01 -1.779559e+01 0.000000e+00
v -1.377478e+01 -1.793075e+01 0.000000e+00
v -1.374522e+01 -1.786603e+01 0.000000e+00
vn -0.000000 -0.000000 1.000000
vn -0.000000 -0.000000 1.000000
vn -0.000000 -0.000000 1.000000
vn -0.000000 -0.000000 1.000000
vn -0.000000 -0.000000 1.000000
f -5//-5 -4//-4 -3//-3
f -3//-3 -4//-4 -2//-2
f -3//-3 -2//-2 -1//-1
v -1.398510e+01 -1.779559e+01 0.000000e+00
v -1.374522e+01 -1.786603e+01 0.000000e+00
v -1.373510e+01 -1.779559e+01 0.000000e+00
vn -0.000000 -0.000000 1.000000
vn -0.000000 -0.000000 1.000000
vn -0.000000 -0.000000 1.000000
f -3//-3 -2//-2 -1//-1
