#
mtllib sub_Slot_Microstrip.mtl
usemtl ff008000
v 1.286331e+02 1.715108e+02 0.000000e+00
v -1.286331e+02 1.715108e+02 0.000000e+00
v 1.286331e+02 -1.715108e+02 0.000000e+00
v -1.286331e+02 -1.715108e+02 0.000000e+00
vn 0.000000 0.000000 1.000000
vn 0.000000 0.000000 1.000000
vn 0.000000 0.000000 1.000000
vn 0.000000 0.000000 1.000000
f -4//-4 -3//-3 -2//-2
f -2//-2 -3//-3 -1//-1
v -1.286331e+02 -1.715108e+02 -1.574800e-01
v -1.286331e+02 1.715108e+02 -1.574800e-01
v 1.286331e+02 -1.715108e+02 -1.574800e-01
v 1.286331e+02 1.715108e+02 -1.574800e-01
vn -0.000000 -0.000000 -1.000000
vn -0.000000 -0.000000 -1.000000
vn -0.000000 -0.000000 -1.000000
vn -0.000000 -0.000000 -1.000000
f -4//-4 -3//-3 -2//-2
f -2//-2 -3//-3 -1//-1
v -1.286331e+02 -1.715108e+02 0.000000e+00
v -1.286331e+02 -1.715108e+02 -1.574800e-01
v 1.286331e+02 -1.715108e+02 0.000000e+00
v 1.286331e+02 -1.715108e+02 -1.574800e-01
vn -0.000000 -1.000000 -0.000000
vn -0.000000 -1.000000 -0.000000
vn -0.000000 -1.000000 -0.000000
vn -0.000000 -1.000000 -0.000000
f -4//-4 -3//-3 -2//-2
f -2//-2 -3//-3 -1//-1
v -1.286331e+02 1.715108e+02 0.000000e+00
v -1.286331e+02 1.715108e+02 -1.574800e-01
v -1.286331e+02 -1.715108e+02 0.000000e+00
v -1.286331e+02 -1.715108e+02 -1.574800e-01
vn -1.000000 -0.000000 -0.000000
vn -1.000000 -0.000000 -0.000000
vn -1.000000 -0.000000 -0.000000
vn -1.000000 -0.000000 -0.000000
f -4//-4 -3//-3 -2//-2
f -2//-2 -3//-3 -1//-1
v 1.286331e+02 1.715108e+02 0.000000e+00
v 1.286331e+02 1.715108e+02 -1.574800e-01
v -1.286331e+02 1.715108e+02 0.000000e+00
v -1.286331e+02 1.715108e+02 -1.574800e-01
vn 0.000000 1.000000 0.000000
vn 0.000000 1.000000 0.000000
vn 0.000000 1.000000 0.000000
vn 0.000000 1.000000 0.000000
f -4//-4 -3//-3 -2//-2
f -2//-2 -3//-3 -1//-1
v 1.286331e+02 1.715108e+02 0.000000e+00
v 1.286331e+02 -1.715108e+02 0.000000e+00
v 1.286331e+02 1.715108e+02 -1.574800e-01
v 1.286331e+02 -1.715108e+02 -1.574800e-01
vn 1.000000 0.000000 0.000000
vn 1.000000 0.000000 0.000000
vn 1.000000 0.000000 0.000000
vn 1.000000 0.000000 0.000000
f -4//-4 -3//-3 -2//-2
f -2//-2 -3//-3 -1//-1
